<?xml version="1.0" encoding="UTF-8" standalone="no"?>
<svg
   viewBox="0 0 500 500"
   version="1.1"
   id="svg223"
   sodipodi:docname="Alzheimer.svg"
   inkscape:version="1.3.2 (091e20ef0f, 2023-11-25, custom)"
   xmlns:inkscape="http://www.inkscape.org/namespaces/inkscape"
   xmlns:sodipodi="http://sodipodi.sourceforge.net/DTD/sodipodi-0.dtd"
   xmlns="http://www.w3.org/2000/svg"
   xmlns:svg="http://www.w3.org/2000/svg">
  <defs
     id="defs223" />
  <sodipodi:namedview
     id="namedview223"
     pagecolor="#ffffff"
     bordercolor="#000000"
     borderopacity="0.25"
     inkscape:showpageshadow="2"
     inkscape:pageopacity="0.0"
     inkscape:pagecheckerboard="0"
     inkscape:deskcolor="#d1d1d1"
     inkscape:zoom="0.906"
     inkscape:cx="238.4106"
     inkscape:cy="233.44371"
     inkscape:window-width="1680"
     inkscape:window-height="700"
     inkscape:window-x="0"
     inkscape:window-y="0"
     inkscape:window-maximized="0"
     inkscape:current-layer="freepik--character--inject-214" />
  <ellipse
     id="freepik--floor--inject-214"
     cx="250"
     cy="350.19"
     rx="243.71001"
     ry="135.5"
     style="fill:#f5f5f5" />
  <g
     id="g13">
    <g
       id="freepik--window--inject-214">
      <g
         id="freepik--Frame--inject-214">
        <polygon
           points="162.85,157.61 159.99,156.01 159.99,30.33 162.85,31.93 "
           style="fill:#fafafa"
           id="polygon1" />
        <polygon
           points="45.06,99.94 45.08,222.36 159.99,156.01 159.99,33.59 "
           style="fill:#ffffff"
           id="polygon2" />
        <path
           d="m 168.17,160.68 v -138 L 39.74,96.87 v 138 z M 45.06,225.62 V 99.94 l 117.79,-68 v 125.67 z"
           style="fill:#f0f0f0"
           id="path2" />
        <polygon
           points="45.08,222.36 45.06,225.62 162.85,157.61 159.99,156.01 "
           style="fill:#e0e0e0"
           id="polygon3" />
        <polygon
           points="133.63,174.48 130.77,172.88 130.77,50.45 133.63,48.8 "
           style="fill:#fafafa"
           id="polygon4" />
        <polygon
           points="69.07,211.75 66.21,210.16 66.21,87.73 69.07,86.07 "
           style="fill:#fafafa"
           id="polygon5" />
        <polygon
           points="36.9,95.21 39.74,96.87 39.75,234.82 36.9,233.17 "
           style="fill:#e0e0e0"
           id="polygon6" />
        <polygon
           points="168.17,22.73 165.32,21.07 36.9,95.21 39.74,96.87 "
           style="fill:#fafafa"
           id="polygon7" />
        <polygon
           points="162.86,92.52 160.02,90.86 45.06,157.23 45.06,160.53 "
           style="fill:#e0e0e0"
           id="polygon8" />
      </g>
      <polygon
         points="162.86,92.52 162.85,98.66 45.07,166.66 45.06,160.53 "
         style="fill:#f0f0f0"
         id="polygon9" />
      <polygon
         points="74.38,76.87 69.08,79.94 69.08,217.89 74.38,214.83 "
         style="fill:#f0f0f0"
         id="polygon10" />
      <polygon
         points="138.93,39.61 133.62,42.67 133.62,180.62 138.93,177.56 "
         style="fill:#f0f0f0"
         id="polygon11" />
      <polygon
         points="66.21,87.73 69.07,86.07 69.07,146.67 66.21,145.02 "
         style="fill:#fafafa"
         id="polygon12" />
      <polygon
         points="130.74,50.47 133.61,48.81 133.61,109.41 130.74,107.76 "
         style="fill:#fafafa"
         id="polygon13" />
    </g>
  </g>
  <g
     id="freepik--Shelf--inject-214">
    <polygon
       points="466.69,184.54 466.69,187.48 439.95,202.92 354.65,153.69 354.65,150.76 381.39,135.32 "
       style="fill:#ebebeb"
       id="polygon14" />
    <polygon
       points="381.39,135.32 466.69,184.54 439.95,199.98 354.65,150.76 "
       style="fill:#fafafa"
       id="polygon15" />
    <polygon
       points="466.69,187.48 466.69,184.54 439.95,199.98 439.95,202.92 "
       style="fill:#e6e6e6"
       id="polygon16" />
    <polygon
       points="361.99,150.29 377.68,141.23 377.68,111.39 361.99,120.45 "
       style="fill:#e0e0e0"
       id="polygon17" />
    <path
       d="m 362.49,121 15.19,-8.72 a 6.32,6.32 0 0 0 3.47,1.9 l -15.06,8.68 a 15.4,15.4 0 0 1 -3.6,-1.86 z"
       style="fill:#ffffff"
       id="path17" />
    <path
       d="m 367.55,122.75 a 3.2,3.2 0 0 1 -2.92,0 l -2.55,-1.46 c -0.81,-0.47 -0.81,-1.22 0,-1.68 L 377,111 l 0.64,0.37 -14.64,8.52 c -0.49,0.27 -0.49,0.72 0,1 l 2.37,1.35 a 2,2 0 0 0 1.76,0 l 14.71,-8.49 0.72,0.42 z"
       style="fill:#fafafa"
       id="path18" />
    <path
       d="M 382.51,114.17 V 144 l -15,8.59 a 3.26,3.26 0 0 1 -2.92,0 l -2.55,-1.47 a 1,1 0 0 1 -0.61,-0.84 v -29.83 a 1.05,1.05 0 0 0 0.61,0.84 l 2.55,1.47 a 3.26,3.26 0 0 0 2.92,0 z"
       style="fill:#e0e0e0"
       id="path19" />
    <path
       d="m 366.09,123.1 a 3,3 0 0 1 -1.46,-0.34 l -2.55,-1.47 a 1.05,1.05 0 0 1 -0.61,-0.84 v 29.84 a 1,1 0 0 0 0.61,0.84 l 2.55,1.47 a 3,3 0 0 0 1.46,0.34 z"
       style="fill:#f0f0f0"
       id="path20" />
    <polygon
       points="368.4,153.98 384.09,144.92 384.09,115.07 368.4,124.13 "
       style="fill:#ebebeb"
       id="polygon20" />
    <path
       d="m 368.91,124.63 15.18,-8.72 a 6.32,6.32 0 0 0 3.47,1.9 l -15.05,8.68 a 15.4,15.4 0 0 1 -3.6,-1.86 z"
       style="fill:#ffffff"
       id="path21" />
    <path
       d="m 374,126.44 a 3.26,3.26 0 0 1 -2.92,0 L 368.49,125 a 0.88,0.88 0 0 1 0,-1.67 l 15,-8.59 0.63,0.36 -14.72,8.5 c -0.48,0.28 -0.48,0.73 0,1 l 2.38,1.35 a 1.93,1.93 0 0 0 1.75,0 l 14.71,-8.48 0.72,0.41 z"
       style="fill:#fafafa"
       id="path22" />
    <path
       d="m 388.93,117.85 v 29.84 l -15,8.59 a 3.26,3.26 0 0 1 -2.92,0 l -2.56,-1.47 a 1,1 0 0 1 -0.6,-0.83 v -29.85 a 1,1 0 0 0 0.6,0.84 l 2.56,1.47 a 3.26,3.26 0 0 0 2.92,0 z"
       style="fill:#e0e0e0"
       id="path23" />
    <path
       d="m 372.51,126.79 a 3,3 0 0 1 -1.46,-0.35 L 368.49,125 a 1,1 0 0 1 -0.6,-0.84 V 154 a 1,1 0 0 0 0.6,0.83 l 2.56,1.47 a 3,3 0 0 0 1.46,0.35 z"
       style="fill:#f0f0f0"
       id="path24" />
    <polygon
       points="383.99,162.81 399.68,153.75 394.8,123 379.12,132.06 "
       style="fill:#ebebeb"
       id="polygon24" />
    <path
       d="m 379.74,132.49 15.19,-8.71 a 8.34,8.34 0 0 0 4,1.57 L 383.91,134 a 19.86,19.86 0 0 1 -4.17,-1.51 z"
       style="fill:#ffffff"
       id="path25" />
    <path
       d="m 385.48,133.9 a 4.06,4.06 0 0 1 -3.16,0.15 l -3,-1.22 c -0.95,-0.39 -1,-1.07 -0.25,-1.54 l 15,-8.59 0.74,0.3 -14.71,8.5 c -0.49,0.28 -0.42,0.69 0.14,0.92 l 2.78,1.12 a 2.42,2.42 0 0 0 1.89,-0.09 l 14.71,-8.45 0.84,0.34 z"
       style="fill:#fafafa"
       id="path26" />
    <path
       d="m 400.45,125.31 4.88,30.75 -15,8.59 a 4.08,4.08 0 0 1 -3.17,0.14 l -3,-1.22 c -0.47,-0.19 -0.73,-0.45 -0.78,-0.73 l -4.87,-30.75 c 0,0.28 0.31,0.54 0.77,0.74 l 3,1.22 a 4.1,4.1 0 0 0 3.16,-0.14 z"
       style="fill:#e0e0e0"
       id="path27" />
    <path
       d="m 384,134.29 a 3.94,3.94 0 0 1 -1.63,-0.24 l -3,-1.22 c -0.46,-0.2 -0.73,-0.46 -0.77,-0.74 l 4.87,30.75 c 0.05,0.28 0.31,0.54 0.78,0.73 l 3,1.22 a 4.13,4.13 0 0 0 1.64,0.25 z"
       style="fill:#f0f0f0"
       id="path28" />
    <polygon
       points="394.72,170.02 410.41,160.96 410.41,131.11 394.72,140.18 "
       style="fill:#e0e0e0"
       id="polygon28" />
    <path
       d="M 395.23,140.67 410.41,132 a 6.44,6.44 0 0 0 3.47,1.9 l -15.05,8.67 a 14.84,14.84 0 0 1 -3.6,-1.9 z"
       style="fill:#ffffff"
       id="path29" />
    <path
       d="m 400.29,142.48 a 3.26,3.26 0 0 1 -2.92,0 L 394.81,141 a 0.88,0.88 0 0 1 0,-1.67 l 15,-8.59 0.63,0.36 -14.72,8.5 c -0.48,0.28 -0.48,0.73 0,1 l 2.37,1.34 a 1.93,1.93 0 0 0 1.75,0 l 14.71,-8.48 0.72,0.41 z"
       style="fill:#fafafa"
       id="path30" />
    <path
       d="m 415.25,133.89 v 29.85 l -15,8.58 a 3.2,3.2 0 0 1 -2.92,0 l -2.56,-1.46 a 1,1 0 0 1 -0.6,-0.84 v -29.85 a 1,1 0 0 0 0.6,0.84 l 2.56,1.47 a 3.26,3.26 0 0 0 2.92,0 z"
       style="fill:#e0e0e0"
       id="path31" />
    <path
       d="m 398.83,142.83 a 3,3 0 0 1 -1.46,-0.35 L 394.81,141 a 1,1 0 0 1 -0.6,-0.84 V 170 a 1,1 0 0 0 0.6,0.84 l 2.56,1.46 a 2.9,2.9 0 0 0 1.46,0.35 z"
       style="fill:#f0f0f0"
       id="path32" />
    <polygon
       points="401.14,173.71 416.83,164.64 416.83,134.8 401.14,143.86 "
       style="fill:#ebebeb"
       id="polygon32" />
    <path
       d="m 401.64,144.35 15.19,-8.71 a 6.32,6.32 0 0 0 3.47,1.9 l -15.05,8.68 a 15.18,15.18 0 0 1 -3.61,-1.87 z"
       style="fill:#ffffff"
       id="path33" />
    <path
       d="m 406.7,146.16 a 3.18,3.18 0 0 1 -2.91,0 l -2.56,-1.46 c -0.81,-0.47 -0.81,-1.22 0,-1.68 l 15,-8.59 0.64,0.37 -14.72,8.5 c -0.48,0.27 -0.48,0.72 0,1 l 2.38,1.35 a 2,2 0 0 0 1.75,0 l 14.72,-8.49 0.72,0.42 z"
       style="fill:#fafafa"
       id="path34" />
    <path
       d="m 421.67,137.57 v 29.85 l -15,8.59 a 3.24,3.24 0 0 1 -2.91,0 l -2.56,-1.47 a 1,1 0 0 1 -0.6,-0.84 v -29.84 a 1,1 0 0 0 0.6,0.83 l 2.56,1.48 a 3.24,3.24 0 0 0 2.91,0 z"
       style="fill:#e0e0e0"
       id="path35" />
    <path
       d="m 405.25,146.51 a 3,3 0 0 1 -1.46,-0.34 l -2.56,-1.48 a 1,1 0 0 1 -0.6,-0.83 v 29.84 a 1,1 0 0 0 0.6,0.84 l 2.56,1.47 a 3,3 0 0 0 1.46,0.34 z"
       style="fill:#f0f0f0"
       id="path36" />
    <polygon
       points="416.73,182.54 432.41,173.48 427.54,142.73 411.85,151.79 "
       style="fill:#ebebeb"
       id="polygon36" />
    <path
       d="m 412.47,152.22 15.19,-8.72 a 8.34,8.34 0 0 0 4,1.57 l -15.05,8.68 a 20,20 0 0 1 -4.14,-1.53 z"
       style="fill:#ffffff"
       id="path37" />
    <path
       d="m 418.22,153.63 a 4.06,4.06 0 0 1 -3.16,0.14 l -3,-1.22 c -0.94,-0.38 -1.05,-1.07 -0.24,-1.53 l 15,-8.59 0.74,0.3 -14.72,8.5 c -0.48,0.28 -0.41,0.69 0.15,0.92 l 2.77,1.12 a 2.44,2.44 0 0 0 1.9,-0.09 l 14.71,-8.48 0.84,0.34 z"
       style="fill:#fafafa"
       id="path38" />
    <path
       d="m 433.19,145 4.87,30.75 -15,8.59 a 4.1,4.1 0 0 1 -3.16,0.14 l -3,-1.22 c -0.46,-0.19 -0.73,-0.46 -0.77,-0.74 l -4.87,-30.75 c 0,0.28 0.3,0.55 0.77,0.74 l 3,1.22 a 4.06,4.06 0 0 0 3.16,-0.14 z"
       style="fill:#e0e0e0"
       id="path39" />
    <path
       d="m 416.69,154 a 3.78,3.78 0 0 1 -1.63,-0.25 l -3,-1.22 c -0.47,-0.19 -0.73,-0.46 -0.77,-0.74 l 4.87,30.75 c 0,0.28 0.31,0.55 0.77,0.74 l 3,1.22 a 4.11,4.11 0 0 0 1.63,0.25 z"
       style="fill:#f0f0f0"
       id="path40" />
    <g
       id="freepik--Pot--inject-214">
      <path
         id="freepik--Shadow--inject-214"
         d="m 438.88,181.66 c -3.69,2.14 -3.69,5.59 0,7.72 a 14.79,14.79 0 0 0 13.37,0 c 3.69,-2.13 3.69,-5.58 0,-7.72 a 14.79,14.79 0 0 0 -13.37,0 z"
         style="opacity:0.05" />
      <path
         d="m 451.58,187 c 3.21,-3.28 5.1,-11.47 2,-14.07 h -16 c -3.13,2.6 -1.25,10.78 2,14.07 l 0.09,0.09 a 0.57,0.57 0 0 1 0.11,0.11 l 0.29,0.25 0.08,0.06 0.24,0.19 a 4.78,4.78 0 0 0 0.42,0.26 10.55,10.55 0 0 0 9.57,0 v 0 l 0.41,-0.26 0.23,-0.18 0.09,-0.07 a 2.26,2.26 0 0 0 0.28,-0.25 l 0.13,-0.12 z"
         style="fill:#f5f5f5"
         id="path41" />
      <path
         d="m 439,171.72 c -3.64,2.1 -3.64,5.51 0,7.61 a 14.57,14.57 0 0 0 13.18,0 c 3.64,-2.1 3.64,-5.51 0,-7.61 a 14.57,14.57 0 0 0 -13.18,0 z"
         style="fill:#ffffff"
         id="path42" />
      <path
         d="m 441.56,173.21 c -2.22,1.28 -2.22,3.35 0,4.63 a 8.86,8.86 0 0 0 8,0 c 2.21,-1.28 2.21,-3.35 0,-4.63 a 8.86,8.86 0 0 0 -8,0 z"
         style="fill:#ebebeb"
         id="path43" />
      <path
         d="m 449.58,175.41 a 8.86,8.86 0 0 0 -8,0 3.6,3.6 0 0 0 -1.33,1.21 3.54,3.54 0 0 0 1.33,1.22 8.86,8.86 0 0 0 8,0 3.58,3.58 0 0 0 1.32,-1.22 3.64,3.64 0 0 0 -1.32,-1.21 z"
         style="fill:#e0e0e0"
         id="path44" />
      <path
         d="m 442.05,176.62 a 17.87,17.87 0 0 1 -2.91,-3.85 c -1.33,-2.37 -1.58,-5.54 -0.89,-5.94 0.69,-0.4 3.51,2.78 3.51,2.78 a 17.67,17.67 0 0 1 -0.3,-4.05 c 0.12,-2.11 0.64,-4 1.24,-4.41 0.6,-0.41 2,2.28 2.54,4.2 0.54,1.92 0.92,3.52 0.92,3.52 a 30.35,30.35 0 0 1 1,-4.44 c 0.71,-2 1.34,-2.45 1.84,-2.26 0.5,0.19 0.82,1.14 1,3.8 a 26.61,26.61 0 0 1 -0.12,3.82 c 0,0 1,-1.09 2.1,-2.15 1.1,-1.06 1.73,-1.33 2.08,-1.11 0.35,0.22 0.44,2 -1.44,5.43 a 18.64,18.64 0 0 1 -3.54,4.66 c 0,0 -2.6,1.68 -7.03,0 z"
         style="fill:#ebebeb"
         id="path45" />
    </g>
  </g>
  <g
     id="freepik--shelf--inject-214">
    <polygon
       points="466.69,126.62 466.69,129.56 439.95,145 354.65,95.77 354.65,92.84 381.39,77.4 "
       style="fill:#ebebeb"
       id="polygon45" />
    <polygon
       points="381.39,77.4 466.69,126.62 439.95,142.06 354.65,92.84 "
       style="fill:#fafafa"
       id="polygon46" />
    <polygon
       points="466.69,129.56 466.69,126.62 439.95,142.06 439.95,145 "
       style="fill:#e6e6e6"
       id="polygon47" />
    <polygon
       points="362.62,93.62 379.96,83.61 379.96,50.62 362.62,60.63 "
       style="fill:#e0e0e0"
       id="polygon48" />
    <path
       d="M 363.18,61.18 380,51.55 a 7.08,7.08 0 0 0 3.84,2.1 l -16.64,9.59 a 16.8,16.8 0 0 1 -4.02,-2.06 z"
       style="fill:#ffffff"
       id="path48" />
    <path
       d="m 368.77,63.18 a 3.58,3.58 0 0 1 -3.22,0 l -2.83,-1.62 a 1,1 0 0 1 0,-1.85 l 16.54,-9.49 0.7,0.4 L 363.7,60 c -0.54,0.31 -0.54,0.8 0,1.11 l 2.62,1.49 a 2.17,2.17 0 0 0 1.94,0 l 16.26,-9.38 0.79,0.46 z"
       style="fill:#fafafa"
       id="path49" />
    <path
       d="m 385.31,53.69 v 33 l -16.54,9.5 a 3.58,3.58 0 0 1 -3.22,0 l -2.83,-1.63 a 1.11,1.11 0 0 1 -0.66,-0.92 v -33 a 1.13,1.13 0 0 0 0.66,0.93 l 2.83,1.62 a 3.58,3.58 0 0 0 3.22,0 z"
       style="fill:#e0e0e0"
       id="path50" />
    <path
       d="m 367.16,63.56 a 3.25,3.25 0 0 1 -1.61,-0.38 l -2.83,-1.62 a 1.13,1.13 0 0 1 -0.66,-0.93 v 33 a 1.11,1.11 0 0 0 0.66,0.92 l 2.83,1.63 a 3.36,3.36 0 0 0 1.61,0.38 z"
       style="fill:#f0f0f0"
       id="path51" />
    <polygon
       points="369.71,97.69 387.05,87.68 387.05,54.69 369.71,64.7 "
       style="fill:#ebebeb"
       id="polygon51" />
    <path
       d="m 370.27,65.25 16.78,-9.63 a 7.08,7.08 0 0 0 3.84,2.1 l -16.64,9.59 a 16.8,16.8 0 0 1 -3.98,-2.06 z"
       style="fill:#ffffff"
       id="path52" />
    <path
       d="m 375.86,67.25 a 3.58,3.58 0 0 1 -3.22,0 l -2.83,-1.62 a 1,1 0 0 1 0,-1.85 l 16.54,-9.49 0.7,0.4 -16.26,9.39 c -0.54,0.31 -0.54,0.8 0,1.11 l 2.62,1.49 a 2.14,2.14 0 0 0 1.94,0 l 16.26,-9.38 0.79,0.46 z"
       style="fill:#fafafa"
       id="path53" />
    <path
       d="m 392.4,57.76 v 33 l -16.54,9.49 a 3.58,3.58 0 0 1 -3.22,0 l -2.83,-1.62 a 1.13,1.13 0 0 1 -0.66,-0.93 v -33 a 1.13,1.13 0 0 0 0.66,0.93 l 2.83,1.62 a 3.58,3.58 0 0 0 3.22,0 z"
       style="fill:#e0e0e0"
       id="path54" />
    <path
       d="m 374.25,67.64 a 3.25,3.25 0 0 1 -1.61,-0.39 l -2.83,-1.62 a 1.13,1.13 0 0 1 -0.66,-0.93 v 33 a 1.13,1.13 0 0 0 0.66,0.93 l 2.83,1.62 a 3.36,3.36 0 0 0 1.61,0.38 z"
       style="fill:#f0f0f0"
       id="path55" />
    <polygon
       points="386.94,107.45 404.28,97.44 398.89,63.45 381.56,73.47 "
       style="fill:#ebebeb"
       id="polygon55" />
    <path
       d="M 382.24,73.94 399,64.31 a 9.14,9.14 0 0 0 4.5,1.69 l -16.65,9.59 a 21.54,21.54 0 0 1 -4.61,-1.65 z"
       style="fill:#ffffff"
       id="path56" />
    <path
       d="m 388.59,75.5 a 4.52,4.52 0 0 1 -3.49,0.16 l -3.3,-1.35 c -1,-0.42 -1.16,-1.18 -0.27,-1.69 l 16.55,-9.5 0.81,0.33 -16.26,9.4 c -0.54,0.3 -0.46,0.76 0.16,1 l 3.06,1.24 A 2.76,2.76 0 0 0 388,75 l 16.27,-9.38 0.92,0.38 z"
       style="fill:#fafafa"
       id="path57" />
    <path
       d="m 405.14,66 5.39,34 -16.53,9.49 a 4.5,4.5 0 0 1 -3.5,0.15 l -3.3,-1.34 c -0.51,-0.22 -0.81,-0.51 -0.85,-0.82 l -5.39,-34 c 0.05,0.3 0.34,0.6 0.86,0.81 l 3.3,1.35 a 4.43,4.43 0 0 0 3.49,-0.16 z"
       style="fill:#e0e0e0"
       id="path58" />
    <path
       d="m 386.9,75.93 a 4.4,4.4 0 0 1 -1.8,-0.27 l -3.3,-1.35 c -0.52,-0.21 -0.81,-0.51 -0.86,-0.81 l 5.39,34 c 0,0.31 0.34,0.6 0.85,0.82 l 3.3,1.34 a 4.42,4.42 0 0 0 1.81,0.28 z"
       style="fill:#f0f0f0"
       id="path59" />
    <g
       id="freepik--Picture--inject-214">
      <g
         id="freepik--frame--inject-214">
        <polygon
           points="403.73,112.64 404.96,112.05 427.71,125.19 426.48,125.78 "
           style="fill:#fafafa"
           id="polygon59" />
        <polygon
           points="429.75,92.17 408.1,79.69 404.96,112.05 426.6,124.55 "
           style="fill:#ffffff"
           id="polygon60" />
        <path
           d="m 401.41,113.72 26.94,15.56 3.71,-38.18 -26.93,-15.56 z M 407,79 l 22.75,13.13 -3.27,33.61 -22.75,-13.13 z"
           style="fill:#f0f0f0"
           id="path60" />
        <polygon
           points="408.1,79.69 407,79.04 403.73,112.64 404.96,112.05 "
           style="fill:#e0e0e0"
           id="polygon61" />
        <polygon
           points="433.31,90.52 432.06,91.09 405.13,75.54 406.37,74.97 "
           style="fill:#fafafa"
           id="polygon62" />
        <polygon
           points="428.35,129.28 429.59,128.7 433.31,90.52 432.06,91.09 "
           style="fill:#e0e0e0"
           id="polygon63" />
      </g>
      <g
         id="freepik--Land--inject-214">
        <polygon
           points="426.39,117.5 422.68,101.48 419.14,106.95 419.88,111.56 413.98,94.56 406.44,105.98 405.91,111.44 425.86,122.96 "
           style="fill:#f0f0f0"
           id="polygon64" />
        <path
           d="m 423,94.74 a 2.83,2.83 0 0 1 1.32,2.46 c -0.09,0.89 -0.82,1.24 -1.64,0.76 a 2.83,2.83 0 0 1 -1.32,-2.46 c 0.08,-0.89 0.81,-1.23 1.64,-0.76 z"
           style="fill:#f0f0f0"
           id="path64" />
      </g>
    </g>
    <g
       id="freepik--pot--inject-214">
      <path
         id="freepik--shadow--inject-214"
         d="m 438.91,122.94 c -3.69,2.13 -3.69,5.59 0,7.72 a 14.77,14.77 0 0 0 13.36,0 c 3.69,-2.13 3.69,-5.59 0,-7.72 a 14.79,14.79 0 0 0 -13.36,0 z"
         style="opacity:0.05" />
      <path
         d="m 451.61,128.32 c 3.21,-3.28 5.1,-11.47 2,-14.08 h -16 c -3.13,2.61 -1.25,10.79 2,14.07 l 0.08,0.09 0.11,0.11 a 3.73,3.73 0 0 0 0.3,0.26 l 0.07,0.06 0.25,0.18 a 3.62,3.62 0 0 0 0.41,0.27 10.57,10.57 0 0 0 9.58,0 v 0 a 4.94,4.94 0 0 0 0.42,-0.27 1.84,1.84 0 0 0 0.22,-0.17 l 0.1,-0.07 0.28,-0.25 0.12,-0.13 z"
         style="fill:#f5f5f5"
         id="path65" />
      <path
         d="m 439,113 c -3.64,2.1 -3.64,5.51 0,7.61 a 14.57,14.57 0 0 0 13.18,0 c 3.64,-2.1 3.64,-5.51 0,-7.61 A 14.57,14.57 0 0 0 439,113 Z"
         style="fill:#ffffff"
         id="path66" />
      <path
         d="m 441.59,114.49 c -2.22,1.28 -2.22,3.35 0,4.63 a 8.86,8.86 0 0 0 8,0 c 2.21,-1.28 2.21,-3.35 0,-4.63 a 8.86,8.86 0 0 0 -8,0 z"
         style="fill:#ebebeb"
         id="path67" />
      <path
         d="m 449.61,116.68 a 8.92,8.92 0 0 0 -8,0 3.79,3.79 0 0 0 -1.33,1.22 3.79,3.79 0 0 0 1.33,1.22 8.86,8.86 0 0 0 8,0 3.88,3.88 0 0 0 1.33,-1.22 3.88,3.88 0 0 0 -1.33,-1.22 z"
         style="fill:#e0e0e0"
         id="path68" />
      <path
         d="m 442.08,117.9 a 18.27,18.27 0 0 1 -2.9,-3.86 c -1.34,-2.36 -1.59,-5.54 -0.9,-5.93 0.69,-0.39 3.51,2.77 3.51,2.77 a 17.22,17.22 0 0 1 -0.29,-4 c 0.12,-2.11 0.63,-4 1.23,-4.41 0.6,-0.41 2,2.27 2.54,4.2 0.54,1.93 0.93,3.52 0.93,3.52 a 29.72,29.72 0 0 1 1,-4.44 c 0.71,-2 1.35,-2.46 1.84,-2.26 0.49,0.2 0.82,1.13 1,3.8 a 26.61,26.61 0 0 1 -0.12,3.82 c 0,0 1,-1.1 2.09,-2.16 1.09,-1.06 1.73,-1.32 2.08,-1.1 0.35,0.22 0.44,2 -1.43,5.43 a 19,19 0 0 1 -3.55,4.66 c 0,0 -2.59,1.64 -7.03,-0.04 z"
         style="fill:#ebebeb"
         id="path69" />
    </g>
  </g>
  <path
     id="path70"
     d="m 72.56,354.74 c 12.23,7.56 12.23,19.81 0,27.37 -12.23,7.56 -32.06,7.56 -44.29,0 -12.23,-7.56 -12.23,-19.81 0,-27.37 12.23,-7.56 32.06,-7.55 44.29,0 z"
     style="fill:#e0e0e0" />
  <path
     id="path71"
     d="m 484.36,348.05 -81.77,-47.2 a 6,6 0 0 0 -5.43,0 l -109.25,63.08 c -1.5,0.86 -1.5,2.27 0,3.14 l 81.77,47.19 a 6,6 0 0 0 5.43,0 l 109.25,-63.07 c 1.5,-0.87 1.5,-2.27 0,-3.14 z"
     style="fill:#e0e0e0" />
  <polygon
     id="polygon71"
     points="348.44,311.02 279.03,351.07 216.6,315.02 286,274.97 "
     style="fill:#e0e0e0" />
  <ellipse
     id="ellipse71"
     cx="257.70001"
     cy="417.73001"
     rx="77.57"
     ry="44.790001"
     style="fill:#e0e0e0" />
  <ellipse
     id="ellipse72"
     cx="138.92999"
     cy="404.62"
     rx="77.57"
     ry="44.790001"
     style="fill:#e0e0e0" />
  <g
     id="freepik--lamp--inject-214">
    <path
       d="m 67.1,354.83 c 9.22,5.32 9.22,13.95 0,19.27 -9.22,5.32 -24.16,5.32 -33.38,0 -9.22,-5.32 -9.21,-14 0,-19.27 9.21,-5.27 24.17,-5.32 33.38,0 z"
       style="fill:#37474f"
       id="path72" />
    <path
       d="m 26.81,364.46 v 0 c 0,-3.48 2.28,-7 6.89,-9.63 9.22,-5.32 24.17,-5.32 33.38,0 4.61,2.66 6.9,6.15 6.89,9.63 v 0 3.26 0 c -0.06,3.45 -2.37,6.88 -6.92,9.5 -9.21,5.33 -24.16,5.33 -33.38,0 -4.55,-2.62 -6.85,-6.05 -6.91,-9.5 v 0 z"
       style="fill:#37474f"
       id="path73" />
    <path
       d="m 67.1,354.83 c 9.22,5.32 9.22,13.95 0,19.27 -9.22,5.32 -24.16,5.32 -33.38,0 -9.22,-5.32 -9.21,-14 0,-19.27 9.21,-5.27 24.17,-5.32 33.38,0 z"
       style="fill:#455a64"
       id="path74" />
    <path
       d="M 47.87,166.35 H 53 v 196.59 0 a 1.18,1.18 0 0 1 -0.72,1.16 3.92,3.92 0 0 1 -3.59,0 1.19,1.19 0 0 1 -0.73,-1.16 v 0 z"
       style="fill:#37474f"
       id="path75" />
    <path
       d="m 22.17,159.39 v 0 l 8.94,-33.33 h 38.62 l 9,33.33 v 0 c 1.9,5.3 -0.71,11 -7.84,15.16 -11.27,6.5 -29.54,6.5 -40.81,0 -7.21,-4.12 -9.81,-9.86 -7.91,-15.16 z"
       style="fill:#407bff"
       id="path76" />
    <path
       d="m 22.17,159.39 v 0 l 8.94,-33.33 h 38.62 l 9,33.33 v 0 c 1.9,5.3 -0.71,11 -7.84,15.16 -11.27,6.5 -29.54,6.5 -40.81,0 -7.21,-4.12 -9.81,-9.86 -7.91,-15.16 z"
       style="opacity:0.5;fill:#ffffff"
       id="path77" />
    <path
       d="m 64.16,135.28 c -7.59,4.38 -19.9,4.38 -27.5,0 -7.6,-4.38 -7.59,-11.5 0,-15.88 7.59,-4.38 19.91,-4.39 27.5,0 7.59,4.39 7.6,11.49 0,15.88 z"
       style="fill:#407bff"
       id="path78" />
    <path
       d="m 64.16,135.28 c -7.59,4.38 -19.9,4.38 -27.5,0 -7.6,-4.38 -7.59,-11.5 0,-15.88 7.59,-4.38 19.91,-4.39 27.5,0 7.59,4.39 7.6,11.49 0,15.88 z"
       style="opacity:0.65;fill:#ffffff"
       id="path79" />
    <path
       d="M 50.41,135.81 A 24.23,24.23 0 0 0 62.33,133 c 2.78,-1.6 4.31,-3.6 4.31,-5.64 0,-2.04 -1.53,-4 -4.31,-5.65 a 24.23,24.23 0 0 0 -11.92,-2.82 24.22,24.22 0 0 0 -11.91,2.82 c -2.78,1.6 -4.31,3.61 -4.31,5.65 0,2.04 1.53,4 4.31,5.64 a 24.22,24.22 0 0 0 11.91,2.81 z"
       style="fill:#407bff"
       id="path80" />
    <path
       d="M 50.41,135.81 A 24.23,24.23 0 0 0 62.33,133 c 2.78,-1.6 4.31,-3.6 4.31,-5.64 0,-2.04 -1.53,-4 -4.31,-5.65 a 24.23,24.23 0 0 0 -11.92,-2.82 24.22,24.22 0 0 0 -11.91,2.82 c -2.78,1.6 -4.31,3.61 -4.31,5.65 0,2.04 1.53,4 4.31,5.64 a 24.22,24.22 0 0 0 11.91,2.81 z"
       style="opacity:0.5;fill:#ffffff"
       id="path81" />
  </g>
  <g
     id="g95">
    <g
       id="freepik--side-table--inject-214">
      <polygon
         points="233.28,310.55 233.28,317.95 241.82,313.02 "
         style="fill:#407bff"
         id="polygon81" />
      <polygon
         points="233.28,310.55 233.28,317.95 241.82,313.02 "
         style="opacity:0.2"
         id="polygon82" />
      <polygon
         points="229.01,308.09 233.28,310.55 233.28,317.95 229.01,315.48 "
         style="fill:#407bff"
         id="polygon83" />
      <polygon
         points="337.85,307.46 337.85,299.6 276.06,335.25 276.06,343.11 "
         style="fill:#407bff"
         id="polygon84" />
      <polygon
         points="337.85,307.46 337.85,299.6 276.06,335.25 276.06,343.11 "
         style="opacity:0.2"
         id="polygon85" />
      <polygon
         points="271.79,332.79 276.06,335.25 276.06,343.11 271.79,340.65 "
         style="fill:#407bff"
         id="polygon86" />
      <polygon
         points="280.33,337.72 342.12,302.06 342.12,237.96 280.33,273.62 "
         style="fill:#407bff"
         id="polygon87" />
      <polygon
         points="224.74,305.62 280.33,337.72 280.33,273.62 224.74,241.52 "
         style="fill:#407bff"
         id="polygon88" />
      <polygon
         points="224.74,305.62 280.33,337.72 280.33,273.62 224.74,241.52 "
         style="opacity:0.2;fill:#ffffff"
         id="polygon89" />
      <polygon
         points="342.12,237.96 280.33,273.62 224.74,241.52 286.53,205.87 "
         style="fill:#407bff"
         id="polygon90" />
      <polygon
         points="342.12,237.96 280.33,273.62 224.74,241.52 286.53,205.87 "
         style="opacity:0.4;fill:#ffffff"
         id="polygon91" />
      <polygon
         points="229.01,303.16 276.06,330.32 276.06,295.81 229.01,268.64 "
         style="fill:#407bff"
         id="polygon92" />
      <polygon
         points="229.01,303.16 276.06,330.32 276.06,295.81 229.01,268.64 "
         style="opacity:0.1"
         id="polygon93" />
      <polygon
         points="276.06,295.81 276.06,330.32 229.01,303.16 258.7,285.78 "
         style="opacity:0.1"
         id="polygon94" />
      <polygon
         points="229.01,263.71 276.06,290.88 276.06,276.08 229.01,248.92 "
         style="fill:#407bff"
         id="polygon95" />
      <path
         d="m 261.48,272.58 c 0,0.68 -2,0.06 -4.56,-1.39 l -8,-4.61 c -2.52,-1.45 -4.55,-3.18 -4.55,-3.86 v -1.23 l 17.08,9.86 z"
         style="fill:#ffffff"
         id="path95" />
    </g>
  </g>
  <g
     id="freepik--Sofa--inject-214">
    <path
       d="m 302.44,315.07 v 0 a 12.44,12.44 0 0 0 6,12.83 l 70.78,36.9 0.21,4.08 3.22,1.86 -4.15,2.39 -78.2,-45.29 z"
       style="fill:#37474f"
       id="path96" />
    <path
       d="m 376.34,391.13 v 0 c 0.45,-5.44 -1.48,-10.9 -6.21,-13.63 l -63.79,-36.83 a 6,6 0 0 0 -8.9,4.2 v 0 l 4.26,-25.39 v 0 a 12.19,12.19 0 0 0 5.92,12.57 l 66,38.16 a 3.15,3.15 0 0 0 4.95,-2.58 l 0.33,-3.51 z"
       style="fill:#263238"
       id="path97" />
    <path
       d="m 375,216.9 18,10.44 -77.1,48.77 a 20.55,20.55 0 0 0 -9.27,14 l -11.24,72.74 a 1.26,1.26 0 0 1 -1.87,0.88 v 0 c -0.42,-0.24 -0.66,-0.71 -0.51,-2.48 l 6.42,-77.29 c 0.36,-4.36 3.15,-9.57 7.59,-13.09 z"
       style="fill:#455a64"
       id="path98" />
    <path
       d="m 465.16,327.8 -6,-13.91 v 0 L 459,313.52 v 0 l -0.28,-0.65 0.28,0.65 a 6,6 0 0 1 -8.57,7.64 l -3,-1.75 -4,2.33 8.09,4.67 -66.71,38.51 1.79,-10.64 -2.68,16 71.65,-41.49 4.44,2.56 z"
       style="fill:#263238"
       id="path99" />
    <path
       d="m 383,365.92 68.19,-39.4 a 9.52,9.52 0 0 0 4.31,-7.46 v -4 a 9.54,9.54 0 0 0 -4.31,-7.47 L 383,268.2 a 9.55,9.55 0 0 0 -8.62,0 l -68.19,39.37 a 9.54,9.54 0 0 0 -4.31,7.47 v 4.07 a 9.51,9.51 0 0 0 4.31,7.46 l 68.19,39.35 a 9.49,9.49 0 0 0 8.62,0 z"
       style="fill:#407bff"
       id="path100" />
    <path
       d="m 383,365.92 68.19,-39.4 a 9.52,9.52 0 0 0 4.31,-7.46 v -4 a 9.54,9.54 0 0 0 -4.31,-7.47 L 383,268.2 a 9.55,9.55 0 0 0 -8.62,0 l -68.19,39.37 a 9.54,9.54 0 0 0 -4.31,7.47 v 4.07 a 9.51,9.51 0 0 0 4.31,7.46 l 68.19,39.35 a 9.49,9.49 0 0 0 8.62,0 z"
       style="opacity:0.6;fill:#ffffff"
       id="path101" />
    <path
       d="m 381.7,366.47 a 7.16,7.16 0 0 0 1.26,-0.55 l 68.19,-39.4 a 9.53,9.53 0 0 0 4.3,-7.46 v -4 a 9.65,9.65 0 0 0 -3.49,-6.89 c 1.53,1.36 1.26,3.2 -0.81,4.4 l -67.87,39.18 z"
       style="fill:#407bff"
       id="path102" />
    <path
       d="m 381.7,366.47 a 7.16,7.16 0 0 0 1.26,-0.55 l 68.19,-39.4 a 9.53,9.53 0 0 0 4.3,-7.46 v -4 a 9.65,9.65 0 0 0 -3.49,-6.89 c 1.53,1.36 1.26,3.2 -0.81,4.4 l -67.87,39.18 z"
       style="opacity:0.3;fill:#ffffff"
       id="path103" />
    <path
       d="m 301.84,315 v 4.07 a 9.51,9.51 0 0 0 4.31,7.46 l 68.19,39.36 a 9.68,9.68 0 0 0 7.36,0.53 l 1.58,-14.73 -0.32,0.19 a 9.49,9.49 0 0 1 -8.62,0 l -68.19,-39.37 c -2.07,-1.2 -2.34,-3 -0.81,-4.41 a 9.66,9.66 0 0 0 -3.5,6.9 z"
       style="fill:#407bff"
       id="path104" />
    <path
       d="m 301.84,315 v 4.07 a 9.51,9.51 0 0 0 4.31,7.46 l 68.19,39.36 a 9.68,9.68 0 0 0 7.36,0.53 l 1.58,-14.73 -0.32,0.19 a 9.49,9.49 0 0 1 -8.62,0 l -68.19,-39.37 c -2.07,-1.2 -2.34,-3 -0.81,-4.41 a 9.66,9.66 0 0 0 -3.5,6.9 z"
       style="opacity:0.5;fill:#ffffff"
       id="path105" />
    <path
       d="m 358.7,282.2 68.2,39.38 a 8.93,8.93 0 0 0 5,1 6.31,6.31 0 0 0 0.76,-0.08 h 0.16 l 0.45,-0.08 h 0.06 a 5.48,5.48 0 0 0 0.67,-0.17 7.21,7.21 0 0 0 1.47,-0.62 l 3.51,-2 a 12.13,12.13 0 0 0 5.19,-7.39 l 10.37,-57.88 a 6.35,6.35 0 0 0 0.09,-1.07 c 0,-0.15 0,-0.29 0,-0.43 a 7.91,7.91 0 0 0 -0.47,-2.12 7.66,7.66 0 0 0 -2.28,-3.25 l -0.29,-0.23 c -0.15,-0.1 -0.3,-0.2 -0.46,-0.29 L 383,207.52 a 9.55,9.55 0 0 0 -8.62,0 l -3.51,2 a 9.92,9.92 0 0 0 -2.07,1.69 c -0.12,0.12 -0.24,0.26 -0.34,0.38 a 12.88,12.88 0 0 0 -1.26,1.7 3.14,3.14 0 0 0 -0.24,0.39 l -0.2,0.34 c -0.09,0.18 -0.18,0.34 -0.26,0.51 -0.08,0.17 -0.16,0.34 -0.23,0.51 -0.07,0.17 -0.12,0.29 -0.17,0.43 -0.05,0.14 -0.06,0.14 -0.08,0.2 l -0.12,0.39 a 4.43,4.43 0 0 0 -0.13,0.49 c 0,0.12 -0.06,0.24 -0.09,0.36 l -10.37,57.9 a 7.58,7.58 0 0 0 3.39,7.39 z"
       style="fill:#407bff"
       id="path106" />
    <path
       d="m 358.7,282.2 68.2,39.38 a 8.93,8.93 0 0 0 5,1 6.31,6.31 0 0 0 0.76,-0.08 h 0.16 l 0.45,-0.08 h 0.06 a 5.48,5.48 0 0 0 0.67,-0.17 7.21,7.21 0 0 0 1.47,-0.62 l 3.51,-2 a 12.13,12.13 0 0 0 5.19,-7.39 l 10.37,-57.88 a 6.35,6.35 0 0 0 0.09,-1.07 c 0,-0.15 0,-0.29 0,-0.43 a 7.91,7.91 0 0 0 -0.47,-2.12 7.66,7.66 0 0 0 -2.28,-3.25 l -0.29,-0.23 c -0.15,-0.1 -0.3,-0.2 -0.46,-0.29 L 383,207.52 a 9.55,9.55 0 0 0 -8.62,0 l -3.51,2 a 9.92,9.92 0 0 0 -2.07,1.69 c -0.12,0.12 -0.24,0.26 -0.34,0.38 a 12.88,12.88 0 0 0 -1.26,1.7 3.14,3.14 0 0 0 -0.24,0.39 l -0.2,0.34 c -0.09,0.18 -0.18,0.34 -0.26,0.51 -0.08,0.17 -0.16,0.34 -0.23,0.51 -0.07,0.17 -0.12,0.29 -0.17,0.43 -0.05,0.14 -0.06,0.14 -0.08,0.2 l -0.12,0.39 a 4.43,4.43 0 0 0 -0.13,0.49 c 0,0.12 -0.06,0.24 -0.09,0.36 l -10.37,57.9 a 7.58,7.58 0 0 0 3.39,7.39 z"
       style="opacity:0.6;fill:#ffffff"
       id="path107" />
    <path
       d="m 442.45,261.28 -10.37,57.89 c -0.48,2.7 -2.81,3.78 -5.19,2.41 L 358.7,282.21 a 7.61,7.61 0 0 1 -3.43,-7.39 l 10.37,-57.89 c 0.49,-2.7 2.81,-3.78 5.19,-2.41 L 439,253.89 a 7.59,7.59 0 0 1 3.45,7.39 z"
       style="fill:#407bff"
       id="path108" />
    <path
       d="m 442.45,261.28 -10.37,57.89 c -0.48,2.7 -2.81,3.78 -5.19,2.41 L 358.7,282.21 a 7.61,7.61 0 0 1 -3.43,-7.39 l 10.37,-57.89 c 0.49,-2.7 2.81,-3.78 5.19,-2.41 L 439,253.89 a 7.59,7.59 0 0 1 3.45,7.39 z"
       style="opacity:0.5;fill:#ffffff"
       id="path109" />
    <path
       d="m 428.65,322.27 a 10,10 0 0 0 3.29,0.3 6.31,6.31 0 0 0 0.76,-0.08 l 0.61,-0.1 h 0.06 a 5.48,5.48 0 0 0 0.67,-0.17 7.21,7.21 0 0 0 1.47,-0.62 l 3.51,-2 a 12.13,12.13 0 0 0 5.19,-7.39 l 10.37,-57.88 a 6.35,6.35 0 0 0 0.09,-1.07 c 0,-0.15 0,-0.29 0,-0.43 a 7.91,7.91 0 0 0 -0.47,-2.12 l -12.2,6.87 a 6.89,6.89 0 0 1 0.43,3.7 l -10.37,57.89 c -0.36,2 -1.74,3.13 -3.41,3 a 0.3,0.3 0 0 1 0,0.1 z"
       style="fill:#407bff"
       id="path110" />
    <path
       d="m 428.65,322.27 a 10,10 0 0 0 3.29,0.3 6.31,6.31 0 0 0 0.76,-0.08 l 0.61,-0.1 h 0.06 a 5.48,5.48 0 0 0 0.67,-0.17 7.21,7.21 0 0 0 1.47,-0.62 l 3.51,-2 a 12.13,12.13 0 0 0 5.19,-7.39 l 10.37,-57.88 a 6.35,6.35 0 0 0 0.09,-1.07 c 0,-0.15 0,-0.29 0,-0.43 a 7.91,7.91 0 0 0 -0.47,-2.12 l -12.2,6.87 a 6.89,6.89 0 0 1 0.43,3.7 l -10.37,57.89 c -0.36,2 -1.74,3.13 -3.41,3 a 0.3,0.3 0 0 1 0,0.1 z"
       style="opacity:0.3;fill:#ffffff"
       id="path111" />
    <path
       d="m 477.57,350.1 -22.11,-63.38 h -8.09 l 13.53,31.94 a 9.11,9.11 0 0 1 -4.41,9.47 l -63.57,36.71 a 5,5 0 0 1 -7.38,-5.12 l -4.88,28.8 a 17.52,17.52 0 0 1 8.4,-12.11 l 70.67,-40.81 a 7.23,7.23 0 0 1 8.93,1.4 l 6,14.22 a 1.57,1.57 0 0 0 0.64,0.73 1.55,1.55 0 0 0 2.27,-1.85 z"
       style="fill:#37474f"
       id="path112" />
    <path
       d="m 451.92,269.11 -62.27,49.43 A 20.54,20.54 0 0 0 382,332.92 l -7.39,76.5 a 1.25,1.25 0 0 0 0.63,1.19 v 0 a 1.26,1.26 0 0 0 1.87,-0.88 l 12.19,-71.94 a 20.56,20.56 0 0 1 9.27,-14 L 451.7,290.2 a 17.18,17.18 0 0 0 1.49,-28 z"
       style="fill:#455a64"
       id="path113" />
  </g>
  <g
     id="freepik--Character--inject-214">
    <g
       id="freepik--Bottom--inject-214">
      <path
         d="m 113.77,416.81 c -0.34,5 -1.31,8.32 -3.52,11.17 -2.21,2.85 -6.41,3.58 -10.67,2.51 -4.26,-1.07 -9.71,-3.65 -10.94,-8.06 -1.23,-4.41 -1,-7.38 0,-12 z"
         style="fill:#263238"
         id="path114" />
      <path
         d="m 96.73,379.46 c -1.76,0 -2.25,6.78 -3.24,13.51 -1,7.22 -3.74,10.09 -4.69,16 -1.08,6.76 -0.63,9.82 2.36,14.08 2.99,4.26 13.49,8.81 18.65,3.16 4.2,-4.6 4.36,-9.92 4,-16.74 -0.42,-7.05 -0.79,-12 -0.45,-17.33 0.33,-5.08 0.75,-10 -0.78,-10.64 -0.11,0.75 -0.22,1.69 -0.34,2.42 -0.1,0.56 -0.26,3.31 -1.24,3.29 a 8.22,8.22 0 0 1 0,-1.92 2,2 0 0 0 -0.49,-1.67 3.85,3.85 0 0 0 -1.94,-0.79 c -1.73,-0.36 -3.47,-0.69 -5.22,-0.9 -0.87,-0.11 -1.75,-0.18 -2.62,-0.22 a 8.62,8.62 0 0 0 -2.22,0.15 1.37,1.37 0 0 0 -1,0.65 1.82,1.82 0 0 0 -0.09,0.77 4.38,4.38 0 0 1 -0.21,1.39 c -0.06,0.19 -0.24,0.43 -0.49,0.37 a 0.42,0.42 0 0 1 -0.28,-0.42 c 0,-0.83 0,-1.41 0,-2.37 0,-0.44 0,-1 0,-1.48 a 3.06,3.06 0 0 1 0.29,-1.31 z"
         style="fill:#455a64"
         id="path115" />
      <path
         d="m 89.19,407.06 c -0.17,1 -1.18,7.42 1,8.7 2.39,1.39 3.68,-3.66 3.68,-3.66 0,0 5.59,-1.11 13.73,2.15 -0.41,1 0.86,4.57 3.09,3.94 2.23,-0.63 3.06,-8 3.07,-8.13 0.37,6.53 0.1,11.68 -4,16.15 -5.16,5.65 -15.67,1.11 -18.65,-3.16 -2.98,-4.27 -3.39,-7.32 -2.31,-14.05 0.11,-0.7 0.2,-1.33 0.39,-1.94 z"
         style="fill:#37474f"
         id="path116" />
      <path
         d="m 94.54,412.56 c 0,2.46 -3.05,1.49 -3.2,-2 -0.15,-3.49 2.2,-11.56 2.15,-17.56 1,-6.73 1.48,-13.48 3.24,-13.51 0,0.08 0,1.48 -0.06,1.57 l -0.17,2.12 a 11.49,11.49 0 0 0 -0.09,1.47 c 0,5 -0.88,14.67 -1.4,19.24 a 63.44,63.44 0 0 0 -0.47,8.67 z"
         style="fill:#37474f"
         id="path117" />
      <path
         d="m 106.69,414.13 a 63.13,63.13 0 0 0 1.64,-8.55 c 0.59,-4.52 2.08,-14 3.26,-18.89 0.27,-1.06 0.49,-2.27 0.55,-2.68 0.15,-1.06 0.25,-1.62 0.35,-2.33 0,-0.11 0,-0.14 0,-0.18 1.18,0.41 1.19,3.21 1,6.61 -0.22,2 -0.6,4.38 -1.14,7.3 -1.48,5.79 -1.17,14.31 -2.14,17.65 -0.97,3.34 -4.09,3.46 -3.52,1.07 z"
         style="fill:#37474f"
         id="path118" />
      <path
         d="m 107.81,414.45 a 1.05,1.05 0 0 1 -0.24,-0.06 25.65,25.65 0 0 0 -13.5,-1.78 0.72,0.72 0 0 1 -0.8,-0.41 0.5,0.5 0 0 1 0.46,-0.62 27,27 0 0 1 14.44,1.91 0.5,0.5 0 0 1 0.28,0.72 0.65,0.65 0 0 1 -0.64,0.24 z"
         style="fill:#263238"
         id="path119" />
      <path
         d="m 109.25,409.18 -0.22,-0.06 a 31.86,31.86 0 0 0 -15.11,-2 0.71,0.71 0 0 1 -0.78,-0.43 0.49,0.49 0 0 1 0.48,-0.6 33,33 0 0 1 16,2.1 0.5,0.5 0 0 1 0.31,0.71 0.64,0.64 0 0 1 -0.68,0.28 z"
         style="fill:#263238"
         id="path120" />
      <path
         d="m 94.32,402.09 a 0.73,0.73 0 0 1 -0.55,-0.38 0.49,0.49 0 0 1 0.41,-0.65 c 7.85,-1.76 15.62,1.83 15.95,2 a 0.49,0.49 0 0 1 0.27,0.72 0.71,0.71 0 0 1 -0.87,0.18 c -0.08,0 -7.63,-3.51 -14.93,-1.87 a 0.86,0.86 0 0 1 -0.28,0 z"
         style="fill:#263238"
         id="path121" />
      <path
         d="m 94.62,398 a 0.69,0.69 0 0 1 -0.55,-0.37 0.47,0.47 0 0 1 0.39,-0.64 24.9,24.9 0 0 1 16.27,1.95 0.48,0.48 0 0 1 0.22,0.73 0.72,0.72 0 0 1 -0.89,0.13 23.69,23.69 0 0 0 -15.16,-1.8 0.66,0.66 0 0 1 -0.28,0 z"
         style="fill:#263238"
         id="path122" />
      <path
         d="m 94.91,393.21 a 0.72,0.72 0 0 1 -0.55,-0.37 0.47,0.47 0 0 1 0.38,-0.65 c 8.09,-2.05 16.05,1.93 16.39,2.11 a 0.48,0.48 0 0 1 0.24,0.72 0.73,0.73 0 0 1 -0.89,0.15 c -0.08,0 -7.77,-3.88 -15.28,-2 a 1,1 0 0 1 -0.29,0.04 z"
         style="fill:#263238"
         id="path123" />
      <path
         d="m 200.39,402.41 c 0.33,0 0.78,3.32 -1,4.71 -2.09,1.59 -8.2,4.18 -16.2,3.12 -8,-1.06 -12.32,-3.38 -15.5,-5.87 -3.18,-2.49 -7.62,-6 -11.24,-6.79 -3.36,-0.73 -7,-2.17 -8.07,-3.13 -1.07,-0.96 -0.85,-5.19 -0.85,-5.19 z"
         style="fill:#263238"
         id="path124" />
      <path
         d="m 150.92,373.06 a 1.29,1.29 0 0 0 -1.23,1 c -0.26,1.16 -0.57,4.54 -1.13,6.44 -0.77,2.64 -1.34,8.08 -0.93,10.25 0.41,2.17 5.88,3.75 9.38,5 a 45.53,45.53 0 0 1 11.28,6.71 c 3.73,2.88 11.61,5.94 16.84,6 6.19,0.05 13.18,-1.68 14.81,-4.27 2,-3.21 3.51,-6.95 -5.61,-10.95 -1.72,-0.76 -7.77,-4.13 -9.83,-5.35 -5.58,-3.31 -9.5,-6.32 -12,-12.07 a 3.21,3.21 0 0 0 -1.3,-1.76 3.15,3.15 0 0 0 -1.78,-0.17 c -1.53,0.17 -7.63,0.85 -9,1.44 -1.24,0.51 -3,1.11 -3,2.55 a 4.35,4.35 0 0 0 0.32,1.46 c 0.11,0.3 0.19,0.69 -0.09,0.86 -0.28,0.17 -0.62,0 -0.86,-0.23 a 21.75,21.75 0 0 1 -2.43,-2.74 8.52,8.52 0 0 0 -1.44,-1.37 14.9,14.9 0 0 1 -1.55,-0.95 c -0.57,-0.55 -0.43,-1.18 -0.45,-1.85 z"
         style="fill:#455a64"
         id="path125" />
      <path
         d="m 168.29,402.44 a 60.4,60.4 0 0 0 -5,-3.47 v 0 c 0,0 10.71,6.13 15.1,3.47 2.83,-1.7 1.53,-3.85 1.47,-4.53 -0.06,-0.68 9.92,-5.33 12.65,-5.58 v 0 c 0.75,0.39 1.39,0.71 1.78,0.88 9.12,4 7.63,7.74 5.61,10.95 -1.63,2.59 -6.71,4.56 -14.7,4.45 -5.2,-0.09 -13.2,-3.29 -16.91,-6.17 z"
         style="fill:#37474f"
         id="path126" />
      <path
         d="m 179.17,395.92 c 5.68,2.15 3.23,3.09 1.63,3.28 -1.6,0.19 -11.13,-5.06 -16.92,-9.37 -6,-4.48 -9.83,-9.35 -12.07,-11 -0.84,-0.62 -1.74,-1.37 -2.54,-2.07 0.16,-1.14 0.3,-2.18 0.42,-2.73 a 1.29,1.29 0 0 1 1.23,-1 c 0,0.67 -0.12,1.3 0.43,1.81 a 14.9,14.9 0 0 0 1.55,0.95 8.52,8.52 0 0 1 1.44,1.37 21.75,21.75 0 0 0 2.43,2.74 c 4.9,5.86 16.73,13.86 22.4,16.02 z"
         style="fill:#37474f"
         id="path127" />
      <path
         d="m 180.41,398.43 a 0.66,0.66 0 0 1 -0.36,-0.13 0.48,0.48 0 0 1 -0.07,-0.72 c 1.64,-1.77 9.32,-5.93 13.51,-5.45 a 0.52,0.52 0 0 1 0.49,0.57 0.53,0.53 0 0 1 -0.62,0.45 c -3.92,-0.44 -11.22,3.69 -12.51,5.09 a 0.59,0.59 0 0 1 -0.44,0.19 z"
         style="fill:#263238"
         id="path128" />
      <path
         d="m 175.47,395.57 a 0.63,0.63 0 0 1 -0.35,-0.13 0.48,0.48 0 0 1 -0.07,-0.72 c 1.63,-1.77 9.31,-5.93 13.51,-5.45 a 0.52,0.52 0 0 1 0.49,0.57 0.56,0.56 0 0 1 -0.63,0.45 c -3.91,-0.43 -11.22,3.69 -12.51,5.09 a 0.58,0.58 0 0 1 -0.44,0.19 z"
         style="fill:#263238"
         id="path129" />
      <path
         d="m 170.53,392.85 a 0.57,0.57 0 0 1 -0.35,-0.12 0.48,0.48 0 0 1 -0.07,-0.72 c 1.63,-1.78 9.32,-5.94 13.51,-5.45 a 0.52,0.52 0 0 1 0.49,0.57 0.55,0.55 0 0 1 -0.63,0.45 c -3.91,-0.44 -11.21,3.69 -12.51,5.09 a 0.55,0.55 0 0 1 -0.44,0.18 z"
         style="fill:#263238"
         id="path130" />
      <path
         d="m 166,389.77 a 0.57,0.57 0 0 1 -0.35,-0.12 0.48,0.48 0 0 1 -0.07,-0.72 c 1.63,-1.78 9.34,-5.93 13.51,-5.46 a 0.53,0.53 0 0 1 0.49,0.58 0.54,0.54 0 0 1 -0.62,0.45 c -3.91,-0.44 -11.22,3.68 -12.52,5.09 a 0.59,0.59 0 0 1 -0.44,0.18 z"
         style="fill:#263238"
         id="path131" />
      <path
         d="m 161.49,386.69 a 0.57,0.57 0 0 1 -0.35,-0.12 0.48,0.48 0 0 1 -0.08,-0.72 c 2.25,-2.52 10.28,-6 14.47,-5.49 a 0.53,0.53 0 0 1 0.5,0.57 0.55,0.55 0 0 1 -0.63,0.45 c -3.77,-0.43 -11.47,2.89 -13.47,5.12 a 0.56,0.56 0 0 1 -0.44,0.19 z"
         style="fill:#263238"
         id="path132" />
      <path
         d="m 117.92,171.74 c -8.11,15.14 -11.47,23.79 -13.3,52 -1.83,28.21 -2.09,77 -2.09,77 0,0 -5.16,12.51 -7,32.79 -1.84,20.28 -3.12,51.71 -3.12,51.71 0,0 -0.12,3.86 11.56,5.37 11.68,1.51 12.64,-2.21 12.64,-2.21 0,0 10.7,-42.44 15.21,-64 4.94,-23.65 11.34,-52.84 11.34,-52.84 l 3.07,27.74 c 0,0 -2.86,7.07 -2.11,25.83 0.75,18.76 4.46,52.65 4.46,52.65 0,0 13.15,6 25.7,-0.48 0,0 5.52,-56.55 7.31,-91.23 1.79,-34.68 2.14,-72.82 -2.18,-97.44 z"
         style="fill:#407bff"
         id="path133" />
      <path
         d="m 117.92,171.74 c -8.11,15.14 -11.47,23.79 -13.3,52 -1.83,28.21 -2.09,77 -2.09,77 0,0 -5.16,12.51 -7,32.79 -1.84,20.28 -3.12,51.71 -3.12,51.71 0,0 -0.12,3.86 11.56,5.37 11.68,1.51 12.64,-2.21 12.64,-2.21 0,0 10.7,-42.44 15.21,-64 4.94,-23.65 11.34,-52.84 11.34,-52.84 l 3.07,27.74 c 0,0 -2.86,7.07 -2.11,25.83 0.75,18.76 4.46,52.65 4.46,52.65 0,0 13.15,6 25.7,-0.48 0,0 5.52,-56.55 7.31,-91.23 1.79,-34.68 2.14,-72.82 -2.18,-97.44 z"
         style="opacity:0.6;fill:#ffffff"
         id="path134" />
      <g
         style="opacity:0.5"
         id="g135">
        <path
           d="m 143.14,271.54 7.16,-42 c 0,0 14.86,-0.37 19.82,-7 A 20,20 0 0 1 155,233.9 l -7.15,36.34 -1.67,29 z"
           style="fill:#407bff"
           id="path135" />
      </g>
    </g>
    <g
       id="freepik--Top--inject-214">
      <g
         id="freepik--Head--inject-214">
        <path
           d="m 116.47,100.48 c 3.35,-2.92 5.23,-7.2 6.4,-11.49 1.17,-4.29 1.08,-7.36 2.41,-11.6 1.33,-4.24 3.53,-8.42 7.18,-11 0.3,-0.21 0.62,-0.41 0.94,-0.59 a 11.39,11.39 0 0 1 8.69,-1.15 5.23,5.23 0 0 1 2.62,1.47 6.65,6.65 0 0 1 1,2.42 c 0.89,3.21 1.82,6.38 2.45,9.65 a 77.82,77.82 0 0 1 1.28,10.53 78.6,78.6 0 0 1 -0.14,10.52 39.5,39.5 0 0 1 -2.45,11.54 15,15 0 0 1 -6.52,7.8 7.55,7.55 0 0 1 -10,3.86 c -1.71,-0.88 -3.46,-2.49 -5.25,-1.8 -0.88,0.33 -1.5,1.18 -2.39,1.49 a 2.94,2.94 0 0 1 -3.19,-1.2 7,7 0 0 1 -1.11,-3.42 23,23 0 0 1 2.08,-12.3 7.88,7.88 0 0 1 -3.67,0.53 2.67,2.67 0 0 1 -2.33,-2.5 c 0.04,-1.15 1.11,-1.98 2,-2.76 z"
           style="fill:#263238"
           id="path136" />
        <path
           d="m 142.05,110.72 c 0.2,-3.2 -2.75,-6.66 -5.9,-12.31 -3.15,-5.65 -9.76,-23.61 0.63,-26.5 0.69,-8.56 9.19,-15.68 24.27,-16 9.29,-0.21 17.46,3.83 21.49,8.59 4.19,5 5.32,16.08 -2.33,20.13 -5.75,15.62 -38.16,26.09 -38.16,26.09 z"
           style="fill:#37474f"
           id="path137" />
        <path
           d="m 177.93,69.68 c 3.24,1.92 4.16,9 3.8,22.28 -0.6,12 -3.72,16.59 -8.39,19 -2.29,1.19 -5.93,1.63 -10.36,0.89 l -0.83,4.87 c 0,0 11.18,13 1,14.29 -5.09,0.64 -10.1,-2.31 -14.41,-5.73 -4.31,-3.42 -7.13,-10.28 -7.13,-10.28 l 1.51,-14.69 c 0,0 -3.1,2.91 -7.52,-1 -3.64,-3.2 -4.87,-8.58 -2,-11.47 2.87,-2.89 8.33,-2.13 10.34,2 0,0 3.73,4.51 4.21,-1.38 0.06,-0.81 0,-2.83 0,-3.7 2.77,-0.42 6.85,0.26 6.87,-7.26 7.2,-3.25 17.21,2.41 22.91,-7.82 z"
           style="fill:#ffa8a7"
           id="path138" />
        <path
           d="m 163.35,97.73 5.25,1.84 a 2.74,2.74 0 0 1 -3.5,1.8 2.91,2.91 0 0 1 -1.75,-3.64 z"
           style="fill:#b16668"
           id="path139" />
        <path
           d="m 165.1,101.37 a 2.42,2.42 0 0 0 0.58,0.13 2.57,2.57 0 0 0 -2.42,-2.39 2.83,2.83 0 0 0 1.84,2.26 z"
           style="fill:#f28f8f"
           id="path140" />
        <path
           d="M 179.82,81.62 174.73,80 a 2.56,2.56 0 0 1 3.25,-1.8 2.8,2.8 0 0 1 1.84,3.42 z"
           style="fill:#263238"
           id="path141" />
        <path
           d="m 164,80.38 -5.34,1.84 a 2.71,2.71 0 0 1 1.64,-3.58 3,3 0 0 1 3.7,1.74 z"
           style="fill:#263238"
           id="path142" />
        <path
           d="m 168.75,82.46 0.81,13.15 7.23,-1.56 c -2.7,-5.43 -4.42,-8.5 -8.04,-11.59 z"
           style="fill:#f28f8f"
           id="path143" />
        <path
           d="m 163,111.86 c -4.67,-0.62 -13.86,-3.45 -16.56,-9.72 a 14.88,14.88 0 0 0 3.56,6.86 22,22 0 0 0 12.53,5.83 z"
           style="fill:#f28f8f"
           id="path144" />
        <path
           d="m 175.42,85.9 a 2.07,2.07 0 0 0 1.78,2.25 1.94,1.94 0 0 0 2.22,-1.71 2.07,2.07 0 0 0 -1.78,-2.25 1.94,1.94 0 0 0 -2.22,1.71 z"
           style="fill:#263238"
           id="path145" />
        <path
           d="m 160.69,86.21 a 2.06,2.06 0 0 0 1.78,2.25 1.94,1.94 0 0 0 2.21,-1.7 2.07,2.07 0 0 0 -1.78,-2.26 1.94,1.94 0 0 0 -2.21,1.71 z"
           style="fill:#263238"
           id="path146" />
      </g>
      <g
         id="freepik--Arm--inject-214">
        <path
           d="m 274.38,180.6 c 1.47,-1.36 1.63,-3 -0.65,-3.62 -5.38,-1.4 -8.7,1.67 -14,3 a 18.74,18.74 0 0 1 -6.27,0 24.21,24.21 0 0 0 4.31,-1.9 c 4.48,-2.86 2.75,-7 0.18,-5.82 -3.24,1.46 -7.6,1.05 -12.23,2 -6.58,1.35 -6.44,2.66 -10.4,3.42 -1.74,0.34 -5.22,0.34 -13.08,-1 -4.15,-0.73 -18.65,-4.33 -24.42,-5.7 0,0 -5.13,-18.65 -8.33,-28.48 -5.17,-15.85 -10.71,-21.67 -19.6,-23.79 a 265.21,265.21 0 0 0 -3.43,28.22 c 0,0 5.68,24.27 10.29,36 4.23,10.78 4.79,10.51 14.48,11.87 11.19,1.57 27.91,1.42 34.64,1.68 a 116.83,116.83 0 0 1 18,1.84 c 6.6,1.23 8.69,1.65 12.92,1.27 a 44.21,44.21 0 0 0 10.41,-3.15 c 6.79,-3.39 6.78,-6.52 6.5,-7.7 0.76,-0.53 1.64,-3.07 0.52,-3.92 a 2.8,2.8 0 0 0 0.16,-4.22 z"
           style="fill:#ffa8a7"
           id="path147" />
        <path
           d="m 199.3,170.11 19.82,5.24 c 0,0 -2.73,3.53 -4.05,10.24 -1.32,6.71 1.13,10.91 1.13,10.91 0,0 -12.71,0.14 -21,-0.76 -8.29,-0.9 -12.14,-1.37 -14.52,-3.55 -2.38,-2.18 -5,-9.62 -6.75,-14.83 -1.75,-5.21 -8.09,-30.19 -8.09,-30.19 l 4,-28.53 a 19.69,19.69 0 0 1 11.16,6.49 c 5.08,5.72 6.34,11.94 10,21.84 3,8.03 8.3,23.14 8.3,23.14 z"
           style="fill:#ebebeb"
           id="path148" />
        <path
           d="m 169.94,118.14 c 6.38,0.77 12.07,5.78 15.2,12 3.4,6.74 11.35,28.79 11.35,28.79 0,0 -5.93,6.85 -14.26,9.57 -8.33,2.72 -11,2.49 -11,2.49 l -5.74,-23.79 c 0,0 2.29,-26.9 4.45,-29.06 z"
           style="fill:#407bff"
           id="path149" />
        <path
           d="m 169.94,118.14 c 6.38,0.77 12.07,5.78 15.2,12 3.4,6.74 11.35,28.79 11.35,28.79 0,0 -5.93,6.85 -14.26,9.57 -8.33,2.72 -11,2.49 -11,2.49 l -5.74,-23.79 c 0,0 2.29,-26.9 4.45,-29.06 z"
           style="opacity:0.3;fill:#ffffff"
           id="path150" />
        <path
           d="m 250.15,182.88 c -5.2,3.72 -10.9,3.58 -13.84,2.19 2.4,3 10.9,3.61 13.84,-2.19 z"
           style="fill:#f28f8f"
           id="path151" />
      </g>
      <g
         id="freepik--Chest--inject-214">
        <path
           d="m 162.15,116.73 c 0,0 4.25,8.85 1.42,13.11 -11.87,-2.44 -18.21,-10.7 -22,-14.83 0,0 -12.47,2.85 -15.49,3.49 -3.02,0.64 -7.72,5.89 -8.63,19.4 -0.74,10.91 0.93,31.48 0.93,31.48 -4.38,10.72 -10.31,24.79 -12.18,37.62 21.84,17.71 57.47,18.3 76.4,5.41 -0.13,-14.59 -4.14,-26.43 -4.66,-33.76 a 42,42 0 0 1 2,-13.3 15.24,15.24 0 0 0 7.31,-10 c 1.39,-7.06 0.54,-12.25 -5.62,-21.38 -5.15,-7.64 -11.7,-15.9 -11.7,-15.9 z"
           style="fill:#407bff"
           id="path152" />
        <path
           d="m 162.15,116.73 c 0,0 4.25,8.85 1.42,13.11 -11.87,-2.44 -18.21,-10.7 -22,-14.83 0,0 -12.47,2.85 -15.49,3.49 -3.02,0.64 -7.72,5.89 -8.63,19.4 -0.74,10.91 0.93,31.48 0.93,31.48 -4.38,10.72 -10.31,24.79 -12.18,37.62 21.84,17.71 57.47,18.3 76.4,5.41 -0.13,-14.59 -4.14,-26.43 -4.66,-33.76 a 42,42 0 0 1 2,-13.3 15.24,15.24 0 0 0 7.31,-10 c 1.39,-7.06 0.54,-12.25 -5.62,-21.38 -5.15,-7.64 -11.7,-15.9 -11.7,-15.9 z"
           style="opacity:0.5;fill:#ffffff"
           id="path153" />
        <path
           d="m 172.74,135 0.31,-3.82 a 55.52,55.52 0 0 1 -9.48,-1.36 c -11.87,-2.44 -18.21,-10.7 -22,-14.83 l -3.62,0.83 c 2.71,5.12 11.23,13.92 20.23,16.81 9,2.89 14.56,2.37 14.56,2.37 z"
           style="opacity:0.4;fill:#407bff"
           id="path154" />
        <path
           d="m 163.57,129.84 c 1.39,0.31 2.73,0.58 4,0.78 0,0 2,-5.13 -1.27,-13.14 l -4.13,-0.75 c 0,0 4.23,8.85 1.4,13.11 z"
           style="opacity:0.6;fill:#407bff"
           id="path155" />
        <path
           d="m 135.7,152.06 c 0,0 -2.25,8.48 7.33,13.58 8.77,4.67 17.76,0.16 17.76,0.16 0,0 -6.9,7.71 -19.16,2.14 C 131,163.1 135.7,152.06 135.7,152.06 Z"
           style="opacity:0.6;fill:#407bff"
           id="path156" />
      </g>
      <g
         id="freepik--arm--inject-214">
        <path
           d="m 186.46,227.37 c -0.81,-1.73 -3.94,-2 -8.18,-2.78 -4.24,-0.78 -8.52,-3.35 -9.45,-4.76 -0.93,-1.41 -2.45,-3.86 -1.39,-5.19 1.06,-1.33 5,-2.14 7.13,-2.64 2.75,-0.64 5.27,-1.37 6,-3.63 0.19,-3.23 -4,-1.39 -7.06,-1.48 -3.06,-0.09 -6.89,-1.29 -10.8,-0.86 -3.91,0.43 -7.4,0.8 -8.74,0.47 -1.34,-0.33 -3.31,-1.38 -12.06,-5.73 -8.75,-4.35 -25.52,-15.52 -25.52,-15.52 0,0 11.48,-28.6 13.2,-35.67 2.27,-9.32 2.9,-20.65 -0.42,-30.69 -2.78,0.25 -11.08,1.83 -18.84,12.22 -7.07,9.46 -18.7,41 -20.73,52.55 -1.53,8.64 -1.49,12.39 9.24,18.8 7.84,4.69 27.73,12.7 37.72,16.62 l 9.28,3.75 c 2.89,1.17 5.29,3.44 7.57,5.51 1.16,1 2.31,2.12 3.52,3.13 a 7.72,7.72 0 0 0 3.57,2.05 62.24,62.24 0 0 0 8.18,0.8 8.48,8.48 0 0 0 5.05,-1 3.75,3.75 0 0 1 1,-0.57 2.85,2.85 0 0 1 1,-0.08 13.07,13.07 0 0 0 4.38,-0.73 4.15,4.15 0 0 0 1.49,-0.66 8.84,8.84 0 0 1 1.68,-1.23 6.61,6.61 0 0 1 2.28,-0.21 c 1.44,-0.03 1.71,-0.74 0.9,-2.47 z"
           style="fill:#ffa8a7"
           id="path157" />
        <path
           d="m 131.57,130.88 c 0.85,8.16 0.91,11.39 -2.12,20.82 l -12.53,33.37 14.77,9.6 a 40.89,40.89 0 0 0 -7.15,8.68 19.22,19.22 0 0 0 -2.72,10.38 c 0,0 -17.82,-6.96 -23.27,-10.73 -5.45,-3.77 -8.49,-5.83 -9.44,-8.6 -0.95,-2.77 -1.54,-6.4 0.89,-15.55 2.43,-9.15 7.17,-20.19 10.62,-29.37 3.45,-9.18 8.31,-20.8 14.36,-25.2 a 27.36,27.36 0 0 1 14.11,-5.64 c 0,0 1.63,4.09 2.48,12.24 z"
           style="fill:#f5f5f5"
           id="path158" />
        <path
           d="m 116.92,185.07 c -4.27,-2.74 -10.49,-4.71 -12.51,-4.55 5.9,-1.41 13.39,2.19 13.39,2.19 z"
           style="fill:#e0e0e0"
           id="path159" />
        <path
           d="m 129.59,117.73 a 30.22,30.22 0 0 0 -11.39,3.77 c -5.4,3.2 -7.8,5.52 -12,13 -4.2,7.48 -12.48,29.3 -12.48,29.3 0,0 3,3.32 12,7.09 9,3.77 15.7,3.1 15.7,3.1 0,0 7.34,-17.87 9.09,-23 5.05,-14.64 0.97,-30.12 -0.92,-33.26 z"
           style="fill:#407bff"
           id="path160" />
        <g
           style="opacity:0.3"
           id="g161">
          <path
             d="m 129.59,117.73 a 30.22,30.22 0 0 0 -11.39,3.77 c -5.4,3.2 -7.8,5.52 -12,13 -4.2,7.48 -12.48,29.3 -12.48,29.3 0,0 3,3.32 12,7.09 9,3.77 15.7,3.1 15.7,3.1 0,0 7.34,-17.87 9.09,-23 5.05,-14.64 0.97,-30.12 -0.92,-33.26 z"
             style="fill:#ffffff"
             id="path161" />
        </g>
      </g>
    </g>
  </g>
  <g
     id="freepik--character--inject-214">
    <path
       d="m 218.77,371.85 c -0.19,-0.45 -5,2.73 -5.49,3.11 -2.63,2.21 -5.68,5.72 -6.1,9.26 -0.32,2.67 0.78,5.24 1.78,7.7 1.79,4.4 1.68,9 2,13.76 0.08,1.24 0.15,2.47 0.34,3.7 a 21,21 0 0 0 20.2,18 c 3.05,0 6.81,-1.76 6.19,-5.38 -0.47,-2.73 -1.76,-5.39 -2.47,-8.07 a 98.93,98.93 0 0 1 -2.67,-14 c -0.08,-1.3 -8.72,-15.94 -9.9,-18.81 q -1.94,-4.64 -3.88,-9.27 z"
       style="fill:#263238"
       id="path162" />
    <path
       d="m 215.33,393.6 c 0.28,2.26 2.06,14.16 10.45,18 4.65,2.12 7.39,0.51 6.95,-3.21 a 59.14,59.14 0 0 1 4.91,-29.71 c 1.86,-4.11 9.07,-16.67 11.13,-20.24 2.06,-3.57 14.64,-22.36 21.22,-33.26 l 0.24,-0.4 0.17,-0.27 c 6.84,-11.28 12.85,-22.35 16.06,-31.28 0.16,-0.43 0.32,-0.87 0.46,-1.29 0,0 0,-0.09 0.05,-0.13 v 0 c 1.59,-4.69 2.27,-8.62 1.72,-11.44 l -19.12,2.77 -15.78,-7.87 c -1.47,8 -5.82,14.15 -8.74,21.71 -2.78,7.19 -13.42,18.86 -18.19,37.68 -3.71,14.61 -4.91,29.73 -5.75,31.58 -0.84,1.85 -2.56,5.76 -3.11,6.76 -3.4,5.6 -4.42,6.29 -2.67,20.6 z"
       style="fill:#ffa8a7"
       id="path163" />
    <path
       d="m 261.46,398.79 c -0.28,-0.27 -2.93,5.7 -3.13,6.22 a 25.86,25.86 0 0 0 -1.81,8.64 7,7 0 0 0 0.31,2.46 6.44,6.44 0 0 0 1.63,2.31 c 3.35,3.28 8.06,4.66 12.26,6.72 a 35.32,35.32 0 0 1 8.28,5.23 c 2.42,2.16 4.69,4.54 7.51,6.2 a 18.33,18.33 0 0 0 5.89,1.86 38.31,38.31 0 0 0 7.56,0.45 c 3.27,-0.21 6.26,-0.88 8.73,-3.28 1.81,-1.75 2.84,-4.88 1.31,-7.12 a 9.83,9.83 0 0 0 -1.69,-1.78 c -3.11,-2.75 -6.41,-5.24 -9.62,-7.89 a 31,31 0 0 0 -6.49,-4.56 c -2.38,-1.11 -4.76,-2.14 -7.12,-3.27 l -8.2,-3.91 -8.39,-4 c -1.4,-0.67 -2.79,-1.36 -4.19,-2 a 10,10 0 0 1 -2.84,-2.28 z"
       style="fill:#263238"
       id="path164" />
    <path
       d="m 284.37,399.64 a 40.39,40.39 0 0 1 0.77,-11.4 c 0.51,-2.77 0.52,-5.57 0.94,-8.38 q 0.71,-4.65 1.44,-9.3 c 2.11,-13.34 3.94,-26.6 6.08,-40 1.34,-8.41 2.59,-16.85 3.52,-25.32 a 21.6,21.6 0 0 0 -0.08,-7.44 c -2.46,-10.13 -14.19,-8.2 -22.14,-8.51 l -20.5,-0.8 h -0.25 a 164.79,164.79 0 0 1 3.2,27 c 0.4,8.29 -2.77,27.16 0.54,47.75 2.58,16 3.53,26.85 3.52,29 0,1.81 0,3.63 0,5.44 0,2.09 -0.67,4.28 -0.46,6.34 a 7.5,7.5 0 0 0 1.45,3.47 25.21,25.21 0 0 0 5.45,5.16 q 3.75,2.86 7.62,5.6 c 5.41,3.81 11.6,8.27 18.5,8.18 2.24,0 5.47,-0.44 6.64,-2.7 0.61,-1.16 -0.21,-2.65 -1,-3.51 -4.56,-4.95 -10.78,-8.63 -13.63,-14.72 a 18.9,18.9 0 0 1 -1.61,-5.86 z"
       style="fill:#ffa8a7"
       id="path165" />
    <path
       d="m 257.35,315.48 c 0,3.22 -0.29,6.42 -0.55,9.63 -0.26,3.21 -0.47,6.41 -0.65,9.63 a 154.1,154.1 0 0 0 0.18,19.34 c 0.24,3.22 0.68,6.42 1.18,9.6 l 1.5,9.49 q 0.72,4.75 1.34,9.53 c 0.43,3.18 0.84,6.36 1.06,9.57 a 187.07,187.07 0 0 0 -1.66,-19.22 c -0.76,-6.39 -2.05,-12.68 -2.45,-19.06 -0.29,-3.19 -0.4,-6.39 -0.48,-9.6 -0.08,-3.21 0,-6.41 0.08,-9.62 0.08,-3.21 0.23,-6.42 0.38,-9.63 0.15,-3.21 0.28,-6.44 0.07,-9.66 z"
       style="fill:#f28f8f"
       id="path166" />
    <path
       d="m 225,225.23 c -13.66,9.33 -18.67,66.45 -26.56,125.36 0,0 18.64,12.52 53.66,14 35.02,1.48 55.45,-12.72 55.45,-12.72 0,0 0.26,-81.25 -8.46,-127.55 z"
       style="fill:#263238"
       id="path167" />
    <path
       d="m 291.67,108.82 c 2.21,-2 2.15,-6.23 0.62,-8.83 -5.52,-9.38 -17.22,-10.59 -24.64,-10.44 -6.28,0.12 -12.79,2.29 -16.87,5.68 -5.28,4.4 -6.67,8 -6.17,13.88 -5.22,1.27 -7.44,5.21 -8.29,10.34 -0.85,5.13 1.89,12 5.09,16.32 3.2,4.32 4.89,5.86 8.34,10.39 0.44,0.58 31.23,-17.6 34.49,-20.27 3,-2.45 7.49,-4.41 8.78,-8.12 a 9.26,9.26 0 0 0 0.36,-4.58 4.72,4.72 0 0 0 -2.56,-3.72 6,6 0 0 0 0.85,-0.65 z"
       style="fill:#e0e0e0"
       id="path168" />
    <path
       d="m 248.86,91.56 a 7.3,7.3 0 0 0 -6.57,0.57 3.74,3.74 0 0 0 -3.38,-0.82 8,8 0 0 0 -3.17,1.69 19.11,19.11 0 0 0 -4.76,5.6 10.42,10.42 0 0 0 -1.55,6.14 5.55,5.55 0 0 0 3.73,4.78 5.41,5.41 0 0 0 2.48,5.65 7.59,7.59 0 0 0 6.35,0.6 13.06,13.06 0 0 0 5.37,-3.69 c 4.14,-4.5 9.64,-17.18 1.5,-20.52 z"
       style="fill:#e0e0e0"
       id="path169" />
    <path
       d="m 278.59,151.81 c 17.73,0.54 22.58,8 42.13,22 13.75,9.8 15.4,29.15 15.4,29.15 0,0 -6,7.42 -26.52,-3.49 -17.94,-9.52 -32.7,-18 -32.7,-18 z"
       style="fill:#a0bdff;fill-opacity:1"
       id="path170" />
    <path
       d="m 318.12,200.69 c -4.72,-2.27 -6.64,-5.1 -9.47,-10.66 -2.83,-5.56 -8.3,-23 -8.3,-23 z"
       style="opacity:0.1"
       id="path171" />
    <path
       d="m 293.26,136.51 c 0,0 -0.71,-0.13 -1.26,-1.39 -0.55,-1.26 -0.69,-2.21 -1.28,-3.62 -0.59,-1.41 -1.92,-3.68 -3.37,-3.55 -1.45,0.13 -1.27,3.41 -0.61,5.92 a 11.52,11.52 0 0 1 0.14,7.3 9.93,9.93 0 0 0 2.13,9.77 z"
       style="fill:#f28f8f"
       id="path172" />
    <path
       d="m 306.16,178.27 c 4.57,9.5 5.36,11.77 7.45,15.27 a 15.73,15.73 0 0 0 7.16,6.89 24,24 0 0 0 10.18,3 7.76,7.76 0 0 0 3.43,-0.31 c 2.71,-1.06 3.12,-3.81 3,-6.88 a 30.43,30.43 0 0 0 -4.41,-15.7 c -1.34,-2.15 -2.07,-3.07 -6.49,-8.25 -3.6,-4.21 -6.43,-7.16 -11.37,-13.41 -4.47,-5.67 -8.53,-11.25 -10.22,-14.76 -1.69,-3.51 -2.37,-6.06 -2.35,-8.28 0,-3.39 0.57,-3.42 -1.5,-6.84 -1.44,-2.23 -2.23,-5.33 -3,-7.2 a 22.09,22.09 0 0 0 -3.26,-5.06 c -1.37,-1.7 -2.72,-4 -3.5,-4.1 -0.78,-0.1 -1.76,1 -1.27,2.57 0,0 -1.25,-0.86 -2.37,-1.81 -1.12,-0.95 -2.09,-2.26 -3.28,-2.2 -1.19,0.06 -1.23,2 -0.49,3 0.74,1 1.23,1.8 1.23,1.8 0,0 -1,0.8 0.63,2.7 a 11.53,11.53 0 0 0 2.24,2 11,11 0 0 0 2.39,3.52 20.32,20.32 0 0 0 2.69,3.79 c -0.07,1.26 -0.62,2.9 0,4.89 0.62,1.99 1.05,2.36 -0.61,5.42 -1.11,2.06 -3.28,4.67 -4.12,7.32 -0.84,2.65 -0.47,4.47 1.51,6.63 1.69,1.84 4.48,2.74 6.83,6.77 1.83,3.16 3.9,7.6 9.5,19.23 z"
       style="fill:#ffa8a7"
       id="path173" />
    <path
       d="m 290,115.21 a 13.19,13.19 0 0 0 1.16,1.83 c 0.43,0.57 0.9,1.13 1.36,1.65 l 0.07,0.08 v 0.14 a 9.79,9.79 0 0 0 0.24,1.12 7.82,7.82 0 0 0 1.68,3 l 0.13,0.14 v 0.16 a 8,8 0 0 0 -0.08,0.88 c 0,0.3 0,0.61 0,0.91 0,0.3 0.06,0.61 0.12,0.91 a 9.41,9.41 0 0 0 0.25,0.91 5.16,5.16 0 0 1 -0.82,-1.74 6,6 0 0 1 -0.18,-1 5.62,5.62 0 0 1 0,-1 l 0.1,0.3 a 6.14,6.14 0 0 1 -1.53,-2.08 6.75,6.75 0 0 1 -0.44,-1.21 6,6 0 0 1 -0.2,-1.29 l 0.09,0.22 a 11.32,11.32 0 0 1 -1.22,-1.87 7.12,7.12 0 0 1 -0.73,-2.06 z"
       style="fill:#f28f8f"
       id="path174" />
    <path
       d="m 285.1,116 a 7.69,7.69 0 0 0 1,0.7 9,9 0 0 0 1.11,0.5 h 0.08 l 0.06,0.1 a 9.47,9.47 0 0 0 1.62,2 6.94,6.94 0 0 0 2.11,1.38 l 0.24,0.1 v 0.27 a 7.37,7.37 0 0 0 0.24,1.39 11.81,11.81 0 0 0 0.47,1.38 12.68,12.68 0 0 0 0.65,1.34 c 0.23,0.45 0.51,0.86 0.79,1.3 a 9.52,9.52 0 0 1 -1.1,-1.1 8.85,8.85 0 0 1 -0.89,-1.28 8,8 0 0 1 -0.64,-1.43 6.16,6.16 0 0 1 -0.34,-1.58 l 0.26,0.36 a 5.65,5.65 0 0 1 -1.29,-0.67 6.33,6.33 0 0 1 -1.08,-0.92 7.5,7.5 0 0 1 -1.54,-2.32 l 0.13,0.13 a 5.09,5.09 0 0 1 -1.07,-0.74 4.19,4.19 0 0 1 -0.81,-0.91 z"
       style="fill:#f28f8f"
       id="path175" />
    <path
       d="m 285.1,116 c 0,0 -1,0.8 0.63,2.7 a 11.53,11.53 0 0 0 2.24,2 12.79,12.79 0 0 0 2,3.11 57.38,57.38 0 0 0 -1.1,-9.41 c -0.38,-0.29 -0.81,-0.62 -1.22,-1 -1.13,-1 -2.09,-2.26 -3.28,-2.2 -1.19,0.06 -1.23,2 -0.49,3 0.74,1 1.22,1.8 1.22,1.8 z"
       style="fill:#f28f8f"
       id="path176" />
    <path
       d="m 294.41,130.49 a 6,6 0 0 1 0.06,2.76 8.54,8.54 0 0 1 -1,2.58 c 0.07,-0.45 0.19,-0.9 0.29,-1.34 0.1,-0.44 0.21,-0.88 0.29,-1.32 a 19.64,19.64 0 0 0 0.36,-2.68 z"
       style="fill:#f28f8f"
       id="path177" />
    <path
       d="m 289.53,142.7 a 11.22,11.22 0 0 0 0.77,4.83 9.09,9.09 0 0 0 1.24,2.07 18.66,18.66 0 0 0 1.74,1.84 6.94,6.94 0 0 1 -2.23,-1.4 6.57,6.57 0 0 1 -1.52,-7.34 z"
       style="fill:#f28f8f"
       id="path178" />
    <path
       d="m 300.35,167.06 c 6.85,0.67 13.76,-6.5 14.21,-10.11 12,13.43 16.6,18.82 19.45,23.61 2.85,4.79 8.22,21 -0.3,23.83 -8.52,2.83 -17.68,-3.76 -21.06,-10 -2.02,-3.78 -12.3,-27.33 -12.3,-27.33 z"
       style="fill:#a0bdff;fill-opacity:1"
       id="path179" />
    <path
       d="m 249,151.35 c -1.72,0.21 -12.77,3.94 -16.24,5.49 -8.08,3.61 -12.77,12.31 -13.59,21.22 -0.57,6.24 0.62,12.48 1.82,18.62 1.2,6.14 2.42,12.38 1.91,18.62 -0.36,4.4 -0.32,7.7 3,11 2.55,2.5 6.57,3 9.91,3.75 a 142.54,142.54 0 0 0 29.94,3.79 83.62,83.62 0 0 0 10.85,-0.4 c 7.94,-0.88 20.23,-2.83 23.6,-11.26 1.86,-4.65 0.12,-9.86 -0.34,-14.85 -0.77,-8.39 4.54,-16 3,-24.22 -2.27,-12.45 -11.36,-20.28 -24.3,-31.27 l -9.32,-0.53 c 0,0 -12.35,-0.92 -20.24,0.04 z"
       style="fill:#79a2ff;fill-opacity:1"
       id="path180" />
    <path
       d="M 286.67,251.77 282.79,450 c 0,0.73 0.68,1.47 2.09,1.85 a 5.12,5.12 0 0 0 2.4,0 c 1.43,-0.32 2.15,-1 2.17,-1.76 l 3.88,-198.19 z"
       style="fill:#407bff"
       id="path181" />
    <path
       d="m 282.79,450 c 0,0.73 0.68,1.47 2.09,1.85 a 5.12,5.12 0 0 0 2.4,0 c 1.43,-0.32 2.15,-1 2.17,-1.76 l 0.1,-5.17 c 0,0.73 -0.74,1.44 -2.17,1.76 a 5,5 0 0 1 -2.39,0 c -1.42,-0.38 -2.12,-1.12 -2.1,-1.85 z"
       style="fill:#37474f"
       id="path182" />
    <path
       d="m 300.15,247.81 c -0.09,-0.25 -0.28,-0.76 -0.41,-1.08 -0.64,-1.54 -1.18,-2.38 -1.73,-3.66 a 20.49,20.49 0 0 0 -2.19,-3.8 c -0.67,-0.75 -1.37,-1.23 -3.37,-1.17 -6.62,0.19 -9.68,0.51 -15.2,1 a 8.94,8.94 0 0 1 -3.11,-0.55 c -1.32,-0.41 -15.42,-7.84 -16.84,-8.54 0,0 -4,1.21 -7.32,7.7 -2,4 -2.11,10.93 -2.11,10.93 l 23.2,8 c 0,0 4.6,2.07 8.19,-0.68 0,0 -0.63,1.75 0.94,2.2 a 3.39,3.39 0 0 0 2.95,-0.91 4.21,4.21 0 0 0 3.54,0.52 c 1.81,-0.67 2.38,-0.74 2.69,-1.48 0,0 2.89,0.4 3.59,-0.41 l 1.68,0.16 a 5.35,5.35 0 0 0 3.92,0.55 c 2.18,-0.57 2.72,-2.24 1.36,-3.51 l -1.35,-1.28 c 0,0 0.72,-1.13 1.22,-2.05 0.5,-0.92 0.57,-1.31 0.35,-1.94 z"
       style="fill:#ffa8a7"
       id="path183" />
    <path
       d="m 298.57,256.56 c 2.18,-0.57 2.72,-2.24 1.36,-3.51 l -1.35,-1.28 a 18.67,18.67 0 0 1 -2.54,3.34 5.07,5.07 0 0 1 -1.39,0.9 5.35,5.35 0 0 0 3.92,0.55 z"
       style="fill:#f28f8f"
       id="path184" />
    <path
       d="m 273.71,239.08 a 11.41,11.41 0 0 0 -2.34,2.42 20.84,20.84 0 0 0 -1.33,3.09 c -0.12,0.27 -0.19,0.52 -0.34,0.81 l -0.44,0.74 a 9.4,9.4 0 0 0 -0.7,1.51 8.1,8.1 0 0 0 -0.39,3.33 6.84,6.84 0 0 1 0.11,-3.42 A 7.74,7.74 0 0 1 269,246 l 0.42,-0.73 c 0.11,-0.22 0.2,-0.52 0.31,-0.78 a 17.93,17.93 0 0 1 1.45,-3.12 9,9 0 0 1 2.53,-2.29 z"
       style="fill:#f28f8f"
       id="path185" />
    <path
       d="m 294.76,241.39 a 3,3 0 0 0 0.39,1.9 c 0.32,0.6 0.6,1.21 0.89,1.82 0.29,0.61 0.54,1.23 0.78,1.86 0.12,0.32 0.23,0.63 0.33,1 a 2.38,2.38 0 0 1 0.09,1.06 5.53,5.53 0 0 1 -0.8,1.91 c -0.34,0.58 -0.69,1.16 -1.06,1.72 a 23.69,23.69 0 0 1 -2.41,3.22 c 0.8,-1.07 1.46,-2.24 2.16,-3.38 0.33,-0.58 0.68,-1.15 1,-1.73 a 5.15,5.15 0 0 0 0.72,-1.79 3.79,3.79 0 0 0 -0.36,-1.86 c -0.22,-0.63 -0.48,-1.24 -0.72,-1.86 -0.24,-0.62 -0.51,-1.25 -0.79,-1.85 a 2.78,2.78 0 0 1 -0.29,-1 5.65,5.65 0 0 1 0.07,-1.02 z"
       style="fill:#f28f8f"
       id="path186" />
    <path
       d="m 290.16,241.7 a 6.28,6.28 0 0 0 0.67,1.81 l 0.87,1.75 a 13.21,13.21 0 0 1 0.74,1.83 3.69,3.69 0 0 1 0.16,2 c -0.53,1.23 -1,2.4 -1.56,3.59 -0.56,1.19 -1.08,2.37 -1.66,3.54 0.43,-1.23 0.91,-2.44 1.39,-3.66 l 1.46,-3.6 a 3.24,3.24 0 0 0 -0.13,-1.81 c -0.18,-0.61 -0.43,-1.21 -0.67,-1.81 a 12.76,12.76 0 0 1 -1.27,-3.64 z"
       style="fill:#f28f8f"
       id="path187" />
    <path
       d="m 282.79,242.19 a 16.18,16.18 0 0 0 1.09,1.84 11.78,11.78 0 0 0 1.29,1.67 3.38,3.38 0 0 1 1.25,1.8 8.43,8.43 0 0 1 0.12,2.17 c 0,0.71 0,1.42 0,2.15 a 3.6,3.6 0 0 1 -0.67,2.08 33.69,33.69 0 0 1 -2.73,3.32 c 0.85,-1.15 1.71,-2.29 2.48,-3.48 0.77,-1.19 0.51,-2.65 0.53,-4.07 a 8,8 0 0 0 -0.09,-2.09 3.3,3.3 0 0 0 -1.06,-1.68 13.47,13.47 0 0 1 -2.21,-3.71 z"
       style="fill:#f28f8f"
       id="path188" />
    <path
       d="m 277.21,245.69 a 4.85,4.85 0 0 0 0.93,2 4.57,4.57 0 0 0 1.64,1.43 l 0.1,0.06 v 0.12 a 6.13,6.13 0 0 0 0.73,3.38 l 0.05,0.08 v 0.07 c -0.44,1 -0.88,2.06 -1.37,3.08 0.32,-1.08 0.69,-2.14 1.06,-3.2 v 0.15 a 5.81,5.81 0 0 1 -0.82,-3.59 l 0.1,0.18 a 4.36,4.36 0 0 1 -1.68,-1.62 4.05,4.05 0 0 1 -0.74,-2.14 z"
       style="fill:#f28f8f"
       id="path189" />
    <path
       d="m 277.91,247.58 a 38.3,38.3 0 0 0 -4.65,2.19 6.32,6.32 0 0 0 -2.53,3.86 c -0.24,1.57 1.52,2 2.53,1.8 0.61,-0.1 2.06,-1.41 3.07,-1.71 a 24.65,24.65 0 0 1 3.92,-0.38 l 0.22,-0.55 a 5.94,5.94 0 0 1 -0.77,-3.48 4.68,4.68 0 0 1 -1.79,-1.73 z"
       style="fill:#37474f"
       id="path190" />
    <path
       d="m 232.52,157 c -5,2.15 -10.69,4.47 -14.54,8.28 -3.4,3.37 -5.6,10.05 -7.42,23.79 -1.65,12.58 -2.89,23.19 -3.58,32.22 -0.69,9.03 -0.68,11.18 7.92,15.22 6.76,3.17 40.61,15.37 40.61,15.37 -0.82,-6.8 3.05,-16.13 10,-18.39 l -31.34,-17.23 3.71,-25.4 c 0,0 4.12,-23.24 -5.36,-33.86 z"
       style="fill:#a0bdff;fill-opacity:1"
       id="path191" />
    <g
       id="freepik--head--inject-214">
      <polygon
         points="271.28,145.33 249.66,136.2 249,151.81 275.3,167.84 270.91,154.17 "
         style="fill:#ffa8a7"
         id="polygon191" />
      <path
         d="m 271.28,145.33 -4.15,-1.75 -13.76,-0.58 c 2.72,3.66 10.34,8.29 17.61,9.35 z"
         style="fill:#f28f8f"
         id="path192" />
      <path
         d="m 249.66,136.2 a 6.7,6.7 0 0 1 -7.07,-1.73 c -3.37,-3.5 -4.51,-7.88 -1.63,-10.73 a 6.37,6.37 0 0 1 10.11,2.14 c 0,0 3.45,5 4.66,-6.27 0.48,-4.47 3.36,-10.35 8.8,-11.65 10.26,-2.46 13.29,7.92 19.89,-0.82 2.13,2.37 5.16,4.61 4.55,21.76 -0.51,14.54 -6.15,18.17 -8.53,19.17 -2.38,1 -6.82,2.42 -14.71,0.39 a 35.7,35.7 0 0 1 -14.07,-6.74 c -2.08,-1.65 -2,-5.52 -2,-5.52 z"
         style="fill:#ffa8a7"
         id="path193" />
      <path
         d="m 264.46,123 a 2,2 0 0 0 -1.07,-1 6.28,6.28 0 0 0 -0.59,-0.27 2.9,2.9 0 0 0 -0.42,-0.12 h -0.09 a 0.66,0.66 0 0 0 -0.14,0 c -0.13,0 -0.2,0.11 -0.29,0.19 a 0.5,0.5 0 0 0 0.06,0.72 c 0,0 0.38,0.2 0.19,0.12 l 0.19,0.1 0.15,0.06 0.22,0.08 a 3.71,3.71 0 0 1 0.46,0.19 v 0 l 0.21,0.11 0.19,0.09 0.16,0.1 a 1.75,1.75 0 0 1 0.27,0.16 0.26,0.26 0 0 0 0.39,0 0.5,0.5 0 0 0 0.11,-0.53 z"
         style="fill:#f28f8f"
         id="path194" />
      <path
         d="m 263.53,124.26 a 1.41,1.41 0 0 0 -0.49,-0.16 h -0.24 -0.16 -0.22 a 5.06,5.06 0 0 0 -1.07,-0.26 c -0.16,0 -0.24,0.23 -0.25,0.35 a 0.56,0.56 0 0 0 0.17,0.49 2,2 0 0 0 0.65,0.35 3,3 0 0 0 0.45,0.12 3.31,3.31 0 0 0 0.55,0.08 h 0.2 0.2 c 0.18,-0.05 0.25,-0.18 0.34,-0.33 a 0.41,0.41 0 0 0 -0.13,-0.64 z"
         style="fill:#f28f8f"
         id="path195" />
      <path
         d="m 288.22,121.8 a 0.42,0.42 0 0 0 -0.59,-0.16 2.17,2.17 0 0 1 -0.36,0.12 c -0.23,0.08 -0.46,0.14 -0.7,0.2 a 0.75,0.75 0 0 0 -0.13,0.06 0.26,0.26 0 0 0 0,0.29 c 0.2,0.31 0.56,0.29 0.89,0.27 a 1.93,1.93 0 0 0 0.86,-0.18 0.32,0.32 0 0 0 0.12,-0.26 0.63,0.63 0 0 0 -0.09,-0.34 z"
         style="fill:#f28f8f"
         id="path196" />
      <path
         d="m 288.35,124.19 h -0.06 v 0 l -0.08,-0.06 h -0.06 -0.05 -0.21 -0.05 -0.33 a 4.59,4.59 0 0 0 -0.91,0 0.35,0.35 0 0 0 -0.27,0.5 0.57,0.57 0 0 0 0.29,0.19 3.53,3.53 0 0 0 0.63,0.13 h 0.13 c 0.23,0 0.47,0.07 0.71,0.09 0.24,0.02 0.46,-0.18 0.39,-0.41 a 0.67,0.67 0 0 0 -0.13,-0.44 z"
         style="fill:#f28f8f"
         id="path197" />
      <path
         d="m 269.82,136.4 a 0.16,0.16 0 0 1 0,0.06 v 0 z"
         style="fill:#f28f8f"
         id="path198" />
      <path
         d="m 269.82,136.43 v 0 0.05 a 0.16,0.16 0 0 1 0,-0.05 z"
         style="fill:#f28f8f"
         id="path199" />
      <path
         d="m 267,124.27 c -0.09,-0.89 0.91,0.32 2.05,0.2 1.14,-0.12 2,-1.55 2.07,-0.66 a 1.91,1.91 0 0 1 -1.9,1.84 1.85,1.85 0 0 1 -2.22,-1.38 z"
         style="fill:#263238"
         id="path200" />
      <path
         d="m 280.58,123.63 c 0.12,-0.89 0.83,0.52 2,0.65 1.17,0.13 2.29,-1.07 2.18,-0.18 a 2,2 0 0 1 -2.29,1.38 c -1.16,-0.13 -2,-0.96 -1.89,-1.85 z"
         style="fill:#263238"
         id="path201" />
      <path
         d="m 281.57,117.13 4.18,1.67 a 2.16,2.16 0 0 1 -2.85,1.31 2.37,2.37 0 0 1 -1.33,-2.98 z"
         style="fill:#455a64"
         id="path202" />
      <path
         d="m 266.71,118.3 4.26,-1.46 a 2.17,2.17 0 0 1 -1.31,2.85 2.37,2.37 0 0 1 -2.95,-1.39 z"
         style="fill:#455a64"
         id="path203" />
      <polygon
         points="276.37,133.28 283.36,130.71 275.14,120.87 "
         style="fill:#f28f8f"
         id="polygon203" />
      <path
         d="m 273.53,117 a 2.32,2.32 0 0 0 -0.44,-0.76 2.5,2.5 0 0 0 -1.74,-0.88 c -0.11,0 -0.15,0.14 -0.14,0.23 a 0.38,0.38 0 0 0 0.2,0.3 2.28,2.28 0 0 1 0.3,0.21 c 0.06,0 0,0 0,0 a 0.6,0.6 0 0 0 0.08,0.08 l 0.11,0.11 h 0.06 c 0,0 0,0.07 0,0 l 0.09,0.12 0.09,0.12 0.05,0.06 c 0,0 0,0 0,0 a 0.54,0.54 0 0 1 0.07,0.13 v 0.07 c 0,0 0,0 0,0 0,0 0,0.09 0,0.14 a 0.29,0.29 0 0 1 0,0.09 v 0 a 2.9,2.9 0 0 1 0,0.51 0.6,0.6 0 0 0 0.43,0.55 0.51,0.51 0 0 0 0.63,-0.21 1,1 0 0 0 0.15,-0.57 1.39,1.39 0 0 0 0.06,-0.3 z"
         style="fill:#f28f8f"
         id="path204" />
      <path
         d="m 280.43,115.57 a 1.36,1.36 0 0 0 -0.41,0.26 1.89,1.89 0 0 0 -0.32,0.37 3.44,3.44 0 0 0 -0.35,0.69 3,3 0 0 0 -0.16,0.78 1.83,1.83 0 0 0 0.05,0.47 1.68,1.68 0 0 0 0.06,0.24 0.69,0.69 0 0 0 0.21,0.26 1,1 0 0 0 0.29,0.31 c 0.1,0 0.14,0 0.23,-0.06 a 1,1 0 0 0 0.23,-0.42 1.48,1.48 0 0 0 0,-0.21 c 0,-0.11 0,-0.2 0.05,-0.3 0.05,-0.1 0,-0.13 0,-0.2 v -0.17 -0.11 a 4.23,4.23 0 0 1 0.21,-0.63 c 0.05,-0.1 0.1,-0.19 0.14,-0.29 a 1.51,1.51 0 0 0 0.21,-0.49 c 0.13,-0.25 -0.16,-0.61 -0.44,-0.5 z"
         style="fill:#f28f8f"
         id="path205" />
      <path
         d="m 275.48,137.64 -0.1,-0.14 a 1.63,1.63 0 0 0 -0.17,-0.2 4.83,4.83 0 0 0 -0.38,-0.4 5.55,5.55 0 0 0 -1,-0.76 6.3,6.3 0 0 0 -1.68,-0.68 5.88,5.88 0 0 0 1.44,-3.28 c 0,-0.11 -0.14,-0.38 -0.23,-0.18 a 9.6,9.6 0 0 1 -3.31,4 8.49,8.49 0 0 1 -2.38,1.06 7.63,7.63 0 0 1 -1.24,0.27 c -0.44,0.06 -0.89,0.08 -1.34,0.1 a 1.47,1.47 0 0 0 -0.72,0.14 c -0.13,0.08 0,0.33 0.06,0.38 a 5.59,5.59 0 0 0 3.29,0 8.45,8.45 0 0 0 2.92,-1.19 c 0.23,-0.15 0.44,-0.31 0.65,-0.47 a 0.86,0.86 0 0 0 0.23,0.06 5.81,5.81 0 0 1 1.94,0.55 7.51,7.51 0 0 1 0.82,0.47 6.39,6.39 0 0 1 0.78,0.59 1.38,1.38 0 0 0 0.44,0.32 0.11,0.11 0 0 0 0.16,-0.11 1.21,1.21 0 0 0 -0.18,-0.53 z"
         style="fill:#b16668"
         id="path206" />
    </g>
  </g>
  <g
     id="g222">
    <g
       id="freepik--speech-bubble--inject-214">
      <path
         d="m 292.87,48.82 a 23.8,23.8 0 0 1 -6.42,16.33 l -2,1.88 A 23.86,23.86 0 0 1 250.73,33.47 l 1.88,-2 a 23.86,23.86 0 0 1 40.23,17.33 z"
         style="fill:#ffffff"
         id="path207" />
      <path
         d="m 268.93,23 a 25.91,25.91 0 0 0 -4.2,51.46 l 2.93,7.5 a 1.51,1.51 0 0 0 2.81,0 l 2.89,-7.51 A 25.91,25.91 0 0 0 268.93,23 Z m 23.94,25.85 a 23.8,23.8 0 0 1 -6.42,16.33 l -2,1.88 A 23.86,23.86 0 0 1 250.73,33.5 l 1.88,-2 a 23.86,23.86 0 0 1 40.23,17.33 z"
         style="fill:#e0e0e0"
         id="path208" />
      <path
         d="m 292.87,48.82 a 23.8,23.8 0 0 1 -6.42,16.33 l -2,1.88 A 23.86,23.86 0 0 1 250.73,33.47 l 1.88,-2 a 23.86,23.86 0 0 1 40.23,17.33 z"
         style="opacity:0.7;fill:#ffffff"
         id="path209" />
    </g>
    <g
       id="freepik--Thoughts--inject-214">
      <path
         d="M 264.27,64.2 A 11.85,11.85 0 0 1 252.6,54.3 v 0 a 11.84,11.84 0 1 1 11.67,9.9 z m 0,-23.05 a 10.48,10.48 0 0 0 -1.84,0.16 11.23,11.23 0 0 0 -9.22,12.89 11.21,11.21 0 1 0 11.06,-13.05 z"
         style="fill:#455a64"
         id="path210" />
      <path
         d="m 268.71,64.2 a 11.9,11.9 0 1 1 2,-0.16 11.75,11.75 0 0 1 -2,0.16 z m 0,-23.16 a 11.88,11.88 0 0 0 -1.87,0.15 11.26,11.26 0 1 0 13,9.27 A 11.29,11.29 0 0 0 268.73,41 Z"
         style="fill:#455a64"
         id="path211" />
      <path
         d="m 273.64,63.67 a 11.92,11.92 0 0 1 -11.73,-9.94 v 0 a 11.9,11.9 0 1 1 11.73,9.94 z m -11.1,-10.05 a 11.27,11.27 0 1 0 1.95,-8.39 11.26,11.26 0 0 0 -1.95,8.39 z"
         style="fill:#455a64"
         id="path212" />
      <path
         d="m 264.62,60.44 a 11.89,11.89 0 1 1 2,-0.16 12,12 0 0 1 -2,0.16 z m 0,-23.16 a 10.59,10.59 0 0 0 -1.85,0.16 11.27,11.27 0 0 0 -9.26,13 v 0 a 11.262155,11.262155 0 0 0 22.22,-3.69 11.29,11.29 0 0 0 -11.09,-9.47 z"
         style="fill:#455a64"
         id="path213" />
      <path
         d="m 266.58,60.88 a 12,12 0 1 1 2,-0.17 12,12 0 0 1 -2,0.17 z m 0,-23.16 a 11.79,11.79 0 0 0 -1.87,0.15 11.27,11.27 0 0 0 -9.26,13 v 0 a 11.3,11.3 0 0 0 13,9.27 11.26,11.26 0 0 0 -1.83,-22.37 z"
         style="fill:#455a64"
         id="path214" />
      <path
         d="m 267.23,59.93 a 7.13,7.13 0 1 1 1.17,-0.1 6.6,6.6 0 0 1 -1.17,0.1 z m -6.35,-6 a 6.45,6.45 0 1 0 5.3,-7.43 6.45,6.45 0 0 0 -5.3,7.43 z"
         style="fill:#455a64"
         id="path215" />
      <path
         d="m 270.42,55 a 7.11,7.11 0 0 1 -7,-5.93 v 0 a 7.09,7.09 0 1 1 8.15,5.83 7.68,7.68 0 0 1 -1.15,0.1 z m -6.36,-6 a 6.47,6.47 0 1 0 1.12,-4.81 6.34,6.34 0 0 0 -1.12,4.81 z"
         style="fill:#455a64"
         id="path216" />
      <path
         d="m 268.93,56.17 a 7.06,7.06 0 1 1 1.17,-0.09 7.68,7.68 0 0 1 -1.17,0.09 z m 0,-13.54 a 6.53,6.53 0 0 0 -1.07,0.09 6.39,6.39 0 1 0 1.07,-0.09 z"
         style="fill:#455a64"
         id="path217" />
      <path
         d="m 272.1,52.3 a 7.13,7.13 0 1 1 1.18,-0.1 7.83,7.83 0 0 1 -1.18,0.1 z m 0,-13.54 a 6.39,6.39 0 0 0 -1.06,0.08 6.47,6.47 0 0 0 -5.31,7.43 6.4526603,6.4526603 0 0 0 12.73,-2.12 6.45,6.45 0 0 0 -6.34,-5.39 z"
         style="fill:#455a64"
         id="path218" />
      <path
         d="m 269.75,52.77 a 6.74,6.74 0 0 1 -6.63,-5.62 v 0 a 6.72,6.72 0 0 1 10.54,-6.57 6.65,6.65 0 0 1 2.73,4.36 6.74,6.74 0 0 1 -5.53,7.74 6.92,6.92 0 0 1 -1.11,0.09 z m -6,-5.73 a 6.09,6.09 0 0 0 12,-2 6.09,6.09 0 0 0 -7,-5 6.09,6.09 0 0 0 -5,7 z"
         style="fill:#455a64"
         id="path219" />
      <path
         d="m 263.71,54 a 7,7 0 1 1 1.17,-0.09 7.68,7.68 0 0 1 -1.17,0.09 z m 0,-13.54 a 6.45,6.45 0 1 0 6.36,5.4 6.41,6.41 0 0 0 -6.35,-5.42 z"
         style="fill:#455a64"
         id="path220" />
      <path
         d="m 268.47,58.15 a 11.91,11.91 0 0 1 -11.73,-9.94 v 0 a 11.9,11.9 0 1 1 11.73,9.94 z m -11.11,-10 a 11.26,11.26 0 1 0 9.26,-13 11.29,11.29 0 0 0 -9.26,13 z"
         style="fill:#455a64"
         id="path221" />
      <path
         d="m 272.87,59.07 a 11.92,11.92 0 0 1 -11.73,-9.94 v 0 a 11.93,11.93 0 0 1 9.79,-13.69 11.9,11.9 0 1 1 1.94,23.63 z m -11.1,-10 a 11.25,11.25 0 1 0 9.26,-13 11.27,11.27 0 0 0 -9.26,13 z"
         style="fill:#455a64"
         id="path222" />
    </g>
  </g>
</svg>
