<?xml version="1.0" encoding="UTF-8" standalone="no"?>
<svg
   viewBox="0 0 500 500"
   version="1.1"
   id="svg138"
   sodipodi:docname="transtorno de personalidade.svg"
   inkscape:version="1.3.2 (091e20ef0f, 2023-11-25, custom)"
   width="500"
   height="500"
   xmlns:inkscape="http://www.inkscape.org/namespaces/inkscape"
   xmlns:sodipodi="http://sodipodi.sourceforge.net/DTD/sodipodi-0.dtd"
   xmlns="http://www.w3.org/2000/svg"
   xmlns:svg="http://www.w3.org/2000/svg">
  <defs
     id="defs138" />
  <sodipodi:namedview
     id="namedview138"
     pagecolor="#ffffff"
     bordercolor="#000000"
     borderopacity="0.25"
     inkscape:showpageshadow="2"
     inkscape:pageopacity="0.0"
     inkscape:pagecheckerboard="0"
     inkscape:deskcolor="#d1d1d1"
     inkscape:zoom="0.64063874"
     inkscape:cx="532.28127"
     inkscape:cy="353.55339"
     inkscape:window-width="1680"
     inkscape:window-height="984"
     inkscape:window-x="1360"
     inkscape:window-y="0"
     inkscape:window-maximized="1"
     inkscape:current-layer="svg138" />
  <g
     id="g1"
     transform="matrix(0.74458954,0,0,0.90784621,-29.507568,5.6708586)">
    <path
       d="m 387,40.07 c 0,0 -0.9,123.5 -67.22,112.43 -64.66,-10.8 -41.05,-124.84 -41.05,-124.84 0,0 51.84,37.89 108.27,12.41 z"
       style="fill:#cccccc"
       id="path1" />
    <path
       d="m 320.92,82 a 183.36,183.36 0 0 1 -25,-15.41 13.57,13.57 0 0 0 0.33,13.94 c 2.61,4.15 7.38,7.43 12.26,7 5.39,-0.42 8.74,-2.3 12.38,-5.57"
       style="fill:#999999"
       id="path2" />
    <path
       d="m 367.07,72.54 a 181.42,181.42 0 0 1 -26.64,12.29 13.58,13.58 0 0 0 11.8,7.44 c 4.9,0.11 10.28,-2 12.65,-6.33 2.62,-4.73 2.91,-8.55 2.19,-13.4"
       style="fill:#999999"
       id="path3" />
    <path
       d="m 305.92,118.14 c -0.68,-0.21 -1.09,-1.21 -1.06,-2.92 a 15.89,15.89 0 0 1 2,-6.77 23.41,23.41 0 0 1 7.15,-8 22.87,22.87 0 0 1 5.91,-3.05 21.16,21.16 0 0 1 7.31,-1.23 22,22 0 0 1 13.2,4.67 22.37,22.37 0 0 1 6.77,8.48 15.6,15.6 0 0 1 1.55,6.93 c -0.11,1.71 -0.6,2.67 -1.29,2.83 -1.47,0.34 -3.2,-2.52 -6.42,-5.72 a 26.16,26.16 0 0 0 -6,-4.57 17,17 0 0 0 -7.91,-2.21 15.44,15.44 0 0 0 -4.16,0.55 19.07,19.07 0 0 0 -3.92,1.48 29,29 0 0 0 -6.31,4.32 c -3.42,2.97 -5.39,5.66 -6.82,5.21 z"
       style="fill:#999999"
       id="path4" />
    <path
       d="m 601.21,79.9 a 184.06,184.06 0 0 1 -27.21,-11 13.6,13.6 0 0 0 2.68,13.69 c 3.27,3.64 8.53,6.08 13.28,4.87 5.24,-1.33 8.22,-3.74 11.25,-7.58"
       style="fill:#cccccc"
       id="path5" />
    <path
       d="m 645.11,62.79 a 182.54,182.54 0 0 1 -24.19,16.62 13.6,13.6 0 0 0 12.9,5.33 c 4.84,-0.71 9.77,-3.75 11.39,-8.38 1.79,-5.1 1.42,-8.91 -0.1,-13.57"
       style="fill:#cccccc"
       id="path6" />
    <path
       d="m 592.53,118.06 c -0.7,-0.1 -1.27,-1 -1.54,-2.7 a 15.94,15.94 0 0 1 0.86,-7 23.31,23.31 0 0 1 5.68,-9.14 22.37,22.37 0 0 1 5.31,-4 21.53,21.53 0 0 1 7,-2.45 22,22 0 0 1 13.8,2.38 22.4,22.4 0 0 1 8.1,7.22 15.55,15.55 0 0 1 2.7,6.57 c 0.19,1.7 -0.14,2.73 -0.79,3 -1.39,0.58 -3.58,-1.94 -7.29,-4.55 a 26.18,26.18 0 0 0 -6.69,-3.5 17,17 0 0 0 -8.16,-0.84 15.43,15.43 0 0 0 -4,1.25 18.58,18.58 0 0 0 -3.61,2.12 29.14,29.14 0 0 0 -5.5,5.32 c -2.9,3.54 -4.4,6.52 -5.87,6.32 z"
       style="fill:#cccccc"
       id="path7" />
    <path
       d="m 697.71,346.29 c 0,0 -22.66,118 -84.16,95.68 C 553.6,420.23 596.33,315.3 596.33,315.3 c 0,0 42.89,45.39 101.38,30.99 z"
       style="fill:#cccccc"
       id="path8" />
    <path
       d="m 598,365.6 a 177.87,177.87 0 0 1 23.27,16.52 13.22,13.22 0 0 0 0.55,-13.57 c -2.27,-4.18 -6.7,-7.67 -11.46,-7.59 -5.26,0.07 -8.63,1.69 -12.36,4.64"
       style="fill:#999999"
       id="path9" />
    <path
       d="m 646.69,389.92 a 178.06,178.06 0 0 1 27.66,-7.06 13.22,13.22 0 0 0 -10,-9.19 c -4.66,-1 -10.19,0.14 -13.22,3.82 -3.34,4.06 -4.29,7.67 -4.46,12.43"
       style="fill:#999999"
       id="path10" />
    <path
       d="m 652.5,400.43 c 0.62,0.33 0.83,1.42 0.45,3.16 a 17,17 0 0 1 -3.42,6.52 24.45,24.45 0 0 1 -8.86,6.85 23.66,23.66 0 0 1 -6.63,2 22.16,22.16 0 0 1 -7.69,-0.13 22.93,22.93 0 0 1 -12.61,-7.25 23.53,23.53 0 0 1 -5.37,-9.94 16.69,16.69 0 0 1 -0.35,-7.39 c 0.41,-1.73 1.07,-2.63 1.77,-2.66 1.51,-0.06 2.69,3.23 5.37,7.2 a 27.41,27.41 0 0 0 5.32,6 17.93,17.93 0 0 0 7.85,3.86 16.32,16.32 0 0 0 4.47,0.22 19.93,19.93 0 0 0 4.38,-0.81 29.69,29.69 0 0 0 7.37,-3.34 c 4.13,-2.55 6.62,-5 7.95,-4.29 z"
       style="fill:#999999"
       id="path11" />
    <path
       d="m 54.11,144.3 a 178,178 0 0 1 23.28,16.52 13.25,13.25 0 0 0 0.55,-13.56 c -2.28,-4.18 -6.71,-7.67 -11.47,-7.6 -5.26,0.08 -8.62,1.69 -12.36,4.64"
       style="fill:#cccccc"
       id="path12" />
    <path
       d="m 102.82,168.62 a 179.16,179.16 0 0 1 27.66,-7.05 13.25,13.25 0 0 0 -10,-9.2 c -4.66,-1 -10.18,0.15 -13.21,3.83 -3.35,4.06 -4.29,7.66 -4.46,12.42"
       style="fill:#cccccc"
       id="path13" />
    <path
       d="m 108.62,179.13 c 0.63,0.34 0.83,1.43 0.46,3.16 a 17,17 0 0 1 -3.42,6.52 24.4,24.4 0 0 1 -8.87,6.86 23.93,23.93 0 0 1 -6.62,2 22.47,22.47 0 0 1 -7.7,-0.13 22.9,22.9 0 0 1 -12.6,-7.25 23.37,23.37 0 0 1 -5.37,-9.94 16.4,16.4 0 0 1 -0.35,-7.39 c 0.4,-1.73 1.06,-2.63 1.77,-2.66 1.51,-0.06 2.68,3.22 5.37,7.19 a 26.64,26.64 0 0 0 5.31,6 17.83,17.83 0 0 0 7.85,3.86 16.4,16.4 0 0 0 4.48,0.23 20,20 0 0 0 4.38,-0.81 30.61,30.61 0 0 0 7.37,-3.34 c 4.12,-2.56 6.61,-5 7.94,-4.3 z"
       style="fill:#cccccc"
       id="path14" />
    <path
       d="m 168.29,365 c 0,0 32.36,92.42 -20.11,101.9 -51.14,9.23 -64,-82.2 -64,-82.2 0,0 48.82,14.41 84.11,-19.7 z"
       style="fill:#cccccc"
       id="path15" />
    <path
       d="m 124.27,408.12 a 145.31,145.31 0 0 1 -19.82,12.18 10.79,10.79 0 0 0 10,4.74 c 3.87,-0.37 7.9,-2.58 9.36,-6.17 a 15.17,15.17 0 0 0 0.47,-10.75"
       style="fill:#999999"
       id="path16" />
    <path
       d="m 166.46,404.07 a 144.9,144.9 0 0 1 -23.13,-2.47 10.77,10.77 0 0 0 5,9.86 c 3.28,2.07 7.82,2.78 11.18,0.83 a 15.14,15.14 0 0 0 6.94,-8.22"
       style="fill:#999999"
       id="path17" />
    <path
       d="m 129.15,448.81 c -0.7,0 -1.43,-0.63 -2,-2 a 13.12,13.12 0 0 1 -0.66,-6.16 19.92,19.92 0 0 1 3.23,-8.87 19.38,19.38 0 0 1 3.89,-4.4 18.64,18.64 0 0 1 5.66,-3.33 19.26,19.26 0 0 1 12.39,-0.24 19,19 0 0 1 8.14,5 12.86,12.86 0 0 1 3.26,5.31 c 0.38,1.47 0.19,2.44 -0.4,2.84 -1.24,0.82 -3.65,-0.8 -7.18,-2.19 a 22.85,22.85 0 0 0 -6,-1.59 14.16,14.16 0 0 0 -6.56,0.67 15.15,15.15 0 0 0 -5.55,3.79 25.74,25.74 0 0 0 -3.78,5.09 c -1.99,3.27 -2.95,5.98 -4.44,6.08 z"
       style="fill:#999999"
       id="path18" />
    <polygon
       points="574.09,161.22 549.38,150.55 545.42,173.57 565.36,186.18 576.88,175.15 "
       style="fill:#ffbe9d"
       id="polygon18" />
    <path
       d="m 433.55,233.48 c -1.72,-6.79 0.54,-13.85 1.74,-20.75 1.75,-10.07 1.21,-20.37 0.83,-30.57 -0.38,-10.2 -0.6,-20.56 1.76,-30.5 2.36,-9.94 7.62,-19.56 16.12,-25.19 8.5,-5.63 20.6,-6.41 28.73,-0.22 l -4,26.19 a 485.08,485.08 0 0 1 -1.54,110.9 142.84,142.84 0 0 1 -33.43,1.51 c -2.29,-0.16 -4.95,-0.62 -6,-2.65 -1.29,-2.48 0.66,-5.3 1.47,-8 1.06,-3.51 0,-7.3 -1.43,-10.66 -1.43,-3.36 -3.35,-6.54 -4.25,-10.06 z"
       style="fill:#263238"
       id="path19" />
    <path
       d="m 467.71,133 a 28.08,28.08 0 0 1 11.56,-7.13 9.52,9.52 0 0 1 5.5,-0.41 c 1.79,0.54 3.34,2.25 3.12,4.1 l -10.68,15.49 c -2.11,2 -5.59,1.75 -8.23,0.48 -2,-1 -3.94,-2.63 -4.44,-4.84 -0.64,-2.8 1.15,-5.6 3.17,-7.69 z"
       style="fill:#455a64"
       id="path20" />
    <path
       d="M 530,280.17 Z"
       style="fill:#ffbe9d"
       id="path21" />
    <path
       d="m 549.45,176.46 c -2.18,-22.22 -21.36,-39.84 -44.07,-39 -24.09,0.93 -42.32,21.18 -40.64,44.53 l 9.19,93.87 a 8.16,8.16 0 0 0 2.22,4.84 c 6.72,7.12 17.61,11.8 26.63,11.62 8.75,-0.16 17.07,-3.76 23.71,-9 a 8,8 0 0 0 2.94,-7.44 L 526.52,255 a 0.13,0.13 0 0 1 0.11,-0.16 28.38,28.38 0 0 0 5.81,-1.09 c 5.3,-2.21 18.48,-9.83 19.92,-31.17 0.48,-7 -1,-26.64 -2.91,-46.12 z"
       style="fill:#ffbe9d"
       id="path22" />
    <path
       d="m 523.68,211.71 c 0,-0.21 2.24,-0.8 5.93,-1.6 0.94,-0.18 1.82,-0.44 1.92,-1.09 a 4.7,4.7 0 0 0 -0.89,-2.7 l -3.46,-6.84 c -4.83,-9.75 -8.42,-17.8 -8,-18 0.42,-0.2 4.64,7.57 9.47,17.32 1.17,2.4 2.29,4.69 3.35,6.89 0.46,1 1.18,2.17 0.83,3.61 a 2.36,2.36 0 0 1 -1.43,1.49 6.41,6.41 0 0 1 -1.59,0.37 c -3.76,0.53 -6.09,0.76 -6.13,0.55 z"
       style="fill:#263238"
       id="path23" />
    <path
       d="m 546,192.51 c -0.32,0.6 -3.34,-1.29 -7,-0.68 -3.66,0.61 -6,3.26 -6.46,2.78 -0.24,-0.2 0,-1.24 1,-2.47 a 8.24,8.24 0 0 1 5,-2.89 8.35,8.35 0 0 1 5.72,1.21 c 1.37,0.86 1.94,1.77 1.74,2.05 z"
       style="fill:#263238"
       id="path24" />
    <path
       d="m 509.38,194.83 c -0.44,0.56 -3.38,-1.72 -7.4,-1.61 -4.02,0.11 -6.88,2.44 -7.34,1.9 -0.22,-0.24 0.21,-1.24 1.45,-2.32 a 9.35,9.35 0 0 1 11.77,-0.23 c 1.27,1.03 1.74,2.01 1.52,2.26 z"
       style="fill:#263238"
       id="path25" />
    <path
       d="m 526.49,254.93 c 0,0 -14.21,2.42 -33.12,-6.59 0,0 7.39,18.1 34.06,13.27 z"
       style="fill:#eb996e"
       id="path26" />
    <path
       d="m 523.57,220.42 a 7.85,7.85 0 0 0 -7.36,1.44 7.09,7.09 0 0 0 -2.65,4.82 4.33,4.33 0 0 0 2.49,4.37 c 1.85,0.7 4.08,-0.32 5.48,-1.92 a 16.32,16.32 0 0 0 2.8,-5.68 4.69,4.69 0 0 0 0.34,-1.71 1.41,1.41 0 0 0 -0.87,-1.31"
       style="fill:#eb996e"
       id="path27" />
    <path
       d="m 511.19,188.52 c -0.86,0.62 -3.67,-1.87 -7.57,-3.9 -3.9,-2.03 -7.47,-3.06 -7.45,-4.12 0,-0.5 1.05,-0.93 2.77,-0.93 a 15,15 0 0 1 11.44,6.11 c 0.98,1.43 1.21,2.54 0.81,2.84 z"
       style="fill:#263238"
       id="path28" />
    <path
       d="m 542.45,178.35 c -0.11,1.13 -3.06,2.31 -6,4.51 -2.94,2.2 -5,4.56 -6.14,4.31 -0.51,-0.15 -0.63,-1.1 0,-2.55 a 12,12 0 0 1 4,-4.79 11.83,11.83 0 0 1 5.78,-2.31 c 1.52,-0.11 2.38,0.3 2.36,0.83 z"
       style="fill:#263238"
       id="path29" />
    <path
       d="m 507.92,132.33 c -2.44,-3 -6.25,-3.89 -10.34,-3.86 -16.68,0.11 -33.31,12.8 -40.26,28 -6.95,15.2 -4.21,35.7 4.86,49.7 l 6.28,0.1 c 12.6,-2.78 28.4,-41.62 43.14,-64 1.83,-2.86 -1.6,-7.37 -3.68,-9.94 z"
       style="fill:#263238"
       id="path30" />
    <path
       d="m 540.79,138.08 c -8,-6.67 -20.61,-14.37 -33.9,-6.75 -1.45,4.29 3.56,8.77 7.54,11.22 5.83,3.58 10.78,5.84 14.64,8.46 7.82,5.29 17.92,14.48 20.44,26.05 0.15,0.73 0.73,0.75 1.45,0.52 0.93,-0.3 2.37,-5.42 2.48,-11.93 0.26,-13.91 -4.6,-20.9 -12.65,-27.57 z"
       style="fill:#263238"
       id="path31" />
    <path
       d="m 471.33,198.16 c -0.41,-0.14 -16.4,-3.71 -14.85,12.27 1.55,15.98 17.27,11.12 17.26,10.66 -0.01,-0.46 -2.41,-22.93 -2.41,-22.93 z"
       style="fill:#ffbe9d"
       id="path32" />
    <path
       d="m 468.27,215.51 c -0.08,0 -0.26,0.22 -0.71,0.48 a 2.78,2.78 0 0 1 -2.08,0.25 c -1.75,-0.46 -3.43,-3 -3.78,-5.87 a 9.16,9.16 0 0 1 0.39,-4.06 3.2,3.2 0 0 1 1.91,-2.31 1.42,1.42 0 0 1 1.71,0.6 c 0.26,0.43 0.19,0.76 0.28,0.78 0.09,0.02 0.31,-0.31 0.12,-0.95 a 1.81,1.81 0 0 0 -0.72,-0.94 2.11,2.11 0 0 0 -1.58,-0.26 3.91,3.91 0 0 0 -2.67,2.76 9.44,9.44 0 0 0 -0.53,4.55 c 0.41,3.21 2.35,6.06 4.73,6.5 a 3,3 0 0 0 2.5,-0.67 c 0.44,-0.47 0.49,-0.84 0.43,-0.86 z"
       style="fill:#eb996e"
       id="path33" />
    <path
       d="m 477.19,191.77 c -0.05,-0.23 3.84,-0.41 9.33,-3 a 40.92,40.92 0 0 0 17,-15.89 64.25,64.25 0 0 0 7.71,-22.28 c 0.5,-3 0.79,-5.46 1,-7.16 a 15.37,15.37 0 0 1 0.37,-2.63 11.89,11.89 0 0 1 0,2.66 c -0.07,1.71 -0.25,4.19 -0.67,7.23 a 60.6,60.6 0 0 1 -7.54,22.69 c -4.87,8.15 -11.94,13.61 -17.6,16 a 29.3,29.3 0 0 1 -7,2.13 17.84,17.84 0 0 1 -2,0.24 2,2 0 0 1 -0.6,0.01 z"
       style="fill:#263238"
       id="path34" />
    <path
       d="m 558.16,200.15 a 2.69,2.69 0 0 1 -1.92,0 3.53,3.53 0 0 1 -1.62,-1.54 3.59,3.59 0 0 1 -0.21,-2.89 10.08,10.08 0 0 1 1.85,-3.23 22.58,22.58 0 0 0 2.58,-3.65 6.37,6.37 0 0 0 0.7,-2.41 5.45,5.45 0 0 0 -0.5,-2.59 12.41,12.41 0 0 0 -3.42,-4.11 17.13,17.13 0 0 1 -3.58,-3.65 7.73,7.73 0 0 1 -1.06,-4.46 c 0.13,-3 1.13,-5.74 1.18,-8.15 a 8.8,8.8 0 0 0 -1.24,-5.46 4.38,4.38 0 0 0 -1.07,-1.11 c -0.29,-0.2 -0.45,-0.29 -0.46,-0.27 a 9.69,9.69 0 0 1 1.29,1.54 8.9,8.9 0 0 1 1,5.27 c -0.11,2.31 -1.16,5 -1.34,8.15 a 8.26,8.26 0 0 0 1.13,4.88 17.63,17.63 0 0 0 3.7,3.82 11.88,11.88 0 0 1 3.25,3.85 4.9,4.9 0 0 1 -0.15,4.4 22.73,22.73 0 0 1 -2.46,3.57 10.55,10.55 0 0 0 -1.86,3.46 4.07,4.07 0 0 0 0.35,3.25 3.78,3.78 0 0 0 1.88,1.6 2.28,2.28 0 0 0 1.55,0 1.06,1.06 0 0 0 0.43,-0.27 z"
       style="fill:#263238"
       id="path35" />
    <path
       d="m 475.17,249.69 a 3.07,3.07 0 0 0 0.42,-0.55 10.3,10.3 0 0 0 1,-1.73 15.58,15.58 0 0 0 1.38,-7.1 16,16 0 0 0 -1,-4.95 31,31 0 0 0 -2.77,-5 c -1,-1.67 -1.85,-3.75 -0.94,-5.65 0.91,-1.9 2.8,-3.25 4,-5.42 a 3.79,3.79 0 0 0 0,-3.64 15.59,15.59 0 0 0 -2.26,-2.65 5.87,5.87 0 0 1 -1.13,-5.61 16,16 0 0 1 2.44,-5 29,29 0 0 0 2.53,-4.33 7.48,7.48 0 0 0 -0.21,-7.11 4,4 0 0 0 -1.45,-1.37 2,2 0 0 0 -0.64,-0.25 5.41,5.41 0 0 1 1.85,1.77 7.27,7.27 0 0 1 0,6.74 31.45,31.45 0 0 1 -2.56,4.21 16.57,16.57 0 0 0 -2.6,5.18 8.31,8.31 0 0 0 -0.2,3.2 5.76,5.76 0 0 0 1.45,3 16.37,16.37 0 0 1 2.1,2.48 3,3 0 0 1 0,2.95 c -1,1.94 -3,3.32 -4,5.47 a 5.07,5.07 0 0 0 -0.26,3.38 11.09,11.09 0 0 0 1.28,2.91 31.92,31.92 0 0 1 2.79,4.91 15.94,15.94 0 0 1 1,4.76 16.14,16.14 0 0 1 -1.11,7 c -0.64,1.57 -1.17,2.36 -1.11,2.4 z"
       style="fill:#263238"
       id="path36" />
    <path
       d="m 424.05,248 c -0.08,0.21 0.25,0.69 1.28,1 a 5.47,5.47 0 0 0 4.4,-1 7.75,7.75 0 0 0 3.07,-4.38 10.14,10.14 0 0 0 0.32,-2.08 17.58,17.58 0 0 0 -2.39,-8.7 c -1.41,-2.72 -3.06,-5.37 -3.4,-7.89 -0.34,-2.52 0.5,-5.38 2.15,-8.59 1.65,-3.21 4,-6.73 5.68,-11.16 a 52.55,52.55 0 0 0 3.08,-13.65 c 0.93,-9.38 0.27,-18 0.58,-25.47 a 58.18,58.18 0 0 1 3.61,-19.11 31.41,31.41 0 0 1 7,-10.87 c 1.13,-1.06 2,-1.93 2.69,-2.48 0.69,-0.55 0.93,-1 0.82,-1.27 -0.11,-0.27 -0.61,-0.25 -1.51,-0.06 a 13.81,13.81 0 0 0 -3.74,1.51 27.14,27.14 0 0 0 -10,10.94 54.39,54.39 0 0 0 -5.69,20.84 c -0.69,8 -0.27,16.6 -1.13,25.12 a 49.65,49.65 0 0 1 -2.52,11.87 c -1.2,3.57 -3.31,6.93 -5,10.75 a 29,29 0 0 0 -2,6.1 16,16 0 0 0 0,6.61 18.59,18.59 0 0 0 2.31,5.43 c 0.91,1.5 1.82,2.77 2.6,3.94 a 15,15 0 0 1 2.77,6.14 7,7 0 0 1 0,1.28 4.47,4.47 0 0 1 -0.2,1.08 5.34,5.34 0 0 1 -1,1.84 c -1.7,2.11 -3.62,1.7 -3.78,2.26 z"
       style="fill:#263238"
       id="path37" />
    <path
       d="m 521.53,231.38 c 0,0.07 -0.37,0.15 -1,0.29 a 16.52,16.52 0 0 1 -2.94,0.36 4.26,4.26 0 0 1 -1,-0.14 5,5 0 0 1 -1.07,-0.4 3.39,3.39 0 0 1 -1,-0.8 6.85,6.85 0 0 1 -0.68,-1.08 5.94,5.94 0 0 1 -0.94,-2.58 3.38,3.38 0 0 1 0.06,-0.78 l 0.15,-0.69 c 0.12,-0.45 0.25,-0.92 0.42,-1.38 a 6.74,6.74 0 0 1 1.51,-2.5 6.29,6.29 0 0 1 2.32,-1.46 9.18,9.18 0 0 1 4.45,-0.39 c 2.49,0.4 3.89,1 3.87,1.12 -0.02,0.12 -1.55,-0.19 -3.94,-0.39 a 9.21,9.21 0 0 0 -4,0.55 5.7,5.7 0 0 0 -1.94,1.28 6,6 0 0 0 -1.26,2.15 11.61,11.61 0 0 0 -0.39,1.27 l -0.15,0.64 a 2.47,2.47 0 0 0 0,0.54 5.22,5.22 0 0 0 0.77,2.17 3.2,3.2 0 0 0 1.25,1.58 4.12,4.12 0 0 0 1.72,0.55 c 1.16,0.08 2.17,0 2.86,0 0.69,0 0.93,0.02 0.93,0.09 z"
       style="fill:#263238"
       id="path38" />
    <path
       d="m 543.84,263.31 -22.07,7.78 c 0,0 2.54,21.47 2.65,20.14 0.11,-1.33 19.42,-27.92 19.42,-27.92 z"
       style="fill:#ffbe9d"
       id="path39" />
    <path
       d="m 521.53,231.38 c 0,0.07 -0.37,0.15 -1,0.29 a 16.52,16.52 0 0 1 -2.94,0.36 4.26,4.26 0 0 1 -1,-0.14 5,5 0 0 1 -1.07,-0.4 3.39,3.39 0 0 1 -1,-0.8 6.85,6.85 0 0 1 -0.68,-1.08 5.94,5.94 0 0 1 -0.94,-2.58 3.38,3.38 0 0 1 0.06,-0.78 l 0.15,-0.69 c 0.12,-0.45 0.25,-0.92 0.42,-1.38 a 6.74,6.74 0 0 1 1.51,-2.5 6.29,6.29 0 0 1 2.32,-1.46 9.18,9.18 0 0 1 4.45,-0.39 c 2.49,0.4 3.89,1 3.87,1.12 -0.02,0.12 -1.55,-0.19 -3.94,-0.39 a 9.21,9.21 0 0 0 -4,0.55 5.7,5.7 0 0 0 -1.94,1.28 6,6 0 0 0 -1.26,2.15 11.61,11.61 0 0 0 -0.39,1.27 l -0.15,0.64 a 2.47,2.47 0 0 0 0,0.54 5.22,5.22 0 0 0 0.77,2.17 3.2,3.2 0 0 0 1.25,1.58 4.12,4.12 0 0 0 1.72,0.55 c 1.16,0.08 2.17,0 2.86,0 0.69,0 0.93,0.02 0.93,0.09 z"
       style="fill:#263238"
       id="path40" />
    <polyline
       points="565.36 186.18 600.15 208.19 616.35 179.47 574.09 161.22"
       style="fill:#ffbe9d"
       id="polyline40" />
    <path
       d="m 434.16,234.1 c 0,0 11.27,-71.22 13.92,-78.52 2.65,-7.3 20.11,-26 30.7,-23.69 10.59,2.31 18.11,12.49 18.73,28.21 0.62,15.72 -20.15,128.69 -20.15,128.69 0,0 -30.4,23.36 -42.1,9.08 -11.7,-14.28 -8.2,-28.74 -1.1,-63.77 z"
       style="fill:#808000"
       id="path41" />
    <path
       d="m 455.1,276.28 c 0,0 52.4,15.06 56.22,14.27 16.06,-3.33 32.52,-27.24 32.52,-27.24 l 10.3,-2.9 c 0,0 17.77,56.4 12.1,85.92 -5.67,29.52 -12.3,47.05 -12.3,47.05 L 563.29,476 H 410.65 l 31.13,-89.43 -8.19,-90.94 z"
       style="fill:#808000"
       id="path42" />
    <path
       d="m 596.31,210 7.71,7 -51.64,43.9 11.42,65.89 c 0,0 44.34,-42 61.9,-59.23 27.84,-27.36 37.9,-46.86 35.22,-54.19 -4.48,-12.27 -44.22,-36.5 -44.22,-36.5 z"
       style="fill:#808000"
       id="path43" />
    <path
       d="m 475.22,322.72 c -0.11,0 -1,-1.74 -1.81,-4.81 a 47.64,47.64 0 0 1 -1.15,-5.48 53.09,53.09 0 0 1 -0.53,-6.84 53.79,53.79 0 0 1 0.44,-6.85 46.43,46.43 0 0 1 1.08,-5.49 c 0.82,-3.08 1.63,-4.89 1.74,-4.84 0.34,0.08 -2.33,7.55 -2.21,17.17 0.12,9.62 2.78,17.06 2.44,17.14 z"
       style="fill:#263238"
       id="path44" />
    <path
       d="m 527.26,341.17 a 8.61,8.61 0 0 1 0.26,2.22 36.79,36.79 0 0 1 -0.27,6.08 41.26,41.26 0 0 1 -22.33,31.73 36.36,36.36 0 0 1 -5.64,2.3 8.19,8.19 0 0 1 -2.17,0.51 c -0.07,-0.19 3,-1 7.46,-3.46 a 43,43 0 0 0 21.95,-31.18 c 0.8,-5.02 0.54,-8.2 0.74,-8.2 z"
       style="fill:#263238"
       id="path45" />
    <path
       d="m 582.35,293.45 c 0.12,0.11 -1.39,1.84 -3.62,4.77 a 93.25,93.25 0 0 0 -7.81,12.06 95.14,95.14 0 0 0 -5.82,13.14 c -1.23,3.48 -1.85,5.68 -2,5.64 -0.15,-0.04 0.25,-2.3 1.31,-5.87 a 72.9,72.9 0 0 1 13.75,-25.43 c 2.39,-2.84 4.1,-4.4 4.19,-4.31 z"
       style="fill:#263238"
       id="path46" />
    <path
       d="m 566.23,342.51 a 5.39,5.39 0 0 1 -1.29,0.26 c -0.85,0.12 -2.1,0.35 -3.73,0.5 a 117.43,117.43 0 0 1 -13.82,0.71 178.38,178.38 0 0 1 -20.48,-1.4 c -7.68,-0.87 -16.06,-2.3 -24.85,-3.51 a 172.66,172.66 0 0 0 -45.34,0.34 c -5.77,0.81 -10.39,1.74 -13.58,2.42 l -3.66,0.81 a 5.66,5.66 0 0 1 -1.3,0.22 6.47,6.47 0 0 1 1.24,-0.42 c 0.83,-0.24 2.05,-0.61 3.63,-1 3.17,-0.81 7.79,-1.85 13.56,-2.76 a 165.77,165.77 0 0 1 20.45,-1.87 c 3.87,-0.1 7.93,-0.06 12.14,0.11 4.21,0.17 8.55,0.57 13,1.11 8.84,1.22 17.18,2.67 24.83,3.6 a 194.32,194.32 0 0 0 20.38,1.61 c 5.82,0.11 10.53,-0.11 13.78,-0.37 1.62,-0.09 2.88,-0.26 3.74,-0.31 a 7.61,7.61 0 0 1 1.3,-0.05 z"
       style="fill:#ffffff"
       id="path47" />
    <path
       d="m 606.06,287.35 c -0.22,0 -0.15,-3.33 -1.11,-8.56 -0.13,-0.65 -0.27,-1.33 -0.41,-2 -0.14,-0.67 -0.38,-1.44 -0.57,-2.19 -0.36,-1.52 -0.94,-3.09 -1.51,-4.75 a 55.82,55.82 0 0 0 -12,-19.22 c -1.25,-1.23 -2.4,-2.44 -3.61,-3.43 -0.59,-0.5 -1.14,-1 -1.71,-1.47 l -1.67,-1.26 c -4.28,-3.16 -7.31,-4.55 -7.21,-4.74 a 9.8,9.8 0 0 1 2.16,0.9 l 1.12,0.55 c 0.41,0.21 0.83,0.48 1.29,0.75 a 31.41,31.41 0 0 1 3.07,1.94 l 1.73,1.23 c 0.6,0.43 1.17,0.95 1.78,1.45 a 47.82,47.82 0 0 1 3.74,3.42 53.22,53.22 0 0 1 12.23,19.55 c 0.55,1.7 1.12,3.31 1.45,4.86 0.17,0.78 0.39,1.51 0.52,2.24 0.13,0.73 0.23,1.42 0.35,2.09 a 36.09,36.09 0 0 1 0.4,3.61 c 0,0.53 0.1,1 0.11,1.49 V 285 a 10.5,10.5 0 0 1 -0.15,2.35 z"
       style="fill:#ffffff"
       id="path48" />
    <path
       d="m 492.77,199.09 a 7.61,7.61 0 0 1 -1.86,1 21.81,21.81 0 0 1 -2.29,1 c -0.9,0.33 -1.92,0.75 -3.1,1.07 -1.18,0.32 -2.44,0.74 -3.85,1 -1.41,0.26 -2.9,0.58 -4.49,0.84 a 55.66,55.66 0 0 1 -20.84,-1 c -1.56,-0.41 -3,-0.78 -4.4,-1.26 -1.4,-0.48 -2.61,-0.92 -3.74,-1.39 -1.13,-0.47 -2.11,-0.94 -3,-1.35 a 23.07,23.07 0 0 1 -2.19,-1.17 7.73,7.73 0 0 1 -1.76,-1.16 c 0.09,-0.17 2.7,1.31 7.2,3 1.13,0.41 2.37,0.87 3.73,1.24 1.36,0.37 2.81,0.78 4.35,1.15 a 65.45,65.45 0 0 0 10.21,1.38 66.78,66.78 0 0 0 10.29,-0.4 c 1.57,-0.23 3.07,-0.42 4.44,-0.73 1.37,-0.31 2.67,-0.59 3.83,-0.89 4.7,-1.28 7.39,-2.51 7.47,-2.33 z"
       style="fill:#ffffff"
       id="path49" />
    <path
       d="m 447.07,153.91 a 6.4,6.4 0 0 1 0.83,-1.75 29.26,29.26 0 0 1 3.08,-4.25 c 2.89,-3.41 7.74,-7.27 13.46,-10.83 1.42,-0.9 2.82,-1.75 4.18,-2.58 a 28.31,28.31 0 0 1 4.12,-2.13 11.39,11.39 0 0 1 4.19,-0.87 11.16,11.16 0 0 1 3.66,0.64 21.27,21.27 0 0 1 4.7,2.4 6.37,6.37 0 0 1 1.53,1.17 7.85,7.85 0 0 1 -1.74,-0.82 26.81,26.81 0 0 0 -4.71,-2 11,11 0 0 0 -3.43,-0.47 10.63,10.63 0 0 0 -3.84,0.89 29.32,29.32 0 0 0 -4,2.11 c -1.34,0.84 -2.73,1.71 -4.16,2.59 -5.68,3.54 -10.5,7.23 -13.46,10.44 -2.96,3.21 -4.25,5.55 -4.41,5.46 z"
       style="fill:#263238"
       id="path50" />
    <path
       d="m 178,176.86 -13.83,24 -3.09,17.07 -26.39,42.27 -3.57,5.72 27.36,19.08 c 0,0 17.19,-39 19.1,-42.71 1.91,-3.71 9.68,-6.1 9.68,-6.1 l 12.35,-21.75 z"
       style="fill:#ffbe9d"
       id="path51" />
    <path
       d="m 180.55,231.76 c -0.15,0 0,-1.9 0.32,-4.92 A 55,55 0 0 0 181,215.1 24.43,24.43 0 0 0 177.1,204.24 c -1.7,-2.46 -3.26,-3.57 -3.14,-3.72 0.12,-0.15 0.46,0.17 1.16,0.69 a 14.61,14.61 0 0 1 2.57,2.6 22.56,22.56 0 0 1 4.36,11.19 44.19,44.19 0 0 1 -0.45,12 c -0.48,3 -0.92,4.78 -1.05,4.76 z"
       style="fill:#eb996e"
       id="path52" />
    <path
       d="m 210.3,271 115.38,20 c 0,0 -97.4,10.23 -97.44,8.89 C 228.2,298.55 210.3,271 210.3,271 Z"
       style="fill:#ffbe9d"
       id="path53" />
    <path
       d="m 308.87,222.09 c -0.27,-7 -4.45,-13.13 -7.56,-19.41 -4.53,-9.15 -6.94,-19.18 -9.46,-29.08 -2.52,-9.9 -5.26,-19.88 -10.35,-28.74 -5.09,-8.86 -12.85,-16.59 -22.62,-19.58 -9.77,-2.99 -21.58,-0.3 -27.62,7.94 l 11.23,24 a 485.62,485.62 0 0 0 32.94,105.9 142.76,142.76 0 0 0 32.49,-8 c 2.14,-0.81 4.56,-2 5,-4.25 0.54,-2.74 -2.14,-4.89 -3.66,-7.22 -2,-3.07 -2.11,-7 -1.65,-10.63 0.46,-3.63 1.39,-7.27 1.26,-10.93 z"
       style="fill:#263238"
       id="path54" />
    <path
       d="m 247.63,135.48 a 28.08,28.08 0 0 0 -13.12,-3.56 9.4,9.4 0 0 0 -5.38,1.17 c -1.57,1 -2.56,3.1 -1.83,4.81 l 14.63,11.82 c 2.6,1.35 5.86,0.09 8,-1.87 1.68,-1.52 3,-3.64 2.88,-5.9 -0.15,-2.89 -2.66,-5.06 -5.18,-6.47 z"
       style="fill:#455a64"
       id="path55" />
    <path
       d="M 229.61,294.26 Z"
       style="fill:#ffbe9d"
       id="path56" />
    <path
       d="m 181.26,200.32 c -4.21,-21.93 9.18,-44.26 31.2,-49.86 23.37,-5.94 46.6,8.3 51.6,31.16 l 17.83,92.63 c 0.35,1.79 3.83,9.55 3,11.18 -4.43,8.73 -17.31,10.39 -26,12.79 -8.43,2.32 -17.44,1.23 -25.27,-1.87 a 8.06,8.06 0 0 1 -4.94,-6.3 l -3.12,-20.85 a 0.14,0.14 0 0 0 -0.16,-0.12 28.5,28.5 0 0 1 -5.88,0.61 c -5.71,-0.62 -20.51,-4.19 -28,-24.24 -2.42,-6.65 -6.52,-25.91 -10.26,-45.13 z"
       style="fill:#ffbe9d"
       id="path57" />
    <path
       d="m 216.27,226.81 c 0,-0.21 -2.36,-0.13 -6.13,0.15 -0.95,0.09 -1.87,0.09 -2.15,-0.5 a 4.73,4.73 0 0 1 0.08,-2.85 c 0.44,-2.39 0.9,-4.91 1.38,-7.54 1.87,-10.72 3,-19.45 2.59,-19.52 -0.41,-0.07 -2.31,8.57 -4.17,19.29 -0.44,2.64 -0.86,5.15 -1.26,7.56 -0.14,1.11 -0.52,2.42 0.23,3.7 a 2.39,2.39 0 0 0 1.8,1 6.68,6.68 0 0 0 1.62,-0.11 c 3.74,-0.52 6.04,-0.99 6.01,-1.18 z"
       style="fill:#263238"
       id="path58" />
    <path
       d="m 202.39,211.79 c -0.45,-0.52 -3,2 -6.71,2.19 -3.71,0.19 -6.52,-1.89 -6.91,-1.31 -0.19,0.26 0.29,1.21 1.51,2.19 a 8.16,8.16 0 0 0 10.87,-0.7 c 1.11,-1.16 1.46,-2.16 1.24,-2.37 z"
       style="fill:#263238"
       id="path59" />
    <path
       d="m 237.42,202.75 c -0.65,-0.29 -2.2,3.09 -5.81,4.86 -3.61,1.77 -7.23,1 -7.38,1.72 -0.09,0.31 0.75,1 2.36,1.38 a 9.36,9.36 0 0 0 10.53,-5.24 c 0.65,-1.47 0.61,-2.6 0.3,-2.72 z"
       style="fill:#263238"
       id="path60" />
    <path
       d="m 225.84,269.05 c 0,0 14.32,-1.72 29.89,-15.72 0,0 -1.94,19.46 -28.9,22.39 z"
       style="fill:#eb996e"
       id="path61" />
    <path
       d="m 236.45,193.43 c -0.31,-1 -4,-0.74 -8.39,-1.48 -4.39,-0.74 -7.79,-2.1 -8.42,-1.24 -0.28,0.41 0.27,1.38 1.64,2.41 a 14.15,14.15 0 0 0 6.16,2.49 14.44,14.44 0 0 0 6.65,-0.41 c 1.64,-0.55 2.49,-1.29 2.36,-1.77 z"
       style="fill:#263238"
       id="path62" />
    <path
       d="m 197.6,195.53 c -1.08,-0.34 -3.32,1.91 -6.5,3.74 -3.18,1.83 -6.18,2.84 -6.38,3.95 -0.07,0.52 0.76,1 2.33,1 a 12,12 0 0 0 6,-1.8 11.73,11.73 0 0 0 4.4,-4.39 c 0.69,-1.35 0.65,-2.31 0.15,-2.5 z"
       style="fill:#263238"
       id="path63" />
    <path
       d="m 208.87,146.22 c 1.5,-3.53 4.89,-5.5 8.82,-6.64 16,-4.62 35.57,2.83 46.54,15.39 10.97,12.56 14.16,33 9.44,49 l -6,1.88 c -12.88,0.91 -39,-31.86 -59.54,-49.16 -2.54,-2.12 -0.56,-7.4 0.74,-10.47 z"
       style="fill:#263238"
       id="path64" />
    <path
       d="m 179,161.06 c 5.82,-8.68 15.68,-19.63 30.59,-16.09 2.62,3.7 -0.92,9.42 -4,12.89 -4.57,5.1 -8.68,8.67 -11.65,12.27 -6,7.29 -13.07,19 -12.2,30.78 0.06,0.74 -0.49,0.92 -1.24,0.91 -1,0 -3.81,-4.52 -5.77,-10.74 -4.25,-13.26 -1.57,-21.35 4.27,-30.02 z"
       style="fill:#263238"
       id="path65" />
    <path
       d="m 262.63,199 c 0.35,-0.26 14.67,-8.22 17.72,7.54 3.05,15.76 -13.4,15.57 -13.52,15.13 -0.12,-0.44 -4.2,-22.67 -4.2,-22.67 z"
       style="fill:#ffbe9d"
       id="path66" />
    <path
       d="m 270.49,214.73 c 0.06,-0.06 0.31,0.14 0.82,0.27 a 2.78,2.78 0 0 0 2.06,-0.36 c 1.55,-0.93 2.44,-3.85 2,-6.7 a 9.21,9.21 0 0 0 -1.52,-3.78 3.21,3.21 0 0 0 -2.48,-1.71 1.4,1.4 0 0 0 -1.47,1.06 c -0.13,0.48 0,0.78 -0.05,0.82 -0.05,0.04 -0.39,-0.2 -0.38,-0.87 a 1.76,1.76 0 0 1 0.42,-1.11 2.13,2.13 0 0 1 1.45,-0.69 3.9,3.9 0 0 1 3.34,1.89 9.54,9.54 0 0 1 1.8,4.2 c 0.51,3.2 -0.54,6.49 -2.69,7.59 a 3,3 0 0 1 -2.59,0.06 c -0.61,-0.29 -0.76,-0.63 -0.71,-0.67 z"
       style="fill:#eb996e"
       id="path67" />
    <path
       d="m 176.19,164.73 a 18.1,18.1 0 0 0 4.72,-0.09 65.85,65.85 0 0 0 11.19,-2.07 65,65 0 0 0 10.66,-4 c 2.63,-1.27 4.15,-2.23 4.09,-2.34 -0.06,-0.11 -1.7,0.61 -4.37,1.7 a 92.6,92.6 0 0 1 -21.66,6 c -2.82,0.45 -4.64,0.64 -4.63,0.8 z"
       style="fill:#455a64"
       id="path68" />
    <path
       d="m 172.56,176.9 c 0,0.12 1.35,0.37 3.57,0.3 a 27,27 0 0 0 16,-6.1 9.26,9.26 0 0 0 2.47,-2.6 c -0.2,-0.25 -4.09,3.7 -10.32,6 -6.23,2.3 -11.74,2.08 -11.72,2.4 z"
       style="fill:#455a64"
       id="path69" />
    <path
       d="m 267.06,160.08 c -0.06,-0.19 -3.37,0.93 -8.93,1.61 a 69.33,69.33 0 0 1 -9.81,0.46 87,87 0 0 1 -12,-1.25 94.13,94.13 0 0 1 -11.63,-2.9 86.4,86.4 0 0 1 -9.16,-3.58 c -5.1,-2.33 -8,-4.22 -8.13,-4.07 a 10.64,10.64 0 0 0 2,1.43 27.61,27.61 0 0 0 2.46,1.49 c 1,0.56 2.09,1.19 3.37,1.79 a 75.51,75.51 0 0 0 9.17,3.81 86.39,86.39 0 0 0 11.79,3 81.46,81.46 0 0 0 12.11,1.19 62.62,62.62 0 0 0 9.92,-0.68 34.9,34.9 0 0 0 3.75,-0.72 23.24,23.24 0 0 0 2.79,-0.74 11.63,11.63 0 0 0 2.3,-0.84 z"
       style="fill:#455a64"
       id="path70" />
    <path
       d="m 209.29,155.71 a 12.7,12.7 0 0 0 1.6,2 28.34,28.34 0 0 0 2,2.21 c 0.84,0.83 1.75,1.82 2.89,2.78 a 65.07,65.07 0 0 0 8.24,6.35 70.88,70.88 0 0 0 11.35,5.95 69.6,69.6 0 0 0 12.24,3.61 63,63 0 0 0 10.39,1.08 c 1.49,0.08 2.83,0 4,-0.06 a 25.51,25.51 0 0 0 3,-0.24 12.13,12.13 0 0 0 2.54,-0.4 c 0,-0.21 -3.66,0.26 -9.52,0 a 67.92,67.92 0 0 1 -10.21,-1.27 73.41,73.41 0 0 1 -12,-3.63 75.33,75.33 0 0 1 -11.18,-5.78 72.28,72.28 0 0 1 -8.28,-6.11 c -4.53,-3.83 -6.91,-6.62 -7.06,-6.49 z"
       style="fill:#455a64"
       id="path71" />
    <path
       d="m 255.2,194.5 c 0,-0.24 -3.79,0.7 -9.8,-0.24 a 41,41 0 0 1 -20.85,-10.4 64.34,64.34 0 0 1 -13.71,-19.18 c -1.33,-2.74 -2.3,-5 -3,-6.59 a 15.55,15.55 0 0 0 -1.11,-2.42 12.89,12.89 0 0 0 0.74,2.56 c 0.56,1.62 1.43,4 2.69,6.74 a 60.72,60.72 0 0 0 13.68,19.62 c 7,6.43 15.3,9.66 21.42,10.36 a 28.65,28.65 0 0 0 7.28,0.07 16.52,16.52 0 0 0 2,-0.33 c 0.46,-0.09 0.67,-0.16 0.66,-0.19 z"
       style="fill:#263238"
       id="path72" />
    <path
       d="m 179.94,225.5 a 2.59,2.59 0 0 0 1.82,-0.57 3.54,3.54 0 0 0 1.13,-1.93 3.69,3.69 0 0 0 -0.63,-2.84 10.17,10.17 0 0 0 -2.68,-2.57 23.42,23.42 0 0 1 -3.52,-2.76 6.41,6.41 0 0 1 -1.35,-2.12 5.4,5.4 0 0 1 -0.25,-2.62 12.19,12.19 0 0 1 2.11,-4.91 17.13,17.13 0 0 0 2.39,-4.51 7.62,7.62 0 0 0 -0.25,-4.59 c -1,-2.88 -2.7,-5.18 -3.44,-7.48 a 8.81,8.81 0 0 1 -0.36,-5.59 4.85,4.85 0 0 1 0.71,-1.37 c 0.23,-0.27 0.35,-0.4 0.37,-0.38 a 9.39,9.39 0 0 0 -0.8,1.84 8.9,8.9 0 0 0 0.57,5.32 c 0.76,2.19 2.52,4.43 3.6,7.44 a 8.29,8.29 0 0 1 0.3,5 17.71,17.71 0 0 1 -2.46,4.72 11.78,11.78 0 0 0 -2,4.61 4.88,4.88 0 0 0 1.4,4.17 21.91,21.91 0 0 0 3.37,2.73 10.78,10.78 0 0 1 2.77,2.79 4.06,4.06 0 0 1 0.58,3.21 3.77,3.77 0 0 1 -1.35,2.07 2.21,2.21 0 0 1 -1.48,0.47 0.92,0.92 0 0 1 -0.55,-0.13 z"
       style="fill:#263238"
       id="path73" />
    <path
       d="m 275.52,197.19 a 4.56,4.56 0 0 1 0,-0.85 c 0,-0.55 0.1,-1.36 0.12,-2.41 a 74.05,74.05 0 0 0 -0.17,-8.88 61.08,61.08 0 0 0 -2.41,-12.89 51.31,51.31 0 0 0 -6.86,-14.45 40.17,40.17 0 0 0 -5.42,-6.25 42.77,42.77 0 0 0 -6.14,-4.69 53.51,53.51 0 0 0 -11.89,-5.51 75.6,75.6 0 0 0 -8.58,-2.26 c -1,-0.23 -1.83,-0.35 -2.38,-0.47 a 4.49,4.49 0 0 1 -0.82,-0.2 3.22,3.22 0 0 1 0.85,0 c 0.55,0.08 1.36,0.15 2.4,0.34 a 62.16,62.16 0 0 1 8.69,2 52.42,52.42 0 0 1 12.09,5.52 43.32,43.32 0 0 1 6.27,4.73 39.84,39.84 0 0 1 5.54,6.37 51.14,51.14 0 0 1 6.91,14.71 59.4,59.4 0 0 1 2.28,13 61.81,61.81 0 0 1 -0.06,8.92 c -0.07,1.06 -0.2,1.87 -0.26,2.42 a 3.11,3.11 0 0 1 -0.16,0.85 z"
       style="fill:#455a64"
       id="path74" />
    <path
       d="m 273.57,249.46 c 0,0 -0.21,-0.12 -0.56,-0.4 a 11.07,11.07 0 0 1 -1.4,-1.39 15.64,15.64 0 0 1 -3.34,-6.42 16.14,16.14 0 0 1 -0.46,-5 31.89,31.89 0 0 1 1.23,-5.62 c 0.48,-1.88 0.71,-4.12 -0.7,-5.69 -1.41,-1.57 -3.61,-2.32 -5.36,-4.07 a 3.79,3.79 0 0 1 -1.05,-3.48 16.3,16.3 0 0 1 1.38,-3.12 5.88,5.88 0 0 0 -0.51,-5.7 16.15,16.15 0 0 0 -3.76,-4.11 29.69,29.69 0 0 1 -3.66,-3.43 7.48,7.48 0 0 1 -1.81,-6.87 4.11,4.11 0 0 1 1,-1.73 2,2 0 0 1 0.55,-0.42 5.12,5.12 0 0 0 -1.27,2.22 7.27,7.27 0 0 0 1.93,6.46 29.47,29.47 0 0 0 3.66,3.3 16.48,16.48 0 0 1 3.95,4.24 8,8 0 0 1 1.11,3 5.84,5.84 0 0 1 -0.53,3.33 16.39,16.39 0 0 0 -1.32,3 3,3 0 0 0 0.87,2.82 c 1.53,1.57 3.85,2.32 5.38,4.11 a 5.1,5.1 0 0 1 1.21,3.16 11.18,11.18 0 0 1 -0.4,3.16 30.43,30.43 0 0 0 -1.28,5.5 16,16 0 0 0 3.4,11.22 c 1.05,1.28 1.79,1.88 1.74,1.93 z"
       style="fill:#263238"
       id="path75" />
    <path
       d="m 322.1,233.3 c 0.14,0.18 -0.05,0.74 -1,1.31 a 5.48,5.48 0 0 1 -4.51,0.26 8,8 0 0 1 -4.19,-3.33 9.83,9.83 0 0 1 -0.89,-1.91 17.51,17.51 0 0 1 -0.18,-9 c 0.58,-3 1.41,-6 1,-8.52 -0.41,-2.52 -2,-5 -4.5,-7.64 -2.5,-2.64 -5.76,-5.31 -8.61,-9.08 a 52.77,52.77 0 0 1 -6.83,-12.22 c -3.55,-8.73 -5.36,-17.15 -7.78,-24.26 a 58.25,58.25 0 0 0 -8.89,-17.3 31.46,31.46 0 0 0 -9.75,-8.45 c -1.38,-0.69 -2.49,-1.27 -3.28,-1.62 -0.79,-0.35 -1.19,-0.73 -1.16,-1 0.03,-0.27 0.52,-0.41 1.44,-0.48 a 13.5,13.5 0 0 1 4,0.38 27.09,27.09 0 0 1 12.66,7.67 54.59,54.59 0 0 1 11.39,18.45 c 2.93,7.5 5,15.85 8.21,23.77 a 50.48,50.48 0 0 0 5.85,10.67 c 2.17,3.07 5.15,5.69 7.89,8.88 a 27.88,27.88 0 0 1 3.69,5.27 16.07,16.07 0 0 1 1.85,6.34 18.64,18.64 0 0 1 -0.67,5.86 c -0.45,1.7 -1,3.17 -1.38,4.51 a 15,15 0 0 0 -0.91,6.67 6.72,6.72 0 0 0 0.32,1.25 4.21,4.21 0 0 0 0.49,1 5.67,5.67 0 0 0 1.48,1.49 c 2.23,1.52 3.95,0.58 4.26,1.03 z"
       style="fill:#263238"
       id="path76" />
    <path
       d="m 233.11,234.91 c -0.08,0.14 -0.86,-0.2 -2.17,-0.39 a 9,9 0 0 0 -8.88,3.71 c -0.77,1.06 -1.09,1.86 -1.24,1.81 -0.15,-0.05 -0.06,-0.93 0.62,-2.21 a 8.37,8.37 0 0 1 9.66,-4 c 1.38,0.38 2.07,0.97 2.01,1.08 z"
       style="fill:#263238"
       id="path77" />
    <path
       d="m 239,207.77 c 0.12,0.06 0,0.62 -0.48,1.4 a 7.43,7.43 0 0 1 -6,3.34 c -0.91,0 -1.45,-0.21 -1.44,-0.34 0,-0.3 2.17,-0.26 4.36,-1.51 2.19,-1.25 3.31,-3.04 3.56,-2.89 z"
       style="fill:#eb996e"
       id="path78" />
    <path
       d="m 199.09,218.17 c 0.09,0.09 -0.17,0.58 -0.84,1.14 a 6.61,6.61 0 0 1 -6.52,0.94 c -0.81,-0.35 -1.19,-0.75 -1.13,-0.86 0.14,-0.27 2,0.6 4.37,0.23 2.37,-0.37 3.91,-1.62 4.12,-1.45 z"
       style="fill:#eb996e"
       id="path79" />
    <path
       d="m 189.48,239.45 c -0.14,0 -0.55,-2 -1.2,-5.31 -0.65,-3.31 -1.54,-7.83 -2.64,-12.82 -1.1,-4.99 -2.23,-9.48 -3,-12.73 -0.77,-3.25 -1.3,-5.27 -1.16,-5.32 0.14,-0.05 0.87,1.91 1.87,5.12 1,3.21 2.23,7.69 3.35,12.71 1.12,5.02 1.9,9.59 2.36,12.92 0.46,3.33 0.56,5.41 0.42,5.43 z"
       style="fill:#eb996e"
       id="path80" />
    <path
       d="m 248.35,208.71 a 4,4 0 0 0 -1.64,-1.08 9,9 0 0 0 -5.56,-0.32 l 0.62,0.37 c 0.74,0.73 1.48,1.46 2.23,2.18 a 5.9,5.9 0 0 0 2.29,1.62 2,2 0 0 0 2.42,-0.92 1.85,1.85 0 0 0 -0.36,-1.85 z"
       style="fill:#455a64"
       id="path81" />
    <path
       d="m 247.35,216.39 a 3.24,3.24 0 0 0 -0.48,-1.59 7.61,7.61 0 0 0 -3.43,-3.23 l 0.2,0.57 c 0.09,0.88 0.17,1.76 0.26,2.64 a 5,5 0 0 0 0.61,2.29 1.71,1.71 0 0 0 2.07,0.73 1.61,1.61 0 0 0 0.77,-1.41 z"
       style="fill:#455a64"
       id="path82" />
    <path
       d="m 229,290.9 c -0.28,0 -1.13,-4.28 -1.88,-9.65 -0.75,-5.37 -1.14,-9.76 -0.85,-9.8 0.29,-0.04 1.12,4.28 1.88,9.65 0.76,5.37 1.18,9.76 0.85,9.8 z"
       style="fill:#eb996e"
       id="path83" />
    <path
       d="m 319.92,476 -4.4,-72.51 20.44,-79 L 325.68,291 c 0,0 -79.9,7.29 -83.89,7.7 C 229,300 210.3,271 210.3,271 h -10.39 c 0,0 -10.21,-1.38 -20.18,7.48 -9.97,8.86 -27.31,23.74 -27.31,23.74 l 13,-25.43 L 126.88,259 c 0,0 -23.13,41 -29.48,55.43 -4.2,9.52 -10.76,26.3 4.23,42.37 9.17,9.83 36.24,13.26 45,10.39 6,-2 25,-12.43 36.58,-18.9 0.09,1.53 0.23,3 0.43,4.44 4.14,29.78 9.85,47.63 9.85,47.63 L 183.07,476 Z"
       style="fill:#800000"
       id="path84" />
    <path
       d="m 134.53,339.76 c -0.26,-0.13 6.4,-14.3 14.87,-31.65 8.47,-17.35 15.54,-31.32 15.8,-31.19 0.26,0.13 -6.39,14.29 -14.86,31.65 -8.47,17.36 -15.55,31.31 -15.81,31.19 z"
       style="fill:#263238"
       id="path85" />
    <path
       d="M 195.25,402.2 A 21.87,21.87 0 0 1 194,398.9 c -0.75,-2.15 -1.74,-5.29 -2.9,-9.18 -2.31,-7.8 -5.14,-18.69 -7.49,-30.87 -2.35,-12.18 -3.77,-23.36 -4.52,-31.45 -0.38,-4 -0.62,-7.33 -0.72,-9.6 a 23.65,23.65 0 0 1 -0.07,-3.53 22.27,22.27 0 0 1 0.47,3.5 c 0.23,2.26 0.58,5.52 1,9.55 0.93,8.06 2.47,19.17 4.81,31.33 2.34,12.16 5.05,23 7.18,30.87 1.06,3.91 1.95,7.07 2.58,9.26 a 22.41,22.41 0 0 1 0.91,3.42 z"
       style="fill:#263238"
       id="path86" />
    <path
       d="m 325.68,291 c 0,0 19.32,13.68 24,31.69 C 354.36,340.7 378.9,476 378.9,476 H 336 L 305.28,365 Z"
       style="fill:#455a64"
       id="path87" />
    <path
       d="m 322.6,370 a 9.24,9.24 0 0 1 -1.42,0.38 c -0.94,0.2 -2.31,0.55 -4.11,0.85 a 134.46,134.46 0 0 1 -15.33,1.91 169.1,169.1 0 0 1 -22.91,0 224.29,224.29 0 0 1 -27.83,-3.61 c -19.56,-3.82 -36.77,-9.29 -49.14,-13.34 -6.19,-2.05 -11.17,-3.77 -14.6,-5 l -3.95,-1.42 a 8.67,8.67 0 0 1 -1.35,-0.56 7.09,7.09 0 0 1 1.42,0.36 l 4,1.24 14.7,4.66 c 12.41,3.87 29.62,9.22 49.1,13 a 233.48,233.48 0 0 0 27.69,3.7 179.86,179.86 0 0 0 22.8,0.22 c 6.48,-0.38 11.71,-1 15.3,-1.58 1.81,-0.24 3.19,-0.53 4.14,-0.66 A 6.89,6.89 0 0 1 322.6,370 Z"
       style="fill:#ffffff"
       id="path88" />
    <path
       d="m 359.57,376.18 c 0,0.19 -2.84,0.26 -7.36,0.9 -1.13,0.16 -2.36,0.35 -3.68,0.62 -1.32,0.27 -2.71,0.57 -4.18,0.91 a 84.2,84.2 0 0 0 -9.33,3 85.93,85.93 0 0 0 -8.88,4.16 c -1.3,0.75 -2.56,1.44 -3.69,2.17 -1.13,0.73 -2.18,1.4 -3.12,2 -3.75,2.6 -5.89,4.47 -6,4.34 a 7.52,7.52 0 0 1 1.38,-1.45 c 0.47,-0.45 1.05,-1 1.76,-1.56 0.71,-0.56 1.5,-1.26 2.44,-1.93 0.94,-0.67 1.94,-1.44 3.09,-2.18 1.15,-0.74 2.37,-1.49 3.69,-2.28 a 76.46,76.46 0 0 1 9,-4.29 74.6,74.6 0 0 1 9.49,-2.93 c 1.49,-0.32 2.91,-0.64 4.25,-0.83 1.34,-0.19 2.59,-0.38 3.74,-0.5 1.15,-0.12 2.19,-0.18 3.11,-0.24 0.92,-0.06 1.7,-0.07 2.34,-0.05 a 7.54,7.54 0 0 1 1.95,0.14 z"
       style="fill:#ffffff"
       id="path89" />
    <path
       d="m 169,354.05 c -0.18,0 -0.51,-2.56 -1.51,-6.62 a 68.63,68.63 0 0 0 -2.12,-7 73.76,73.76 0 0 0 -3.58,-8.21 77,77 0 0 0 -4.64,-7.67 70.38,70.38 0 0 0 -4.5,-5.77 c -2.73,-3.16 -4.65,-4.92 -4.53,-5 a 6.28,6.28 0 0 1 1.47,1.1 c 0.46,0.37 1,0.85 1.6,1.43 0.6,0.58 1.3,1.24 2,2 a 57.39,57.39 0 0 1 4.81,5.69 65.58,65.58 0 0 1 4.78,7.74 67,67 0 0 1 3.57,8.37 58.43,58.43 0 0 1 1.93,7.16 c 0.24,1 0.36,2 0.49,2.81 a 21.34,21.34 0 0 1 0.25,2.13 6.34,6.34 0 0 1 -0.02,1.84 z"
       style="fill:#ffffff"
       id="path90" />
    <path
       d="m 445.17,230.37 c 1.12,-6.92 -1.74,-13.76 -3.54,-20.53 -2.61,-9.87 -3,-20.18 -3.47,-30.38 -0.47,-10.2 -1.19,-20.53 -4.4,-30.23 -3.21,-9.7 -9.29,-18.82 -18.27,-23.69 -8.98,-4.87 -21.08,-4.61 -28.64,2.26 l 6.21,25.76 a 485.47,485.47 0 0 0 11.16,110.34 142.82,142.82 0 0 0 33.43,-1.39 c 2.27,-0.36 4.88,-1.05 5.76,-3.17 1.07,-2.57 -1.13,-5.21 -2.16,-7.8 -1.35,-3.41 -0.67,-7.28 0.51,-10.75 1.18,-3.47 2.82,-6.79 3.41,-10.42 z"
       style="fill:#263238"
       id="path91" />
    <path
       d="m 402.43,133.28 a 27.88,27.88 0 0 0 -12.14,-6.1 9.4,9.4 0 0 0 -5.51,0.07 c -1.73,0.69 -3.13,2.52 -2.76,4.35 l 12,14.5 c 2.28,1.84 5.72,1.26 8.24,-0.23 1.95,-1.16 3.7,-3 4,-5.21 0.38,-2.87 -1.64,-5.49 -3.83,-7.38 z"
       style="fill:#407bff"
       id="path92" />
    <path
       d="M 353.11,285.28 Z"
       style="fill:#ffbe9d"
       id="path93" />
    <path
       d="m 324.77,183.64 c 0.24,-22.32 17.82,-41.54 40.52,-42.63 24.08,-1.17 44,17.43 44.34,40.83 l -1,94.32 a 8.19,8.19 0 0 1 -1.8,5 c -6.08,7.67 -16.52,13.28 -25.52,13.89 -8.73,0.59 -17.34,-2.27 -24.39,-6.87 a 8,8 0 0 1 -3.58,-7.16 L 354.43,260 a 0.12,0.12 0 0 0 -0.13,-0.14 28.88,28.88 0 0 1 -5.88,-0.58 c -5.47,-1.75 -19.26,-8.19 -22.55,-29.33 -1.09,-7.04 -1.32,-26.73 -1.1,-46.31 z"
       style="fill:#ffbe9d"
       id="path94" />
    <path
       d="m 353.49,216.52 c 0,-0.21 -2.29,-0.6 -6,-1.07 -0.95,-0.1 -1.85,-0.29 -2,-0.93 a 4.77,4.77 0 0 1 0.65,-2.77 l 2.86,-7.11 c 4,-10.13 6.84,-18.46 6.42,-18.61 -0.42,-0.15 -4,7.93 -7.93,18.07 -0.95,2.49 -1.87,4.87 -2.74,7.15 -0.36,1.06 -1,2.27 -0.51,3.67 a 2.35,2.35 0 0 0 1.56,1.37 6.71,6.71 0 0 0 1.61,0.22 c 3.72,0.2 6.07,0.22 6.08,0.01 z"
       style="fill:#263238"
       id="path95" />
    <path
       d="m 336,199.79 a 3.41,3.41 0 0 0 3.32,3.44 3.31,3.31 0 0 0 3.58,-3.07 3.4,3.4 0 0 0 -3.31,-3.43 3.3,3.3 0 0 0 -3.59,3.06 z"
       style="fill:#263238"
       id="path96" />
    <path
       d="m 331.43,188 c 0.38,0.57 3.23,-1.57 6.94,-1.29 3.71,0.28 6.22,2.73 6.68,2.21 0.22,-0.22 -0.12,-1.24 -1.21,-2.37 a 8.15,8.15 0 0 0 -5.27,-2.44 8.27,8.27 0 0 0 -5.59,1.7 c -1.25,0.99 -1.73,1.95 -1.55,2.19 z"
       style="fill:#263238"
       id="path97" />
    <path
       d="m 371.32,201.16 a 3.4,3.4 0 0 0 3.31,3.44 3.32,3.32 0 0 0 3.59,-3.07 3.41,3.41 0 0 0 -3.31,-3.43 3.31,3.31 0 0 0 -3.59,3.06 z"
       style="fill:#263238"
       id="path98" />
    <path
       d="m 366.58,188.43 c 0.49,0.52 3.21,-2 7.23,-2.25 4.02,-0.25 7.06,1.84 7.48,1.26 0.2,-0.26 -0.31,-1.22 -1.65,-2.19 a 9.36,9.36 0 0 0 -11.74,0.79 c -1.18,1.15 -1.56,2.16 -1.32,2.39 z"
       style="fill:#263238"
       id="path99" />
    <path
       d="m 354.44,259.83 c 0,0 14.37,1.17 32.42,-9.45 0,0 -5.78,18.68 -32.78,16.18 z"
       style="fill:#eb996e"
       id="path100" />
    <path
       d="m 355,225.35 a 6.81,6.81 0 0 1 6,-2.45 6.11,6.11 0 0 1 4.21,2.23 3.76,3.76 0 0 1 0.27,4.37 c -1,1.38 -3.11,1.7 -4.89,1.21 a 14.12,14.12 0 0 1 -4.74,-2.8 4.18,4.18 0 0 1 -1.06,-1.08 1.2,1.2 0 0 1 0,-1.37"
       style="fill:#eb996e"
       id="path101" />
    <path
       d="m 362,174.39 c 0.35,1 4.08,0.6 8.43,1.2 4.35,0.6 7.87,1.83 8.47,0.95 0.27,-0.42 -0.33,-1.37 -1.73,-2.36 a 15,15 0 0 0 -12.87,-1.63 c -1.62,0.6 -2.44,1.37 -2.3,1.84 z"
       style="fill:#263238"
       id="path102" />
    <path
       d="m 330.89,179.64 c 0.8,0.81 3.83,-0.14 7.5,-0.29 3.67,-0.15 6.78,0.36 7.48,-0.53 0.3,-0.43 -0.21,-1.25 -1.58,-2 a 12.75,12.75 0 0 0 -12.07,0.66 c -1.22,0.9 -1.68,1.76 -1.33,2.16 z"
       style="fill:#263238"
       id="path103" />
    <path
       d="m 362.31,136.08 c 2.18,-3.17 5.89,-4.42 10,-4.75 16.63,-1.33 34.3,9.87 42.54,24.37 8.24,14.5 7.29,35.2 -0.53,49.93 l -6.25,0.64 c -12.8,-1.67 -31.9,-39 -48.53,-60.05 -2.11,-2.61 0.89,-7.4 2.77,-10.14 z"
       style="fill:#263238"
       id="path104" />
    <path
       d="m 330.06,144.65 c 7.43,-7.34 19.28,-16.1 33.19,-9.66 1.82,4.15 -2.78,9 -6.54,11.83 -5.49,4.08 -10.23,6.76 -13.85,9.7 -7.33,5.94 -16.6,16 -18.1,27.73 -0.09,0.73 -0.67,0.8 -1.4,0.63 -0.95,-0.21 -2.83,-5.18 -3.51,-11.67 -1.46,-13.82 2.78,-21.21 10.21,-28.56 z"
       style="fill:#263238"
       id="path105" />
    <path
       d="m 404.47,198.49 c 0.4,-0.19 16,-5.13 15.86,10.92 -0.14,16.05 -16.24,12.59 -16.27,12.13 -0.03,-0.46 0.41,-23.05 0.41,-23.05 z"
       style="fill:#ffbe9d"
       id="path106" />
    <path
       d="m 409,215.5 c 0.07,-0.05 0.27,0.2 0.75,0.42 a 2.76,2.76 0 0 0 2.08,0.07 c 1.71,-0.61 3.16,-3.29 3.27,-6.18 a 9.23,9.23 0 0 0 -0.75,-4 3.22,3.22 0 0 0 -2.08,-2.17 1.44,1.44 0 0 0 -1.66,0.75 c -0.21,0.45 -0.12,0.77 -0.2,0.8 -0.08,0.03 -0.34,-0.28 -0.21,-0.94 a 1.8,1.8 0 0 1 0.64,-1 2.11,2.11 0 0 1 1.55,-0.39 3.94,3.94 0 0 1 2.9,2.52 9.42,9.42 0 0 1 0.93,4.48 c -0.14,3.23 -1.82,6.25 -4.15,6.89 a 3,3 0 0 1 -2.56,-0.45 c -0.46,-0.41 -0.51,-0.77 -0.51,-0.8 z"
       style="fill:#eb996e"
       id="path107" />
    <path
       d="m 326.6,147.69 a 18,18 0 0 0 4.63,0.86 66.19,66.19 0 0 0 11.38,0.2 65.39,65.39 0 0 0 11.25,-1.75 c 2.82,-0.72 4.51,-1.36 4.47,-1.48 -0.04,-0.12 -1.79,0.26 -4.62,0.79 a 97.7,97.7 0 0 1 -11.17,1.46 95.15,95.15 0 0 1 -11.25,0.08 c -2.88,-0.15 -4.67,-0.31 -4.69,-0.16 z"
       style="fill:#455a64"
       id="path108" />
    <path
       d="m 320.61,158.9 a 9.31,9.31 0 0 0 3.44,1 27,27 0 0 0 16.89,-2.79 c 1.95,-1.06 3,-2 2.93,-2.06 -0.15,-0.29 -4.74,2.81 -11.31,3.85 -6.57,1.04 -11.9,-0.32 -11.95,0 z"
       style="fill:#455a64"
       id="path109" />
    <path
       d="m 416.57,161.27 c 0,-0.21 -3.5,0.23 -9.08,-0.21 a 69.91,69.91 0 0 1 -9.7,-1.5 88.57,88.57 0 0 1 -11.47,-3.56 97.27,97.27 0 0 1 -10.85,-5.21 88.1,88.1 0 0 1 -8.26,-5.34 c -4.53,-3.3 -7,-5.74 -7.16,-5.61 a 12,12 0 0 0 1.67,1.8 27.62,27.62 0 0 0 2.12,1.95 c 0.85,0.74 1.81,1.59 3,2.43 a 76.46,76.46 0 0 0 8.22,5.56 88.52,88.52 0 0 0 10.94,5.29 81.7,81.7 0 0 0 11.64,3.58 61.49,61.49 0 0 0 9.85,1.31 35.66,35.66 0 0 0 3.82,0.05 22.79,22.79 0 0 0 2.88,-0.18 12.62,12.62 0 0 0 2.38,-0.36 z"
       style="fill:#455a64"
       id="path110" />
    <path
       d="m 360.83,145.46 a 13,13 0 0 0 1.16,2.29 28.52,28.52 0 0 0 1.57,2.58 c 0.66,1 1.34,2.14 2.27,3.3 a 66.91,66.91 0 0 0 6.81,7.87 71.17,71.17 0 0 0 9.89,8.06 70.37,70.37 0 0 0 11.28,6 61.51,61.51 0 0 0 9.94,3.12 c 1.44,0.38 2.78,0.54 3.93,0.74 a 25.55,25.55 0 0 0 3,0.37 12.19,12.19 0 0 0 2.57,0.11 c 0,-0.2 -3.64,-0.47 -9.33,-1.9 a 69,69 0 0 1 -9.75,-3.28 73.9,73.9 0 0 1 -11.09,-6 74.92,74.92 0 0 1 -9.8,-7.89 73.46,73.46 0 0 1 -6.9,-7.64 c -3.6,-4.63 -5.38,-7.83 -5.55,-7.73 z"
       style="fill:#455a64"
       id="path111" />
    <path
       d="m 372.27,131.33 c 0,-0.1 -1.23,-0.34 -3.22,0 a 13.94,13.94 0 0 0 -6.8,3.81 11.92,11.92 0 0 0 -1.43,1.77 9.56,9.56 0 0 0 -0.89,1.92 22.62,22.62 0 0 0 -1.08,3.32 c -0.42,2 0,3.27 0.07,3.23 0.07,-0.04 0,-1.23 0.61,-3.05 a 31.79,31.79 0 0 1 1.25,-3.15 9.39,9.39 0 0 1 0.86,-1.74 12.86,12.86 0 0 1 1.32,-1.6 15.26,15.26 0 0 1 6.27,-3.82 c 1.82,-0.5 3.05,-0.52 3.04,-0.69 z"
       style="fill:#455a64"
       id="path112" />
    <path
       d="m 398.08,192.62 c 0,-0.23 -3.86,-0.07 -9.56,-2.19 a 40.93,40.93 0 0 1 -18.35,-14.34 64.28,64.28 0 0 1 -9.61,-21.54 c -0.76,-3 -1.26,-5.37 -1.59,-7 a 15.67,15.67 0 0 0 -0.6,-2.59 13,13 0 0 0 0.22,2.65 c 0.21,1.7 0.61,4.15 1.29,7.15 a 60.59,60.59 0 0 0 9.48,21.95 c 5.55,7.69 13.07,12.52 18.92,14.42 a 29.23,29.23 0 0 0 7.13,1.53 16.47,16.47 0 0 0 2,0.06 c 0.43,-0.04 0.67,-0.06 0.67,-0.1 z"
       style="fill:#263238"
       id="path113" />
    <path
       d="m 318.14,208 a 2.61,2.61 0 0 0 1.91,-0.19 3.57,3.57 0 0 0 1.48,-1.67 3.64,3.64 0 0 0 0,-2.91 10.21,10.21 0 0 0 -2.12,-3.05 23.38,23.38 0 0 1 -2.89,-3.41 6.31,6.31 0 0 1 -0.9,-2.34 5.33,5.33 0 0 1 0.27,-2.62 12.21,12.21 0 0 1 3,-4.39 17.41,17.41 0 0 0 3.25,-3.95 7.73,7.73 0 0 0 0.67,-4.54 c -0.39,-3 -1.62,-5.62 -1.89,-8 a 8.77,8.77 0 0 1 0.77,-5.54 4.54,4.54 0 0 1 1,-1.2 c 0.28,-0.22 0.43,-0.33 0.44,-0.31 a 10.24,10.24 0 0 0 -1.15,1.64 8.87,8.87 0 0 0 -0.5,5.34 c 0.31,2.29 1.58,4.84 2,8 a 8.27,8.27 0 0 1 -0.7,5 17.74,17.74 0 0 1 -3.36,4.13 11.84,11.84 0 0 0 -2.9,4.12 4.91,4.91 0 0 0 0.53,4.37 23.41,23.41 0 0 0 2.77,3.34 10.53,10.53 0 0 1 2.18,3.18 4.07,4.07 0 0 1 -0.07,3.26 3.82,3.82 0 0 1 -1.73,1.76 2.29,2.29 0 0 1 -1.55,0.17 1.14,1.14 0 0 1 -0.51,-0.19 z"
       style="fill:#263238"
       id="path114" />
    <path
       d="m 417.46,199.32 a 3,3 0 0 1 0.17,-0.83 c 0.12,-0.54 0.36,-1.32 0.59,-2.35 a 70.86,70.86 0 0 0 1.6,-8.73 60.85,60.85 0 0 0 0.18,-13.11 51.61,51.61 0 0 0 -3.84,-15.53 40,40 0 0 0 -4.07,-7.21 43.34,43.34 0 0 0 -5.08,-5.82 53.92,53.92 0 0 0 -10.51,-7.74 74.56,74.56 0 0 0 -8,-3.92 c -1,-0.43 -1.73,-0.71 -2.23,-0.94 a 3.83,3.83 0 0 1 -0.77,-0.36 3.15,3.15 0 0 1 0.82,0.22 c 0.52,0.18 1.31,0.42 2.29,0.81 a 62.19,62.19 0 0 1 8.1,3.74 51.62,51.62 0 0 1 10.77,7.73 42.86,42.86 0 0 1 5.2,5.89 39.67,39.67 0 0 1 4.16,7.34 51.12,51.12 0 0 1 3.84,15.76 58.68,58.68 0 0 1 -0.38,13.24 60.65,60.65 0 0 1 -1.84,8.74 c -0.27,1 -0.56,1.78 -0.73,2.31 a 4.52,4.52 0 0 1 -0.27,0.76 z"
       style="fill:#455a64"
       id="path115" />
    <path
       d="m 405.12,250.15 a 2.72,2.72 0 0 1 -0.47,-0.51 10.55,10.55 0 0 1 -1.1,-1.64 15.45,15.45 0 0 1 -2,-6.95 16,16 0 0 1 0.55,-5 30.58,30.58 0 0 1 2.32,-5.26 c 0.85,-1.75 1.52,-3.9 0.45,-5.71 -1.07,-1.81 -3.08,-3 -4.45,-5.06 a 3.77,3.77 0 0 1 -0.32,-3.62 15.86,15.86 0 0 1 2,-2.79 5.88,5.88 0 0 0 0.64,-5.68 15.92,15.92 0 0 0 -2.87,-4.77 30.41,30.41 0 0 1 -2.87,-4.16 7.5,7.5 0 0 1 -0.41,-7.1 3.94,3.94 0 0 1 1.33,-1.48 1.85,1.85 0 0 1 0.62,-0.31 5.12,5.12 0 0 0 -1.69,1.93 7.25,7.25 0 0 0 0.61,6.71 30,30 0 0 0 2.92,4 16.29,16.29 0 0 1 3,4.94 8.12,8.12 0 0 1 0.49,3.17 5.85,5.85 0 0 1 -1.19,3.16 17.2,17.2 0 0 0 -1.88,2.65 3,3 0 0 0 0.28,2.94 c 1.19,1.84 3.31,3 4.46,5.1 a 5.1,5.1 0 0 1 0.56,3.34 11,11 0 0 1 -1,3 31.15,31.15 0 0 0 -2.35,5.14 15.79,15.79 0 0 0 -0.62,4.83 16.19,16.19 0 0 0 1.71,6.84 c 0.73,1.51 1.34,2.24 1.28,2.29 z"
       style="fill:#263238"
       id="path116" />
    <path
       d="m 455.89,244 c 0.11,0.2 -0.19,0.72 -1.18,1.09 a 5.46,5.46 0 0 1 -4.48,-0.64 7.82,7.82 0 0 1 -2.49,-2.29 7.74,7.74 0 0 1 -0.95,-1.81 9.74,9.74 0 0 1 -0.49,-2.05 17.57,17.57 0 0 1 1.62,-8.87 c 1.17,-2.83 2.58,-5.62 2.7,-8.15 0.12,-2.53 -1,-5.32 -2.88,-8.38 -1.88,-3.06 -4.59,-6.35 -6.63,-10.62 a 52.74,52.74 0 0 1 -4.26,-13.34 c -1.73,-9.26 -1.83,-17.87 -2.78,-25.32 a 58.16,58.16 0 0 0 -5.26,-18.72 31.56,31.56 0 0 0 -7.87,-10.23 c -1.22,-0.95 -2.19,-1.74 -2.89,-2.24 -0.7,-0.5 -1,-0.95 -0.94,-1.19 0.06,-0.24 0.59,-0.3 1.51,-0.19 a 13.91,13.91 0 0 1 3.85,1.18 27.08,27.08 0 0 1 10.87,10 54.4,54.4 0 0 1 7.48,20.35 c 1.38,7.94 1.7,16.52 3.31,24.93 a 49.68,49.68 0 0 0 3.53,11.61 c 1.51,3.45 3.9,6.61 5.95,10.28 a 27.2,27.2 0 0 1 2.56,5.9 15.94,15.94 0 0 1 0.56,6.58 18.77,18.77 0 0 1 -1.83,5.61 c -0.77,1.57 -1.57,2.91 -2.25,4.14 a 15,15 0 0 0 -2.22,6.36 6.77,6.77 0 0 0 0.06,1.29 4.44,4.44 0 0 0 0.29,1.05 5.33,5.33 0 0 0 1.15,1.75 c 1.88,1.99 3.76,1.41 3.96,1.92 z"
       style="fill:#263238"
       id="path117" />
    <path
       d="m 367.21,225.29 c 0,0.32 -3.29,0.39 -7.17,1.31 -3.88,0.92 -6.78,2.47 -6.93,2.21 -0.15,-0.26 2.61,-2.28 6.69,-3.22 4.08,-0.94 7.43,-0.59 7.41,-0.3 z"
       style="fill:#263238"
       id="path118" />
    <polygon
       points="438.68,281.65 390.93,309.45 355.41,304.89 332.13,276.82 363.66,274.19 408.63,276.16 "
       style="fill:#ffbe9d"
       id="polygon118" />
    <path
       d="m 331.68,276.82 c 0,0 -25,5.78 -33.44,14.22 -8.44,8.44 -17.19,38.63 -19,47.51 -1.81,8.88 -7.55,83.95 -4,94.61 3.55,10.66 17.36,19.54 33.76,23.09 16.4,3.55 44,6.22 44,6.22 L 366.77,419 320.45,406.56 Z"
       style="fill:#407bff"
       id="path119" />
    <path
       d="m 386.19,410.06 38.61,1.55 c 0,0 10.88,-12.09 13.6,-27.81 2.72,-15.72 1.51,-26.91 1.51,-26.91 l 10.89,-71.95 c 0,0 15.41,-0.6 21.76,18.14 6.35,18.74 0.63,73.82 0,88.28 -0.51,11.74 -6.75,39.33 -15.79,55.5 -3.86,6.91 -10.58,10.3 -14.74,10.54 -13.91,0.77 -53.81,-5.58 -53.81,-5.58 l -2,-40.51"
       style="fill:#407bff"
       id="path120" />
    <path
       d="m 331.68,276.82 c 0,0 25.68,12.4 61.89,10.7 36.21,-1.7 37.13,-7.67 37.13,-7.67 l 22.13,5.29 -5.57,111 -10.83,47.45 9.14,32.91 L 286,476 306.66,416.57 Z"
       style="fill:#407bff"
       id="path121" />
    <path
       d="m 392.48,407.62 a 11.31,11.31 0 0 1 1.9,-0.39 c 1.24,-0.2 3.08,-0.46 5.44,-0.72 4.71,-0.56 11.53,-0.83 19.68,-2 l -0.36,0.39 c 0.54,-10.68 0.55,-24 1.07,-38.39 0.34,-9.06 1,-17.7 2,-25.51 a 151.69,151.69 0 0 1 4.14,-20.49 107.75,107.75 0 0 1 4.66,-13.3 c 0.64,-1.53 1.21,-2.7 1.6,-3.48 a 6.62,6.62 0 0 1 0.64,-1.17 6.5,6.5 0 0 1 -0.45,1.26 c -0.33,0.81 -0.83,2 -1.42,3.54 a 127.16,127.16 0 0 0 -4.32,13.34 159.21,159.21 0 0 0 -3.89,20.43 c -1,7.77 -1.62,16.37 -2,25.42 -0.52,14.37 -0.61,27.69 -1.26,38.4 v 0.34 l -0.33,0.05 c -8.24,1.13 -15.05,1.28 -19.77,1.69 -2.36,0.18 -4.2,0.37 -5.45,0.49 a 12,12 0 0 1 -1.88,0.1 z"
       style="fill:#263238"
       id="path122" />
    <path
       d="m 310.62,370.42 a 8.6,8.6 0 0 1 -0.36,-2.15 c -0.18,-1.39 -0.36,-3.41 -0.54,-5.91 -0.36,-5 -0.6,-11.92 -0.41,-19.57 0.19,-7.65 0.79,-14.56 1.4,-19.53 0.31,-2.49 0.59,-4.5 0.84,-5.88 a 9.19,9.19 0 0 1 0.47,-2.13 7.92,7.92 0 0 1 -0.07,2.18 c -0.12,1.47 -0.3,3.47 -0.51,5.9 -0.42,5 -0.89,11.87 -1.09,19.48 -0.2,7.61 -0.06,14.52 0.1,19.51 0.09,2.45 0.16,4.45 0.21,5.92 a 9,9 0 0 1 -0.04,2.18 z"
       style="fill:#263238"
       id="path123" />
    <path
       d="m 385.84,448.68 a 3.59,3.59 0 0 1 -1,0.31 c -0.64,0.17 -1.59,0.4 -2.81,0.69 -2.44,0.55 -6,1.32 -10.4,2.12 a 322.71,322.71 0 0 1 -34.75,4.42 c -6.83,0.48 -13.33,0.82 -19.29,0.81 A 57.86,57.86 0 0 1 302,455.1 a 32.69,32.69 0 0 1 -5.68,-2.22 27.26,27.26 0 0 1 -3.87,-2.49 l -1.29,-1.08 c -0.34,-0.34 -0.62,-0.65 -0.85,-0.88 -0.46,-0.49 -0.68,-0.75 -0.65,-0.78 a 4.05,4.05 0 0 1 0.79,0.62 l 0.92,0.8 1.32,1 a 29.43,29.43 0 0 0 3.89,2.3 34.14,34.14 0 0 0 5.61,2 60,60 0 0 0 15.49,1.68 c 5.89,0 12.4,-0.41 19.21,-0.89 13.61,-1 25.86,-2.67 34.69,-4.1 4.42,-0.71 8,-1.37 10.45,-1.8 1.23,-0.22 2.19,-0.39 2.84,-0.49 a 3.81,3.81 0 0 1 0.97,-0.09 z"
       style="fill:#263238"
       id="path124" />
    <path
       d="m 429.14,416.28 c -0.3,0.1 -1.33,-3.44 -4.31,-6.69 -2.98,-3.25 -6.33,-4.69 -6.2,-5 0,-0.12 1,0.06 2.32,0.72 a 16.06,16.06 0 0 1 7.72,8.56 c 0.51,1.44 0.6,2.38 0.47,2.41 z"
       style="fill:#263238"
       id="path125" />
    <g
       style="opacity:0.3"
       id="g126">
      <path
         d="m 277.68,416.67 c 8.52,6.18 17.57,12.56 28,13.69 7.38,0.8 14.81,-1.13 22.23,-0.92 9.86,0.28 19.25,4.33 27.77,9.3 8.52,4.97 16.45,10.95 25.12,15.66 9.4,5.09 19.72,8.68 30.38,9.54 10.66,0.86 21.66,-1.11 30.92,-6.46 -13,1.55 -30.27,1.07 -43.84,-3.34 -15.12,-4.9 -17.71,-8.85 -26.4,-13.72 -11.26,-6.3 -21.18,-15.05 -33.15,-19.84 a 56.21,56.21 0 0 0 -32,-2.87 c -5.35,1.1 -11.06,3 -16.06,0.76 -2.22,-1 -4.08,-2.69 -6.33,-3.58 -2.25,-0.89 -5.34,-0.63 -6.47,1.52"
         id="path126" />
    </g>
    <path
       d="m 397.73,385.4 a 5,5 0 0 1 -1.7,0.3 14.26,14.26 0 0 1 -2,0.12 24.44,24.44 0 0 1 -2.68,0 31,31 0 0 1 -3.24,-0.3 c -1.16,-0.13 -2.38,-0.41 -3.67,-0.67 A 41.08,41.08 0 0 1 369,377.57 c -1,-0.82 -2,-1.58 -2.86,-2.4 a 31.35,31.35 0 0 1 -2.31,-2.29 c -0.7,-0.71 -1.23,-1.44 -1.73,-2.05 a 15.9,15.9 0 0 1 -1.19,-1.63 5.77,5.77 0 0 1 -0.86,-1.5 c 0.16,-0.11 1.55,1.9 4.31,4.67 0.7,0.68 1.46,1.43 2.35,2.16 0.89,0.73 1.84,1.49 2.86,2.27 a 49,49 0 0 0 7.2,4.26 47.78,47.78 0 0 0 7.87,2.82 c 1.25,0.29 2.44,0.6 3.57,0.75 1.13,0.15 2.19,0.33 3.16,0.43 3.91,0.36 6.35,0.15 6.36,0.34 z"
       style="fill:#263238"
       id="path127" />
    <path
       d="m 465.75,424.83 a 17.66,17.66 0 0 1 -0.95,3.65 c -0.73,2.32 -1.84,5.66 -3.39,9.72 a 67.21,67.21 0 0 1 -2.83,6.55 27,27 0 0 1 -5,6.57 26.73,26.73 0 0 1 -17.06,7.44 112.72,112.72 0 0 1 -18.71,-0.75 c -5.71,-0.68 -10.81,-1.61 -15.06,-2.54 -4.25,-0.93 -7.63,-1.9 -9.95,-2.64 -1.16,-0.35 -2.05,-0.68 -2.65,-0.9 a 3.18,3.18 0 0 1 -0.89,-0.4 33.47,33.47 0 0 1 3.65,0.91 c 2.35,0.62 5.75,1.46 10,2.31 4.25,0.85 9.33,1.68 15,2.3 a 116.93,116.93 0 0 0 18.54,0.67 26,26 0 0 0 16.45,-7.09 26.34,26.34 0 0 0 4.9,-6.29 c 1.19,-2.2 2.07,-4.43 2.91,-6.41 1.63,-4 2.84,-7.3 3.69,-9.58 0.4,-1.1 0.72,-2 1,-2.62 a 4,4 0 0 1 0.35,-0.9 z"
       style="fill:#263238"
       id="path128" />
    <path
       d="m 290.1,353.74 c 0,0 22.55,17.48 23.31,19.5 0.76,2.02 8.36,13.94 14.69,19 6.33,5.06 64.38,16.93 64.38,16.93 l -3.33,41.51 c 0,0 -47.62,-28.8 -61.81,-28 -14.19,0.8 -25.33,3.55 -31.41,1.52 -6.08,-2.03 -21.35,-11.65 -21.35,-11.65 0,0 -2.63,-5.32 0.24,-7.86 0,0 -1.74,-5.57 -1.34,-8.1 0,0 -2.3,-5.81 -0.06,-8.11 0,0 -0.55,-8.61 4.26,-8.61 4.81,0 13.94,1.52 18.25,1.27 a 6.9,6.9 0 0 0 5.82,-3.3 c 0,0 0,-2.28 -3.54,-4.81 -3.54,-2.53 -16.98,-12.96 -8.11,-19.29 z"
       style="fill:#ffbe9d"
       id="path129" />
    <path
       d="m 286.05,396.76 c -0.11,0.25 -3.42,-0.94 -7,-3.31 -3.58,-2.37 -6.07,-4.9 -5.88,-5.1 0.19,-0.2 2.9,1.93 6.45,4.23 3.55,2.3 6.55,3.9 6.43,4.18 z"
       style="fill:#eb996e"
       id="path130" />
    <path
       d="m 287,405.78 c -0.06,0.25 -4,-0.83 -8.12,-3.77 -4.12,-2.94 -6.4,-6.35 -6.18,-6.49 0.22,-0.14 2.83,2.83 6.78,5.64 3.95,2.81 7.66,4.33 7.52,4.62 z"
       style="fill:#eb996e"
       id="path131" />
    <path
       d="m 288.07,412.86 c 0,0.26 -3.86,-0.34 -7.84,-2.86 -3.98,-2.52 -6.2,-5.67 -6,-5.81 0.2,-0.14 2.71,2.56 6.54,4.93 3.83,2.37 7.39,3.43 7.3,3.74 z"
       style="fill:#eb996e"
       id="path132" />
    <path
       d="m 309.09,337.32 c 0,0.34 -6.46,-1.11 -14.36,-0.13 -7.9,0.98 -13.8,3.8 -13.93,3.49 -0.05,-0.11 1.34,-1 3.79,-2 a 39.73,39.73 0 0 1 20.35,-2.41 c 2.62,0.41 4.17,0.93 4.15,1.05 z"
       style="fill:#ffffff"
       id="path133" />
    <path
       d="m 419.05,345 a 3.81,3.81 0 0 1 -1.05,0.35 l -3.07,0.81 c -1.34,0.35 -3,0.75 -4.9,1.15 -1.9,0.4 -4.1,0.92 -6.53,1.34 -2.43,0.42 -5.09,0.94 -8,1.36 -2.91,0.42 -6,0.83 -9.19,1.24 -6.49,0.72 -13.66,1.28 -21.19,1.51 -7.53,0.23 -14.73,0 -21.25,-0.33 -3.26,-0.22 -6.36,-0.41 -9.24,-0.73 -2.88,-0.32 -5.58,-0.59 -8,-0.91 -2.42,-0.32 -4.65,-0.67 -6.59,-1 -1.94,-0.33 -3.6,-0.6 -5,-0.88 l -3.11,-0.63 a 5,5 0 0 1 -1.07,-0.29 4,4 0 0 1 1.11,0.08 l 3.14,0.44 c 1.36,0.21 3,0.47 5,0.7 2,0.23 4.15,0.58 6.6,0.82 2.45,0.24 5.13,0.57 8,0.78 2.87,0.21 6,0.44 9.22,0.63 6.5,0.31 13.66,0.44 21.17,0.25 7.51,-0.19 14.64,-0.76 21.11,-1.42 3.24,-0.38 6.31,-0.71 9.17,-1.15 2.86,-0.44 5.53,-0.82 8,-1.23 2.47,-0.41 4.62,-0.83 6.54,-1.18 1.92,-0.35 3.58,-0.69 4.93,-1 l 3.11,-0.62 a 5.07,5.07 0 0 1 1.09,-0.09 z"
       style="fill:#ffffff"
       id="path134" />
    <path
       d="m 471.47,341.91 c -0.11,0.17 -2.35,-1.63 -6.59,-3.26 a 42.72,42.72 0 0 0 -17.38,-2.5 95.33,95.33 0 0 0 -17.51,3 c -4.44,1.1 -7.19,1.79 -7.23,1.64 a 7.78,7.78 0 0 1 1.85,-0.74 c 1.22,-0.41 3,-1 5.19,-1.61 a 79.5,79.5 0 0 1 17.65,-3.28 40,40 0 0 1 17.71,2.84 26.17,26.17 0 0 1 4.78,2.64 6.31,6.31 0 0 1 1.53,1.27 z"
       style="fill:#ffffff"
       id="path135" />
    <g
       style="opacity:0.3"
       id="g136">
      <path
         d="m 360.83,368.65 0.32,0.9 c 1.38,8.73 7.26,16.77 15.43,20.17 8.17,3.4 18.36,1.71 24.6,-4.55 -15.1,3.28 -31.89,-3.59 -40.35,-16.52 z"
         id="path136" />
    </g>
    <g
       style="opacity:0.3"
       id="g137">
      <path
         d="m 440.58,416.91 c -1.34,-3.61 -4.8,-5.94 -8.2,-7.75 a 73.22,73.22 0 0 0 -13.83,-5.63 l 0.12,1.35 a 47.19,47.19 0 0 1 13.18,14.35 c 1.29,2.19 2.95,4.8 5.48,4.7 a 4,4 0 0 0 3.37,-2.61 6.32,6.32 0 0 0 -0.12,-4.41 z"
         id="path137" />
    </g>
    <path
       d="m 665.12,476.52 c 0,0.29 -129.9,0.52 -290.11,0.52 -160.21,0 -290.13,-0.23 -290.13,-0.52 0,-0.29 129.88,-0.52 290.12,-0.52 160.24,0 290.12,0.24 290.12,0.52 z"
       style="fill:#263238"
       id="path138" />
  </g>
</svg>
