<?xml version="1.0" encoding="UTF-8" standalone="no"?>
<svg
   viewBox="0 0 500 500"
   version="1.1"
   id="svg95"
   sodipodi:docname="Contato3.svg"
   inkscape:version="1.3.2 (091e20ef0f, 2023-11-25, custom)"
   xmlns:inkscape="http://www.inkscape.org/namespaces/inkscape"
   xmlns:sodipodi="http://sodipodi.sourceforge.net/DTD/sodipodi-0.dtd"
   xmlns="http://www.w3.org/2000/svg"
   xmlns:svg="http://www.w3.org/2000/svg">
  <defs
     id="defs95" />
  <sodipodi:namedview
     id="namedview95"
     pagecolor="#ffffff"
     bordercolor="#000000"
     borderopacity="0.25"
     inkscape:showpageshadow="2"
     inkscape:pageopacity="0.0"
     inkscape:pagecheckerboard="0"
     inkscape:deskcolor="#d1d1d1"
     inkscape:zoom="1.474"
     inkscape:cx="64.450475"
     inkscape:cy="207.25916"
     inkscape:window-width="1680"
     inkscape:window-height="984"
     inkscape:window-x="1360"
     inkscape:window-y="0"
     inkscape:window-maximized="1"
     inkscape:current-layer="svg95" />
  <g
     id="freepik--Floor--inject-2"
     transform="matrix(-1,0,0,1,500,0)">
    <ellipse
       cx="250"
       cy="377.35001"
       rx="197.05"
       ry="111.94"
       style="fill:#f5f5f5"
       id="ellipse1" />
  </g>
  <g
     id="freepik--Shadows--inject-2"
     transform="matrix(-1,0,0,1,500,0)">
    <path
       d="M 332,447.93 184.91,363 a 8.5,8.5 0 0 1 0,-14.73 l 14.51,-9.15 a 16.5,16.5 0 0 1 16.47,0 L 363,424.06 a 8.5,8.5 0 0 1 0,14.73 l -14.51,9.14 a 16.46,16.46 0 0 1 -16.49,0 z"
       style="fill:#e0e0e0"
       id="path1" />
    <ellipse
       cx="108.35"
       cy="352.17001"
       rx="31.92"
       ry="18.33"
       style="fill:#e6e6e6"
       id="ellipse2" />
  </g>
  <g
     id="freepik--Plants--inject-2"
     transform="matrix(-1,0,0,1,500,0)">
    <path
       d="m 384.16,374.7 14,8.05 c 0,0 -7.15,-22.47 -3.34,-45.12 1.44,-8.56 4.53,-12.81 5.61,-15.1 1.08,-2.29 9.45,-16.44 2,-22.92 -7.45,-6.48 -24.78,6.55 -23.84,41.42 a 135.23,135.23 0 0 0 5.57,33.67 z"
       style="fill:#64b5f7"
       id="path2" />
    <path
       d="m 384.16,374.7 14,8.05 c 0,0 -7.15,-22.47 -3.34,-45.12 1.44,-8.56 4.53,-12.81 5.61,-15.1 1.08,-2.29 9.45,-16.44 2,-22.92 -7.45,-6.48 -24.78,6.55 -23.84,41.42 a 135.23,135.23 0 0 0 5.57,33.67 z"
       style="opacity:0.5"
       id="path3" />
    <path
       d="m 390.67,378.94 a 0.49,0.49 0 0 1 -0.47,-0.32 c -0.05,-0.15 -5.4,-14.77 -5.23,-38.27 0.17,-23.5 12.52,-36.26 12.64,-36.38 a 0.5,0.5 0 0 1 0.71,0 0.5,0.5 0 0 1 0,0.71 c -0.12,0.12 -12.18,12.5 -12.35,35.68 -0.17,23.18 5.11,37.78 5.17,37.92 a 0.5,0.5 0 0 1 -0.3,0.64 0.47,0.47 0 0 1 -0.17,0.02 z"
       style="fill:#ffffff"
       id="path4" />
    <path
       d="m 390,378.14 19.14,11 a 9.21,9.21 0 0 0 12.22,-2.63 10,10 0 0 0 1.51,-6.65 c -0.92,-9.94 -5.24,-12.23 0.05,-16.66 5.29,-4.43 6.67,-4.74 6.37,-9 -0.3,-4.26 -3.21,-6.12 -4.59,-7.8 -1.38,-1.68 -5.2,-5.2 -2.6,-10.4 2.6,-5.2 6.15,-10.23 0.77,-12.53 -3.21,-1.38 -8.56,0.46 -12.08,4.28 -3.52,3.82 -6.42,6.57 -9.79,7.49 -3.37,0.92 -10.39,1.07 -10.09,6.88 0.3,5.81 1.84,7.8 0.46,10.39 -2.6,4.84 -13.91,7.59 -1.37,25.63 z"
       style="fill:#64b5f7"
       id="path5" />
    <path
       d="m 399.46,384.06 a 0.52,0.52 0 0 1 -0.5,-0.46 c 0,-0.34 -2.94,-34.66 20.66,-57.5 a 0.5,0.5 0 0 1 0.69,0.72 c -23.26,22.51 -20.38,56.35 -20.35,56.69 a 0.5,0.5 0 0 1 -0.45,0.54 z"
       style="fill:#ffffff"
       id="path6" />
    <path
       d="m 403.25,354.52 a 0.5,0.5 0 0 1 -0.5,-0.46 19.64,19.64 0 0 0 -7.23,-13.73 0.5,0.5 0 0 1 -0.12,-0.7 0.49,0.49 0 0 1 0.69,-0.12 20.37,20.37 0 0 1 7.66,14.49 0.51,0.51 0 0 1 -0.46,0.55 z"
       style="fill:#ffffff"
       id="path7" />
    <path
       d="m 401.62,360.41 a 0.5,0.5 0 0 1 -0.33,-0.12 0.51,0.51 0 0 1 -0.05,-0.71 c 0.24,-0.28 6.15,-6.8 20,-5.07 a 0.5,0.5 0 0 1 0.43,0.56 0.51,0.51 0 0 1 -0.56,0.44 c -13.3,-1.67 -19.07,4.67 -19.13,4.73 a 0.51,0.51 0 0 1 -0.36,0.17 z"
       style="fill:#ffffff"
       id="path8" />
  </g>
  <path
     d="m 172.48,437.78 129.36,-74.69 c 9.13,-5.27 16.53,-19.41 16.53,-31.58 v -277 c 0,-12.17 -7.4,-17.76 -16.53,-12.49 l -129.36,74.69 c -9.13,5.27 -16.53,19.41 -16.53,31.58 v 277 c 0,12.16 7.4,17.76 16.53,12.49 z"
     style="fill:#455a64"
     id="path9" />
  <path
     d="M 157.58,108 286.95,33.31 c 3.9,-2.25 7.48,-2.51 10.31,-1.13 v 0 a 8.45,8.45 0 0 1 1,0.59 l 14.5,8.43 c -2.92,-1.75 -6.74,-1.62 -10.93,0.8 l -129.36,74.69 c -9.13,5.27 -16.53,19.41 -16.53,31.58 v 277 c 0,6.44 2.07,11 5.37,13.16 L 147,430.1 v 0 c -3.65,-1.94 -6,-6.69 -6,-13.5 v -277 c 0,-12.19 7.45,-26.33 16.58,-31.6 z"
     style="fill:#37474f"
     id="path10" />
  <path
     d="m 155.95,148.27 v 277 c 0,6.44 2.07,11 5.37,13.16 L 147,430.1 v 0 c -3.65,-1.94 -6,-6.69 -6,-13.5 v -277 l 14.9,8.65 z"
     style="fill:#263238"
     id="path11" />
  <polygon
     points="344.05,169.69 344.05,176.41 358.95,167.8 358.95,161.09 "
     style="fill:#37474f"
     id="polygon11"
     transform="matrix(-1,0,0,1,500,0)" />
  <path
     d="m 147.58,205.78 v 0 c 1.33,0.77 2.41,-0.05 2.41,-1.82 v -14.45 a 5.78,5.78 0 0 0 -2.41,-4.61 v 0 c -1.33,-0.77 -2.41,0 -2.41,1.82 v 14.45 a 5.78,5.78 0 0 0 2.41,4.61 z"
     style="fill:#37474f"
     id="path12" />
  <path
     d="m 150,204 v -14.49 a 5.78,5.78 0 0 0 -2.41,-4.61 1.54,1.54 0 0 0 -1.52,-0.14 v 0 l 1.81,-0.93 v 0 a 1.56,1.56 0 0 1 1.56,0.12 5.8,5.8 0 0 1 2.42,4.61 V 203 a 2.17,2.17 0 0 1 -0.82,1.93 v 0 l -1.89,1 v 0 A 2.08,2.08 0 0 0 150,204 Z"
     style="fill:#455a64"
     id="path13" />
  <path
     d="m 147.58,240.75 v 0 c 1.33,0.77 2.41,0 2.41,-1.82 v -14.45 a 5.79,5.79 0 0 0 -2.41,-4.61 v 0 c -1.33,-0.77 -2.41,0 -2.41,1.83 v 14.44 a 5.76,5.76 0 0 0 2.41,4.61 z"
     style="fill:#37474f"
     id="path14" />
  <path
     d="m 150,238.93 v -14.45 a 5.79,5.79 0 0 0 -2.41,-4.61 1.57,1.57 0 0 0 -1.52,-0.14 v 0 l 1.81,-0.94 v 0 a 1.51,1.51 0 0 1 1.56,0.12 5.77,5.77 0 0 1 2.42,4.61 V 238 a 2.16,2.16 0 0 1 -0.82,1.93 v 0 l -1.89,1 v 0 a 2.07,2.07 0 0 0 0.85,-2 z"
     style="fill:#455a64"
     id="path15" />
  <path
     d="M 177,124.48 304.12,51.06 a 3.51,3.51 0 0 1 5.26,3 v 277.45 c 0,9.26 -6.57,20.63 -14.59,25.26 l -124,71.63 a 3.87,3.87 0 0 1 -5.8,-3.35 V 145.31 c -0.05,-7.64 5.37,-17.01 12.01,-20.83 z"
     style="fill:#64b5f7"
     id="path16" />
  <path
     d="M 177,124.48 304.12,51.06 a 3.51,3.51 0 0 1 5.26,3 v 277.45 c 0,9.26 -6.57,20.63 -14.59,25.26 l -124,71.63 a 3.87,3.87 0 0 1 -5.8,-3.35 V 145.31 c -0.05,-7.64 5.37,-17.01 12.01,-20.83 z"
     style="opacity:0.9;fill:#ffffff"
     id="path17" />
  <polygon
     points="235.87,78.52 278.01,102.82 285.29,98.94 233.9,70.23 "
     style="fill:#455a64"
     id="polygon17"
     transform="matrix(-1,0,0,1,500,0)" />
  <path
     d="m 253.71,78.24 c 0,1.38 1,1.93 2.16,1.25 A 4.78,4.78 0 0 0 258,75.75 c 0,-1.37 -1,-1.93 -2.16,-1.24 a 4.76,4.76 0 0 0 -2.13,3.73 z"
     style="fill:#263238"
     id="path18" />
  <path
     d="m 225.32,95.79 a 1.41,1.41 0 0 0 0.66,-0.17 l 21.52,-12 a 1.35,1.35 0 0 0 -1.31,-2.36 l -21.53,12 a 1.35,1.35 0 0 0 0.66,2.53 z"
     style="fill:#263238"
     id="path19" />
  <g
     id="freepik--Character--inject-2"
     transform="matrix(-1,0,0,1,500,0)">
    <path
       d="m 316.44,248.56 v 124.25 a 8,8 0 0 1 -12,6.94 l -66.92,-38.64 -11.86,-6.84 A 26.95,26.95 0 0 1 212.2,311 V 186.74 a 8,8 0 0 1 12,-6.94 l 78.8,45.49 a 26.87,26.87 0 0 1 13.44,23.27 z"
       style="fill:#64b5f7"
       id="path34" />
    <path
       d="m 316.44,248.56 v 124.25 a 8,8 0 0 1 -12,6.94 l -66.92,-38.64 -11.86,-6.84 A 26.95,26.95 0 0 1 212.2,311 V 186.74 a 8,8 0 0 1 12,-6.94 l 78.8,45.49 a 26.87,26.87 0 0 1 13.44,23.27 z"
       style="opacity:0.5;fill:#ffffff"
       id="path35" />
    <path
       d="m 277.89,322.08 c 0,0 12.53,20.78 3.48,44.21 l -43.88,-25.18 z"
       style="fill:#263238"
       id="path36" />
    <circle
       cx="283.92001"
       cy="226.99001"
       r="14.05"
       transform="rotate(-82.98,283.92969,226.99062)"
       style="fill:#263238"
       id="circle36" />
    <path
       d="m 284,187.59 c 0,0 4.31,-7 5.63,-6.49 1.32,0.51 -0.86,7.18 -0.86,7.18 0,0 6.52,1.36 5.31,3 -1.21,1.64 -9.18,1.25 -9.18,1.25 z"
       style="fill:#263238"
       id="path37" />
    <path
       d="m 287,205.63 c -3,22.54 -22,22.54 -22,22.54 l -39.8,-17.52 c 0,0 -3,-2.63 -3.92,-8.67 a 26.41,26.41 0 0 1 0,-7.46 c 0,0 0,-0.05 0,-0.07 1.27,-9.48 8.36,-19.67 23.8,-22.8 a 50.59,50.59 0 0 1 10.28,-1 46.83,46.83 0 0 1 5,0.25 c 12,1.18 20.41,6.78 24.42,15.49 a 28,28 0 0 1 2,6.15 38.82,38.82 0 0 1 0.22,13.09 z"
       style="fill:#263238"
       id="path38" />
    <path
       d="m 191.45,249.23 c 0,0 -14.13,-0.49 -19.57,13.28 0,0 6,4.05 13.87,0 7.87,-4.05 5.7,-13.28 5.7,-13.28 z"
       style="fill:#64b5f7"
       id="path39" />
    <path
       d="m 191.45,249.23 c 0,0 -14.13,-0.49 -19.57,13.28 0,0 6,4.05 13.87,0 7.87,-4.05 5.7,-13.28 5.7,-13.28 z"
       style="opacity:0.5"
       id="path40" />
    <path
       d="m 191.05,255.86 c 0,0 -4,-17.38 -6.11,-17.59 -2.11,-0.21 -2.52,5.3 -2.35,8.41 l -5,-10.76 a 2.71,2.71 0 0 0 -3.76,-1.21 c -5,2.75 -13.77,11.11 4.72,31.78 z"
       style="fill:#945959"
       id="path41" />
    <path
       d="m 242.25,243.84 -3,-0.39 a 17.18,17.18 0 0 0 -16,6.72 l -17.85,23.76 -14,-24.7 c 0,0 -1.68,16.8 -19.57,13.28 l 19.21,32.33 a 14.78,14.78 0 0 0 24.18,1.77 l 16.44,-20.21 z"
       style="fill:#64b5f7"
       id="path42" />
    <path
       d="m 280.35,299.29 c -4,10.14 -4.44,12.12 -2,17.19 a 64.87,64.87 0 0 1 4,11.64 c 0,0 -18.54,20.78 -44.93,13 l -11.86,-6.84 a 26.56,26.56 0 0 1 -6.58,-5.36 L 222.59,302 a 9.4,9.4 0 0 0 -0.42,-4.21 l -3.79,-11.11 a 30.36,30.36 0 0 1 7.52,-31.51 l 12.74,-12.45 33.46,4.28 5,1.43 A 14.15,14.15 0 0 1 287.18,264 c -1.64,11.8 -4.32,28.92 -6.83,35.29 z"
       style="fill:#64b5f7"
       id="path43" />
    <path
       d="m 280.35,299.29 c -4,10.14 -4.44,12.12 -2,17.19 a 64.87,64.87 0 0 1 4,11.64 c 0,0 -18.54,20.78 -44.93,13 l -11.86,-6.84 a 26.56,26.56 0 0 1 -6.58,-5.36 L 222.59,302 a 9.4,9.4 0 0 0 -0.42,-4.21 l -3.79,-11.11 a 30.36,30.36 0 0 1 7.52,-31.51 l 12.74,-12.45 33.46,4.28 5,1.43 A 14.15,14.15 0 0 1 287.18,264 c -1.64,11.8 -4.32,28.92 -6.83,35.29 z"
       style="opacity:0.5"
       id="path44" />
    <path
       d="m 260.17,269 -6.7,-5.71 a 5.37,5.37 0 0 0 -5.23,-1 l -8.1,2.79 -1.09,-4.54 a 5.38,5.38 0 0 0 -6.72,-3.91 l -3.51,1 5.94,-11.38 a 21.31,21.31 0 0 1 8.59,-8.78 l 2.33,-1.28 19.25,1 c 0,0 7.17,3 7.17,9.75 l -11.93,22"
       style="fill:#64b5f7"
       id="path45" />
    <polygon
       points="265.01,212.87 265.01,245.72 245.71,260.76 245.71,212.87 "
       style="fill:#945959"
       id="polygon45" />
    <polygon
       points="246.01,241.77 240.14,265.12 264.93,245.72 "
       style="fill:#945959"
       id="polygon46" />
    <path
       d="M 245.71,238.3 A 33.78,33.78 0 0 0 265,219.94 v -7.07 h -19.3 z"
       style="fill:#703838"
       id="path46" />
    <path
       d="m 249.87,177.38 c -7.32,0 -22.88,4.08 -24.68,23.24 -1.8,19.16 -0.06,34 9.82,35.44 9.88,1.44 32.84,-5.73 35.92,-30.53 3.08,-24.8 -13.93,-28.15 -21.06,-28.15 z"
       style="fill:#945959"
       id="path47" />
    <polygon
       points="238.35,208.73 238.35,220.02 231.73,217.99 "
       style="fill:#703838"
       id="polygon47" />
    <circle
       cx="245.71001"
       cy="210.67999"
       r="2.3"
       style="fill:#263238"
       id="circle47" />
    <path
       d="m 232.87,209.08 a 2.3,2.3 0 1 1 -2.3,-2.31 2.3,2.3 0 0 1 2.3,2.31 z"
       style="fill:#263238"
       id="path48" />
    <path
       d="m 227.76,204.28 4.5,-2.67 c 0,0 -1.72,-1.79 -3.44,-0.72 -1.72,1.07 -1.06,3.39 -1.06,3.39 z"
       style="fill:#263238"
       id="path49" />
    <path
       d="m 235.24,224.6 a 9.75,9.75 0 0 0 6.19,-1.66 c 0,0 0.43,3.27 -2.31,3.89 -2.74,0.62 -3.88,-2.23 -3.88,-2.23 z"
       style="fill:#703838"
       id="path50" />
    <path
       d="m 231.31,183.9 c 0,0 2.75,26.45 38.72,27.28 0,0 10.87,-26.29 -10.61,-34.83 -21.48,-8.54 -28.11,7.55 -28.11,7.55 z"
       style="fill:#263238"
       id="path51" />
    <path
       d="m 280.62,207.22 v 0 0 0 l -4.42,-2.56 v 0 c -1.68,-1 -4,-0.86 -6.57,0.62 -5.1,2.94 -9.24,10.11 -9.24,16 0,2.95 1,5 2.72,6 v 0 l 4.34,2.5 0.25,0.14 0.15,0.09 v 0 c 1.64,0.8 3.83,0.61 6.24,-0.78 5.1,-3 9.24,-10.11 9.24,-16 -0.03,-2.98 -1.06,-5.04 -2.71,-6.01 z"
       style="fill:#64b5f7"
       id="path52" />
    <ellipse
       cx="274.06"
       cy="218.50999"
       rx="13.06"
       ry="7.54"
       transform="rotate(-60,274.0594,218.51519)"
       style="fill:#64b5f7"
       id="ellipse52" />
    <ellipse
       cx="274.06"
       cy="218.50999"
       rx="13.06"
       ry="7.54"
       transform="rotate(-60,274.0594,218.51519)"
       style="opacity:0.5"
       id="ellipse53" />
    <path
       d="m 282.39,212.77 v 0 l -3,-1.75 v 0 c -1.14,-0.68 -2.73,-0.59 -4.49,0.42 a 14,14 0 0 0 -6.32,10.95 c 0,2 0.71,3.43 1.86,4.09 v 0 l 3,1.71 a 1,1 0 0 0 0.17,0.1 l 0.1,0.06 v 0 a 4.6,4.6 0 0 0 4.28,-0.54 14,14 0 0 0 6.32,-10.94 c -0.08,-2.03 -0.78,-3.44 -1.92,-4.1 z"
       style="fill:#64b5f7"
       id="path53" />
    <path
       d="m 284.23,216.85 a 14,14 0 0 1 -6.32,10.94 c -3.5,2 -6.33,0.38 -6.33,-3.65 a 13.94,13.94 0 0 1 6.33,-10.94 c 3.49,-2.02 6.32,-0.39 6.32,3.65 z"
       style="fill:#64b5f7"
       id="path54" />
    <path
       d="m 284.23,216.85 a 14,14 0 0 1 -6.32,10.94 c -3.5,2 -6.33,0.38 -6.33,-3.65 a 13.94,13.94 0 0 1 6.33,-10.94 c 3.49,-2.02 6.32,-0.39 6.32,3.65 z"
       style="opacity:0.3"
       id="path55" />
    <path
       d="m 266.89,172.22 a 16.64,16.64 0 0 0 -10,-3.47 H 256 a 53.89,53.89 0 0 0 -10.93,1 c 0.66,0 1.32,0 2,0 h -2 v 1.86 h 1.86 a 24.71,24.71 0 0 1 23.87,24.73 v 7.87 a 2.22,2.22 0 0 0 2.45,2.21 h 0.23 l 2,-0.62 v 0 a 1.86,1.86 0 0 1 -0.41,0.08 2.45,2.45 0 0 0 2.12,-2.48 v -7.3 c -0.02,-13.21 -5.73,-20.31 -10.3,-23.88 z"
       style="fill:#64b5f7"
       id="path56" />
    <path
       d="m 254.3,235.51 a 5.75,5.75 0 0 1 -2.39,-0.52 l -6.25,-2.89 a 0.75,0.75 0 1 1 0.62,-1.36 l 6.25,2.89 a 4.22,4.22 0 0 0 4.82,-0.9 l 6,-6.2 a 0.75,0.75 0 0 1 1.06,0 0.76,0.76 0 0 1 0,1.06 l -6,6.2 a 5.69,5.69 0 0 1 -4.11,1.72 z"
       style="fill:#64b5f7"
       id="path57" />
    <path
       d="m 254.3,235.51 a 5.75,5.75 0 0 1 -2.39,-0.52 l -6.25,-2.89 a 0.75,0.75 0 1 1 0.62,-1.36 l 6.25,2.89 a 4.22,4.22 0 0 0 4.82,-0.9 l 6,-6.2 a 0.75,0.75 0 0 1 1.06,0 0.76,0.76 0 0 1 0,1.06 l -6,6.2 a 5.69,5.69 0 0 1 -4.11,1.72 z"
       style="opacity:0.5"
       id="path58" />
    <path
       d="m 247.3,230 a 2.92,2.92 0 1 1 -2.92,-2.92 2.92,2.92 0 0 1 2.92,2.92 z"
       style="fill:#64b5f7"
       id="path59" />
    <path
       d="m 247.3,230 a 2.92,2.92 0 1 1 -2.92,-2.92 2.92,2.92 0 0 1 2.92,2.92 z"
       style="opacity:0.5"
       id="path60" />
    <path
       d="m 277.17,196.1 v 7.3 a 2.45,2.45 0 0 1 -2.12,2.48 2.36,2.36 0 0 1 -2.61,-2.35 v -7.43 a 26.29,26.29 0 0 0 -27.36,-26.31 53.89,53.89 0 0 1 10.93,-1 h 0.87 a 16.64,16.64 0 0 1 10,3.47 c 4.58,3.53 10.29,10.63 10.29,23.84 z"
       style="fill:#64b5f7"
       id="path61" />
    <path
       d="m 277.17,196.1 v 7.3 a 2.45,2.45 0 0 1 -2.12,2.48 2.36,2.36 0 0 1 -2.61,-2.35 v -7.43 a 26.29,26.29 0 0 0 -27.36,-26.31 53.89,53.89 0 0 1 10.93,-1 h 0.87 a 16.64,16.64 0 0 1 10,3.47 c 4.58,3.53 10.29,10.63 10.29,23.84 z"
       style="opacity:0.5"
       id="path62" />
    <path
       d="m 265.93,333.67 c 0,0 -4.84,13.33 12.46,19.33 0,0 5.65,-8.3 0,-15.09 -5.65,-6.79 -12.46,-4.24 -12.46,-4.24 z"
       style="fill:#64b5f7"
       id="path63" />
    <path
       d="m 265.93,333.67 c 0,0 -4.84,13.33 12.46,19.33 0,0 5.65,-8.3 0,-15.09 -5.65,-6.79 -12.46,-4.24 -12.46,-4.24 z"
       style="opacity:0.7"
       id="path64" />
    <path
       d="m 272,334.28 c 0,0 -16.9,6.19 -16.81,8.59 0.09,2.4 7.18,0.76 7.18,0.76 l -2.59,1.7 a 15.84,15.84 0 0 0 -6.05,7.38 v 0 a 2.92,2.92 0 0 0 1.34,3.65 l 6.42,3.4 a 3.07,3.07 0 0 0 4.19,-1.35 v 0 a 6,6 0 0 1 3.51,-3 c 3.49,-1.16 10,-4.5 12.61,-13.64 z"
       style="fill:#945959"
       id="path65" />
    <path
       d="m 277.07,248.41 c 0,0 -9,5 -4.22,20.18 4.78,15.18 13.75,38.73 13.75,38.73 l -20.67,26.35 a 15.82,15.82 0 0 1 11.07,6.64 14,14 0 0 1 1.39,12.69 l 25.66,-33 a 23.25,23.25 0 0 0 3.64,-21.83 l -11,-32.12 a 26.88,26.88 0 0 0 -17,-16.81 z"
       style="fill:#64b5f7"
       id="path66" />
  </g>
  <g
     id="freepik--Icons--inject-2"
     transform="translate(298.24)">
    <path
       d="m 125.15,158.74 -39.77,-23 a 3.35,3.35 0 0 0 -3.17,-0.35 v 0 a 1.92,1.92 0 0 0 -0.31,0.18 l -8.65,5.07 h 0.06 c -1.09,0.62 -1.78,2.06 -1.78,4.12 V 189 c 0,3.74 2.27,8.09 5.08,9.71 l 39.77,23 a 3.18,3.18 0 0 0 3.5,0.15 0.18,0.18 0 0 0 -0.07,0.05 l 8.59,-5 v 0 c 1.12,-0.6 1.83,-2.06 1.83,-4.15 v -44.31 c 0,-3.74 -2.23,-8.09 -5.08,-9.71 z"
       style="fill:#64b5f7"
       id="path67" />
    <path
       d="m 128.81,162.93 a 10.12,10.12 0 0 0 -3.66,-4.19 l -39.77,-23 a 3.35,3.35 0 0 0 -3.17,-0.35 v 0 a 1.92,1.92 0 0 0 -0.31,0.18 l -8.65,5.07 a 3.24,3.24 0 0 1 3.36,0.25 l 39.77,23 a 10.3,10.3 0 0 1 3.75,4.38 v 0 z"
       style="fill:#64b5f7"
       id="path68" />
    <path
       d="m 121.46,217.82 c 0,2 -0.64,3.39 -1.65,4 l 8.59,-5 v 0 c 1.12,-0.6 1.83,-2.06 1.83,-4.15 v -44.22 a 12.51,12.51 0 0 0 -1.42,-5.52 l -8.68,5.34 v 0 a 12.49,12.49 0 0 1 1.33,5.33 z"
       style="fill:#64b5f7"
       id="path69" />
    <path
       d="m 128.81,162.93 a 10.12,10.12 0 0 0 -3.66,-4.19 l -39.77,-23 a 3.35,3.35 0 0 0 -3.17,-0.35 v 0 a 1.92,1.92 0 0 0 -0.31,0.18 l -8.65,5.07 a 3.24,3.24 0 0 1 3.36,0.25 l 39.77,23 a 10.3,10.3 0 0 1 3.75,4.38 v 0 z"
       style="opacity:0.3"
       id="path70" />
    <path
       d="m 121.46,217.82 c 0,2 -0.64,3.39 -1.65,4 l 8.59,-5 v 0 c 1.12,-0.6 1.83,-2.06 1.83,-4.15 v -44.22 a 12.51,12.51 0 0 0 -1.42,-5.52 l -8.68,5.34 v 0 a 12.49,12.49 0 0 1 1.33,5.33 z"
       style="opacity:0.6"
       id="path71" />
    <path
       d="m 109.8,186.27 c 0,5.73 -2.27,7.68 -5.67,5.71 a 8,8 0 0 1 -3.8,-5 c -1,1.23 -2.55,1.31 -4.73,0.05 -3.58,-2.07 -6.4,-7 -6.4,-11.79 0,-4.79 2.79,-6.44 6.4,-4.36 a 11,11 0 0 1 4.26,4.57 v -1.89 l 3.77,2.18 v 10.36 a 3,3 0 0 0 1.33,2.81 c 1.27,0.74 2.05,-0.51 2.05,-4.22 0,-6.49 -4.16,-13.37 -10.31,-16.92 -6.15,-3.55 -10.3,-1.08 -10.3,5.6 a 21,21 0 0 0 10.19,17.53 11.88,11.88 0 0 0 5.46,1.74 l 0.89,3.45 A 14.21,14.21 0 0 1 96.59,194 c -8,-4.63 -13.29,-13.95 -13.29,-22.39 0,-8.44 5.34,-11.5 13.4,-6.84 7.79,4.49 13.1,13.48 13.1,21.5 z m -9.88,-4.81 a 7.34,7.34 0 0 0 -3.47,-6.35 c -2,-1.17 -3.43,-0.35 -3.43,2.37 a 7.39,7.39 0 0 0 3.43,6.39 c 2,1.13 3.47,0.4 3.47,-2.41 z"
       style="fill:#64b5f7"
       id="path72" />
    <g
       style="opacity:0.9"
       id="g73">
      <path
         d="m 109.8,186.27 c 0,5.73 -2.27,7.68 -5.67,5.71 a 8,8 0 0 1 -3.8,-5 c -1,1.23 -2.55,1.31 -4.73,0.05 -3.58,-2.07 -6.4,-7 -6.4,-11.79 0,-4.79 2.79,-6.44 6.4,-4.36 a 11,11 0 0 1 4.26,4.57 v -1.89 l 3.77,2.18 v 10.36 a 3,3 0 0 0 1.33,2.81 c 1.27,0.74 2.05,-0.51 2.05,-4.22 0,-6.49 -4.16,-13.37 -10.31,-16.92 -6.15,-3.55 -10.3,-1.08 -10.3,5.6 a 21,21 0 0 0 10.19,17.53 11.88,11.88 0 0 0 5.46,1.74 l 0.89,3.45 A 14.21,14.21 0 0 1 96.59,194 c -8,-4.63 -13.29,-13.95 -13.29,-22.39 0,-8.44 5.34,-11.5 13.4,-6.84 7.79,4.49 13.1,13.48 13.1,21.5 z m -9.88,-4.81 a 7.34,7.34 0 0 0 -3.47,-6.35 c -2,-1.17 -3.43,-0.35 -3.43,2.37 a 7.39,7.39 0 0 0 3.43,6.39 c 2,1.13 3.47,0.4 3.47,-2.41 z"
         style="fill:#ffffff"
         id="path73" />
    </g>
    <path
       d="m 125.15,237.52 -39.77,-23 a 3.31,3.31 0 0 0 -3.17,-0.34 v 0 a 1.92,1.92 0 0 0 -0.31,0.18 l -8.65,5.07 h 0.06 c -1.09,0.62 -1.78,2.06 -1.78,4.11 v 44.22 c 0,3.75 2.27,8.09 5.08,9.71 l 39.77,23 a 3.16,3.16 0 0 0 3.5,0.15 l -0.07,0.06 8.59,-5.05 v 0 c 1.12,-0.59 1.83,-2 1.83,-4.15 v -44.26 c 0,-3.74 -2.23,-8.08 -5.08,-9.7 z"
       style="fill:#64b5f7"
       id="path74" />
    <path
       d="m 128.81,241.71 a 10.06,10.06 0 0 0 -3.66,-4.19 l -39.77,-23 a 3.31,3.31 0 0 0 -3.17,-0.34 v 0 a 1.92,1.92 0 0 0 -0.31,0.18 l -8.65,5.07 a 3.23,3.23 0 0 1 3.36,0.24 l 39.77,23 a 10.27,10.27 0 0 1 3.75,4.39 v 0 z"
       style="fill:#64b5f7"
       id="path75" />
    <path
       d="m 121.46,296.59 c 0,2 -0.64,3.39 -1.65,4.05 l 8.59,-5.05 v 0 c 1.12,-0.59 1.83,-2 1.83,-4.15 v -44.22 a 12.47,12.47 0 0 0 -1.42,-5.51 l -8.68,5.34 v 0 a 12.45,12.45 0 0 1 1.33,5.32 z"
       style="fill:#64b5f7"
       id="path76" />
    <path
       d="m 128.81,241.71 a 10.06,10.06 0 0 0 -3.66,-4.19 l -39.77,-23 a 3.31,3.31 0 0 0 -3.17,-0.34 v 0 a 1.92,1.92 0 0 0 -0.31,0.18 l -8.65,5.07 a 3.23,3.23 0 0 1 3.36,0.24 l 39.77,23 a 10.27,10.27 0 0 1 3.75,4.39 v 0 z"
       style="opacity:0.3"
       id="path77" />
    <path
       d="m 121.46,296.59 c 0,2 -0.64,3.39 -1.65,4.05 l 8.59,-5.05 v 0 c 1.12,-0.59 1.83,-2 1.83,-4.15 v -44.22 a 12.47,12.47 0 0 0 -1.42,-5.51 l -8.68,5.34 v 0 a 12.45,12.45 0 0 1 1.33,5.32 z"
       style="opacity:0.6"
       id="path78" />
    <polygon
       points="82.46,241.71 82.46,262.82 92.05,257.29 "
       style="fill:#64b5f7"
       id="polygon78" />
    <polygon
       points="110.53,278.35 110.53,257.27 100.96,261.78 "
       style="fill:#64b5f7"
       id="polygon79" />
    <path
       d="m 83.91,241 9.85,16 a 0.63,0.63 0 0 1 0.11,0.12 0.28,0.28 0 0 1 0,0.12 l 2.93,4.76 2.48,-1.17 a 0.69,0.69 0 0 1 0.13,-0.11 0.75,0.75 0 0 1 0.32,-0.1 l 10,-4.69 z"
       style="fill:#64b5f7"
       id="path79" />
    <path
       d="m 99.51,262.46 -2.68,1.26 a 0.75,0.75 0 0 1 -0.33,0.07 0.8,0.8 0 0 1 -0.69,-0.38 l -2.93,-4.76 -9.62,5.56 25.89,14.94 z"
       style="fill:#64b5f7"
       id="path80" />
    <g
       style="opacity:0.9"
       id="g82">
      <polygon
         points="82.46,241.71 82.46,262.82 92.05,257.29 "
         style="fill:#ffffff"
         id="polygon80" />
      <polygon
         points="110.53,278.35 110.53,257.27 100.96,261.78 "
         style="fill:#ffffff"
         id="polygon81" />
      <path
         d="m 83.91,241 9.85,16 a 0.63,0.63 0 0 1 0.11,0.12 0.28,0.28 0 0 1 0,0.12 l 2.93,4.76 2.48,-1.17 a 0.69,0.69 0 0 1 0.13,-0.11 0.75,0.75 0 0 1 0.32,-0.1 l 10,-4.69 z"
         style="fill:#ffffff"
         id="path81" />
      <path
         d="m 99.51,262.46 -2.68,1.26 a 0.75,0.75 0 0 1 -0.33,0.07 0.8,0.8 0 0 1 -0.69,-0.38 l -2.93,-4.76 -9.62,5.56 25.89,14.94 z"
         style="fill:#ffffff"
         id="path82" />
    </g>
    <path
       d="M 125.15,80 85.38,57 a 3.31,3.31 0 0 0 -3.17,-0.34 v 0 a 1.92,1.92 0 0 0 -0.31,0.18 l -8.65,5.07 h 0.06 c -1.09,0.61 -1.78,2.06 -1.78,4.11 v 44.22 c 0,3.74 2.27,8.09 5.08,9.71 l 39.77,23 a 3.16,3.16 0 0 0 3.5,0.15 l -0.07,0.05 8.59,-5 v 0 c 1.12,-0.59 1.83,-2 1.83,-4.15 V 89.67 c 0,-3.74 -2.23,-8.09 -5.08,-9.67 z"
       style="fill:#64b5f7"
       id="path83" />
    <path
       d="m 128.81,84.16 a 10.09,10.09 0 0 0 -3.66,-4.2 L 85.38,57 a 3.31,3.31 0 0 0 -3.17,-0.34 v 0 a 1.92,1.92 0 0 0 -0.31,0.18 l -8.65,5.07 a 3.23,3.23 0 0 1 3.36,0.24 l 39.77,23 a 10.27,10.27 0 0 1 3.75,4.39 v 0 z"
       style="fill:#64b5f7"
       id="path84" />
    <path
       d="m 121.46,139 c 0,2 -0.64,3.39 -1.65,4 l 8.59,-5 v 0 c 1.12,-0.59 1.83,-2 1.83,-4.15 V 89.67 a 12.47,12.47 0 0 0 -1.42,-5.51 l -8.68,5.34 v 0 a 12.45,12.45 0 0 1 1.33,5.32 z"
       style="fill:#64b5f7"
       id="path85" />
    <path
       d="m 128.81,84.16 a 10.09,10.09 0 0 0 -3.66,-4.2 L 85.38,57 a 3.31,3.31 0 0 0 -3.17,-0.34 v 0 a 1.92,1.92 0 0 0 -0.31,0.18 l -8.65,5.07 a 3.23,3.23 0 0 1 3.36,0.24 l 39.77,23 a 10.27,10.27 0 0 1 3.75,4.39 v 0 z"
       style="opacity:0.3"
       id="path86" />
    <path
       d="m 121.46,139 c 0,2 -0.64,3.39 -1.65,4 l 8.59,-5 v 0 c 1.12,-0.59 1.83,-2 1.83,-4.15 V 89.67 a 12.47,12.47 0 0 0 -1.42,-5.51 l -8.68,5.34 v 0 a 12.45,12.45 0 0 1 1.33,5.32 z"
       style="opacity:0.6"
       id="path87" />
    <path
       d="m 108.45,120 c -1.53,-2.52 -3.07,-5 -4.6,-7.54 a 3.92,3.92 0 0 0 -2.41,-2 c -0.74,-0.15 -1.48,-0.32 -2.24,-0.54 a 1.38,1.38 0 0 1 -0.65,-0.56 63.22,63.22 0 0 1 -5.93,-13.6 0.75,0.75 0 0 1 0.08,-0.61 c 0.47,-0.47 1,-0.9 1.48,-1.32 0.48,-0.42 0.73,-1.39 0.38,-2.65 -0.74,-2.67 -1.45,-5.34 -2.19,-8 a 4.38,4.38 0 0 0 -2.86,-3.32 8.09,8.09 0 0 0 -4.9,0.18 c -0.61,0.23 -0.93,0.78 -0.94,1.73 0.26,1.83 0.43,3.64 0.78,5.5 q 3.7,20.12 17.8,37 a 2.85,2.85 0 0 0 2.23,1.28 6.72,6.72 0 0 0 4.23,-1.63 c 0.89,-0.8 0.8,-2.22 -0.26,-3.92 z"
       style="fill:#64b5f7"
       id="path88" />
    <path
       d="M 108.33,106.37 A 21.24,21.24 0 0 0 106,98.13 24.35,24.35 0 0 0 102.25,92.62 c -0.39,-0.44 -0.72,-0.58 -0.92,-0.25 -0.2,0.33 0,0.8 0.38,1.23 l 0.39,0.45 a 21.07,21.07 0 0 1 5,11.33 4,4 0 0 0 0.09,0.91 2.43,2.43 0 0 0 0.59,0.91 c 0.21,0.15 0.45,0 0.62,0 -0.06,-0.41 -0.05,-0.62 -0.07,-0.83 z"
       style="fill:#64b5f7"
       id="path89" />
    <path
       d="m 99.27,98.16 a 8.45,8.45 0 0 1 2.17,5 3.18,3.18 0 0 0 0.31,0.81 c 0.61,0.5 0.91,0.33 0.91,-0.3 a 11,11 0 0 0 -2.81,-6.41 c -0.38,-0.39 -0.69,-0.51 -0.87,-0.18 a 1,1 0 0 0 0.29,1.08 z"
       style="fill:#64b5f7"
       id="path90" />
    <g
       style="opacity:0.9"
       id="g93">
      <path
         d="m 108.45,120 c -1.53,-2.52 -3.07,-5 -4.6,-7.54 a 3.92,3.92 0 0 0 -2.41,-2 c -0.74,-0.15 -1.48,-0.32 -2.24,-0.54 a 1.38,1.38 0 0 1 -0.65,-0.56 63.22,63.22 0 0 1 -5.93,-13.6 0.75,0.75 0 0 1 0.08,-0.61 c 0.47,-0.47 1,-0.9 1.48,-1.32 0.48,-0.42 0.73,-1.39 0.38,-2.65 -0.74,-2.67 -1.45,-5.34 -2.19,-8 a 4.38,4.38 0 0 0 -2.86,-3.32 8.09,8.09 0 0 0 -4.9,0.18 c -0.61,0.23 -0.93,0.78 -0.94,1.73 0.26,1.83 0.43,3.64 0.78,5.5 q 3.7,20.12 17.8,37 a 2.85,2.85 0 0 0 2.23,1.28 6.72,6.72 0 0 0 4.23,-1.63 c 0.89,-0.8 0.8,-2.22 -0.26,-3.92 z"
         style="fill:#ffffff"
         id="path91" />
      <path
         d="M 108.33,106.37 A 21.24,21.24 0 0 0 106,98.13 24.35,24.35 0 0 0 102.25,92.62 c -0.39,-0.44 -0.72,-0.58 -0.92,-0.25 -0.2,0.33 0,0.8 0.38,1.23 l 0.39,0.45 a 21.07,21.07 0 0 1 5,11.33 4,4 0 0 0 0.09,0.91 2.43,2.43 0 0 0 0.59,0.91 c 0.21,0.15 0.45,0 0.62,0 -0.06,-0.41 -0.05,-0.62 -0.07,-0.83 z"
         style="fill:#ffffff"
         id="path92" />
      <path
         d="m 99.27,98.16 a 8.45,8.45 0 0 1 2.17,5 3.18,3.18 0 0 0 0.31,0.81 c 0.61,0.5 0.91,0.33 0.91,-0.3 a 11,11 0 0 0 -2.81,-6.41 c -0.38,-0.39 -0.69,-0.51 -0.87,-0.18 a 1,1 0 0 0 0.29,1.08 z"
         style="fill:#ffffff"
         id="path93" />
    </g>
  </g>
  <g
     id="freepik--Clouds--inject-2"
     transform="matrix(-1,0,0,1,500,0)">
    <path
       d="m 329.2,53.48 9.37,5.33 v -3.32 c 0,-0.23 0,-0.47 0,-0.7 0,-0.23 0,-0.45 0,-0.67 V 54 54 c 0.34,-4.39 3.67,-6.08 7.73,-3.73 a 15.14,15.14 0 0 1 4.62,4.43 c 0.91,-6 5.78,-8.12 11.67,-4.73 6.54,3.78 11.84,13 11.84,20.52 v 7.1 a 3.24,3.24 0 0 0 1.57,2.83 l 5.52,3.23 a 8,8 0 0 1 3.92,6.86 3.27,3.27 0 0 1 -4.91,2.83 L 329.34,63.75 A 9,9 0 0 1 324.86,56 2.9,2.9 0 0 1 329.2,53.48 Z"
       style="fill:#e6e6e6"
       id="path94" />
    <path
       d="m 400.63,52.09 6.81,3.91 v -2.44 c 0,-0.17 0,-0.34 0,-0.51 0,-0.17 0,-0.33 0,-0.49 v -0.06 0 c 0.25,-3.19 2.67,-4.42 5.62,-2.71 a 11,11 0 0 1 3.36,3.21 c 0.67,-4.34 4.21,-5.91 8.49,-3.44 4.76,2.75 8.61,9.43 8.61,14.92 v 5.17 a 2.34,2.34 0 0 0 1.16,2 l 4,2.35 a 5.78,5.78 0 0 1 2.85,5 2.38,2.38 0 0 1 -3.53,2.08 L 400.73,59.56 a 6.51,6.51 0 0 1 -3.25,-5.63 2.11,2.11 0 0 1 3.15,-1.84 z"
       style="fill:#e6e6e6"
       id="path95" />
  </g>
</svg>
