<?xml version="1.0" encoding="UTF-8" standalone="no"?>
<!-- Created with Inkscape (http://www.inkscape.org/) -->

<svg
   width="500"
   height="500"
   viewBox="0 0 132.29166 132.29167"
   version="1.1"
   id="svg1"
   xml:space="preserve"
   inkscape:version="1.3.2 (091e20ef0f, 2023-11-25, custom)"
   sodipodi:docname="img2.svg"
   xmlns:inkscape="http://www.inkscape.org/namespaces/inkscape"
   xmlns:sodipodi="http://sodipodi.sourceforge.net/DTD/sodipodi-0.dtd"
   xmlns:xlink="http://www.w3.org/1999/xlink"
   xmlns="http://www.w3.org/2000/svg"
   xmlns:svg="http://www.w3.org/2000/svg"><sodipodi:namedview
     id="namedview1"
     pagecolor="#ffffff"
     bordercolor="#000000"
     borderopacity="0.25"
     inkscape:showpageshadow="2"
     inkscape:pageopacity="0.0"
     inkscape:pagecheckerboard="0"
     inkscape:deskcolor="#d1d1d1"
     inkscape:document-units="px"
     inkscape:zoom="0.44097222"
     inkscape:cx="395.71654"
     inkscape:cy="198.4252"
     inkscape:window-width="1360"
     inkscape:window-height="700"
     inkscape:window-x="0"
     inkscape:window-y="141"
     inkscape:window-maximized="1"
     inkscape:current-layer="layer1" /><defs
     id="defs1"><linearGradient
       id="ac3cc305-f6db-42f4-bbbd-32121ee27a74-1345"
       x1="403.57"
       y1="833.5"
       x2="403.57"
       y2="218.16"
       gradientUnits="userSpaceOnUse"><stop
         offset="0"
         stop-color="gray"
         stop-opacity="0.25"
         id="stop1" /><stop
         offset="0.54"
         stop-color="gray"
         stop-opacity="0.12"
         id="stop2" /><stop
         offset="1"
         stop-color="gray"
         stop-opacity="0.1"
         id="stop3" /></linearGradient><linearGradient
       id="ad14f186-b27f-416c-b629-0bafa2f1236e-1346"
       x1="940.67"
       y1="825.72"
       x2="940.67"
       y2="263.72"
       xlink:href="#ac3cc305-f6db-42f4-bbbd-32121ee27a74-1345"
       gradientTransform="matrix(2.6328359,0,0,2.6091546,-596.04277,-858.68121)" /></defs><g
     inkscape:label="Camada 1"
     inkscape:groupmode="layer"
     id="layer1"><g
       id="g3"
       transform="matrix(0.60634023,0,0,0.50255414,2.6620112,38.703406)"
       style="stroke-width:1.81156"><g
         id="g2"
         transform="matrix(0.26458333,0,0,0.26458333,13.064154,-26.471592)"
         style="stroke-width:1.81156"><path
           d="m 0,590.90472 c 0,0.8714 0.69976,1.57111 1.57114,1.57111 h 689.53823 c 0.87134,0 1.57104,-0.69971 1.57104,-1.57111 0,-0.87134 -0.69977,-1.57111 -1.57104,-1.57111 H 1.57114 C 0.69975,589.33361 0,590.03338 0,590.90472 Z"
           fill="#3f3c57"
           id="path1"
           style="stroke-width:1.81156" /><g
           id="g14"
           style="stroke-width:1.81156"><polygon
             points="190.8288,94.11363 194.39423,64.42697 224.97621,63.44081 232.47475,97.65798 216.52524,145.28497 "
             fill="#fdb4b4"
             id="polygon1"
             style="stroke-width:1.81156" /><rect
             x="189.49968"
             y="95.885811"
             width="44.368229"
             height="53.608089"
             fill="#6c63ff"
             id="rect1"
             style="stroke-width:1.81156" /><circle
             cx="215.62289"
             cy="50.376251"
             r="30.30031"
             fill="#fdb4b4"
             id="circle1"
             style="stroke-width:1.81156" /><path
             d="m 189.24777,72.90763 c 0,0 -22.58591,-41.71245 -2.22203,-61.78555 20.36388,-20.0731 36.71103,-6.84618 36.71103,-6.84618 l 9.33479,-0.37726 c 0,0 1.94691,7.34635 5.0862,3.36946 3.13929,-3.97689 8.81216,10.50643 8.81216,10.50643 10.52892,18.96209 -25.97099,23.20996 -25.97099,23.20996 0,0 2.63567,8.3958 -0.0433,10.15408 -2.67896,1.75828 -9.83669,8.37259 -9.83669,8.37259 l -6.40665,4.83868 -3.8073,-5.80089 c 0,0 -3.97688,-3.1393 -5.98611,-1.82059 -2.00923,1.31871 0.75452,18.66962 0.75452,18.66962 l -6.42567,-2.49033 2e-5,-2e-5 c 0,0 2e-5,0 2e-5,0 z"
             fill="#2e2e41"
             id="path2"
             style="stroke-width:1.81156" /><polygon
             points="207.44244,381.22726 152.89828,379.77917 141.31369,552.58276 169.7925,553.54815 "
             fill="#2e2e41"
             id="polygon2"
             style="stroke-width:1.81156" /><polygon
             points="276.46735,380.26187 221.92319,378.81381 210.33859,551.61743 238.8174,552.58276 "
             fill="#2e2e41"
             id="polygon3"
             style="stroke-width:1.81156" /><path
             d="m 145.92245,419.25979 15.16064,-188.20752 -23.24951,-98.00391 c -2.00439,-14.56836 7.1748,-28.35303 21.3418,-32.11182 l 22.75,-6.03564 10.06934,-10.06982 22.90332,50.57812 14.3042,-50.53955 11.15576,8.11328 33.08643,14.59717 -0.0151,0.3418 -5.30713,118.38818 11.84668,191.27394 -0.52539,0.007 -133.521,1.66895 v -3e-5 z"
             fill="#e8e9ea"
             id="path3"
             style="stroke-width:1.81156" /><path
             d="m 236.98882,550.61914 8.24609,24.61713 c 0,0 32.26085,4.38617 32.7628,14.37354 0.50195,9.98737 -43.84415,4.20612 -69.81137,5.51123 -25.96722,1.30511 -4.35153,-26.81537 -4.35153,-26.81537 l 2.76715,-16.15924 30.38686,-1.52722 v 0 -6e-5 z"
             fill="#2e2e41"
             id="path4"
             style="stroke-width:1.81156" /><path
             d="m 169.64642,548.84698 8.24609,24.61713 c 0,0 32.26083,4.38617 32.76282,14.37354 0.50199,9.98737 -43.84415,4.20612 -69.81137,5.51123 -25.96722,1.30511 -4.35153,-26.81543 -4.35153,-26.81543 l 2.76715,-16.15924 30.38686,-1.52722 h -2e-5 z"
             fill="#2e2e41"
             id="path5"
             style="stroke-width:1.81156" /><path
             id="uuid-2a99fb06-c611-4846-a9cf-67468c4aeefc-1347"
             d="m 129.41473,319.30487 c -0.3497,-4.85364 0.46838,-9.72049 2.38571,-14.19315 l -6.15435,-50.48595 24.1083,-2.22585 3.64648,51.45175 c 2.42278,4.21848 3.80009,8.95581 4.01672,13.81573 0.70905,12.15649 -4.98497,22.37265 -12.71864,22.82397 -7.73367,0.45132 -14.57712,-9.03418 -15.28426,-21.18646 h 5e-5 l -3e-5,-3e-5 2e-5,-3e-5 z"
             fill="#fdb4b4"
             style="stroke-width:1.81156" /><path
             id="uuid-a83e19fb-8297-4073-aac4-48fd1880d45d-1348"
             d="m 282.1105,326.71539 c -0.29675,-4.85718 0.57434,-9.71481 2.54031,-14.16629 l -5.60358,-50.55005 24.13113,-1.96289 3.08533,51.48843 c 2.37665,4.24463 3.70224,8.9967 3.86588,13.8587 0.57648,12.16351 -5.22858,22.31696 -12.96671,22.68396 -7.73813,0.367 -14.47775,-9.19257 -15.05237,-21.35181 h 3e-5 l -3e-5,-3e-5 v -3e-5 z"
             fill="#fdb4b4"
             style="stroke-width:1.81156" /><path
             d="m 125.54696,299.05813 -0.0815,-0.43555 -12.56445,-67.41455 14.84619,-109.77734 c 1.32471,-9.80078 10.07616,-16.86084 19.94482,-16.07178 5.15381,0.4126 9.77783,2.85693 13.02148,6.88379 3.24316,4.02686 4.64648,9.06592 3.95117,14.18945 l -11.17383,82.33154 7.03516,88.06152 c 0,0 -34.979,2.23291 -34.979,2.23291 z"
             fill="#e8e9ea"
             id="path6"
             style="stroke-width:1.81156" /><path
             d="M 274.66464,297.4761 249.40341,128.85501 c -1.31299,-4.94434 -0.54443,-10.11865 2.17529,-14.51562 2.71972,-4.39697 7.00586,-7.39502 12.06934,-8.44238 9.68701,-2.00342 19.25244,3.91797 21.78076,13.47852 l 24.26807,175.98293 -35.03223,2.11768 v -3e-5 z"
             fill="#e8e9ea"
             id="path7"
             style="stroke-width:1.81156" /><circle
             cx="215.63914"
             cy="147.72173"
             r="3.10129"
             fill="#d6d7d8"
             id="circle7"
             style="stroke-width:1.81156" /><circle
             cx="215.63914"
             cy="171.20296"
             r="3.10129"
             fill="#d6d7d8"
             id="circle8"
             style="stroke-width:1.81156" /><circle
             cx="215.63914"
             cy="194.68417"
             r="3.10129"
             fill="#d6d7d8"
             id="circle9"
             style="stroke-width:1.81156" /><circle
             cx="215.63914"
             cy="218.16541"
             r="3.10129"
             fill="#d6d7d8"
             id="circle10"
             style="stroke-width:1.81156" /><circle
             cx="215.63914"
             cy="241.64662"
             r="3.10129"
             fill="#d6d7d8"
             id="circle11"
             style="stroke-width:1.81156" /><circle
             cx="215.63914"
             cy="265.12784"
             r="3.10129"
             fill="#d6d7d8"
             id="circle12"
             style="stroke-width:1.81156" /><circle
             cx="215.63914"
             cy="288.60907"
             r="3.10129"
             fill="#d6d7d8"
             id="circle13"
             style="stroke-width:1.81156" /><circle
             cx="215.63914"
             cy="312.0903"
             r="3.10129"
             fill="#d6d7d8"
             id="circle14"
             style="stroke-width:1.81156" /><polygon
             points="154.50281,215.0657 215.64284,333.35574 156.96283,325.53573 155.83282,325.38571 125.84284,256.23568 107.98279,215.0657 "
             fill="#6c63ff"
             id="polygon14"
             style="stroke-width:1.81156" /></g><g
           id="g31"
           style="stroke-width:1.81156"><polygon
             points="445.07889,108.91998 450.9183,70.96385 488.22565,50.52592 488.22565,108.91998 "
             fill="#2e2e41"
             id="polygon15"
             style="stroke-width:1.81156" /><polygon
             points="459.45056,116.07353 466.6918,83.0305 496.2244,83.98281 499.66748,112.65083 474.85278,162.06628 "
             fill="#fdb4b4"
             id="polygon16"
             style="stroke-width:1.81156" /><rect
             x="458.10519"
             y="114.36218"
             width="42.845791"
             height="51.768589"
             fill="#6c63ff"
             id="rect16"
             style="stroke-width:1.81156" /><polygon
             points="483.62393,389.9125 536.29645,388.51412 547.48352,555.38818 519.98193,556.32043 "
             fill="#2e2e41"
             id="polygon17"
             style="stroke-width:1.81156" /><polygon
             points="416.9675,388.98025 469.64005,387.58184 480.82715,554.45593 453.32556,555.38818 "
             fill="#2e2e41"
             id="polygon18"
             style="stroke-width:1.81156" /><path
             d="m 565.35211,423.90725 -0.65527,-0.002 -175.19824,-0.57227 0.15723,-0.62012 45.04297,-178.46143 -11.2832,-90.06299 c -2.1377,-17.06592 6.99805,-33.19678 22.7334,-40.13867 l 5.68066,-2.50586 10.79199,-7.84814 13.80566,48.78368 22.1084,-48.82178 9.73926,9.73779 21.96387,5.82764 c 13.69043,3.63184 22.55957,16.95166 20.63086,30.98291 l -0.0234,0.0977 -33.54199,95.70947 48.04785,177.89404 z"
             fill="#e8e9ea"
             id="path18"
             style="stroke-width:1.81156" /><path
             d="m 455.0914,553.49188 29.34415,1.47485 2.67218,15.6048 c 0,0 20.87399,27.15558 -4.20221,25.89526 -25.0762,-1.26032 -67.90063,4.32257 -67.41586,-5.32214 0.48477,-9.64471 31.63858,-13.88031 31.63858,-13.88031 l 7.96313,-23.7724 v 0 z"
             fill="#2e2e41"
             id="path19"
             style="stroke-width:1.81156" /><path
             d="m 520.12299,551.78057 29.34418,1.47485 2.67218,15.6048 c 0,0 20.87396,27.15558 -4.20221,25.89526 -25.07617,-1.26032 -67.90063,4.32257 -67.41586,-5.32214 0.48477,-9.64471 31.63858,-13.88031 31.63858,-13.88031 l 7.96313,-23.7724 v 0 z"
             fill="#2e2e41"
             id="path20"
             style="stroke-width:1.81156" /><path
             id="uuid-3bc2e7c3-8a4e-432b-b93d-ff096d796d3b-1349"
             d="m 546.99469,328.40359 h 6e-5 c -0.68286,11.73526 -7.2915,20.89529 -14.75983,20.45947 -7.46832,-0.43585 -12.96692,-10.30145 -12.28223,-22.0408 0.20923,-4.69315 1.53925,-9.26794 3.87891,-13.34164 l 3.52136,-49.68625 23.28107,2.14948 -5.94318,48.7536 c 1.85156,4.31918 2.64154,9.01901 2.30383,13.70612 v 3e-5 z"
             fill="#fdb4b4"
             style="stroke-width:1.81156" /><path
             id="uuid-a34cbb18-fa14-4c0b-8260-87fab6b8d9f9-1350"
             d="m 427.35587,323.94125 h 3e-5 c -0.93253,11.71808 -7.73462,20.73538 -15.19196,20.14066 -7.45734,-0.59472 -12.74472,-10.57513 -11.81027,-22.29724 0.30905,-4.68762 1.73618,-9.23306 4.16202,-13.25607 l 4.57819,-49.60001 23.23004,2.64456 -6.97961,48.61603 c 1.75919,4.3576 2.44897,9.07321 2.01157,13.75204 l -3e-5,3e-5 h 3e-5 z"
             fill="#fdb4b4"
             style="stroke-width:1.81156" /><path
             d="m 550.74371,308.86965 -33.81152,-2.1582 0.041,-0.50684 6.75391,-84.54883 -10.78906,-79.50439 c -0.67285,-4.95215 0.68359,-9.82324 3.81836,-13.71533 3.13477,-3.89258 7.60449,-6.25537 12.58691,-6.6543 v 0 c 9.53906,-0.75195 17.99707,6.06201 19.27832,15.53516 l 14.33691,106.01318 -0.0147,0.0791 z"
             fill="#e8e9ea"
             id="path21"
             style="stroke-width:1.81156" /><path
             d="m 432.98495,305.63088 -33.86523,-2.04736 0.0742,-0.53467 23.35254,-169.37012 c 2.45605,-9.30225 11.70605,-15.02393 21.06543,-13.08838 4.89453,1.01221 9.03711,3.91016 11.66602,8.16064 2.62891,4.25048 3.37207,9.25146 2.0918,14.08252 l -24.38477,162.79736 z"
             fill="#e8e9ea"
             id="path22"
             style="stroke-width:1.81156" /><circle
             cx="475.70847"
             cy="164.4194"
             r="2.9948699"
             fill="#d6d7d8"
             id="circle22"
             style="stroke-width:1.81156" /><circle
             cx="475.70847"
             cy="187.09492"
             r="2.9948699"
             fill="#d6d7d8"
             id="circle23"
             style="stroke-width:1.81156" /><circle
             cx="475.70847"
             cy="209.77042"
             r="2.9948699"
             fill="#d6d7d8"
             id="circle24"
             style="stroke-width:1.81156" /><circle
             cx="475.70847"
             cy="232.44591"
             r="2.9948699"
             fill="#d6d7d8"
             id="circle25"
             style="stroke-width:1.81156" /><circle
             cx="475.70847"
             cy="255.12141"
             r="2.99488"
             fill="#d6d7d8"
             id="circle26"
             style="stroke-width:1.81156" /><circle
             cx="475.70847"
             cy="277.79691"
             r="2.9948699"
             fill="#d6d7d8"
             id="circle27"
             style="stroke-width:1.81156" /><circle
             cx="475.70847"
             cy="300.47241"
             r="2.9948699"
             fill="#d6d7d8"
             id="circle28"
             style="stroke-width:1.81156" /><circle
             cx="475.70847"
             cy="323.14789"
             r="2.9948699"
             fill="#d6d7d8"
             id="circle29"
             style="stroke-width:1.81156" /><circle
             cx="480.25485"
             cy="70.601212"
             r="28.0126"
             fill="#fdb4b4"
             id="circle30"
             style="stroke-width:1.81156" /><path
             d="m 494.93509,37.9 c 1.34232,2.73002 -0.78644,6.14016 -3.60379,7.28794 -2.81735,1.14778 -5.99994,0.68273 -9.00439,0.20496 -3.00445,-0.47777 -6.19162,-0.93081 -9.00061,0.23728 -3.63461,1.5114 -5.68341,5.30272 -7.44885,8.82095 -3.29578,6.56796 -6.59155,13.13592 -9.88733,19.70388 -1.61026,3.20898 -3.25699,6.56223 -3.28802,10.15242 -0.0569,6.59007 5.1709,11.85661 7.98364,17.81652 3.42468,7.25651 3.1423,16.14937 -0.7359,23.17396 -3.8782,7.0246 -11.25323,12.00169 -19.21866,12.96986 -2.09576,0.25471 -4.31387,0.22707 -6.19815,-0.72504 -1.88428,-0.95211 -3.32245,-3.03139 -2.97348,-5.11353 0.6825,-4.07246 6.9053,-5.02404 8.04816,-8.99201 0.59659,-2.07135 -0.45999,-4.28337 -1.8844,-5.90124 -1.42441,-1.61787 -3.22565,-2.87991 -4.58432,-4.55338 -3.13287,-3.85881 -3.34158,-9.81566 -0.48651,-13.88428 1.67792,-2.39111 4.2731,-4.1676 5.35754,-6.87995 0.92432,-2.31188 0.58865,-4.91064 0.23856,-7.37572 -0.44983,-3.16758 -0.89969,-6.33516 -1.34949,-9.50274 -0.52481,-3.69564 -1.04166,-7.52378 -0.004,-11.1095 2.37692,-8.21708 11.65509,-12.07628 17.09622,-18.67659 2.52844,-3.06711 4.22925,-6.75578 6.82321,-9.76769 4.353,-5.0544 11.20612,-7.84266 17.85138,-7.26305 6.64526,0.57962 12.91214,4.51224 16.32437,10.24394"
             fill="#2e2e41"
             id="path30"
             style="stroke-width:1.81156" /><path
             d="m 490.51276,38.41812 c -1.36856,0.48943 -1.8764,2.27196 -1.48245,3.67102 0.39392,1.39905 1.42548,2.51068 2.36969,3.61567 10.67899,12.4976 13.16113,31.40143 6.07047,46.23225 -1.88605,3.94485 -4.39844,7.65742 -5.41574,11.90996 -0.7402,3.09426 -0.70041,6.48836 -2.41699,9.1671 -1.74765,2.7272 -5.21078,4.55455 -5.55328,7.77551 -0.21979,2.06699 1.04007,4.07476 2.72891,5.2866 1.68884,1.21184 3.75204,1.76633 5.78091,2.21844 5.27338,1.17508 10.6655,1.8166 16.06738,1.91158 1.76111,0.031 3.5784,-0.007 5.19394,-0.70886 1.61554,-0.70172 2.99451,-2.22359 3.01294,-3.98486 0.0145,-1.38427 -0.78387,-2.66127 -0.88574,-4.04187 -0.30518,-4.13684 5.26141,-6.33762 6.34595,-10.34142 0.71301,-2.63228 -0.69177,-5.34093 -2.18835,-7.62076 -1.49652,-2.27983 -3.20422,-4.6738 -3.16742,-7.4007 0.0353,-2.61049 1.67352,-4.90948 2.31024,-7.44138 0.88068,-3.50216 -0.20117,-7.16535 -1.27429,-10.61342 -0.91235,-2.93147 -1.82465,-5.86292 -2.737,-8.79439 -0.96985,-3.11624 -1.93964,-6.23248 -2.90948,-9.34872 -1.69315,-5.44035 -3.47049,-11.0383 -7.13446,-15.40172 -3.664,-4.36341 -9.73514,-7.22331 -15.14719,-5.44181"
             fill="#2e2e41"
             id="path31"
             style="stroke-width:1.81156" /></g><g
           id="g34"
           style="stroke-width:1.81156"><path
             d="m 509.60117,146.96731 -1.91992,-0.55957 c 4,-13.71533 -4.625,-39.31006 -4.71191,-39.56689 l 1.89258,-0.64551 c 0.36621,1.07373 8.91507,26.45605 4.73926,40.77197 z"
             fill="#3f3c57"
             id="path32"
             style="stroke-width:1.81156" /><circle
             cx="508.64127"
             cy="154.36679"
             r="8.3541002"
             fill="#3f3c57"
             id="circle32"
             style="stroke-width:1.81156" /><path
             d="m 453.7496,183.9429 h -5.06641 c -0.55273,0 -1,-0.44775 -1,-1 0,-0.55225 0.44727,-1 1,-1 h 5.06641 c 1.39648,0 2.70801,-0.54395 3.69434,-1.53223 0.98535,-0.98779 1.52734,-2.30078 1.52441,-3.69629 l -0.0615,-31.20654 c 0,-6.7793 -5.51367,-12.29297 -12.29102,-12.29297 -6.77735,0 -12.29199,5.51367 -12.29199,12.29102 l 0.0615,29.20947 c 0.006,2.84961 2.3291,5.18555 5.17871,5.20752 l 3.47754,0.0264 c 0.55176,0.004 0.99609,0.45508 0.99219,1.00781 -0.004,0.54932 -0.45117,0.99219 -1,0.99219 h -0.008 l -3.47754,-0.0264 c -3.94141,-0.0303 -7.15527,-3.26221 -7.16309,-7.20361 l -0.0615,-29.21143 c 0,-7.88184 6.41113,-14.29297 14.29199,-14.29297 7.87988,0 14.29102,6.41113 14.29102,14.29102 l 0.0615,31.20459 c 0.004,1.93066 -0.74512,3.74658 -2.10938,5.11279 -1.36328,1.3667 -3.17871,2.11963 -5.10938,2.11963 z"
             fill="#3f3c57"
             id="path33"
             style="stroke-width:1.81156" /><circle
             cx="443.03412"
             cy="180.9493"
             r="3.5443399"
             fill="#3f3c57"
             id="circle33"
             style="stroke-width:1.81156" /><circle
             cx="448.68292"
             cy="182.94299"
             r="3.5443399"
             fill="#3f3c57"
             id="circle34"
             style="stroke-width:1.81156" /></g><path
           d="m 244.07133,131.97773 -1.91992,-0.55957 c 4,-13.71533 -4.52802,-39.70649 -4.61493,-39.96333 l 2.39981,1.80909 c 0.36621,1.07373 8.31082,24.39789 4.13504,38.71381 z"
           fill="#3f3c57"
           id="path34"
           style="stroke-width:1.81156" /><path
           d="m 176.58131,134.41444 1.91992,-0.55957 c -4,-13.71533 4.625,-39.31006 4.71191,-39.56689 l -2.05376,1.37573 c -0.36621,1.07373 -8.75386,24.43481 -4.57808,38.75073 z"
           fill="#3f3c57"
           id="path35"
           style="stroke-width:1.81156" /><circle
           cx="243.11143"
           cy="139.37721"
           r="8.3540802"
           fill="#3f3c57"
           id="circle35"
           style="stroke-width:1.81156" /><path
           d="m 185.48769,185.78889 h -5.06641 c -0.55273,0 -1,-0.44775 -1,-1 0,-0.55225 0.44727,-1 1,-1 h 5.06641 c 1.39648,0 2.70801,-0.54395 3.69434,-1.53223 0.98535,-0.98779 1.52734,-2.30078 1.52441,-3.69629 l -0.0615,-31.20654 c 0,-6.7793 -5.51367,-12.29297 -12.29102,-12.29297 -6.77735,0 -12.29199,5.51367 -12.29199,12.29102 l 0.0615,29.20947 c 0.006,2.84961 2.3291,5.18555 5.17871,5.20752 l 3.47754,0.0264 c 0.55176,0.004 0.99609,0.45508 0.99219,1.00781 -0.004,0.54932 -0.45117,0.99219 -1,0.99219 h -0.008 l -3.47754,-0.0264 c -3.94141,-0.0303 -7.15527,-3.26221 -7.16309,-7.20361 l -0.0615,-29.21143 c 0,-7.88184 6.41113,-14.29297 14.29199,-14.29297 7.87988,0 14.29102,6.41113 14.29102,14.29102 l 0.0615,31.20459 c 0.004,1.93066 -0.74512,3.74658 -2.10938,5.11279 -1.36328,1.3667 -3.17871,2.11963 -5.10938,2.11963 z"
           fill="#3f3c57"
           id="path36"
           style="stroke-width:1.81156" /><circle
           cx="174.7722"
           cy="182.7953"
           r="3.5443399"
           fill="#3f3c57"
           id="circle36"
           style="stroke-width:1.81156" /><circle
           cx="180.42099"
           cy="184.78902"
           r="3.5443399"
           fill="#3f3c57"
           id="circle37"
           style="stroke-width:1.81156" /></g></g></g></svg>
