<?xml version="1.0" encoding="UTF-8" standalone="no"?>
<!-- Created with Inkscape (http://www.inkscape.org/) -->

<svg
   width="500"
   height="500"
   viewBox="0 0 132.29166 132.29167"
   version="1.1"
   id="svg1"
   xml:space="preserve"
   inkscape:version="1.3.2 (091e20ef0f, 2023-11-25, custom)"
   sodipodi:docname="img3.svg"
   xmlns:inkscape="http://www.inkscape.org/namespaces/inkscape"
   xmlns:sodipodi="http://sodipodi.sourceforge.net/DTD/sodipodi-0.dtd"
   xmlns:xlink="http://www.w3.org/1999/xlink"
   xmlns="http://www.w3.org/2000/svg"
   xmlns:svg="http://www.w3.org/2000/svg"><sodipodi:namedview
     id="namedview1"
     pagecolor="#ffffff"
     bordercolor="#000000"
     borderopacity="0.25"
     inkscape:showpageshadow="2"
     inkscape:pageopacity="0.0"
     inkscape:pagecheckerboard="0"
     inkscape:deskcolor="#d1d1d1"
     inkscape:document-units="px"
     inkscape:zoom="0.44097222"
     inkscape:cx="395.71654"
     inkscape:cy="198.4252"
     inkscape:window-width="1360"
     inkscape:window-height="700"
     inkscape:window-x="0"
     inkscape:window-y="141"
     inkscape:window-maximized="1"
     inkscape:current-layer="layer1"
     showguides="true"><sodipodi:guide
       position="65.999997,87.891669"
       orientation="1,0"
       id="guide4"
       inkscape:locked="false" /><sodipodi:guide
       position="258,65.691666"
       orientation="0,-1"
       id="guide5"
       inkscape:locked="false" /></sodipodi:namedview><defs
     id="defs1"><linearGradient
       id="ac3cc305-f6db-42f4-bbbd-32121ee27a74-1345"
       x1="403.57"
       y1="833.5"
       x2="403.57"
       y2="218.16"
       gradientUnits="userSpaceOnUse"><stop
         offset="0"
         stop-color="gray"
         stop-opacity="0.25"
         id="stop1" /><stop
         offset="0.54"
         stop-color="gray"
         stop-opacity="0.12"
         id="stop2" /><stop
         offset="1"
         stop-color="gray"
         stop-opacity="0.1"
         id="stop3" /></linearGradient><linearGradient
       id="ad14f186-b27f-416c-b629-0bafa2f1236e-1346"
       x1="940.67"
       y1="825.72"
       x2="940.67"
       y2="263.72"
       xlink:href="#ac3cc305-f6db-42f4-bbbd-32121ee27a74-1345"
       gradientTransform="matrix(2.6328359,0,0,2.6091546,-596.04277,-858.68121)" /></defs><g
     inkscape:label="Camada 1"
     inkscape:groupmode="layer"
     id="layer1"><g
       id="g4"
       transform="matrix(0.56615524,0,0,0.57425282,7.8235465,35.99756)"
       style="stroke-width:1.75381"><g
         id="g3"
         transform="matrix(0.26458333,0,0,0.26458333,6.5599476,-16.611545)"
         style="stroke-width:1.75381"><path
           d="m 520.793,516.6474 a 10.74264,10.74264 0 0 0 -10.95628,-12.30071 l -68.80437,-69.56692 -13.59213,19.00109 71.90643,62.40721 a 10.80091,10.80091 0 0 0 21.44635,0.45933 z"
           transform="translate(-229.07697,-188.79102)"
           fill="#ffb8b8"
           id="path1"
           style="stroke-width:1.75381" /><path
           d="m 488.20078,476.47743 -17.5613,17.542 a 4.51352,4.51352 0 0 1 -6.335,0.0255 L 416.317,446.86677 a 17.603,17.603 0 1 1 24.93713,-24.849 l 46.98661,48.13244 a 4.51547,4.51547 0 0 1 -0.04,6.32722 z"
           transform="translate(-229.07697,-188.79102)"
           fill="#6c63ff"
           id="path2"
           style="stroke-width:1.75381" /><circle
           cx="197.53395"
           cy="177.02016"
           r="24.561029"
           fill="#ffb8b8"
           id="circle2"
           style="stroke-width:1.75381" /><polygon
           points="155.295,447.357 114.543,471.345 120.762,481.91 164.474,462.951 "
           fill="#ffb8b8"
           id="polygon2"
           style="stroke-width:1.75381" /><path
           d="m 345.48345,655.41085 12.24733,20.80687 4.9e-4,8.5e-4 a 15.386,15.386 0 0 1 -5.45551,21.06459 l -0.4309,0.25361 -20.05237,-34.067 z"
           transform="translate(-229.07697,-188.79102)"
           fill="#2f2e41"
           id="path3"
           style="stroke-width:1.75381" /><polygon
           points="186.598,462.12 186.6,509.407 198.86,509.407 204.692,462.119 "
           fill="#ffb8b8"
           id="polygon3"
           style="stroke-width:1.75381" /><path
           d="m 412.55,694.1958 24.1438,-10e-4 h 10e-4 a 15.38605,15.38605 0 0 1 15.38647,15.38623 v 0.5 l -39.53052,10e-4 z"
           transform="translate(-229.07697,-188.79102)"
           fill="#2f2e41"
           id="path4"
           style="stroke-width:1.75381" /><path
           d="m 366.38843,669.54838 a 4.49319,4.49319 0 0 1 -3.624,-1.833 l -11.82373,-16.0586 a 4.4996,4.4996 0 0 1 1.12452,-6.41015 l 52.614,-35.1416 -31.74658,-83.47461 67.88916,5.60254 2.28662,71.7334 a 36.04577,36.04577 0 0 1 -18.04517,32.42382 l -56.42651,32.55371 a 4.48594,4.48594 0 0 1 -2.24831,0.60449 z"
           transform="translate(-229.07697,-188.79102)"
           fill="#2f2e41"
           id="path5"
           style="stroke-width:1.75381" /><path
           d="m 416.04712,688.59818 a 4.49988,4.49988 0 0 1 -4.48877,-4.33984 l -2.488,-69.88184 30.80835,-1.623 -2.45312,70.38379 a 4.48729,4.48729 0 0 1 -4.19971,4.333 l -16.8728,1.11817 c -0.10234,0.007 -0.20439,0.01 -0.30595,0.01 z"
           transform="translate(-229.07697,-188.79102)"
           fill="#2f2e41"
           id="path6"
           style="stroke-width:1.75381" /><path
           d="m 448.67871,546.1099 c -7.83838,0 -35.21655,-8.81641 -44.72119,-11.959 -1.42188,1.13769 -9.23315,6.97851 -18.35107,5.91113 -5.626,-0.66016 -10.57886,-3.84473 -14.721,-9.46582 -9.147,-12.41406 2.15063,-65.65137 13.239,-108.126 a 34.26782,34.26782 0 0 1 40.52857,-24.87988 v 0 a 34.57136,34.57136 0 0 1 26.08764,25.37793 c 2.08765,8.498 0.29175,18.49414 -1.01953,25.79394 -0.61645,3.43164 -1.10351,6.14258 -0.937,7.47461 0.64355,5.14844 4.21875,85.8916 1.91992,89.33985 -0.24482,0.36722 -0.95283,0.53324 -2.02534,0.53324 z"
           transform="translate(-229.07697,-188.79102)"
           fill="#6c63ff"
           id="path7"
           style="stroke-width:1.75381" /><path
           d="m 420.00379,546.25292 a 10.74266,10.74266 0 0 0 0.9416,-16.44569 l 0.48533,-97.84356 -23.04478,3.8374 6.76925,94.97037 a 10.80091,10.80091 0 0 0 14.8486,15.48148 z"
           transform="translate(-229.07697,-188.79102)"
           fill="#ffb8b8"
           id="path8"
           style="stroke-width:1.75381" /><path
           d="M 425.33374,494.79935 H 400.512 a 4.51352,4.51352 0 0 1 -4.5,-4.459 l -0.60937,-67.292 a 17.603,17.603 0 1 1 35.2041,0.043 l -0.77319,67.25976 a 4.51547,4.51547 0 0 1 -4.4998,4.44824 z"
           transform="translate(-229.07697,-188.79102)"
           fill="#6c63ff"
           id="path9"
           style="stroke-width:1.75381" /><path
           d="m 420.35705,390.26988 c -11.24529,0.0206 -21.85416,-8.868 -23.80286,-19.94323 a 28.67148,28.67148 0 0 1 0.91927,-13.01372 34.95394,34.95394 0 0 1 47.93529,-21.95277 c 3.00832,1.36131 5.97146,3.31644 7.3489,6.31741 1.37744,3.00097 0.51536,7.19528 -2.49791,8.5456 -1.96915,0.88243 -4.44022,0.4491 -6.18718,1.71574 -2.50929,1.81936 -1.86334,5.69129 -0.74286,8.58112 1.12048,2.88983 2.38775,6.38691 0.50946,8.85239 -1.75023,2.29738 -5.24872,2.22609 -8.00435,1.36136 -2.75563,-0.86473 -5.47558,-2.31276 -8.34865,-2.01821 -4.19039,0.4296 -7.20172,4.59773 -7.7591,8.77305 -0.55738,4.17532 0.75474,8.34892 2.05018,12.35714 z"
           transform="translate(-229.07697,-188.79102)"
           fill="#2f2e41"
           id="path10"
           style="stroke-width:1.75381" /><path
           d="m 727.69556,415.33663 c 0,-67.16541 54.44832,-226.54561 121.61373,-226.54561 67.16541,0 121.61371,159.3802 121.61371,226.54561 a 121.61374,121.61374 0 1 1 -243.22747,0 z"
           transform="translate(-229.07697,-188.79102)"
           fill="#6c63ff"
           id="path11"
           style="stroke-width:1.75381" /><path
           d="m 849.30925,711.209 a 1,1 0 0 1 -1,-1 V 290.9248 a 1,1 0 0 1 2,0 V 710.209 a 1,1 0 0 1 -1,1 z"
           transform="translate(-229.07697,-188.79102)"
           fill="#3f3d56"
           id="path12"
           style="stroke-width:1.75381" /><path
           d="m 849.30925,371.87061 a 0.99683,0.99683 0 0 1 -0.70715,-0.293 l -48.13452,-48.13428 a 1,1 0 0 1 1.41431,-1.41406 l 48.13452,48.13427 a 1,1 0 0 1 -0.70716,1.707 z"
           transform="translate(-229.07697,-188.79102)"
           fill="#3f3d56"
           id="path13"
           style="stroke-width:1.75381" /><path
           d="m 849.30925,455.20068 a 1,1 0 0 1 -0.70715,-1.707 l 80.61,-80.61035 a 1,1 0 0 1 1.4143,1.41406 l -80.61,80.61035 a 0.997,0.997 0 0 1 -0.70715,0.29294 z"
           transform="translate(-229.07697,-188.79102)"
           fill="#3f3d56"
           id="path14"
           style="stroke-width:1.75381" /><path
           d="m 512.75454,516.07833 c 15.95481,-3.60678 34.03035,8.87341 34.59062,25.62768 0.15759,4.71249 -1.22354,9.66138 -4.84973,12.86729 -2.99372,2.64675 -7.44863,3.9815 -11.3187,2.68784 -7.44737,-2.48945 -7.845,-12.86687 -3.85,-18.40942 5.40939,-7.50479 16.12575,-8.78623 24.62919,-7.89363 10.3961,1.09127 20.27689,5.64956 28.56833,11.89757 16.5987,12.50793 27.168,31.67789 35.72289,50.19942 a 253.09711,253.09711 0 0 1 18.95912,59.57906 q 0.72364,3.8748 1.32589,7.77061 a 1.51056,1.51056 0 0 0 1.8598,1.02108 1.53833,1.53833 0 0 0 1.02107,-1.8598 256.43885,256.43885 0 0 0 -19.2345,-65.06188 c -8.95744,-20.07249 -20.2501,-40.89324 -38.21465,-54.28884 -8.95541,-6.67776 -19.53073,-11.32453 -30.72247,-12.31825 -9.42172,-0.83656 -20.57851,1.15666 -26.43759,9.351 -4.62229,6.46462 -4.15275,17.20837 2.9993,21.71061 3.932,2.47519 8.9283,2.186 13.011,0.26156 a 16.66327,16.66327 0 0 0 8.786,-10.89127 c 2.5395,-9.30518 -1.31669,-19.36986 -7.92811,-26.021 a 33.31988,33.31988 0 0 0 -23.45167,-9.86212 29.53,29.53 0 0 0 -6.30452,0.75164 c -1.88353,0.42579 -1.04178,3.306 0.83872,2.88088 z"
           transform="translate(-229.07697,-188.79102)"
           fill="#cccccc"
           id="path15"
           style="stroke-width:1.75381" /><path
           d="m 589.698,700.34085 -9.91475,-16.92813 12.22567,-7.16079 9.91474,16.92759 v 5.3e-4 a 7.0842046,7.0842046 0 0 1 -12.22566,7.1608 z"
           transform="translate(-229.07697,-188.79102)"
           fill="#6c63ff"
           id="path16"
           style="stroke-width:1.75381" /><circle
           cx="327.83847"
           cy="467.64478"
           r="8.7189703"
           fill="#6c63ff"
           id="circle16"
           style="stroke-width:1.75381" /><path
           d="m 628.05951,700.34085 -9.91474,-16.92813 12.22539,-7.16079 9.91475,16.92759 a 7.08423,7.08423 0 0 1 -12.2254,7.16133 z"
           transform="translate(-229.07697,-188.79102)"
           fill="#6c63ff"
           id="path17"
           style="stroke-width:1.75381" /><path
           d="m 558.572,674.00087 a 18.5487,18.5487 0 0 1 18.52781,-18.52781 h 58.65109 a 7.84026,7.84026 0 0 1 7.83106,7.83132 v 6.67387 a 22.57592,22.57592 0 0 1 -22.55044,22.55044 H 577.09978 A 18.5487,18.5487 0 0 1 558.572,674.00087 Z"
           transform="translate(-229.07697,-188.79102)"
           fill="#3f3d56"
           id="path18"
           style="stroke-width:1.75381" /><path
           d="M 572.09744,702.52378 V 682.9061 h 14.16833 v 19.61768 a 7.084165,7.084165 0 1 1 -14.16833,0 z"
           transform="translate(-229.07697,-188.79102)"
           fill="#3f3d56"
           id="path19"
           style="stroke-width:1.75381" /><path
           d="M 613.21,702.52378 V 682.9061 h 14.16833 v 19.61768 a 7.08417,7.08417 0 1 1 -14.16833,0 z"
           transform="translate(-229.07697,-188.79102)"
           fill="#3f3d56"
           id="path20"
           style="stroke-width:1.75381" /><path
           d="m 670.85511,624.90772 a 8.719,8.719 0 0 1 13.59589,10.91945 l -14.33179,17.84456 -13.59585,-10.91946 z"
           transform="translate(-229.07697,-188.79102)"
           fill="#6c63ff"
           id="path21"
           style="stroke-width:1.75381" /><path
           d="m 636.332,660.06044 11.48163,-14.29581 a 16.81159,16.81159 0 0 1 23.6078,-2.57733 l 3.58734,2.88115 a 20.04437,20.04437 0 0 1 3.07294,28.14757 l -9.45955,11.77812 a 6.29434,6.29434 0 0 1 -8.83883,0.96477 l -22.48639,-18.05985 a 6.29412,6.29412 0 0 1 -0.96494,-8.83862 z"
           transform="translate(-229.07697,-188.79102)"
           fill="#3f3d56"
           id="path22"
           style="stroke-width:1.75381" /><path
           d="m 672.56128,622.78336 a 5.9942934,5.9942934 0 1 1 9.34715,7.50713 l -16.03795,19.96891 -9.34715,-7.50713 z"
           transform="translate(-229.07697,-188.79102)"
           fill="#3f3d56"
           id="path23"
           style="stroke-width:1.75381" /><path
           d="m 649.58579,656.16211 24.64248,19.79151 a 8.719,8.719 0 0 1 -10.91945,13.59586 L 638.66633,669.758 Z"
           transform="translate(-229.07697,-188.79102)"
           fill="#3f3d56"
           id="path24"
           style="stroke-width:1.75381" /><ellipse
           cx="675.02814"
           cy="687.57739"
           rx="3.6783199"
           ry="2.04351"
           transform="rotate(-51.23045,363.60535,832.07923)"
           fill="#6c63ff"
           id="ellipse24"
           style="stroke-width:1.75381" /><path
           d="m 921.077,711.02362 h -691 a 1,1 0 1 1 0,-2 h 691 a 1,1 0 0 1 0,2 z"
           transform="translate(-229.07697,-188.79102)"
           fill="#cccccc"
           id="path25"
           style="stroke-width:1.75381" /></g></g></g></svg>
