<?xml version="1.0" encoding="UTF-8" standalone="no"?>
<!-- Created with Inkscape (http://www.inkscape.org/) -->

<svg
   width="500"
   height="500"
   viewBox="0 0 132.29166 132.29167"
   version="1.1"
   id="svg1"
   xml:space="preserve"
   inkscape:version="1.3.2 (091e20ef0f, 2023-11-25, custom)"
   sodipodi:docname="img4.svg"
   xmlns:inkscape="http://www.inkscape.org/namespaces/inkscape"
   xmlns:sodipodi="http://sodipodi.sourceforge.net/DTD/sodipodi-0.dtd"
   xmlns:xlink="http://www.w3.org/1999/xlink"
   xmlns="http://www.w3.org/2000/svg"
   xmlns:svg="http://www.w3.org/2000/svg"><sodipodi:namedview
     id="namedview1"
     pagecolor="#ffffff"
     bordercolor="#000000"
     borderopacity="0.25"
     inkscape:showpageshadow="2"
     inkscape:pageopacity="0.0"
     inkscape:pagecheckerboard="0"
     inkscape:deskcolor="#d1d1d1"
     inkscape:document-units="px"
     inkscape:zoom="0.44097222"
     inkscape:cx="395.71654"
     inkscape:cy="198.4252"
     inkscape:window-width="1360"
     inkscape:window-height="700"
     inkscape:window-x="0"
     inkscape:window-y="141"
     inkscape:window-maximized="1"
     inkscape:current-layer="layer1"
     showguides="true"><sodipodi:guide
       position="65.999997,87.891669"
       orientation="1,0"
       id="guide4"
       inkscape:locked="false" /><sodipodi:guide
       position="258,65.691666"
       orientation="0,-1"
       id="guide5"
       inkscape:locked="false" /></sodipodi:namedview><defs
     id="defs1"><linearGradient
       id="ac3cc305-f6db-42f4-bbbd-32121ee27a74-1345"
       x1="403.57"
       y1="833.5"
       x2="403.57"
       y2="218.16"
       gradientUnits="userSpaceOnUse"><stop
         offset="0"
         stop-color="gray"
         stop-opacity="0.25"
         id="stop1" /><stop
         offset="0.54"
         stop-color="gray"
         stop-opacity="0.12"
         id="stop2" /><stop
         offset="1"
         stop-color="gray"
         stop-opacity="0.1"
         id="stop3" /></linearGradient><linearGradient
       id="ad14f186-b27f-416c-b629-0bafa2f1236e-1346"
       x1="940.67"
       y1="825.72"
       x2="940.67"
       y2="263.72"
       xlink:href="#ac3cc305-f6db-42f4-bbbd-32121ee27a74-1345"
       gradientTransform="matrix(2.6328359,0,0,2.6091546,-596.04277,-858.68121)" /></defs><g
     inkscape:label="Camada 1"
     inkscape:groupmode="layer"
     id="layer1"><g
       id="g6"
       transform="matrix(0.44795365,0,0,0.45910554,20.015182,38.270104)"
       style="stroke-width:2.20509"><g
         id="g5"
         transform="matrix(0.26458333,0,0,0.26458333,-19.33627,-33.945264)"
         style="stroke-width:2.20509"><polygon
           points="200.088,364.913 377.078,451.126 372.982,113.208 195.992,26.994 "
           fill="#f2f2f2"
           id="polygon1"
           style="stroke-width:2.20509" /><polygon
           points="9.957,271.502 189.403,358.913 185.307,20.994 142.208,0 "
           fill="#f2f2f2"
           id="polygon2"
           style="stroke-width:2.20509" /><polygon
           points="580.403,207.422 584.499,545.34 805.345,652.916 937.597,381.414 "
           fill="#f2f2f2"
           id="polygon3"
           style="stroke-width:2.20509" /><polygon
           points="393.078,451.126 570.069,537.34 565.973,199.422 388.982,113.208 "
           fill="#f2f2f2"
           id="polygon4"
           style="stroke-width:2.20509" /><path
           d="m 581.70174,506.22225 -5,112 c 0,0 13,106 10,109 -3,3 -11,9 -5,16 6,7 28,12 29,8 1,-4 3,-118 3,-118 l 7,-135 z"
           transform="translate(-131.20174,-123.27775)"
           fill="#2f2e41"
           id="path4"
           style="stroke-width:2.20509" /><path
           d="m 581.70174,506.22225 -5,112 c 0,0 13,106 10,109 -3,3 -11,9 -5,16 6,7 28,12 29,8 1,-4 3,-118 3,-118 l 7,-135 z"
           transform="translate(-131.20174,-123.27775)"
           opacity="0.2"
           id="path5"
           style="stroke-width:2.20509" /><path
           d="m 586.70174,741.22225 c 0,0 -25,19 -28,19 -3,0 -30,9 -11,13 19,4 65,2 66,-4 1,-6 -3,-24.20866 -3,-24.20866 z"
           transform="translate(-131.20174,-123.27775)"
           fill="#2f2e41"
           id="path6"
           style="stroke-width:2.20509" /><path
           d="m 586.70174,741.22225 c 0,0 -25,19 -28,19 -3,0 -30,9 -11,13 19,4 65,2 66,-4 1,-6 -3,-24.20866 -3,-24.20866 z"
           transform="translate(-131.20174,-123.27775)"
           opacity="0.2"
           id="path7"
           style="stroke-width:2.20509" /><path
           d="m 524.70174,422.22225 c 0,0 -11,4 -11,7 0,3 -10,41 -12,43 -2,2 -3,11 -3,11 0,0 -10,23 -8,23 2,0 19,-4 20,0 1,4 9,-25 9,-25 l 17,-34 z"
           transform="translate(-131.20174,-123.27775)"
           fill="#6c63ff"
           id="path8"
           style="stroke-width:2.20509" /><path
           d="m 490.70174,510.22225 c 0,0 3,22 11,24 8,2 0,-28 0,-28 z"
           transform="translate(-131.20174,-123.27775)"
           fill="#ffb8b8"
           id="path9"
           style="stroke-width:2.20509" /><path
           d="m 516.70174,410.22225 c 0,0 6,13 9,20 3,7 31,-18 31,-18 0,0 -15,-11 -15,-16 0,-5 -25,14 -25,14 z"
           transform="translate(-131.20174,-123.27775)"
           fill="#ffb8b8"
           id="path10"
           style="stroke-width:2.20509" /><path
           d="m 228.2409,735.27771 c 6.70634,24.79066 29.67708,40.14415 29.67708,40.14415 0,0 12.0976,-24.84013 5.39126,-49.6308 -6.70634,-24.79067 -29.67707,-40.14414 -29.67707,-40.14414 0,0 -12.09761,24.84008 -5.39127,49.63079 z"
           transform="translate(-131.20174,-123.27775)"
           fill="#3f3d56"
           id="path11"
           style="stroke-width:2.20509" /><path
           d="m 238.0954,729.94993 c 18.40229,17.91389 20.65,45.45172 20.65,45.45172 0,0 -27.58831,-1.50634 -45.99061,-19.42023 -18.4023,-17.91389 -20.65,-45.45172 -20.65,-45.45172 0,0 27.58831,1.5063 45.99061,19.42023 z"
           transform="translate(-131.20174,-123.27775)"
           fill="#6c63ff"
           id="path12"
           style="stroke-width:2.20509" /><path
           d="m 466.70174,776.22225 a 91,91 0 1 1 91,-91 91.10284,91.10284 0 0 1 -91,91 z m 0,-180 a 89,89 0 1 0 89,89 89.10056,89.10056 0 0 0 -89,-89 z"
           transform="translate(-131.20174,-123.27775)"
           fill="#2f2e41"
           id="path13"
           style="stroke-width:2.20509" /><path
           d="m 746.70174,776.22225 a 91,91 0 1 1 91,-91 91.10284,91.10284 0 0 1 -91,91 z m 0,-180 a 89,89 0 1 0 89,89 89.10025,89.10025 0 0 0 -89,-89 z"
           transform="translate(-131.20174,-123.27775)"
           fill="#2f2e41"
           id="path14"
           style="stroke-width:2.20509" /><circle
           cx="335.5"
           cy="561.94452"
           r="6"
           fill="#2f2e41"
           id="circle14"
           style="stroke-width:2.20509" /><circle
           cx="617.5"
           cy="561.94452"
           r="6"
           fill="#2f2e41"
           id="circle15"
           style="stroke-width:2.20509" /><polygon
           points="396.155,431.958 344.42,553.337 342.58,552.552 394.845,429.931 543.055,432.955 543.342,433.405 616.342,547.405 614.658,548.484 541.945,434.934 "
           fill="#2f2e41"
           id="polygon15"
           style="stroke-width:2.20509" /><polygon
           points="603.626,562.937 500.125,576.128 538.538,440.672 540.462,441.217 502.875,573.761 603.374,560.952 "
           fill="#2f2e41"
           id="polygon16"
           style="stroke-width:2.20509" /><rect
           x="572.20178"
           y="563.17975"
           width="1.99988"
           height="147.08501"
           transform="rotate(-44.4491,356.74416,735.63669)"
           fill="#2f2e41"
           id="rect16"
           style="stroke-width:2.20509" /><rect
           x="666.29999"
           y="542.22229"
           width="22.803511"
           height="1.99993"
           transform="rotate(-74.76942,531.43595,567.43323)"
           fill="#2f2e41"
           id="rect17"
           style="stroke-width:2.20509" /><polygon
           points="396.524,423.723 401.247,402.945 384.5,402.945 384.5,389.945 386.5,389.945 386.5,400.945 403.753,400.945 398.476,424.166 "
           fill="#2f2e41"
           id="polygon17"
           style="stroke-width:2.20509" /><path
           d="m 643.70174,512.22225 c 0,0 0,-6 13,-3 13,3 53,11 56,10 3,-1 2,6 -11,9 -13,3 -28,-4 -31,-6 -3,-2 -27,-10 -27,-10 z"
           transform="translate(-131.20174,-123.27775)"
           fill="#2f2e41"
           id="path17"
           style="stroke-width:2.20509" /><rect
           x="450.5"
           y="567.94452"
           width="26"
           height="10"
           fill="#6c63ff"
           id="rect18"
           style="stroke-width:2.20509" /><path
           d="m 632.70174,718.22225 a 20,20 0 1 1 20,-20 20.02229,20.02229 0 0 1 -20,20 z m 0,-38 a 18,18 0 1 0 18,18 18.02094,18.02094 0 0 0 -18,-18 z"
           transform="translate(-131.20174,-123.27775)"
           fill="#2f2e41"
           id="path18"
           style="stroke-width:2.20509" /><circle
           cx="394.5"
           cy="272.94452"
           r="24"
           fill="#ffb8b8"
           id="circle18"
           style="stroke-width:2.20509" /><path
           d="m 601.70174,508.22225 c 0,0 -69,40 -68,53 1,13 53,84 53,84 0,0 4,21 8,21 4,0 29,9 30,3 1,-6 -8,-13 -7,-17 1,-4 -44,-77 -44,-77 0,0 96.30708,-36 76.15354,-67 -20.15354,-31 -48.15354,0 -48.15354,0 z"
           transform="translate(-131.20174,-123.27775)"
           fill="#2f2e41"
           id="path19"
           style="stroke-width:2.20509" /><path
           d="m 603.70174,662.22225 c 0,0 -12,3 -14,7 -2,4 -37,17 -27,20 10,3 68,4 70,2 2,-2 0,-25.2126 -8,-25.1063 -8,0.1063 -17,3.1063 -21,-3.8937 z"
           transform="translate(-131.20174,-123.27775)"
           fill="#2f2e41"
           id="path20"
           style="stroke-width:2.20509" /><path
           d="m 525.70174,433.22225 22.5,-27.5 c 0,0 25.5,-7.5 36.5,7.5 11,15 41,52 51,60 10,8 24,39 19,40 -5,1 -33,-11 -44,-3 -11,8 -32,9 -33,5 -1,-4 -61,-71 -61,-80 0,-9 6.39359,-10.93113 6.39359,-10.93113 z"
           transform="translate(-131.20174,-123.27775)"
           fill="#6c63ff"
           id="path21"
           style="stroke-width:2.20509" /><rect
           x="502.70175"
           y="507.22226"
           width="38"
           height="6"
           rx="5.8377452"
           transform="rotate(19.4707,815.36826,66.222945)"
           fill="#2f2e41"
           id="rect21"
           style="stroke-width:2.20509"
           ry="5.7526832" /><path
           d="m 469.70174,500.22225 c 0,0 -35,10 -32,21 3,11 35,-13 35,-13 z"
           transform="translate(-131.20174,-123.27775)"
           fill="#ffb8b8"
           id="path22"
           style="stroke-width:2.20509" /><path
           d="m 560.70174,413.22225 c 0,0 -14,12 -17,26 -3,14 -18,39 -18,39 l -61,20 c 0,0 -4,19 2,19 6,0 73,-14 75,-17 2,-3 45,-60 45,-60 0,0 4,-31 -26,-27 z"
           transform="translate(-131.20174,-123.27775)"
           fill="#6c63ff"
           id="path23"
           style="stroke-width:2.20509" /><path
           d="m 510.79531,368.44381 a 4.73339,4.73339 0 0 1 -2.06116,1.03435 1.47087,1.47087 0 0 1 -1.70452,-1.1807 6.11136,6.11136 0 0 1 -2.33876,2.99963 c -1.1451,0.59683 -2.91578,0.0964 -3.08083,-1.18434 a 5.40475,5.40475 0 0 1 -1.244,2.62583 1.8631,1.8631 0 0 1 -2.61916,0.0875 c 0.50148,2.74053 0.192,5.55888 0.34944,8.34046 0.15744,2.78158 0.89921,5.73046 3.00075,7.55954 3.06485,2.66751 7.67364,2.00916 11.7052,1.50379 a 3.55294,3.55294 0 0 1 1.83433,0.10034 c 1.50955,0.64313 1.44107,2.7445 1.46142,4.38521 a 12.18456,12.18456 0 0 0 10.66923,11.57068 6.10787,6.10787 0 0 0 4.53952,-1.1079 c 1.14466,-0.97023 1.72935,-2.55159 3.041,-3.28043 2.13359,-1.18558 4.72122,0.54346 6.28115,2.4208 1.55993,1.87734 3.09735,4.18665 5.5139,4.53031 3.196,0.4545 5.63028,-2.80262 6.82457,-5.80177 a 33.82171,33.82171 0 0 0 -0.67217,-26.2798 c -6.67336,-14.54697 -29.46986,-16.84785 -41.49991,-8.32355 z"
           transform="translate(-131.20174,-123.27775)"
           fill="#2f2e41"
           id="path24"
           style="stroke-width:2.20509" /><path
           d="m 933.09041,776.18124 -1.77735,-0.918 c 23.082,-44.624 10.73926,-102.5752 -3.67871,-143.332 a 439.29051,439.29051 0 0 0 -37.27783,-78.67481 l 1.69043,-1.06836 a 441.53687,441.53687 0 0 1 37.47217,79.0752 c 14.55078,41.12988 26.98047,99.65918 3.57129,144.91797 z"
           transform="translate(-131.20174,-123.27775)"
           fill="#2f2e41"
           id="path25"
           style="stroke-width:2.20509" /><rect
           x="908.61157"
           y="587.2226"
           width="72.180328"
           height="1.99936"
           transform="matrix(0.17975,-0.98371,0.98371,0.17975,65.05255,1288.5301)"
           fill="#2f2e41"
           id="rect25"
           style="stroke-width:2.20509" /><rect
           x="895.70135"
           y="600.54657"
           width="2.00072"
           height="98.35141"
           transform="rotate(-42.93968,674.37961,754.87831)"
           fill="#2f2e41"
           id="rect26"
           style="stroke-width:2.20509" /><rect
           x="939.19745"
           y="715.22211"
           width="58.008621"
           height="2.0003099"
           transform="rotate(-54.13715,781.98489,782.95229)"
           fill="#2f2e41"
           id="rect27"
           style="stroke-width:2.20509" /><circle
           cx="825"
           cy="400.44452"
           r="10"
           fill="#6c63ff"
           id="circle27"
           style="stroke-width:2.20509" /><circle
           cx="716"
           cy="477.44452"
           r="10"
           fill="#3f3d56"
           id="circle28"
           style="stroke-width:2.20509" /><circle
           cx="760"
           cy="487.44452"
           r="10"
           fill="#3f3d56"
           id="circle29"
           style="stroke-width:2.20509" /><circle
           cx="740"
           cy="526.44452"
           r="10"
           fill="#6c63ff"
           id="circle30"
           style="stroke-width:2.20509" /><circle
           cx="865"
           cy="551.44452"
           r="10"
           fill="#3f3d56"
           id="circle31"
           style="stroke-width:2.20509" /><circle
           cx="832"
           cy="562.44452"
           r="10"
           fill="#3f3d56"
           id="circle32"
           style="stroke-width:2.20509" /><circle
           cx="855"
           cy="594.44452"
           r="10"
           fill="#3f3d56"
           id="circle33"
           style="stroke-width:2.20509" /><circle
           cx="750"
           cy="412.44452"
           r="10"
           fill="#3f3d56"
           id="circle34"
           style="stroke-width:2.20509" /><rect
           y="651.44452"
           width="903"
           height="2"
           fill="#2f2e41"
           id="rect34"
           x="0"
           style="stroke-width:2.20509" /><rect
           x="170.20174"
           y="536.58459"
           width="98"
           height="98"
           transform="rotate(30,383.64027,279.11996)"
           fill="#f2f2f2"
           id="rect35"
           style="stroke-width:2.20509" /><path
           d="m 239.20174,669.5846 a 22,22 0 1 1 22,-22 22.02489,22.02489 0 0 1 -22,22 z m 0,-42 a 20,20 0 1 0 20,20 20.02229,20.02229 0 0 0 -20,-20 z"
           transform="translate(-131.20174,-123.27775)"
           fill="#3f3d56"
           id="path35"
           style="stroke-width:2.20509" /></g></g></g></svg>
