<?xml version="1.0" encoding="UTF-8" standalone="no"?>
<!-- Created with Inkscape (http://www.inkscape.org/) -->

<svg
   width="500"
   height="500"
   viewBox="0 0 132.29166 132.29167"
   version="1.1"
   id="svg1"
   xml:space="preserve"
   inkscape:version="1.3.2 (091e20ef0f, 2023-11-25, custom)"
   sodipodi:docname="img5.svg"
   xmlns:inkscape="http://www.inkscape.org/namespaces/inkscape"
   xmlns:sodipodi="http://sodipodi.sourceforge.net/DTD/sodipodi-0.dtd"
   xmlns:xlink="http://www.w3.org/1999/xlink"
   xmlns="http://www.w3.org/2000/svg"
   xmlns:svg="http://www.w3.org/2000/svg"><sodipodi:namedview
     id="namedview1"
     pagecolor="#ffffff"
     bordercolor="#000000"
     borderopacity="0.25"
     inkscape:showpageshadow="2"
     inkscape:pageopacity="0.0"
     inkscape:pagecheckerboard="0"
     inkscape:deskcolor="#d1d1d1"
     inkscape:document-units="px"
     inkscape:zoom="0.44097222"
     inkscape:cx="395.71654"
     inkscape:cy="198.4252"
     inkscape:window-width="1360"
     inkscape:window-height="700"
     inkscape:window-x="0"
     inkscape:window-y="141"
     inkscape:window-maximized="1"
     inkscape:current-layer="g6"
     showguides="true"><sodipodi:guide
       position="65.999997,87.891669"
       orientation="1,0"
       id="guide4"
       inkscape:locked="false" /><sodipodi:guide
       position="258,65.691666"
       orientation="0,-1"
       id="guide5"
       inkscape:locked="false" /></sodipodi:namedview><defs
     id="defs1"><linearGradient
       id="ac3cc305-f6db-42f4-bbbd-32121ee27a74-1345"
       x1="403.57"
       y1="833.5"
       x2="403.57"
       y2="218.16"
       gradientUnits="userSpaceOnUse"><stop
         offset="0"
         stop-color="gray"
         stop-opacity="0.25"
         id="stop1" /><stop
         offset="0.54"
         stop-color="gray"
         stop-opacity="0.12"
         id="stop2" /><stop
         offset="1"
         stop-color="gray"
         stop-opacity="0.1"
         id="stop3" /></linearGradient><linearGradient
       id="ad14f186-b27f-416c-b629-0bafa2f1236e-1346"
       x1="940.67"
       y1="825.72"
       x2="940.67"
       y2="263.72"
       xlink:href="#ac3cc305-f6db-42f4-bbbd-32121ee27a74-1345"
       gradientTransform="matrix(2.6328359,0,0,2.6091546,-596.04277,-858.68121)" /></defs><g
     inkscape:label="Camada 1"
     inkscape:groupmode="layer"
     id="layer1"><g
       id="g6"
       transform="matrix(0.26458333,0,0,0.26458333,-13.350422,-24.111387)"><g
         id="g7"
         transform="matrix(0.97440306,0,0,0.67941648,-351.78689,106.65918)"
         style="stroke-width:1.22903"><path
           d="m 837.481,708.97279 46.45777,-69.08737 -46.36275,76.51984 0.0969,7.77406 q -5.08741,0.0388 -10.076,-0.16943 l 2.3042,-99.93046 -0.0631,-0.77093 0.085,-0.149 0.22054,-9.44283 -50.87674,-73.8671 50.81671,66.79969 0.18034,1.99592 1.74041,-75.50137 -43.9438,-76.58326 44.06895,63.31984 -0.46,-156.41937 10e-4,-0.52062 0.015,0.512 2.91713,123.2796 40.04952,-50.07621 -39.91841,60.69646 0.87411,67.53422 36.85379,-65.91084 -36.71835,75.83953 0.48658,37.55243 53.59536,-91.813 -53.43243,104.91341 z"
           transform="translate(-153.82518,-160.44517)"
           fill="#e6e6e6"
           id="path1"
           style="stroke-width:1.22903" /><path
           d="m 993.83068,711.14892 46.45782,-69.08736 -46.36281,76.51983 0.0969,7.77406 q -5.0874,0.0388 -10.076,-0.16943 l 2.3042,-99.93046 -0.0631,-0.77093 0.085,-0.149 0.22054,-9.44282 -50.87674,-73.86711 50.81671,66.79969 0.18033,1.99592 1.74045,-75.50131 -43.94379,-76.58326 44.06894,63.31984 -0.46,-156.41937 10e-4,-0.52062 0.015,0.512 2.91709,123.27952 40.04948,-50.07621 -39.91836,60.69646 0.8741,67.53422 36.85376,-65.91084 -36.71831,75.83953 0.48658,37.55243 53.59533,-91.813 -53.43238,104.91344 z"
           transform="translate(-153.82518,-160.44517)"
           fill="#e6e6e6"
           id="path2"
           style="stroke-width:1.22903" /><path
           d="m 659.81305,431.35258 c 0,0 -6.28548,-46.0935 -16.76127,-33.52254 -10.47579,12.57096 0,31.42738 0,31.42738 l 8.38063,10.47579 8.38064,-6.28547 z"
           transform="translate(-153.82518,-160.44517)"
           fill="#9f616a"
           id="path13"
           style="stroke-width:1.22903" /><path
           d="m 684.955,446.01869 c 0,0 -20.95158,-23.04675 -25.1419,-18.85643 -4.19032,4.19032 -16.76127,6.28548 -14.66611,14.66611 2.09516,8.38063 46.09349,35.6177 46.09349,35.6177 z"
           transform="translate(-153.82518,-160.44517)"
           fill="#6c63ff"
           id="path14"
           style="stroke-width:1.22903" /><path
           d="m 684.955,446.01869 c 0,0 -20.95158,-23.04675 -25.1419,-18.85643 -4.19032,4.19032 -16.76127,6.28548 -14.66611,14.66611 2.09516,8.38063 46.09349,35.6177 46.09349,35.6177 z"
           transform="translate(-153.82518,-160.44517)"
           opacity="0.1"
           id="path15"
           style="stroke-width:1.22903" /><path
           d="m 804.379,443.92353 v 16.76127 c 0,0 2.09516,37.71286 -10.47579,35.6177 -12.57095,-2.09516 -6.28548,-33.5225 -6.28548,-33.5225 l 2.09516,-18.85643 z"
           transform="translate(-153.82518,-160.44517)"
           fill="#9f616a"
           id="path16"
           style="stroke-width:1.22903" /><path
           d="m 798.09353,565.44274 c 0,0 18.85647,29.33226 25.1419,31.42738 6.28543,2.09512 39.808,20.95159 43.99834,39.808 L 896.566,674.391 881.89989,693.24743 c 0,0 -67.04508,-71.2354 -85.90151,-77.52088 -18.85643,-6.28548 -37.71286,-37.71286 -37.71286,-37.71286 z"
           transform="translate(-153.82518,-160.44517)"
           fill="#9f616a"
           id="path17"
           style="stroke-width:1.22903" /><path
           d="m 649.33725,517.25409 c 0,0 -39.808,6.28547 -33.52254,31.42738 6.28546,25.14191 67.04508,77.52088 67.04508,77.52088 l 2.09521,12.57095 23.04675,4.19032 10.47579,-10.4758 -2.09515,-6.28547 c 0,0 -25.14196,-23.04675 -27.23712,-31.42735 -2.09516,-8.3806 -25.1419,-41.90317 -35.6177,-43.99833 l 14.66611,-8.38064 z"
           transform="translate(-153.82518,-160.44517)"
           fill="#9f616a"
           id="path18"
           style="stroke-width:1.22903" /><path
           d="m 890.28052,674.391 c 0,0 -8.38064,-12.57095 4.19031,-10.4758 12.57095,2.09515 20.95159,4.19032 20.95159,12.571 0,8.38068 -10.47579,67.04508 -23.04675,62.85476 -12.57096,-4.19032 -2.09515,-23.04675 -2.09515,-23.04675 0,0 -6.28548,-16.76127 -10.4758,-18.85643 -4.19032,-2.09516 -4.19032,-12.57095 0,-12.57095 4.19032,0 12.57095,-6.28551 10.4758,-10.47583 z"
           transform="translate(-153.82518,-160.44517)"
           fill="#2f2e41"
           id="path19"
           style="stroke-width:1.22903" /><path
           d="m 712.192,628.2975 c 0,0 0,-10.47579 8.38063,0 8.38063,10.47579 12.571,18.85643 4.19032,25.14191 -8.38068,6.28548 -37.71284,20.95159 -37.71284,20.95159 0,0 -31.42738,6.28547 -27.23706,-8.38064 0,0 20.95159,-10.47579 20.95159,-18.85643 0,-8.38064 0,-23.04674 6.28547,-18.85643 6.28547,4.19031 25.14189,6.2855 25.14189,0 z"
           transform="translate(-153.82518,-160.44517)"
           fill="#2f2e41"
           id="path20"
           style="stroke-width:1.22903" /><path
           d="m 752,471.16059 c 0,0 29.33223,4.19032 27.23707,46.0935 0,0 37.71286,37.71286 27.23706,50.28381 -10.4758,12.57095 -33.52254,35.6177 -41.90317,29.33222 -8.38063,-6.28548 -33.52251,-54.47412 -33.52251,-54.47412 0,0 -58.66445,20.95159 -69.14024,10.4758 -10.47579,-10.47579 -20.95159,-35.6177 -20.95159,-35.6177 l 52.379,-27.23707 z"
           transform="translate(-153.82518,-160.44517)"
           fill="#2f2e41"
           id="path21"
           style="stroke-width:1.22903" /><circle
           cx="516.46368"
           cy="166.14948"
           r="25.141911"
           fill="#9f616a"
           id="circle21"
           style="stroke-width:1.22903" /><path
           d="m 689.14527,328.6898 c 0,0 14.66611,23.04674 18.85643,25.1419 4.19032,2.09516 -29.33222,23.04675 -29.33222,23.04675 0,0 0,-27.23707 -10.4758,-33.52254 z"
           transform="translate(-153.82518,-160.44517)"
           fill="#9f616a"
           id="path22"
           style="stroke-width:1.22903" /><path
           d="m 691.24043,351.73654 c 0,0 33.52254,-10.47579 39.808,6.28548 6.28546,16.76127 20.95157,48.18865 18.85645,69.14024 -2.09512,20.95159 -6.28548,16.76127 0,23.04675 6.28548,6.28548 10.47579,2.09516 8.38063,10.47579 -2.09516,8.38063 -4.19032,8.38064 -2.09516,12.57095 2.09516,4.19031 -25.1419,18.85643 -48.18865,20.95159 l -23.0467,2.09516 c 0,0 0,-37.71286 -4.19031,-46.09349 -4.19031,-8.38063 -12.571,-25.14191 -12.571,-31.42739 v -16.63084 a 63.6067,63.6067 0 0 1 8.38063,-31.55779 v 0 c 0,0 12.57095,-18.85645 14.66611,-18.85645 z"
           transform="translate(-153.82518,-160.44517)"
           fill="#6c63ff"
           id="path23"
           style="stroke-width:1.22903" /><path
           d="m 716.38234,360.11718 c 0,0 77.52087,6.28547 85.90151,27.23706 8.38064,20.95159 12.57095,62.85476 4.19031,62.85476 -8.38064,0 -18.85643,4.19031 -20.95158,0 -2.09515,-4.19031 -10.4758,-46.0935 -12.571,-46.0935 -2.0952,0 -64.94988,-6.2855 -64.94988,-6.2855 0,0 -27.23706,-33.5225 8.38064,-37.71282 z"
           transform="translate(-153.82518,-160.44517)"
           fill="#6c63ff"
           id="path24"
           style="stroke-width:1.22903" /><path
           d="m 669.27866,320.36163 c 0,0 -6.67194,-11.59461 -15.01174,-1.52364 -8.3398,10.07097 -21.907,-8.43622 -19.82426,-12.38526 2.08274,-3.94904 9.4377,0.17757 22.04213,-3.94283 12.60443,-4.1204 36.88462,-12.51446 40.951,14.86728 4.06638,27.38174 -5.61826,24.51117 -5.61826,24.51117 0,0 -4.43915,-24.26318 -8.45126,-17.29375 l -4.01211,6.96943 -3.48019,0.85654 z"
           transform="translate(-153.82518,-160.44517)"
           fill="#2f2e41"
           id="path25"
           style="stroke-width:1.22903" /></g></g></g></svg>
