<?xml version="1.0" encoding="UTF-8" standalone="no"?>
<!-- Created with Inkscape (http://www.inkscape.org/) -->

<svg
   width="500"
   height="500"
   viewBox="0 0 132.29166 132.29167"
   version="1.1"
   id="svg1"
   xml:space="preserve"
   inkscape:version="1.3.2 (091e20ef0f, 2023-11-25, custom)"
   sodipodi:docname="img6.svg"
   xmlns:inkscape="http://www.inkscape.org/namespaces/inkscape"
   xmlns:sodipodi="http://sodipodi.sourceforge.net/DTD/sodipodi-0.dtd"
   xmlns:xlink="http://www.w3.org/1999/xlink"
   xmlns="http://www.w3.org/2000/svg"
   xmlns:svg="http://www.w3.org/2000/svg"><sodipodi:namedview
     id="namedview1"
     pagecolor="#ffffff"
     bordercolor="#000000"
     borderopacity="0.25"
     inkscape:showpageshadow="2"
     inkscape:pageopacity="0.0"
     inkscape:pagecheckerboard="0"
     inkscape:deskcolor="#d1d1d1"
     inkscape:document-units="px"
     inkscape:zoom="0.44097222"
     inkscape:cx="395.71654"
     inkscape:cy="198.4252"
     inkscape:window-width="1360"
     inkscape:window-height="700"
     inkscape:window-x="0"
     inkscape:window-y="141"
     inkscape:window-maximized="1"
     inkscape:current-layer="g6"
     showguides="true"><sodipodi:guide
       position="65.999997,87.891669"
       orientation="1,0"
       id="guide4"
       inkscape:locked="false" /><sodipodi:guide
       position="258,65.691666"
       orientation="0,-1"
       id="guide5"
       inkscape:locked="false" /></sodipodi:namedview><defs
     id="defs1"><linearGradient
       id="ac3cc305-f6db-42f4-bbbd-32121ee27a74-1345"
       x1="403.57"
       y1="833.5"
       x2="403.57"
       y2="218.16"
       gradientUnits="userSpaceOnUse"><stop
         offset="0"
         stop-color="gray"
         stop-opacity="0.25"
         id="stop1" /><stop
         offset="0.54"
         stop-color="gray"
         stop-opacity="0.12"
         id="stop2" /><stop
         offset="1"
         stop-color="gray"
         stop-opacity="0.1"
         id="stop3" /></linearGradient><linearGradient
       id="ad14f186-b27f-416c-b629-0bafa2f1236e-1346"
       x1="940.67"
       y1="825.72"
       x2="940.67"
       y2="263.72"
       xlink:href="#ac3cc305-f6db-42f4-bbbd-32121ee27a74-1345"
       gradientTransform="matrix(2.6328359,0,0,2.6091546,-596.04277,-858.68121)" /></defs><g
     inkscape:label="Camada 1"
     inkscape:groupmode="layer"
     id="layer1"><g
       id="g6"
       transform="matrix(0.26458333,0,0,0.26458333,-13.350422,-24.111387)"><g
         id="g8"
         transform="translate(77.326507,154.43701)"><g
           id="g7"
           transform="matrix(0.49009668,0,0,0.58774374,17.687935,34.341582)"
           style="stroke-width:1.86322"><path
             d="m 585.51312,699.85181 c 3.11869,-3.93878 7.23183,3.896 11.346,1 h -22.79844 c 4.64132,2.57672 8.26332,-5.20941 11.45244,-1 z"
             transform="translate(-171.51312,-194.78656)"
             fill="none"
             id="path1"
             style="stroke-width:1.86322" /><path
             d="m 660.46959,700.85181 h -3.93013 c 0.84434,0.59319 1.69127,1.18363 2.49781,1.82471 0.46032,-0.62218 0.9518,-1.21897 1.43232,-1.82471 z"
             transform="translate(-171.51312,-194.78656)"
             fill="none"
             id="path2"
             style="stroke-width:1.86322" /><path
             d="m 555.81436,696.12481 a 37.62407,37.62407 0 0 0 -18.29334,4.727 h 36.53966 a 37.4597,37.4597 0 0 0 -18.24632,-4.727 z"
             transform="translate(-171.51312,-194.78656)"
             fill="#e6e6e6"
             id="path3"
             style="stroke-width:1.86322" /><path
             d="m 626.71943,691.3978 a 51.693,51.693 0 0 0 -29.86028,9.454 h 59.68031 a 51.681,51.681 0 0 0 -29.82003,-9.454 z"
             transform="translate(-171.51312,-194.78656)"
             fill="#e6e6e6"
             id="path4"
             style="stroke-width:1.86322" /><path
             d="m 1028.3635,631.5585 c -2.6699,-48.41162 -41.56614,-87.88292 -89.93831,-91.19138 A 96.92379,96.92379 0 0 0 838.23875,611.128 c -1.174,-0.0421 -2.34691,-0.0893 -3.53112,-0.0893 a 96.926,96.926 0 0 0 -92.97649,69.6 68.484,68.484 0 0 0 -81.26155,20.21311 h 302.27283 c 37.13609,0 67.20398,-30.759 65.68968,-67.86416 q -0.029,-0.7135 -0.069,-1.42916 z"
             transform="translate(-171.51312,-194.78656)"
             fill="#e6e6e6"
             id="path5"
             style="stroke-width:1.86322" /><rect
             y="505.06525"
             width="849"
             height="2"
             fill="#3f3d56"
             id="rect5"
             x="0"
             style="stroke-width:1.86322" /><path
             d="m 454.85706,375.02534 c 0,0 -38.53465,-12.00334 -32.61918,7.74526 5.91547,19.7486 38.373,9.77313 38.373,9.77313 z"
             transform="translate(-171.51312,-194.78656)"
             fill="#ffb8b8"
             id="path6"
             style="stroke-width:1.86322" /><path
             d="m 602.15945,300.9004 c 0,0 -19.74846,-26.98668 -38.93509,1.02891 C 544,330 526.12654,353.0444 526.12654,353.0444 l -47.74568,15.5676 -27.62234,2.45078 7.60928,24.55807 80.31347,-11.65108 c 0,0 89.4142,-53.11402 63.47818,-83.06937 z"
             transform="translate(-171.51312,-194.78656)"
             fill="#2f2e41"
             id="path7"
             style="stroke-width:1.86322" /><path
             d="m 514.01312,450.35181 c 0,0 -30,21 -28,40 2,19 15,71 15,71 l 27,-4 c 0,0 3,-40 -7,-55 l 48,-27 z"
             transform="translate(-171.51312,-194.78656)"
             fill="#ffb8b8"
             id="path8"
             style="stroke-width:1.86322" /><path
             d="m 580.51312,499.85181 c 0,0 -2,37 3,52 5,15 10,71 10,71 h 28 c 0,0 13,-49 -3,-71 0,0 -5,-29 9,-43 z"
             transform="translate(-171.51312,-194.78656)"
             fill="#ffb8b8"
             id="path9"
             style="stroke-width:1.86322" /><path
             d="m 574.01312,397.35181 c 0,0 -65,41 -65,54 l 52,43 18,-20 -2,30 56,11 c 0,0 20,-76 19,-79 -1,-3 -4,-47 -4,-47 z"
             transform="translate(-171.51312,-194.78656)"
             fill="#2f2e41"
             id="path10"
             style="stroke-width:1.86322" /><path
             d="m 528.01312,552.35181 -29,6 5.15248,21.18242 a 75.64089,75.64089 0 0 1 0.84752,31.81757 v 0 c 0,0 30,8 30,4 0,-4 -7,-20 -5,-31 2,-11 -2,-31.99999 -2,-31.99999 z"
             transform="translate(-171.51312,-194.78656)"
             fill="#6c63ff"
             id="path11"
             style="stroke-width:1.86322" /><path
             d="m 543.01312,627.35181 c -1,-4 -9.30847,-22.13574 -9.65424,-19.06787 -0.34577,3.06787 -16.34576,8.06787 -22.34576,2.06787 0,0 -8,-7 -11,0 -3,7 -9,19 -9,19 0,0 -27,13 -23,20 0.809,1.41578 3.05048,2.01288 6.1106,2.06543 a 1.63348,1.63348 0 0 0 -0.1106,0.5802 v 0.70868 a 1.64571,1.64571 0 0 0 1.64569,1.64569 h 0.70862 a 1.64571,1.64571 0 0 0 1.64569,-1.64569 v -0.70868 a 1.62794,1.62794 0 0 0 -0.17975,-0.73346 c 0.81787,-0.0716 1.66632,-0.16632 2.53864,-0.281 a 1.63022,1.63022 0 0 0 -0.35889,1.01446 v 0.70868 a 1.64571,1.64571 0 0 0 1.64569,1.64569 h 0.70862 a 1.64571,1.64571 0 0 0 1.64569,-1.64569 v -0.70868 a 1.63844,1.63844 0 0 0 -0.85113,-1.43267 c 2.30169,-0.38428 4.704,-0.87275 7.09265,-1.41456 a 1.63059,1.63059 0 0 0 -0.24152,0.84723 v 0.70868 a 1.64571,1.64571 0 0 0 1.64569,1.64569 h 0.70862 a 1.64571,1.64571 0 0 0 1.64569,-1.64569 v -0.70868 a 1.64389,1.64389 0 0 0 -0.97833,-1.50177 c 1.79156,-0.4367 3.54754,-0.892 5.21881,-1.34356 a 1.6305,1.6305 0 0 0 -0.24048,0.84533 v 0.70868 a 1.64571,1.64571 0 0 0 1.64569,1.64569 h 0.70862 a 1.64571,1.64571 0 0 0 1.64569,-1.64569 v -0.70868 a 1.64,1.64 0 0 0 -1.15723,-1.56347 c 5.87268,-1.6543 10.15723,-3.08216 10.15723,-3.08216 0,0 4.97553,-1.81048 11,-4.25628 v 0.61059 a 1.64571,1.64571 0 0 0 1.64569,1.64569 h 0.70862 a 1.64571,1.64571 0 0 0 1.64569,-1.64569 v -0.70868 a 1.63608,1.63608 0 0 0 -0.63647,-1.291 c 1.20953,-0.50842 2.42956,-1.03119 3.63647,-1.56287 v 0.56256 a 1.64571,1.64571 0 0 0 1.64569,1.64569 h 0.70862 a 1.64571,1.64571 0 0 0 1.64569,-1.64569 v -0.70868 a 1.64158,1.64158 0 0 0 -0.70441,-1.3471 c 1.305,-0.60865 2.56165,-1.21686 3.72052,-1.81256 -0.005,0.0533 -0.0161,0.105 -0.0161,0.15966 v 0.70868 a 1.64571,1.64571 0 0 0 1.64569,1.64569 h 0.70862 a 1.64571,1.64571 0 0 0 1.64569,-1.64569 v -0.70868 a 1.646,1.646 0 0 0 -1.31695,-1.61248 c 2.79608,-1.62373 4.5592,-3.0641 4.31695,-4.03316 z"
             transform="translate(-171.51312,-194.78656)"
             fill="#2f2e41"
             id="path12"
             style="stroke-width:1.86322" /><path
             d="m 623.51312,618.35181 -31.68,-2 c 0,0 1.92,33 -1.92,44 -3.84,11 -1.92,15 -1.92,15 l 27.84,2 z"
             transform="translate(-171.51312,-194.78656)"
             fill="#6c63ff"
             id="path13"
             style="stroke-width:1.86322" /><path
             d="m 623.9029,691.28633 c -0.144,-4.12059 -4.48845,-23.5901 -5.46628,-20.66175 -0.97783,2.92835 -17.6687,4.48236 -22.28579,-2.6368 0,0 -6.36463,-8.5142 -10.75824,-2.29357 -4.39361,6.22063 -12.7638,16.70585 -12.7638,16.70585 0,0 -29.11715,7.08461 -26.6646,14.76479 0.496,1.55334 2.56373,2.60468 5.54563,3.29413 a 1.63368,1.63368 0 0 0 -0.22914,0.54438 l -0.14776,0.69311 a 1.6457,1.6457 0 0 0 1.26638,1.95265 l 0.693,0.14775 a 1.64569,1.64569 0 0 0 1.95265,-1.26638 l 0.14777,-0.6931 a 1.628,1.628 0 0 0 -0.0229,-0.75482 c 0.81484,0.10045 1.66438,0.18477 2.54143,0.25449 a 1.63027,1.63027 0 0 0 -0.56252,0.91734 l -0.14776,0.6931 a 1.64571,1.64571 0 0 0 1.26638,1.95266 l 0.693,0.14775 a 1.64572,1.64572 0 0 0 1.95266,-1.26638 l 0.14776,-0.69311 a 1.63843,1.63843 0 0 0 -0.5337,-1.57865 c 2.33123,0.10408 4.78256,0.12724 7.2317,0.0954 a 1.63059,1.63059 0 0 0 -0.41286,0.77825 l -0.14776,0.6931 a 1.64571,1.64571 0 0 0 1.26638,1.95266 l 0.693,0.14775 a 1.64571,1.64571 0 0 0 1.95265,-1.26639 l 0.14777,-0.6931 a 1.64389,1.64389 0 0 0 -0.6437,-1.67275 c 1.84324,-0.0536 3.65555,-0.13268 5.38424,-0.22588 a 1.63057,1.63057 0 0 0 -0.41145,0.77661 l -0.14776,0.69311 a 1.64571,1.64571 0 0 0 1.26638,1.95265 l 0.693,0.14775 a 1.64569,1.64569 0 0 0 1.95265,-1.26638 l 0.14777,-0.6931 a 1.64008,1.64008 0 0 0 -0.8058,-1.77041 c 6.08854,-0.39344 10.57663,-0.89656 10.57663,-0.89656 0,0 5.24366,-0.73327 11.64569,-1.86918 l -0.12731,0.59718 a 1.64572,1.64572 0 0 0 1.26638,1.95266 l 0.693,0.14775 a 1.64571,1.64571 0 0 0 1.95265,-1.26639 l 0.14777,-0.6931 a 1.63611,1.63611 0 0 0 -0.3533,-1.39535 c 1.289,-0.245 2.59117,-0.50195 3.88241,-0.77029 l -0.11729,0.5502 a 1.64569,1.64569 0 0 0 1.26638,1.95265 l 0.693,0.14776 a 1.64572,1.64572 0 0 0 1.95266,-1.26639 l 0.14776,-0.6931 a 1.64159,1.64159 0 0 0 -0.408,-1.46437 c 1.40321,-0.32317 2.75906,-0.656 4.01668,-0.997 -0.0162,0.0511 -0.0376,0.0993 -0.0491,0.1528 l -0.14776,0.69311 a 1.64571,1.64571 0 0 0 1.26638,1.95265 l 0.69305,0.14775 a 1.64571,1.64571 0 0 0 1.95266,-1.26638 l 0.14776,-0.6931 a 1.64606,1.64606 0 0 0 -0.9518,-1.85164 c 3.07342,-1.00501 5.09812,-2.0461 5.06325,-3.04437 z"
             transform="translate(-171.51312,-194.78656)"
             fill="#2f2e41"
             id="path14"
             style="stroke-width:1.86322" /><circle
             cx="402.5"
             cy="43.56525"
             r="29"
             fill="#ffb8b8"
             id="circle14"
             style="stroke-width:1.86322" /><path
             d="m 600.01312,235.35181 c 0,0 16,20 24,19 l -35,27 c 0,0 -4,-17 -9,-19 -5,-2 20,-27 20,-27 z"
             transform="translate(-171.51312,-194.78656)"
             fill="#ffb8b8"
             id="path15"
             style="stroke-width:1.86322" /><path
             d="m 662.51312,383.85181 c 0,0 -0.002,-110.34632 -18.51312,-119.85181 -18.5,-9.5 -30.73755,-14.92211 -30.73755,-14.92211 v 0 a 25.95764,25.95764 0 0 1 -9.98016,18.56709 c -6.134,4.7357 -12.24529,8.66252 -15.65918,8.67509 l -0.11,-0.46827 -0.41644,-1.18884 -10.08356,15.68884 c 0,0 -9,2 -12,8 -1.623,3.246 6.03052,35.9231 1.5,65.5 -3.84375,25.09363 -20.041,47.746 -20.5,50.5 -0.77594,4.65546 18.91034,-7.54187 27.77539,-13.24408 0.13123,0.14637 0.22461,0.24408 0.22461,0.24408 0,0 -5,2 5,-1 5.66608,-1.69983 13.57715,-1.79406 19.37207,-1.55682 -0.007,1.73737 0.034,3.11774 0.12793,4.05682 1,10 51,24 58,21 7,-3 6.00001,-39.99999 6.00001,-39.99999 z"
             transform="translate(-171.51312,-194.78656)"
             fill="#2f2e41"
             id="path16"
             style="stroke-width:1.86322" /><path
             d="m 627.51312,421.85181 c 0,0 -30,27 -10,32 20,5 28,-28 28,-28 z"
             transform="translate(-171.51312,-194.78656)"
             fill="#ffb8b8"
             id="path17"
             style="stroke-width:1.86322" /><path
             d="m 592.51312,491.85181 c 0,0 14,-13 22,-6 8,7 13,12 13,12 0,0 -23,-14 -35,-6 z"
             transform="translate(-171.51312,-194.78656)"
             fill="#6c63ff"
             id="path18"
             style="stroke-width:1.86322" /><path
             d="m 596.14953,647.40022 c 0,0 7.89087,-7.32724 12.39994,-3.3818 4.50907,3.94544 7.32725,6.76361 7.32725,6.76361 0,0 -12.96359,-7.89088 -19.72719,-3.38181 z"
             transform="translate(-171.51312,-194.78656)"
             fill="#2f2e41"
             id="path19"
             style="stroke-width:1.86322" /><path
             d="m 507.74625,579.24559 c 0,0 5.41684,-9.30656 10.879,-6.84419 5.46216,2.46237 8.9785,4.33837 8.9785,4.33837 0,0 -14.69895,-3.77649 -19.8575,2.50582 z"
             transform="translate(-171.51312,-194.78656)"
             fill="#2f2e41"
             id="path20"
             style="stroke-width:1.86322" /><path
             d="m 654.95682,277.72065 c -9.91276,-19.92594 -40.07425,-9.0584 -35.17326,12.65073 q 0.10959,0.48545 0.22956,0.98043 a 197.351,197.351 0 0 0 25,58 l -11,49 -12,25 25,6 31,-75 c 0,0 -8.55074,-47.4731 -23.0563,-76.63116 z"
             transform="translate(-171.51312,-194.78656)"
             fill="#2f2e41"
             id="path21"
             style="stroke-width:1.86322" /><polygon
             points="450,228.065 466,194.065 469,156.065 "
             opacity="0.2"
             id="polygon21"
             style="stroke-width:1.86322" /><path
             d="m 592.226,204.5479 c 0,0 -16.03027,-16.87649 -32.16549,-6.24832 -16.13522,10.62817 -23.78951,20.95242 -22.20751,28.14099 1.582,7.18857 6.26419,17.18755 6.26419,17.18755 0,0 -2.90988,-14.89267 10.4505,-15.99474 13.36038,-1.10207 31.81891,-9.94376 31.81891,-9.94376 l 12.48573,26.6639 c 0,0 1.76517,-6.1789 6.65887,-4.40663 4.8937,1.77227 1.10041,-33.42227 -13.3052,-35.39899 z"
             transform="translate(-171.51312,-194.78656)"
             fill="#2f2e41"
             id="path22"
             style="stroke-width:1.86322" /><path
             d="m 489.51312,585.85181 a 45.90581,45.90581 0 0 1 -0.63,7.56 v 0.01 a 45.01143,45.01143 0 0 1 -62.24,33.73 h -0.01 a 43.903,43.903 0 0 1 -5.37,-2.77 45.0673,45.0673 0 0 1 -20.88,-29.65 45.556,45.556 0 0 1 -0.87,-8.88 c 0,-1.36 0.06,-2.71 0.18,-4.04 v -0.01 a 44.99843,44.99843 0 0 1 89.81,3.43 v 0.01 c 0.01,0.20992 0.01,0.39992 0.01,0.60994 z"
             transform="translate(-171.51312,-194.78656)"
             fill="#6c63ff"
             id="path23"
             style="stroke-width:1.86322" /><path
             d="M 455.59027,570.82154 H 435.436 l -10.07763,-17.45019 6.83544,-11.84766 0.39942,-0.10742 a 46.155,46.155 0 0 1 26.30273,0.73535 l 0.36231,0.12012 6.40967,11.09961 z m -19,-2 H 454.436 l 8.92237,-15.45019 -5.44922,-9.4375 a 44.35474,44.35474 0 0 0 -24.39844,-0.69141 l -5.84277,10.12891 z"
             transform="translate(-171.51312,-194.78656)"
             fill="#ffffff"
             id="path24"
             style="stroke-width:1.86322" /><path
             d="M 454.59027,606.82252 H 434.436 l -10.07763,-17.4541 10.07763,-17.45411 h 20.1543 l 10.07764,17.45411 z m -19,-2 H 453.436 l 8.92237,-15.4541 -8.92237,-15.45411 h -17.8457 l -8.92236,15.45411 z"
             transform="translate(-171.51312,-194.78656)"
             fill="#ffffff"
             id="path25"
             style="stroke-width:1.86322" /><path
             d="m 444.51312,631.85181 a 45.58231,45.58231 0 0 1 -18.26855,-3.7832 l -1.02784,-0.44629 10.21875,-17.71094 h 20.15479 l 9.78808,16.95508 -0.97216,0.4668 a 45.57223,45.57223 0 0 1 -19.89307,4.51855 z m -16.437,-5.18359 a 44.04837,44.04837 0 0 0 34.48535,-0.68164 l -8.12549,-14.0752 h -17.84522 z"
             transform="translate(-171.51312,-194.78656)"
             fill="#ffffff"
             id="path26"
             style="stroke-width:1.86322" /><path
             d="M 488.59027,588.82154 H 468.436 l -10.07763,-17.45019 10.07714,-17.46 h 9.17725 l 0.2959,0.31153 a 45.7798,45.7798 0 0 1 12.59469,30.99612 v 0.29 z m -19,-2 H 487.436 l 1.06348,-1.84082 a 43.77854,43.77854 0 0 0 -11.749,-29.06934 h -7.15967 l -8.92285,15.46 z"
             transform="translate(-171.51312,-194.78656)"
             fill="#ffffff"
             id="path27"
             style="stroke-width:1.86322" /><path
             d="m 468.15814,625.33326 -9.7998,-16.96191 10.07714,-17.46 h 20.15381 l 1.29395,2.23047 -0.0142,0.44727 a 46.09583,46.09583 0 0 1 -20.83155,31.18848 z m -7.49023,-16.96191 8.1748,14.14843 a 44.09018,44.09018 0 0 0 18.99463,-28.91894 l -0.40039,-0.68946 h -17.84619 z"
             transform="translate(-171.51312,-194.78656)"
             fill="#ffffff"
             id="path28"
             style="stroke-width:1.86322" /><path
             d="m 421.61908,625.7649 -0.873,-0.52734 A 46.1146,46.1146 0 0 1 399.40277,594.928 l -0.0742,-0.37012 2.10742,-3.64649 h 20.15479 l 10.07715,17.46 z m -20.17969,-30.8623 a 44.11193,44.11193 0 0 0 19.47412,28.08593 l 8.44483,-14.61718 -8.92286,-15.46 h -17.84521 z"
             transform="translate(-171.51312,-194.78656)"
             fill="#ffffff"
             id="path29"
             style="stroke-width:1.86322" /><path
             d="m 421.59027,586.82154 h -20.15381 l -2.74316,-4.74121 v -0.26856 A 45.86133,45.86133 0 0 1 413.18207,552.179 l 0.28808,-0.26758 h 8.12061 l 10.07715,17.46 z m -19.00049,-2 H 420.436 l 8.92237,-15.45019 -8.92286,-15.46 h -6.17627 a 43.8183,43.8183 0 0 0 -13.5415,27.67383 z"
             transform="translate(-171.51312,-194.78656)"
             fill="#ffffff"
             id="path30"
             style="stroke-width:1.86322" /></g></g></g></g></svg>
