<?xml version="1.0" encoding="UTF-8" standalone="no"?>
<!-- Created with Inkscape (http://www.inkscape.org/) -->

<svg
   width="500"
   height="500"
   viewBox="0 0 132.29166 132.29167"
   version="1.1"
   id="svg1"
   xml:space="preserve"
   inkscape:version="1.3.2 (091e20ef0f, 2023-11-25, custom)"
   sodipodi:docname="img7.svg"
   xmlns:inkscape="http://www.inkscape.org/namespaces/inkscape"
   xmlns:sodipodi="http://sodipodi.sourceforge.net/DTD/sodipodi-0.dtd"
   xmlns:xlink="http://www.w3.org/1999/xlink"
   xmlns="http://www.w3.org/2000/svg"
   xmlns:svg="http://www.w3.org/2000/svg"><sodipodi:namedview
     id="namedview1"
     pagecolor="#ffffff"
     bordercolor="#000000"
     borderopacity="0.25"
     inkscape:showpageshadow="2"
     inkscape:pageopacity="0.0"
     inkscape:pagecheckerboard="0"
     inkscape:deskcolor="#d1d1d1"
     inkscape:document-units="px"
     inkscape:zoom="0.44097222"
     inkscape:cx="395.71654"
     inkscape:cy="198.4252"
     inkscape:window-width="1360"
     inkscape:window-height="700"
     inkscape:window-x="0"
     inkscape:window-y="141"
     inkscape:window-maximized="1"
     inkscape:current-layer="g6"
     showguides="true"><sodipodi:guide
       position="65.999997,87.891669"
       orientation="1,0"
       id="guide4"
       inkscape:locked="false" /><sodipodi:guide
       position="258,65.691666"
       orientation="0,-1"
       id="guide5"
       inkscape:locked="false" /></sodipodi:namedview><defs
     id="defs1"><linearGradient
       id="ac3cc305-f6db-42f4-bbbd-32121ee27a74-1345"
       x1="403.57"
       y1="833.5"
       x2="403.57"
       y2="218.16"
       gradientUnits="userSpaceOnUse"><stop
         offset="0"
         stop-color="gray"
         stop-opacity="0.25"
         id="stop1" /><stop
         offset="0.54"
         stop-color="gray"
         stop-opacity="0.12"
         id="stop2" /><stop
         offset="1"
         stop-color="gray"
         stop-opacity="0.1"
         id="stop3" /></linearGradient><linearGradient
       id="ad14f186-b27f-416c-b629-0bafa2f1236e-1346"
       x1="940.67"
       y1="825.72"
       x2="940.67"
       y2="263.72"
       xlink:href="#ac3cc305-f6db-42f4-bbbd-32121ee27a74-1345"
       gradientTransform="matrix(2.6328359,0,0,2.6091546,-596.04277,-858.68121)" /></defs><g
     inkscape:label="Camada 1"
     inkscape:groupmode="layer"
     id="layer1"><g
       id="g6"
       transform="matrix(0.26458333,0,0,0.26458333,-13.350422,-24.111387)"><g
         id="g11"
         transform="matrix(0.52171318,0,0,0.46065492,67.824399,205.74479)"
         style="stroke-width:2.03984"><g
           id="g10"
           transform="translate(43.654804,-36.068488)"
           style="stroke-width:2.03984"><path
             d="m 181.20339,329.37224 c -10.24371,-0.68884 -15.01477,1.30524 -18.09552,3.33612 -0.98901,0.65198 -1.96478,1.41541 -2.88696,2.24054 4.65588,-9.44641 9.42505,-18.85083 14.28485,-28.18945 0.0315,1.2536 0.25433,1.84845 0.80518,2.14581 1.26013,0.68024 4.20001,-1.4975 10.0285,-5.88043 4.43042,-3.33167 4.9964,-4.17627 5.32574,-4.755 1.15814,-2.03461 1.05963,-3.71143 0.3457,-11.0213 -1.28125,-13.12006 -1.61133,-14.35168 -0.99011,-17.44971 0.21387,-1.06683 0.79773,-3.63751 0.38324,-3.78497 -0.42596,-0.15155 -1.08789,2.54535 -3.4447,4.30481 -2.29706,1.71484 -3.91351,0.82941 -6.00104,1.93335 -2.6983,1.427 -3.44098,4.72784 -4.55804,10.04053 -0.9892,4.70496 -0.73676,6.36908 -1.32642,15.2337 -0.16705,2.51111 -0.32568,4.46503 -0.4339,6.00317 -4.35114,8.31989 -8.62091,16.70062 -12.81372,25.11383 0.0569,-0.23096 0.11011,-0.44855 0.15625,-0.63763 1.29742,-5.31873 0.86505,-7.77362 0.21307,-9.49792 -1.0564,-2.79346 -3.1557,-4.46594 -7.3114,-7.69727 -4.07227,-3.16632 -7.51691,-4.98938 -11.65631,-7.1546 -5.42603,-2.83813 -8.13904,-4.25732 -8.87494,-3.84259 -1.84808,1.04144 -1.57336,6.5 -0.0296,13.32983 -3.51392,-1.81287 -5.38013,-2.66248 -5.9704,-2.32983 -0.25421,0.14325 -0.46692,0.37268 -0.64301,0.67511 -2.62695,-0.12952 -6.10907,0.0198 -10.09326,0.5423 3.14355,-1.13678 6.67639,-2.6358 10.48187,-4.68085 3.29871,-1.77271 4.94489,-2.67426 4.78699,-3.41925 -0.56519,-2.66644 -23.08972,-2.61249 -42.39862,7.52234 -9.0907,4.77161 -12.11377,8.96686 -13.67694,12.30927 -0.50201,1.07349 -0.93439,2.23511 -1.28876,3.42126 -0.97357,-10.48737 -1.82867,-20.99799 -2.5719,-31.49951 0.68286,1.05237 1.18396,1.44293 1.80908,1.4082 1.42981,-0.0795 2.7962,-3.47333 5.47083,-10.25775 2.03296,-5.15704 2.07355,-6.17297 2.05151,-6.8385 -0.07727,-2.33984 -1.03845,-3.71741 -5.47076,-9.57385 -7.95526,-10.51147 -8.88086,-11.38849 -9.97211,-14.35382 -0.37579,-1.02106 -1.2229,-3.5174 -1.65332,-3.42621 -0.44226,0.0936 0.40436,2.7384 -0.68384,5.47076 -1.06067,2.66309 -2.90155,2.75409 -4.10309,4.78693 -1.55322,2.62775 -0.45947,5.82941 1.36768,10.94159 1.6181,4.52734 2.70386,5.81354 6.8385,13.67694 1.1712,2.22754 2.05817,3.97583 2.77057,5.34332 0.64392,9.36646 1.38892,18.74243 2.21655,28.10608 -0.07227,-0.22638 -0.14062,-0.43945 -0.2002,-0.62463 -1.67657,-5.21173 -3.32928,-7.07776 -4.78693,-8.20624 -2.36157,-1.82812 -5.0257,-2.15533 -10.25775,-2.73535 -5.12701,-0.5683 -9.01642,-0.32007 -13.67694,0 -6.10907,0.41956 -9.1637,0.62921 -9.57391,1.36768 -1.12592,2.02649 2.67902,7.22473 8.36462,12.78564 -4.64136,0.32904 -7.00732,0.57111 -7.36462,1.21436 -0.93427,1.68152 1.5329,5.55042 5.64362,9.99432 -2.8573,0.24554 -4.36444,0.50317 -4.64362,1.00568 -3.1366,5.64545 31.91113,35.89136 39.66321,30.08936 0.58868,-0.44061 1.00568,-1.08771 1.29279,-1.8761 0.12695,1.06671 0.25671,2.13385 0.38617,3.20105 -9.15778,-1.03088 -26.74982,1.72949 -37.1875,12.65436 -5.18878,5.43091 -5.97083,10.11932 -6.15466,11.62543 -0.81549,6.67981 2.43512,13.78888 5.13202,14.31116 0.7962,4.9729 3.2912,9.08545 5.33881,9.04968 2.56726,-0.0447 2.11298,-6.56738 8.20618,-13.677 4.25165,-4.96088 9.30756,-7.42633 12.30927,-8.89001 6.4472,-3.1438 10.19318,-3.05139 14.8374,-5.61212 0.09326,0.68964 0.19263,1.37915 0.28693,2.06879 -8.50714,1.42749 -18.2218,5.07568 -24.95593,12.12408 -5.18878,5.43091 -5.97083,10.11932 -6.15466,11.62543 -0.50238,4.11517 0.54297,8.38831 2.0473,11.19452 -4.09241,4.29834 -5.22382,8.7865 -7.47339,17.72644 -1.43719,5.71136 -1.12329,7.73785 0,8.89001 0.92889,0.95294 2.39648,1.29254 8.20618,0.68384 6.30219,-0.66028 9.45331,-0.99054 12.30927,-2.05151 4.51764,-1.67828 7.6322,-4.56091 13.67694,-10.25775 2.48566,-2.34259 4.58746,-4.3327 6.30084,-6.06848 0.89148,0.3042 1.72803,0.53577 2.57294,0.70245 0.09814,0.0193 0.19489,0.0334 0.2926,0.0513 1.55884,9.23834 3.20593,18.44904 4.93909,27.62152 -5.63824,1.25842 -10.45575,4.96954 -13.10291,10.31085 l -20.91888,42.20276 c -1.32062,2.66357 -2.0188,5.64331 -2.0188,8.61694 v 108.51923 c 0,10.69971 8.70465,19.40436 19.4043,19.40436 h 48.82788 c 10.69965,0 19.4043,-8.70465 19.4043,-19.40436 v -99.92529 c 0,-2.43585 -0.45123,-4.82092 -1.34137,-7.08905 l -19.93677,-50.79626 c -2.88269,-7.34442 -9.77155,-12.1261 -17.62646,-12.29858 4.07281,-10.74463 8.27454,-21.47644 12.62347,-32.16461 0.67017,-0.25989 1.26324,-0.52997 1.7785,-0.81635 0.80225,0.87988 2.44623,1.90582 5.93207,3.573 5.71655,2.73401 8.57489,4.10095 11.5639,4.69067 4.72815,0.93298 8.8905,0.10547 17.02234,-1.58765 11.06464,-2.30365 16.62061,-3.52112 17.77802,-6.74054 1.60187,-4.45551 -3.42249,-10.19519 -4.80725,-11.77698 -3.00977,-3.43829 -6.33191,-5.00604 -8.38452,-5.94879 -2.66553,-1.2243 -10.26251,-4.7135 -19.44604,-2.30719 -5.7804,1.51453 -9.09082,4.74915 -15.71204,11.2182 -0.63751,0.62286 -1.18793,1.18933 -1.6767,1.71692 -0.11005,-0.31647 -0.23431,-0.62958 -0.37067,-0.93988 0.92853,-2.23895 1.85724,-4.47681 2.797,-6.71106 6.78979,-6.44135 10.13116,-9.98773 9.49689,-13.03253 -0.29767,-1.42896 -1.19806,-2.63086 -2.35706,-3.63043 1.28796,-2.95746 2.57867,-5.91248 3.88513,-8.85809 0.60065,-0.0138 1.22028,-0.0421 1.88757,-0.10504 3.4986,-0.3299 7.45966,-0.70325 7.88214,-2.38348 0.22345,-0.88885 -0.54614,-2.18842 -2.05853,-3.65161 2.18549,-0.61011 5.51459,-5.05865 12.98737,-7.46667 6.21869,-2.00385 11.81732,-1.46021 15.14124,-1.13745 8.57758,0.83289 11.3764,3.61713 19.08832,2.89001 3.4986,-0.3299 7.45966,-0.70325 7.88214,-2.38354 0.1897,-0.75446 -0.34064,-1.80615 -1.42578,-3.00061 1.94342,0.26801 4.02271,0.48083 6.23914,0.60815 3.73865,0.21478 5.61328,0.30756 5.86835,-0.40997 0.91321,-2.56812 -18.31183,-14.30511 -40.06976,-15.76831 -5.28253,-0.35522 -9.10211,0.006 -11.99261,0.71466 6.95459,-2.59576 17.30505,-6.54297 28.66821,-3.34766 3.91199,1.09998 11.82867,4.13934 23.52582,4.81128 3.73865,0.21478 5.61328,0.30756 5.86835,-0.40997 0.91284,-2.56702 -18.29584,-14.2948 -40.04242,-15.76605 5.04742,-1.02026 10.70898,-1.30536 16.64825,0.36475 3.91199,1.09998 11.82867,4.13934 23.52582,4.81128 3.73865,0.21478 5.61328,0.30756 5.86835,-0.40997 0.91321,-2.56812 -18.31183,-14.30511 -40.06976,-15.76831 z M 80.69094,374.33776 c 0.29462,-0.23151 0.5835,-0.46344 0.86188,-0.69507 0.49915,0.73309 1.02631,1.29694 1.55353,1.65356 0.05615,0.29419 0.11639,0.58429 0.18372,0.87054 -0.74286,-0.0795 -1.5387,-0.13361 -2.38141,-0.16156 -0.07098,-0.55566 -0.1474,-1.11182 -0.21771,-1.66748 z m 42.97211,-38.48004 c 0.085,0.48688 0.177,0.98315 0.27844,1.49115 -0.92957,-0.17804 -1.99426,-0.30475 -3.15857,-0.38 0.92853,-0.33807 1.88727,-0.70483 2.88013,-1.11115 z m 2.21423,9.19958 c -0.71375,-0.0717 -1.47711,-0.11902 -2.28009,-0.14404 0.62781,-0.47772 1.24835,-0.96283 1.82312,-1.4455 0.14691,0.52649 0.29889,1.05634 0.45697,1.58954 z m -16.46246,15.84619 c 7.36334,-3.4585 11.17657,-2.72144 17.21289,-7.25818 0.56189,-0.4223 1.13776,-0.85583 1.69678,-1.29236 2.00317,5.34119 4.40063,10.43616 6.87024,14.12903 -6.91602,-3.4917 -16.41779,-6.32928 -25.77991,-5.57849 z m 17.72534,-44.05536 c 0.22211,2.91449 0.93726,6.61896 2.00171,10.60028 -0.0606,-4.9e-4 -0.12067,-0.001 -0.18195,-0.001 -2.64246,-1.32953 -4.09821,-1.92065 -4.60706,-1.63391 -0.52985,0.29858 -0.88489,0.96094 -1.08588,1.91394 -8.30444,0.79108 -19.49768,3.32867 -29.78015,8.72571 -9.0907,4.77161 -12.11377,8.96686 -13.67694,12.30927 -0.66638,1.4248 -1.21094,3.00439 -1.61084,4.59137 -0.20508,-1.84052 -0.41608,-3.67792 -0.61426,-5.52167 4.46887,-1.73889 11.2254,-18.53296 27.94672,-23.27588 3.78693,-1.07416 11.73438,-2.57458 21.60864,-7.70782 z m -48.64569,59.14832 c 0.12323,-0.0896 0.24182,-0.16779 0.36694,-0.26184 0.19073,-0.14337 0.38324,-0.28815 0.57611,-0.43378 0.02899,0.22766 0.06018,0.45551 0.08923,0.68317 -0.33917,4.9e-4 -0.68146,0.004 -1.03229,0.0125 z m 3.70374,9.88495 c 0.53925,-0.3443 1.0885,-0.71484 1.66321,-1.14679 0.86493,-0.65002 1.7644,-1.32648 2.58087,-1.99976 0.63239,0.63715 1.28064,1.01038 1.88995,0.99976 0.2384,-0.004 0.44452,-0.0815 0.63849,-0.19269 -0.52399,1.56787 -0.83276,3.10431 -0.93103,4.46979 -1.72046,0.0602 -3.56018,0.21509 -5.48291,0.48938 -0.11938,-0.87335 -0.24084,-1.7464 -0.35858,-2.61969 z m 22.00385,74.59833 h -6.95258 c -0.99579,0 -1.9762,0.0801 -2.93823,0.22479 -1.70416,-9.01904 -3.32452,-18.07501 -4.86005,-27.1579 4.08856,0.45306 8.16809,-0.36536 15.30634,-1.85162 5.05768,-1.05298 8.95178,-1.87994 11.81348,-2.77399 -4.25763,10.48865 -8.3775,21.01697 -12.36896,31.55872 z m 16.27789,-43.74896 c 0.57172,-0.53326 1.17706,-1.10266 1.80792,-1.6969 -0.38556,0.92224 -0.76086,1.84839 -1.14447,2.77142 -0.21381,-0.37115 -0.43634,-0.72894 -0.66345,-1.07452 z m 3.51544,-24.5838 c -4.36371,-1.35583 -8.01514,-0.9541 -10.25769,-0.68384 -2.81171,0.33881 -10.64093,1.2995 -17.08954,7.53333 -2.15253,-0.0566 -4.5896,0.0624 -7.18646,0.38867 1.38269,-0.63434 2.81378,-1.45856 4.39972,-2.65051 2.8092,-2.11127 5.98969,-4.50159 5.47083,-6.1546 -0.23975,-0.76361 -1.29242,-1.39716 -2.91998,-1.85016 1.83331,-1.21484 4.11053,-2.46686 7.02698,-3.40662 6.21869,-2.00391 11.81732,-1.46027 15.14124,-1.13751 7.1955,0.69873 10.33362,2.763 15.70764,2.98334 -1.1814,2.66669 -2.34705,5.34283 -3.51331,8.01923 -2.49506,-1.7027 -5.57867,-2.66827 -6.77942,-3.04132 z m 15.82281,-13.98981 c 0.0474,-0.10474 0.0936,-0.21021 0.14093,-0.31494 0.37207,-0.0432 0.73944,-0.0897 1.09772,-0.14148 0.0256,0.53992 0.0949,1.02771 0.2027,1.4624 -0.44806,-0.33301 -0.93494,-0.66919 -1.44135,-1.00598 z m 11.28967,-20.44879 c -0.0333,0.022 -0.0662,0.0472 -0.0994,0.0694 0.0795,-0.2854 0.15393,-0.55994 0.22607,-0.82874 0.61279,-0.0845 1.31311,-0.25696 2.09436,-0.49603 -0.83722,0.40076 -1.57031,0.82642 -2.22101,1.25537 z"
             fill="#f2f2f2"
             id="path1"
             style="stroke-width:2.03984" /><g
             id="g2"
             style="stroke-width:2.03984"><polygon
               points="256.4246,640.85658 263.68011,582.02643 241.16945,582.02801 241.17251,640.85807 "
               fill="#ffb6b6"
               id="polygon1"
               style="stroke-width:2.03984" /><path
               d="m 293.42808,640.51208 v 0 c 0.4749,0.79982 0.72548,3.38126 0.72548,4.31137 v 0 c 0,2.85894 -2.31759,5.17662 -5.17662,5.17662 H 241.743 c -1.95035,0 -3.53151,-1.58107 -3.53151,-3.53151 v -1.9665 c 0,0 -2.33662,-5.91036 2.47406,-13.19519 0,0 5.97903,5.70414 14.91325,-3.23007 l 2.63462,-4.77281 19.07102,13.94758 10.57078,1.30116 c 2.31267,0.28464 4.36307,-0.0442 5.55268,1.95935 h 1.9e-4 z"
               fill="#2f2e41"
               id="path2"
               style="stroke-width:2.03984" /></g><g
             id="g3"
             style="stroke-width:2.03984"><polygon
               points="340.4246,640.85658 347.68011,582.02643 325.16945,582.02801 325.17251,640.85807 "
               fill="#ffb6b6"
               id="polygon2"
               style="stroke-width:2.03984" /><path
               d="m 377.42808,640.51208 v 0 c 0.4749,0.79982 0.72548,3.38126 0.72548,4.31137 v 0 c 0,2.85894 -2.31759,5.17662 -5.17662,5.17662 H 325.743 c -1.95035,0 -3.53151,-1.58107 -3.53151,-3.53151 v -1.9665 c 0,0 -2.33662,-5.91036 2.47406,-13.19519 0,0 5.97903,5.70414 14.91325,-3.23007 l 2.63462,-4.77281 19.07102,13.94758 10.57078,1.30116 c 2.31267,0.28464 4.36307,-0.0442 5.55268,1.95935 h 1.9e-4 z"
               fill="#2f2e41"
               id="path3"
               style="stroke-width:2.03984" /></g><path
             d="m 319.04527,172.54728 c 0,0 17.56693,-8 28.78346,0 11.21653,8 21.21654,80 9.21654,92 -12,12 -32,-15 -32,-15 z"
             fill="#ffb6b6"
             id="path4"
             style="stroke-width:2.03984" /><path
             d="m 252.65354,173.5 c 0,0 -17.56693,-8 -28.78346,0 -11.21653,8 -21.21654,80 -9.21654,92 12,12 32,-15 32,-15 z"
             fill="#ffb6b6"
             id="path5"
             style="stroke-width:2.03984" /><path
             d="m 253.15354,262 c 0,0 -6,27 -13,39 l 51,30 40,-26 c 0,0 -19,-31 -16,-40 z"
             fill="#ffb6b6"
             id="path6"
             style="stroke-width:2.03984" /><g
             id="g7"
             style="stroke-width:2.03984"><polygon
               points="581.03981,637.85804 571.72225,562.30808 600.63055,562.31011 600.62661,637.85995 "
               fill="#ffb6b6"
               id="polygon6"
               style="stroke-width:2.03984" /><path
               d="m 533.51976,637.41563 v 0 c -0.60986,1.02713 -0.93166,4.34223 -0.93166,5.53669 v 0 c 0,3.67146 2.97626,6.64784 6.64784,6.64784 h 60.65805 c 2.50465,0 4.53519,-2.03042 4.53519,-4.53519 v -2.52539 c 0,0 3.00069,-7.59011 -3.1772,-16.94533 0,0 -7.6783,7.32528 -19.15166,-4.14808 l -3.38339,-6.12927 -24.4911,17.91155 -13.57505,1.67096 c -2.96994,0.36554 -5.60307,-0.0567 -7.13077,2.51621 h -2.4e-4 z"
               fill="#2f2e41"
               id="path7"
               style="stroke-width:2.03984" /></g><g
             id="g8"
             style="stroke-width:2.03984"><polygon
               points="641.58458,637.85804 632.26702,562.30808 661.17531,562.31011 661.17138,637.85995 "
               fill="#ffb6b6"
               id="polygon7"
               style="stroke-width:2.03984" /><path
               d="m 594.06453,637.41563 v 0 c -0.60986,1.02713 -0.93166,4.34223 -0.93166,5.53669 v 0 c 0,3.67146 2.97626,6.64784 6.64784,6.64784 h 60.65805 c 2.50465,0 4.53519,-2.03042 4.53519,-4.53519 v -2.52539 c 0,0 3.00069,-7.59011 -3.1772,-16.94533 0,0 -7.6783,7.32528 -19.15166,-4.14808 l -3.38339,-6.12927 -24.4911,17.91155 -13.57505,1.67096 c -2.96994,0.36554 -5.60307,-0.0567 -7.13077,2.51621 h -2.4e-4 z"
               fill="#2f2e41"
               id="path8"
               style="stroke-width:2.03984" /></g><g
             id="g9"
             style="stroke-width:2.03984"><path
               d="m 559.87774,202.03374 c 0,0 -2.8368,18.25975 0.44853,30.04219 l -48.24223,85.54714 18.76617,13.67763 62.67044,-78.85065 8.68465,-38.9589 z"
               fill="#ffb6b6"
               id="path9"
               style="stroke-width:2.03984" /><ellipse
               cx="514.78625"
               cy="336.30896"
               rx="24.50622"
               ry="15.13619"
               transform="rotate(-60.58023,514.78628,336.30896)"
               fill="#ffb6b6"
               id="ellipse9"
               style="stroke-width:2.03984" /></g><path
             d="m 578.69796,289.07025 c 0,0 -23.06467,16.27694 -15.13619,40.57317 l -6.48694,81.95791 14.41542,168.66042 h 31.04991 l 4.98864,-121.08954 20.18159,-76.40173 2.61634,197.49127 38.46761,-0.72077 c 0,0 2.16231,-98.74563 -0.72077,-104.5118 -2.88308,-5.76617 0,-1.14075 0,-1.14075 l 23.78544,-115.64119 -3.60386,-79.26779 -109.5572,10.09079 z"
             fill="#2f2e41"
             id="path10"
             style="stroke-width:2.03984" /><polygon
             points="611.13266,292.67411 691.85902,285.4664 683.20977,197.53233 684.65131,112.48135 652.93738,100.94901 635.63888,87.97513 593.83416,103.83209 598.15878,115.36443 563.56177,141.31219 586.62645,222.03854 573.65257,294.11565 "
             fill="#6c63ff"
             id="polygon10"
             style="stroke-width:2.03984" /><path
             d="m 574.37334,139.14987 -10.81157,2.16231 c 0,0 -5.0454,3.60386 -5.0454,16.57773 0,12.97387 0,21.62313 1.44154,28.83084 0,0 -8.64925,23.06467 -5.76617,28.83084 2.88308,5.76617 38.92164,5.76617 38.92164,5.76617 l -18.74005,-82.1679 z"
             fill="#6c63ff"
             id="path11"
             style="stroke-width:2.03984" /><path
             d="m 633.94762,54.52454 c 0,18.14827 -14.71208,32.86035 -32.86035,32.86035 -18.14827,0 -32.86035,-14.71208 -32.86035,-32.86035 0,-18.14827 14.71208,-32.86035 32.86035,-32.86035 18.14827,0 32.86035,14.71208 32.86035,32.86035 z"
             fill="#ffb6b6"
             id="path12"
             style="stroke-width:2.03984" /><path
             d="m 621.62253,77.40612 c 0,0 5.82133,-22.36488 -0.38166,-18.42126 l -9.62679,-0.9148 6.07816,-16.25953 c 0,0 -10.8813,-8.15741 -15.21991,-3.38904 -4.33861,4.76837 -3.29898,7.45749 -7.24261,1.2545 -3.94363,-6.20299 -12.1839,-6.08574 -19.73144,-1.6223 -7.54754,4.46343 -13.44559,5.19813 -12.01098,-3.08411 1.43461,-8.28223 0.63035,-22.3556 5.11118,-20.75956 4.48084,1.59603 3.25239,2.49689 5.66857,-3.28675 2.41618,-5.78364 2.72112,-8.99257 8.31423,-6.51833 5.59311,2.47424 19.64857,-9.14175 25.45656,-2.11402 5.80799,7.02773 10.8813,8.15741 15.9546,9.28709 5.0733,1.12968 25.45656,-2.11402 23.75179,29.45547 0,0 13.60518,27.19611 -10.90181,39.76167 0,0 -6.65081,-6.56349 -11.29436,1.41381 l -3.92555,-4.80284 z"
             fill="#2f2e41"
             id="path13"
             style="stroke-width:2.03984" /><path
             d="m 306.15354,148 -32,1 -17,21 -19,4 c 0,0 -6,56 3,76 9,20 5,26 5,26 l 72,-1 c 0,0 -2,-13.58268 10,-25.29134 l 6.01784,-22.27074 c 3.21745,-11.90708 2.12131,-24.5683 -3.09461,-35.74527 l -12.92323,-27.69264 -11,-4 -1,-12 z"
             fill="#2f2e41"
             id="path14"
             style="stroke-width:2.03984" /><path
             d="m 246.15354,288 -4.5,7.5 c 0,0 -14,19 -16,73 -2,54 14.5,228.73622 14.5,228.73622 h 22.83465 L 287.67395,360.82677 320.65354,597.5 l 29.5,0.5 -2.5,-241.5 c 0,0 -6,-55 -22,-67 0,0 -51.5,46.5 -79.5,-1.5 z"
             fill="#2f2e41"
             id="path15"
             style="stroke-width:2.03984" /><g
             id="g17"
             style="stroke-width:2.03984"><path
               d="m 204.50705,169.53298 c 0,10.3817 -0.62537,18.10648 -11.96219,18.79773 -10.64788,0.64924 -11.96219,-8.41603 -11.96219,-18.79773 0,-10.3817 0.24795,-18.71364 11.96219,-18.79773 13.33682,-0.0957 11.96219,8.41603 11.96219,18.79773 z"
               fill="#6c63ff"
               id="path16"
               style="stroke-width:2.03984" /><path
               d="m 271.15354,169.53298 c 0,10.3817 2.72814,18.10653 -11.96219,18.79773 -11.30138,0.53174 -11.96219,-8.41603 -11.96219,-18.79773 0,-10.3817 1.66011,-17.63281 11.96219,-18.79773 9.69033,-1.09574 11.96219,8.41603 11.96219,18.79773 z"
               fill="#6c63ff"
               id="path17"
               style="stroke-width:2.03984" /><rect
               x="194.25374"
               y="160.98856"
               width="66.646492"
               height="15.37996"
               fill="#6c63ff"
               id="rect17"
               style="stroke-width:2.03984" /></g><g
             id="g19"
             style="stroke-width:2.03984"><path
               d="m 319.50705,166.53298 c 0,10.3817 -0.62537,18.10648 -11.96219,18.79773 -10.64788,0.64924 -11.96219,-8.41603 -11.96219,-18.79773 0,-10.3817 0.24795,-18.71364 11.96219,-18.79773 13.33682,-0.0957 11.96219,8.41603 11.96219,18.79773 z"
               fill="#6c63ff"
               id="path18"
               style="stroke-width:2.03984" /><path
               d="m 386.15354,166.53298 c 0,10.3817 2.72814,18.10653 -11.96219,18.79773 -11.30138,0.53174 -11.96219,-8.41603 -11.96219,-18.79773 0,-10.3817 1.66011,-17.63281 11.96219,-18.79773 9.69033,-1.09574 11.96219,8.41603 11.96219,18.79773 z"
               fill="#6c63ff"
               id="path19"
               style="stroke-width:2.03984" /><rect
               x="309.25375"
               y="157.98856"
               width="66.646492"
               height="15.37996"
               fill="#6c63ff"
               id="rect19"
               style="stroke-width:2.03984" /></g><g
             id="g21"
             style="stroke-width:2.03984"><path
               d="m 493.50705,330.53298 c 0,10.3817 -0.62537,18.10648 -11.96219,18.79773 -10.64788,0.64924 -11.96219,-8.41603 -11.96219,-18.79773 0,-10.3817 0.24795,-18.71364 11.96219,-18.79773 13.33682,-0.0957 11.96219,8.41603 11.96219,18.79773 z"
               fill="#6c63ff"
               id="path20"
               style="stroke-width:2.03984" /><path
               d="m 560.15354,330.53298 c 0,10.3817 2.72814,18.10653 -11.96219,18.79773 -11.30138,0.53174 -11.96219,-8.41603 -11.96219,-18.79773 0,-10.3817 1.66011,-17.63281 11.96219,-18.79773 9.69033,-1.09574 11.96219,8.41603 11.96219,18.79773 z"
               fill="#6c63ff"
               id="path21"
               style="stroke-width:2.03984" /><rect
               x="483.25375"
               y="321.98856"
               width="66.646492"
               height="15.37996"
               fill="#6c63ff"
               id="rect21"
               style="stroke-width:2.03984" /></g><ellipse
             cx="343.08856"
             cy="169.11815"
             rx="12.99252"
             ry="21.035509"
             fill="#ffb6b6"
             id="ellipse21"
             style="stroke-width:2.03984" /><circle
             cx="281.65353"
             cy="100.5"
             r="35.5"
             fill="#ffb6b6"
             id="circle21"
             style="stroke-width:2.03984" /><path
             d="m 274.52614,111.65484 8.21357,-13.0713 3.69905,-17.77667 c 0,0 37.41739,9.12619 27.37858,-9.12619 C 303.77853,53.42829 278.22519,48.8652 260.88542,62.55449 l -7.47342,7.30095 c 0,0 16.59961,-15.51453 6.5608,-20.99025 -10.03881,-5.47572 -8.21357,-9.12619 -13.68929,-4.5631 -5.47572,4.5631 -2.73786,8.21357 -9.12619,5.47572 -6.38834,-2.73786 -20.07763,-6.38834 -18.25239,-1.82524 1.82524,4.5631 -11.9431,16.42715 -6.88417,21.90286 5.05893,5.47571 0.49583,16.42715 9.62203,13.68929 9.12619,-2.73786 4.5631,10.95143 12.77667,5.47572 0,0 -6.74164,8.59122 -1.26592,14.97955 5.47572,6.38833 13.91262,8.87381 13,18 -0.91262,9.12619 21,11 21,11 l -1.70502,-26.63978 c 0,0 5.42715,-4.44956 9.07763,5.29463 z"
             fill="#2f2e41"
             id="path22"
             style="stroke-width:2.03984" /><g
             id="g23"
             style="stroke-width:2.03984"><path
               d="m 635.952,172.91127 c 0,0 -5.23404,17.72205 -3.54078,29.83617 l -59.1644,78.39133 16.78586,16.04623 72.57675,-69.83999 13.77611,-37.46248 -40.43354,-16.97125 z"
               fill="#ffb6b6"
               id="path23"
               style="stroke-width:2.03984" /><ellipse
               cx="573.44629"
               cy="300.01797"
               rx="24.50622"
               ry="15.13619"
               transform="rotate(-52.957,573.44628,300.01799)"
               fill="#ffb6b6"
               id="ellipse23"
               style="stroke-width:2.03984" /></g><path
             d="m 678.82781,107.74546 c 0,0 18.43162,6.68681 16.08684,19.36535 -2.34478,12.67854 -3.23496,21.03684 -3.23496,21.03684 0,0 1.99724,6.92547 -0.60797,10.37731 -2.60521,3.45184 -15.98067,43.92576 -15.98067,43.92576 l -48.10713,-16.44165 c 0,0 28.20184,-78.04673 51.8439,-78.26361 z"
             fill="#6c63ff"
             id="path24"
             style="stroke-width:2.03984" /><path
             d="m 805.04004,650.40666 v 0 c 0,0.46393 -0.3761,0.84003 -0.84003,0.84003 H 0.84003 C 0.3761,651.24669 0,650.8706 0,650.40666 v 0 c 0,-0.46394 0.37609,-0.84003 0.84003,-0.84003 h 803.35998 c 0.46393,0 0.84003,0.3761 0.84003,0.84003 z"
             fill="#e6e6e6"
             id="path25"
             style="stroke-width:2.03984" /><path
             d="m 241.60275,170.07087 c 0,11.61759 -5.81695,21.03551 -12.99252,21.03551 -7.17557,0 -12.99252,-9.41792 -12.99252,-21.03551 0,-11.61759 5.81695,-21.03551 12.99252,-21.03551 7.17557,0 12.99252,9.41792 12.99252,21.03551 z"
             fill="#ffb6b6"
             id="path26"
             style="stroke-width:2.03984" /></g></g></g></g></svg>
