<?xml version="1.0" encoding="UTF-8" standalone="no"?>
<!-- Created with Inkscape (http://www.inkscape.org/) -->

<svg
   width="500"
   height="500"
   viewBox="0 0 132.29166 132.29167"
   version="1.1"
   id="svg1"
   xml:space="preserve"
   inkscape:version="1.3.2 (091e20ef0f, 2023-11-25, custom)"
   sodipodi:docname="img8.svg"
   xmlns:inkscape="http://www.inkscape.org/namespaces/inkscape"
   xmlns:sodipodi="http://sodipodi.sourceforge.net/DTD/sodipodi-0.dtd"
   xmlns:xlink="http://www.w3.org/1999/xlink"
   xmlns="http://www.w3.org/2000/svg"
   xmlns:svg="http://www.w3.org/2000/svg"><sodipodi:namedview
     id="namedview1"
     pagecolor="#ffffff"
     bordercolor="#000000"
     borderopacity="0.25"
     inkscape:showpageshadow="2"
     inkscape:pageopacity="0.0"
     inkscape:pagecheckerboard="0"
     inkscape:deskcolor="#d1d1d1"
     inkscape:document-units="px"
     inkscape:zoom="0.44097222"
     inkscape:cx="395.71654"
     inkscape:cy="198.4252"
     inkscape:window-width="1360"
     inkscape:window-height="700"
     inkscape:window-x="0"
     inkscape:window-y="141"
     inkscape:window-maximized="1"
     inkscape:current-layer="g6"
     showguides="true"><sodipodi:guide
       position="65.999997,87.891669"
       orientation="1,0"
       id="guide4"
       inkscape:locked="false" /><sodipodi:guide
       position="258,65.691666"
       orientation="0,-1"
       id="guide5"
       inkscape:locked="false" /></sodipodi:namedview><defs
     id="defs1"><linearGradient
       id="ac3cc305-f6db-42f4-bbbd-32121ee27a74-1345"
       x1="403.57"
       y1="833.5"
       x2="403.57"
       y2="218.16"
       gradientUnits="userSpaceOnUse"><stop
         offset="0"
         stop-color="gray"
         stop-opacity="0.25"
         id="stop1" /><stop
         offset="0.54"
         stop-color="gray"
         stop-opacity="0.12"
         id="stop2" /><stop
         offset="1"
         stop-color="gray"
         stop-opacity="0.1"
         id="stop3" /></linearGradient><linearGradient
       id="ad14f186-b27f-416c-b629-0bafa2f1236e-1346"
       x1="940.67"
       y1="825.72"
       x2="940.67"
       y2="263.72"
       xlink:href="#ac3cc305-f6db-42f4-bbbd-32121ee27a74-1345"
       gradientTransform="matrix(2.6328359,0,0,2.6091546,-596.04277,-858.68121)" /><linearGradient
       id="60552b3d-cc23-4bcb-bcbd-c0b00e2743d7-1351"
       x1="454.54"
       y1="832.71"
       x2="454.54"
       y2="147.53"
       gradientUnits="userSpaceOnUse"
       gradientTransform="matrix(2.4462145,0,0,2.662965,-525.3314,-882.76374)"><stop
         offset="0"
         stop-color="gray"
         stop-opacity="0.25"
         id="stop1-3" /><stop
         offset="0.54"
         stop-color="gray"
         stop-opacity="0.12"
         id="stop2-6" /><stop
         offset="1"
         stop-color="gray"
         stop-opacity="0.1"
         id="stop3-7" /></linearGradient></defs><g
     inkscape:label="Camada 1"
     inkscape:groupmode="layer"
     id="layer1"><g
       id="g6"
       transform="matrix(0.26458333,0,0,0.26458333,-13.350422,-24.111387)"><g
         id="g12"
         transform="matrix(0.4087949,0,0,0.37552126,123.82532,231.2987)"
         style="stroke-width:2.55229"><g
           id="g11"
           transform="translate(-67.48022,-109.89038)"
           style="stroke-width:2.55229"><path
             d="m 1093.8,263.12 a 250.48,250.48 0 0 0 -40.75,-64.93 L 487.68,192.62 953.17,127.24 A 264.39,264.39 0 0 0 858.72,108.5 264.72,264.72 0 0 0 542.51,97.8 263.57,263.57 0 0 0 421.51,68.64 c -125.62,0 -230.3,87 -253.78,202.38 z"
             transform="translate(-86.32,-50.56)"
             fill="#6c63ff"
             opacity="0.1"
             id="path3"
             style="stroke-width:2.55229" /><path
             d="m 1113.68,359.88 a 244.38,244.38 0 0 0 -17.62,-91.32 L 116.2,371.41 a 245.29,245.29 0 0 0 -23,58 l 303.43,45.24 -310.36,33 c 9.34,130.61 121.31,233.75 258.09,233.75 68.85,0 131.42,-26.14 177.77,-68.76 46.51,43.43 109.67,70.13 179.26,70.13 103.26,0 192.38,-58.79 233.88,-143.8 83.27,-26.42 147.95,-92.78 170.09,-175.79 L 721.68,363.62 h 392 c -0.02,-1.25 0,-2.49 0,-3.74 z"
             transform="translate(-86.32,-50.56)"
             fill="#6c63ff"
             opacity="0.1"
             id="path4"
             style="stroke-width:2.55229" /><ellipse
             cx="286.67999"
             cy="761.67999"
             rx="227"
             ry="37.209999"
             fill="#6c63ff"
             id="ellipse4"
             style="stroke-width:2.55229" /><path
             d="m 607.77,572.54 c -10.21,2.56 -20.69,-2.42 -20.69,-2.42 0,0 -8.94,-10.35 -16.48,-11.75 -7.54,-1.4 -10.46,10.85 -14.94,14 -3.1,2.21 -25.46,0.63 -39,-0.55 l -2.33,-0.21 c -0.23,-0.17 -0.46,-0.35 -0.71,-0.51 0,0 -13,-4 -15.71,-7.54 -2.71,-3.54 -20.82,-10.09 -26.44,-9.71 -5.62,0.38 -22.23,1.28 -22.23,1.28 0,0 -6.51,-7.41 -9.45,-6.64 -2.94,0.77 -13.16,-0.06 -13.16,-0.06 0,0 -2.81,-7.22 -5.62,-17.57 -1.31,-4.83 -5.67,-8.22 -9.94,-10.45 3.84,-13 -3,-50.08 -24.24,-57.33 -4.63,-1.58 -7,-6.83 -10.94,-9.71 -3.53,-2.57 -9.31,-8.63 -6.48,-19.58 4,-15.33 13.92,-39.47 13.92,-39.47 l 7.39,-14.76 a 20.62,20.62 0 0 1 -2.34,2.93 c 1,-1.28 2,-2.54 2.86,-3.6 a 62.13,62.13 0 0 0 23.66,6.52 c 8.34,3.37 16.67,6.34 19.91,6.23 7.41,-0.26 26.31,9.2 26.31,9.2 0,0 45.47,13 54.92,14.05 9.45,1.05 14.05,-11.24 14.05,-11.24 0,0 4.91,-24.23 -3.81,-30.65 -8.72,-6.42 -13.79,23 -13.79,23 L 453,374.56 449.33,372.63 A 33.35,33.35 0 0 0 456,362.25 c 0.92,-2.29 1.76,-4.91 3.95,-6.05 a 5.58,5.58 0 0 1 1.88,-0.55 12.67,12.67 0 0 1 1.63,0 c 10.32,0.63 19.19,8.75 29.53,8.79 0.38,0 0.76,0 1.14,0 a 9.94,9.94 0 0 0 5.53,-1.7 8.68,8.68 0 0 0 3.18,-6.14 10.54,10.54 0 0 1 -0.5,0.94 12.33,12.33 0 0 0 0,-4.45 c -0.64,-3.51 -2.47,-6.66 -4.11,-9.83 a 5,5 0 0 1 -0.76,-2.46 3.39,3.39 0 0 1 1.29,-2.33 2.8,2.8 0 0 0 0.06,0.28 13.07,13.07 0 0 1 2.58,-1.89 22.06,22.06 0 0 0 9.64,-14.69 c -0.25,0.74 -0.55,1.47 -0.87,2.19 a 21.71,21.71 0 0 0 -1.05,-15.36 8.69,8.69 0 0 0 -2.66,-3.49 c -3.73,-2.62 -8.74,0.17 -13.29,0.47 -4,0.26 -7.88,-1.53 -11.49,-3.34 -6.16,-3.09 -12.29,-6.43 -17.42,-11 -5.83,-5.23 -10.16,-11.9 -15.42,-17.69 -5.26,-5.79 -12.01,-10.95 -19.84,-11.53 -14.23,-1.1 -27.65,13 -41.18,8.4 -6.6,-2.23 -10.94,-8.33 -15.53,-13.57 -4.59,-5.24 -10.9,-10.27 -17.78,-9.14 -4.78,0.8 -8.92,4.51 -13.76,4.37 -2.53,-0.08 -4.88,-1.21 -7.28,-2 -5.81,-1.95 -13.77,-1 -15.84,4.78 a 8.52,8.52 0 0 0 0.75,7.17 10.78,10.78 0 0 0 -0.82,1.35 4.62,4.62 0 0 0 -0.49,3 30.9,30.9 0 0 0 12.2,52.72 c 0.19,0.73 0.38,1.46 0.56,2.2 1.94,8.17 2.95,17.37 0.08,23.57 -0.18,0.38 -0.37,0.75 -0.58,1.11 l -0.25,0.11 0.11,0.11 v 0 l -0.11,-0.11 v 0 l -0.36,-0.37 v 0 l -2.18,-2.28 c -0.12,-2.38 -1.46,-8.76 -10.78,-20.6 -12.27,-15.59 -14.57,-41.39 -14.57,-41.39 0,0 -3.06,-13.28 0,-17.11 3.06,-3.83 8.18,-46 8.18,-46 L 317.83,195 c 0,0 41.13,-41.9 24,-47 -11.63,-3.47 -25.5,14.41 -33.2,26.23 a 46.77,46.77 0 0 0 -7.16,19.24 l -23.25,63.61 c 0,0 -2.3,7.67 0,20.95 2.3,13.28 7.41,36.79 7.41,36.79 l 13,32.95 c 0,0 4.79,14.23 4.37,20.41 -0.57,0.37 -2.57,4.33 -4.3,7.93 l -1.27,2 -0.09,0.81 c -0.85,1.81 -1.44,3.11 -1.44,3.11 0,0 -7.24,21.37 -1.19,34.48 6.05,13.11 6.29,19.19 6.29,19.19 l 4.51,19.42 1.88,17 16.22,40.11 14.94,21.33 c 0,0 -1.4,15.71 -4.47,17.88 -3.07,2.17 -1.66,13.41 -1.66,13.41 l -1.92,29.5 c 0,0 -6,8.82 -6.38,23.12 -0.38,14.3 -2.56,18.4 -2.56,18.4 0,0 -1,12 1.79,17.5 2.79,5.5 -4.47,11.24 -4.47,11.24 l 6.23,21.39 -2.43,27.08 c 0,0 1.13,0.31 3,0.78 l -0.38,1.94 -10.16,51.3 c 0,0 -5.49,14.06 -5.74,17.37 l -17.76,32.07 c 0,0 -14.82,14.69 -7.79,16.09 7.03,1.4 27.47,-11.24 27.47,-11.24 0,0 16.86,-18.14 23.5,-19.79 6.64,-1.65 14,-6.4 11.88,-13.29 -2.12,-6.89 -7,-17.37 -2.3,-28.49 3,-7 9.38,-26 13.76,-39.26 0.24,-0.73 0.47,-1.43 0.7,-2.11 a 17.77,17.77 0 0 0 3.42,-0.65 c 10.73,-3.32 16.35,-1 16.35,-1 l 19.16,-77.53 4.21,-38.9 26.83,22.38 a 32.25,32.25 0 0 0 18.8,7.43 c 10.57,0.62 27.06,2.15 39,5.84 l 5,-20.82 c 0,0 14.3,0.52 17.37,-4.34 1.25,-2 2.48,-3.7 3.49,-5 l 2.32,-0.36 63.29,-9.79 c 11.75,0 27.85,-7.93 27.85,-7.93 l 9.84,-1.91 c 0,0 14.68,-2.94 16,-5.37 1.32,-2.43 -13.79,-10.5 -24.02,-7.96 z"
             transform="translate(-86.32,-50.56)"
             fill="url(#60552b3d-cc23-4bcb-bcbd-c0b00e2743d7-1351)"
             id="path5"
             style="fill:url(#60552b3d-cc23-4bcb-bcbd-c0b00e2743d7-1351);stroke-width:2.55229" /><path
             d="m 320.58,260.27 c 2,-5.64 9.82,-6.59 15.51,-4.68 2.34,0.78 4.65,1.89 7.12,2 4.74,0.14 8.79,-3.5 13.47,-4.27 6.73,-1.12 12.9,3.8 17.39,8.93 4.49,5.13 8.75,11.1 15.21,13.29 13.23,4.46 26.37,-9.3 40.29,-8.23 7.64,0.59 14.24,5.62 19.39,11.29 5.15,5.67 9.39,12.19 15.09,17.31 5,4.5 11,7.77 17.05,10.8 3.53,1.77 7.3,3.52 11.24,3.26 4.46,-0.29 9.36,-3 13,-0.46 a 8.49,8.49 0 0 1 2.6,3.42 c 4.48,9.32 0.87,21.73 -7.9,27.21 -1.53,0.95 -3.39,2 -3.48,3.83 a 4.82,4.82 0 0 0 0.74,2.41 c 1.6,3.1 3.4,6.19 4,9.62 0.6,3.43 -0.21,7.38 -3,9.46 a 10.18,10.18 0 0 1 -6.17,1.69 c -10.12,-0.05 -18.8,-8 -28.9,-8.61 a 7.3,7.3 0 0 0 -3.79,0.58 c -2.14,1.11 -3,3.68 -3.87,5.92 -4.68,11.69 -16.3,19.82 -28.7,22.05 -12.4,2.23 -25.35,-0.91 -36.45,-6.87 a 8.61,8.61 0 0 1 -2.21,-1.52 9.45,9.45 0 0 1 -1.91,-3.87 c -3.4,-10.75 -8,-22 -17.42,-28.21 -6.11,-4 -14.4,-6.25 -17.17,-13 -1.74,-4.27 -0.65,-9.12 -1.09,-13.72 a 21.09,21.09 0 0 0 -13.93,-17.58 c -1.64,-0.55 -3.44,-0.94 -4.64,-2.19 a 8.64,8.64 0 0 1 -1.8,-4.25 c -1.49,-6.77 -2.48,-13.92 -4.56,-20.53 -1.59,-5.18 -7.24,-9.15 -5.11,-15.08 z"
             transform="translate(-86.32,-50.56)"
             fill="#663d5b"
             id="path6"
             style="stroke-width:2.55229" /><g
             opacity="0.1"
             id="g8"
             style="stroke-width:2.55229"><path
               d="M 499.47,362.35 A 10.22,10.22 0 0 1 493.3,364 c -10.11,0 -18.79,-8 -28.89,-8.6 a 7.29,7.29 0 0 0 -3.79,0.57 c -2.15,1.11 -3,3.68 -3.87,5.92 -4.68,11.7 -16.31,19.83 -28.71,22.06 -12.4,2.23 -25.35,-0.91 -36.44,-6.87 a 8.69,8.69 0 0 1 -2.21,-1.52 9.51,9.51 0 0 1 -1.91,-3.87 c -3.4,-10.76 -8,-22 -17.42,-28.22 -6.12,-4.05 -14.41,-6.24 -17.17,-13 -1.75,-4.28 -0.66,-9.13 -1.09,-13.72 a 21.07,21.07 0 0 0 -13.94,-17.58 c -1.64,-0.55 -3.44,-0.95 -4.64,-2.19 a 8.57,8.57 0 0 1 -1.79,-4.26 c -1.5,-6.76 -2.48,-13.92 -4.56,-20.52 -1.4,-4.42 -5.81,-8 -5.59,-12.72 a 6.65,6.65 0 0 0 -0.34,0.77 c -2.14,5.93 3.52,9.9 5.13,15 2.08,6.6 3.06,13.76 4.56,20.52 a 8.57,8.57 0 0 0 1.79,4.26 c 1.2,1.24 3,1.64 4.64,2.19 A 21.07,21.07 0 0 1 351,319.81 c 0.43,4.59 -0.66,9.44 1.09,13.72 2.76,6.79 11.05,9 17.17,13 9.4,6.23 14,17.46 17.42,28.22 a 9.51,9.51 0 0 0 1.91,3.87 8.69,8.69 0 0 0 2.21,1.52 c 11.09,6 24,9.09 36.44,6.87 12.44,-2.22 24,-10.36 28.71,-22.06 0.9,-2.24 1.73,-4.81 3.87,-5.92 a 7.29,7.29 0 0 1 3.79,-0.57 c 10.1,0.61 18.78,8.56 28.89,8.6 a 10.22,10.22 0 0 0 6.17,-1.68 8.48,8.48 0 0 0 3.12,-6 7.43,7.43 0 0 1 -2.32,2.97 z"
               transform="translate(-86.32,-50.56)"
               id="path7"
               style="stroke-width:2.55229" /><path
               d="m 501.21,337 c -1.53,1 -3.4,2 -3.49,3.83 a 3.05,3.05 0 0 0 0.17,1.08 12.59,12.59 0 0 1 2.52,-1.85 21.55,21.55 0 0 0 9.43,-14.37 21.07,21.07 0 0 1 -8.63,11.31 z"
               transform="translate(-86.32,-50.56)"
               id="path8"
               style="stroke-width:2.55229" /></g><path
             d="m 346.75,754 c -4.63,10.88 0.13,21.12 2.25,27.88 2.12,6.76 -5.12,11.37 -11.62,13 -6.5,1.63 -23,19.37 -23,19.37 0,0 -20,12.37 -26.88,11 -6.88,-1.37 7.62,-15.75 7.62,-15.75 l 17.38,-31.38 c 0.25,-3.24 5.62,-17 5.62,-17 l 9.94,-50.2 1.32,-6.67 35.24,-2.13 c 0,0 -1.85,5.72 -4.4,13.45 -4.29,13 -10.57,31.64 -13.47,38.43 z"
             transform="translate(-86.32,-50.56)"
             fill="#cc818c"
             id="path9"
             style="stroke-width:2.55229" /><path
             d="m 628,578.53 c -1.25,2.38 -15.62,5.25 -15.62,5.25 l -9.63,1.87 c 0,0 -15.75,7.76 -27.25,7.76 l -61.94,9.59 -8.31,1.29 v -35.14 c 0,0 4.18,0.44 10.1,1 13.23,1.16 35.12,2.7 38.15,0.54 4.38,-3.12 7.25,-15.12 14.62,-13.74 7.37,1.38 16.13,11.5 16.13,11.5 0,0 10.25,4.87 20.25,2.37 10,-2.5 24.75,5.33 23.5,7.71 z"
             transform="translate(-86.32,-50.56)"
             fill="#cc818c"
             id="path10"
             style="stroke-width:2.55229" /><path
             d="m 515.75,600.28 c 0,0 -0.89,1 -2.19,2.71 l -8.31,1.29 v -35.13 c 0,0 4.18,0.44 10.1,1 9.94,7.85 0.4,30.13 0.4,30.13 z"
             transform="translate(-86.32,-50.56)"
             opacity="0.1"
             id="path11"
             style="stroke-width:2.55229" /><path
             d="m 396.13,592.16 33.27,27.76 a 31.58,31.58 0 0 0 18.4,7.27 c 10.34,0.61 26.48,2.1 38.2,5.72 l 4.88,-20.38 c 0,0 14,0.5 17,-4.25 a 68.93,68.93 0 0 1 5.87,-8 c 0,0 10.13,-23.62 -1.37,-30.87 0,0 -12.75,-3.88 -15.38,-7.38 -2.63,-3.5 -20.37,-9.87 -25.87,-9.5 -5.5,0.37 -21.75,1.25 -21.75,1.25 0,0 -6.38,-7.25 -9.25,-6.5 -2.87,0.75 -12.88,0 -12.88,0 0,0 -2.75,-7.07 -5.5,-17.2 -2.75,-10.13 -19.12,-13.75 -19.12,-13.75 z"
             transform="translate(-86.32,-50.56)"
             fill="#565987"
             id="path12"
             style="stroke-width:2.55229" /><path
             d="m 396.13,592.16 33.27,27.76 a 31.58,31.58 0 0 0 18.4,7.27 c 10.34,0.61 26.48,2.1 38.2,5.72 l 4.88,-20.38 c 0,0 14,0.5 17,-4.25 a 68.93,68.93 0 0 1 5.87,-8 c 0,0 10.13,-23.62 -1.37,-30.87 0,0 -12.75,-3.88 -15.38,-7.38 -2.63,-3.5 -20.37,-9.87 -25.87,-9.5 -5.5,0.37 -21.75,1.25 -21.75,1.25 0,0 -6.38,-7.25 -9.25,-6.5 -2.87,0.75 -12.88,0 -12.88,0 0,0 -2.75,-7.07 -5.5,-17.2 -2.75,-10.13 -19.12,-13.75 -19.12,-13.75 z"
             transform="translate(-86.32,-50.56)"
             opacity="0.1"
             id="path13"
             style="stroke-width:2.55229" /><path
             d="m 381.25,343.28 -3.68,0.69 h -0.23 l -0.54,0.1 -6.3,1.17 -1.94,2.3 -0.08,0.08 -6.23,7.38 -5.25,5.15 -0.05,0.06 -4.44,4.32 -7.51,7.47 -1.26,3.11 -2.74,6.89 -0.71,1.75 -7.5,8 -4.79,10.25 -11.2,6.5 -12.05,-6.25 -5.5,-8 1.25,-11.46 0.25,-2.29 3.67,-5.89 3.33,-5.36 6.5,-9.25 12.5,-8.5 2.24,-0.59 2.51,-0.66 a 9.29,9.29 0 0 0 0.53,-0.85 10.23,10.23 0 0 0 0.57,-1.09 c 2.81,-6.06 1.82,-15.07 -0.08,-23.06 a 116,116 0 0 0 -5.77,-17.5 l 33,-4.75 c 0,0 -0.32,6.4 -0.32,16.38 v 0 c 0,2.5 0,5.21 0.07,8.11 0.16,9 8.52,12.9 14.83,14.56 a 41.56,41.56 0 0 0 4.94,1 c 1.22,0.19 1.98,0.23 1.98,0.23 z"
             transform="translate(-86.32,-50.56)"
             fill="#cc818c"
             id="path14"
             style="stroke-width:2.55229" /><path
             d="m 329.25,348 c 0,0 1.5,-6 -10.5,-21.25 -12,-15.25 -14.25,-40.5 -14.25,-40.5 0,0 -3,-13 0,-16.75 3,-3.75 8,-45 8,-45 l 8.25,-23.25 c 0,0 40.25,-41 23.5,-46 -11.38,-3.4 -25,14.11 -32.49,25.67 a 45.75,45.75 0 0 0 -7,18.83 v 0 L 282,262 c 0,0 -2.25,7.5 0,20.5 2.25,13 7.25,36 7.25,36 L 302,350.78 c 0,0 6.71,20.1 3.23,22.55 L 313,361.84 Z"
             transform="translate(-86.32,-50.56)"
             fill="#cc818c"
             id="path15"
             style="stroke-width:2.55229" /><path
             d="m 528.5,405.53 c 0,0 -4.5,12 -13.75,11 -9.25,-1 -53.75,-13.75 -53.75,-13.75 0,0 -18.5,-9.25 -25.75,-9 -7.25,0.25 -40.5,-15.25 -40.5,-15.25 0,0 -2.34,3.08 -4.95,6.32 -2.84,3.55 -6,7.3 -6.8,7.43 -1.5,0.25 -24.75,3.5 -24.75,3.5 L 342.5,388.53 341,382 l -0.71,-3 3.49,-3.89 4.59,-5.11 8.61,-9.82 0.05,-0.06 11.49,-12.49 0.08,-0.08 7.36,-3 1.42,-0.58 h 0.23 c 0.88,-0.15 4.26,-0.46 8.79,2.1 a 25.2,25.2 0 0 0 10.27,3.18 32.12,32.12 0 0 1 19.33,8.28 l 37,19.47 58.25,21 c 0,0 5,-28.75 13.5,-22.5 8.5,6.25 3.75,30.03 3.75,30.03 z"
             transform="translate(-86.32,-50.56)"
             fill="#cc818c"
             id="path16"
             style="stroke-width:2.55229" /><path
             d="m 389.8,384.85 c -2.84,3.55 -6,7.3 -6.8,7.43 -1.5,0.25 -24.75,3.5 -24.75,3.5 L 342.5,388.53 341,382 l -0.71,1.75 -7.5,8 -4.79,10.25 -11.2,6.5 -12.05,-6.25 -5.5,-8 1.25,-11.46 c 0.63,-1.36 2.35,-5.06 3.92,-8.18 a 25,25 0 0 1 2.78,-4.86 c 1,-0.66 2.05,-7.75 2.05,-7.75 4.54,-13.09 19.75,-15.1 19.75,-15.1 l 2.43,2.28 1.06,1.1 c -0.43,-0.07 0.08,-1 -0.47,-0.85 -0.88,0.25 -1.27,1.58 -2.4,2.31 -6.15,4 -15.76,13.33 -19.56,17.76 -0.92,1.07 -1.87,2.12 -2.84,3.14 -5.49,5.81 -4.48,13.51 -4.48,13.51 -1.37,6 10.75,10.5 10.75,10.5 3.38,-5.62 26.25,-21.12 26.25,-21.12 l 15.4,-17.25 c 4.72,-8.22 14,-13.65 19.18,-16.19 2.29,-1.12 3.79,-1.68 3.79,-1.68 l 5.76,2.46 a 7.68,7.68 0 0 0 -4.61,0.2 15.75,15.75 0 0 0 -2.47,1 c -0.3,0.15 -0.6,0.31 -0.88,0.48 a 27.55,27.55 0 0 0 -4.42,3.19 l -12.94,14.13 c -9.89,10.79 -2.44,28.24 12.19,28.49 h 0.13 c 8.94,2.06 15.35,-2.08 18.93,-5.51 z"
             transform="translate(-86.32,-50.56)"
             opacity="0.1"
             id="path17"
             style="stroke-width:2.55229" /><path
             d="m 364.62,702.15 c 0,0 -1.85,5.72 -4.4,13.45 -9.78,0.73 -25.93,-3.05 -32.16,-4.65 l 1.32,-6.67 z"
             transform="translate(-86.32,-50.56)"
             opacity="0.1"
             id="path18"
             style="stroke-width:2.55229" /><path
             d="M 332.5,350.28 329.3,347 c 0,0 -11.55,1.58 -18.72,13.92 0,0 -3.35,9.25 -4.38,9.91 -1.03,0.66 -6.95,13.59 -6.95,13.59 0,0 -7.08,20.91 -1.17,33.75 5.91,12.84 6.17,18.75 6.17,18.75 l 4.42,19 1.83,16.66 15.88,39.25 14.62,20.83 c 0,0 -1.37,15.37 -4.37,17.5 -3,2.13 -1.63,13.12 -1.63,13.12 l -1.87,28.88 c 0,0 -5.88,8.62 -6.25,22.62 -0.37,14 -2.5,18 -2.5,18 0,0 -1,11.75 1.75,17.13 2.75,5.38 -4.38,11 -4.38,11 l 6.13,20.87 -2.38,26.5 c 0,0 28.25,7.88 38.75,4.63 10.5,-3.25 16,-1 16,-1 L 399,636 l 6.5,-59.62 c 0,0 0.38,-42.25 6,-55.13 4.82,-11 -1.5,-50.19 -23.21,-57.59 -4.53,-1.54 -6.83,-6.68 -10.7,-9.5 -3.46,-2.51 -9.11,-8.44 -6.34,-19.16 3.88,-15 13.63,-38.62 13.63,-38.62 L 392.1,382 c 0,0 -7.85,12.7 -22.22,9.45 h -0.13 c -14.63,-0.26 -22.08,-17.71 -12.19,-28.49 l 12.94,-14.14 c 0,0 7.13,-6.57 12.38,-4.91 l -5.75,-2.46 c 0,0 -16.19,6 -23,17.87 l -15.4,17.25 c 0,0 -22.85,15.43 -26.23,21.09 0,0 -12.12,-4.5 -10.75,-10.5 0,0 -1,-7.71 4.48,-13.52 1,-1 1.92,-2.06 2.84,-3.13 4.93,-5.76 18.56,-21.04 23.43,-20.23 z"
             transform="translate(-86.32,-50.56)"
             fill="#565987"
             id="path19"
             style="stroke-width:2.55229" /><path
             d="m 334.38,453.28 c 0,0 -3.63,26.38 -0.88,31.75 z"
             transform="translate(-86.32,-50.56)"
             opacity="0.1"
             id="path20"
             style="stroke-width:2.55229" /><path
             d="m 336.75,463.53 3.88,15.13 c 0,0 1.37,-9.25 -3.88,-15.13 z"
             transform="translate(-86.32,-50.56)"
             opacity="0.1"
             id="path21"
             style="stroke-width:2.55229" /><path
             d="m 313.75,460 c 0,0 7.75,38.5 16.25,50.13"
             transform="translate(-86.32,-50.56)"
             opacity="0.1"
             id="path22"
             style="stroke-width:2.55229" /><path
             d="m 368.38,506.41 c 0,0 -13.25,12.5 -18.38,11.59 0,0 20.38,0.88 26.75,-9.87 0,0.03 -4.12,-2.97 -8.37,-1.72 z"
             transform="translate(-86.32,-50.56)"
             opacity="0.1"
             id="path23"
             style="stroke-width:2.55229" /><path
             d="m 386.75,505.41 c 0,0 -17,12.37 -20.37,13.5 0,0 18.37,-5.25 20.37,-13.5 z"
             transform="translate(-86.32,-50.56)"
             opacity="0.1"
             id="path24"
             style="stroke-width:2.55229" /><path
             d="m 329.25,413.53 c 0,0 -8.5,10.88 -12.75,9.63 0,0 10.38,0.37 12.75,-9.63 z"
             transform="translate(-86.32,-50.56)"
             opacity="0.1"
             id="path25"
             style="stroke-width:2.55229" /><path
             d="m 338.88,427.53 c 0,0 18.5,-25.12 27.25,-24.12 0,0 -21,18.25 -27.25,24.12 z"
             transform="translate(-86.32,-50.56)"
             opacity="0.1"
             id="path26"
             style="stroke-width:2.55229" /><path
             d="m 364.5,418.39 c 0,0 -11.75,5.89 -10.5,7.61 1.25,1.72 10.5,-7.61 10.5,-7.61 z"
             transform="translate(-86.32,-50.56)"
             opacity="0.1"
             id="path27"
             style="stroke-width:2.55229" /><path
             d="m 373,611.28 c 0,0 -39.25,22.88 -42.87,24 0,0 6.75,5.13 13.12,2.63 6.37,-2.5 29.75,-26.63 29.75,-26.63 z"
             transform="translate(-86.32,-50.56)"
             opacity="0.1"
             id="path28"
             style="stroke-width:2.55229" /><path
             d="m 340.13,658.91 c 0,0 -15.75,-1.63 -15.13,3.5 0.62,5.13 15.13,-3.5 15.13,-3.5 z"
             transform="translate(-86.32,-50.56)"
             opacity="0.1"
             id="path29"
             style="stroke-width:2.55229" /><path
             d="m 359.75,303 c 0,0 -0.32,6.4 -0.32,16.38 v 0 a 30.28,30.28 0 0 1 -26.91,5.86 116,116 0 0 0 -5.77,-17.5 z"
             transform="translate(-86.32,-50.56)"
             opacity="0.1"
             id="path30"
             style="stroke-width:2.55229" /><circle
             cx="253.92999"
             cy="243.48"
             r="30.25"
             fill="#cc818c"
             id="circle30"
             style="stroke-width:2.55229" /><path
             d="m 348.18,312.5 c 0.85,12.37 3.45,26.52 14.19,32.74 7.76,4.49 17.54,3.31 26.13,0.75 8.59,-2.56 17,-6.38 25.94,-6.81 6.87,-0.33 13.66,1.36 20.51,1.79 6.85,0.43 14.35,-0.64 19.24,-5.46 7,-6.86 5.72,-19.33 -0.91,-26.54 -6.63,-7.21 -17,-9.83 -26.82,-9.56 -12,0.33 -25.4,4 -34.89,-3.28 -6.37,-4.9 -8.78,-13.4 -14.14,-19.39 -8.95,-10 -48.53,-24.44 -56.91,-8.14 -3.93,7.63 13.93,13.08 18.07,18.6 6.54,8.71 8.81,13.88 9.59,25.3 z"
             transform="translate(-86.32,-50.56)"
             opacity="0.1"
             id="path31"
             style="stroke-width:2.55229" /><path
             d="m 349.11,311.43 c 0.86,12.38 3.45,26.53 14.19,32.74 7.76,4.49 17.54,3.31 26.13,0.76 8.59,-2.55 17,-6.38 25.95,-6.81 6.86,-0.33 13.65,1.35 20.51,1.79 6.86,0.44 14.34,-0.64 19.23,-5.46 7,-6.87 5.72,-19.33 -0.91,-26.54 -6.63,-7.21 -17,-9.83 -26.81,-9.56 -12,0.32 -25.41,4 -34.9,-3.29 -6.37,-4.9 -8.78,-13.39 -14.14,-19.39 -8.95,-10 -48.53,-24.43 -56.91,-8.13 -3.93,7.62 13.93,13.07 18.08,18.6 6.53,8.7 8.8,13.86 9.58,25.29 z"
             transform="translate(-86.32,-50.56)"
             fill="#663d5b"
             id="path32"
             style="stroke-width:2.55229" /><path
             d="M 312.73,396.64 A 27.94,27.94 0 0 1 324.62,376.9"
             transform="translate(-86.32,-50.56)"
             opacity="0.1"
             id="path33"
             style="stroke-width:2.55229" /><path
             d="m 426.15,553.28 a 9.85,9.85 0 0 1 -0.71,2.85 90.93,90.93 0 0 1 -4.72,11.47 c 2.67,-0.23 4.87,-2.33 6,-4.75 a 23,23 0 0 0 1.61,-7.81 14.16,14.16 0 0 0 0.07,-2.52 c -0.07,-0.78 -0.57,-3.76 -1.86,-3.23 -1.04,0.44 -0.37,3.2 -0.39,3.99 z"
             transform="translate(-86.32,-50.56)"
             opacity="0.1"
             id="path34"
             style="stroke-width:2.55229" /><path
             d="m 456.92,331.32 c -4.9,4.82 -12.38,5.9 -19.24,5.46 -6.86,-0.44 -13.68,-2.12 -20.51,-1.78 -9,0.43 -17.34,4.25 -25.94,6.81 -8.6,2.56 -18.37,3.74 -26.14,-0.75 -10.73,-6.22 -13.33,-20.37 -14.18,-32.74 -0.78,-11.42 -3.06,-16.59 -9.59,-25.3 -3.95,-5.27 -20.35,-10.47 -18.47,-17.55 a 11.14,11.14 0 0 0 -1.4,2.08 c -3.93,7.62 13.93,13.07 18.08,18.6 6.53,8.7 8.8,13.88 9.58,25.29 0.86,12.38 3.45,26.53 14.19,32.74 7.76,4.49 17.54,3.31 26.13,0.76 8.59,-2.55 17,-6.38 25.95,-6.81 6.86,-0.33 13.65,1.35 20.51,1.79 6.86,0.44 14.34,-0.64 19.23,-5.46 a 14.92,14.92 0 0 0 3.25,-4.82 14.4,14.4 0 0 1 -1.45,1.68 z"
             transform="translate(-86.32,-50.56)"
             opacity="0.1"
             id="path35"
             style="stroke-width:2.55229" /><polygon
             points="232.24,377.36 224.24,371.69 220.57,379.69 "
             fill="#cc818c"
             id="polygon35"
             style="stroke-width:2.55229" /><polygon
             points="220.57,379.69 224.24,371.69 221.22,379.69 "
             opacity="0.1"
             id="polygon36"
             style="stroke-width:2.55229" /><ellipse
             cx="513.02002"
             cy="729.16998"
             rx="41"
             ry="5.6300001"
             fill="#6c63ff"
             opacity="0.1"
             id="ellipse36"
             style="stroke-width:2.55229" /><ellipse
             cx="670.07001"
             cy="745.09003"
             rx="41"
             ry="5.6300001"
             fill="#6c63ff"
             opacity="0.1"
             id="ellipse37"
             style="stroke-width:2.55229" /><ellipse
             cx="855.06"
             cy="723.53998"
             rx="41"
             ry="5.6300001"
             fill="#6c63ff"
             opacity="0.1"
             id="ellipse38"
             style="stroke-width:2.55229" /><ellipse
             cx="607.21002"
             cy="790.42999"
             rx="29.139999"
             ry="4"
             fill="#6c63ff"
             opacity="0.1"
             id="ellipse39"
             style="stroke-width:2.55229" /><ellipse
             cx="770.21002"
             cy="786.42999"
             rx="29.139999"
             ry="4"
             fill="#6c63ff"
             opacity="0.1"
             id="ellipse40"
             style="stroke-width:2.55229" /><path
             d="m 757.28,794.39 c 0,0 -57.5,-188.5 9,-264 49.74,-56.48 106.21,-49.72 131.5,-42.74 a 46.71,46.71 0 0 1 30.16,25.07 c 8.84,19.08 7.25,50 -55.16,86.17 -104.5,60.5 -111,143.5 -111,143.5 z"
             transform="translate(-86.32,-50.56)"
             fill="#6c63ff"
             id="path40"
             style="stroke-width:2.55229" /><path
             d="m 888.78,514.39 c 0,0 -169.5,53 -131.5,280"
             transform="translate(-86.32,-50.56)"
             fill="none"
             stroke="#565987"
             stroke-miterlimit="10"
             id="path41"
             style="stroke-width:2.55229" /><path
             d="m 789.78,533.39 c 0,0 23.33,15.73 15.92,39.36"
             transform="translate(-86.32,-50.56)"
             fill="none"
             stroke="#565987"
             stroke-miterlimit="10"
             id="path42"
             style="stroke-width:2.55229" /><path
             d="m 871.78,547.39 c 0,0 -14.27,-14.52 -31.64,-6.51"
             transform="translate(-86.32,-50.56)"
             fill="none"
             stroke="#565987"
             stroke-miterlimit="10"
             id="path43"
             style="stroke-width:2.55229" /><path
             d="m 804.78,620.39 c 0,0 -25.06,-12.72 -31.54,3.21"
             transform="translate(-86.32,-50.56)"
             fill="none"
             stroke="#565987"
             stroke-miterlimit="10"
             id="path44"
             style="stroke-width:2.55229" /><path
             d="m 742.78,646.89 c 0,0 18.81,-1.5 19.15,7.5"
             transform="translate(-86.32,-50.56)"
             fill="none"
             stroke="#565987"
             stroke-miterlimit="10"
             id="path45"
             style="stroke-width:2.55229" /><path
             d="m 755,795.89 c 0,0 67.34,-137 85.84,-134 8.79,1.42 12.84,10.07 14.67,18.75 A 55.1,55.1 0 0 1 851.79,714 c -9.55,21.91 -35.22,63.54 -96.79,81.89 z"
             transform="translate(-86.32,-50.56)"
             fill="#6c63ff"
             id="path46"
             style="stroke-width:2.55229" /><path
             d="m 840.29,687.89 c 0,0 -70.68,102.5 -84.34,107"
             transform="translate(-86.32,-50.56)"
             fill="none"
             stroke="#565987"
             stroke-miterlimit="10"
             id="path47"
             style="stroke-width:2.55229" /><line
             x1="760.46997"
             y1="653.33002"
             x2="743.96997"
             y2="653.33002"
             fill="none"
             stroke="#565987"
             stroke-miterlimit="10"
             id="line47"
             style="stroke-width:2.55229" /><line
             x1="740.71002"
             y1="690.83002"
             x2="714.84998"
             y2="691.94"
             fill="none"
             stroke="#565987"
             stroke-miterlimit="10"
             id="line48"
             style="stroke-width:2.55229" /><line
             x1="724.96997"
             y1="660.83002"
             x2="727.78003"
             y2="674.29999"
             fill="none"
             stroke="#565987"
             stroke-miterlimit="10"
             id="line49"
             style="stroke-width:2.55229" /><line
             x1="697.46997"
             y1="701.83002"
             x2="697.96997"
             y2="714.07001"
             fill="none"
             stroke="#565987"
             stroke-miterlimit="10"
             id="line50"
             style="stroke-width:2.55229" /><path
             d="m 757,795.89 c 0,0 -67.34,-137 -85.84,-134 -8.79,1.42 -12.84,10.07 -14.67,18.75 a 55.1,55.1 0 0 0 3.62,33.36 c 9.55,21.91 35.22,63.54 96.89,81.89 z"
             transform="translate(-86.32,-50.56)"
             fill="#6c63ff"
             id="path50"
             style="stroke-width:2.55229" /><path
             d="m 671.61,687.89 c 0,0 70.68,102.5 84.34,107"
             transform="translate(-86.32,-50.56)"
             fill="none"
             stroke="#565987"
             stroke-miterlimit="10"
             id="path51"
             style="stroke-width:2.55229" /><line
             x1="578.78003"
             y1="653.33002"
             x2="595.28003"
             y2="653.33002"
             fill="none"
             stroke="#565987"
             stroke-miterlimit="10"
             id="line51"
             style="stroke-width:2.55229" /><line
             x1="598.54999"
             y1="690.83002"
             x2="624.40997"
             y2="691.94"
             fill="none"
             stroke="#565987"
             stroke-miterlimit="10"
             id="line52"
             style="stroke-width:2.55229" /><line
             x1="614.28003"
             y1="660.83002"
             x2="611.47998"
             y2="674.29999"
             fill="none"
             stroke="#565987"
             stroke-miterlimit="10"
             id="line53"
             style="stroke-width:2.55229" /><line
             x1="641.78003"
             y1="701.83002"
             x2="641.28003"
             y2="714.07001"
             fill="none"
             stroke="#565987"
             stroke-miterlimit="10"
             id="line54"
             style="stroke-width:2.55229" /><path
             d="m 872.58,827.88 a 11.63,11.63 0 0 0 3.84,-5.78 c 0.49,-2.3 -0.49,-5.05 -2.68,-5.89 -2.46,-0.94 -5.09,0.76 -7.08,2.48 -1.99,1.72 -4.28,3.69 -6.89,3.32 a 10.47,10.47 0 0 0 3.23,-9.81 4,4 0 0 0 -0.9,-2 c -1.36,-1.46 -3.84,-0.83 -5.48,0.32 -5.2,3.66 -6.65,10.72 -6.67,17.08 -0.53,-2.3 -0.09,-4.69 -0.1,-7 -0.01,-2.31 -0.66,-5 -2.64,-6.22 a 8,8 0 0 0 -4,-1 c -2.34,-0.08 -4.94,0.15 -6.54,1.86 -2,2.12 -1.47,5.69 0.26,8 1.73,2.31 4.35,3.8 6.76,5.42 a 14.82,14.82 0 0 1 4.84,4.61 4.41,4.41 0 0 1 0.36,0.82 h 14.65 a 40.77,40.77 0 0 0 9.04,-6.21 z"
             transform="translate(-86.32,-50.56)"
             fill="#6c63ff"
             id="path54"
             style="stroke-width:2.55229" /><path
             d="m 616,772.71 a 11.64,11.64 0 0 0 3.83,-5.79 c 0.5,-2.3 -0.48,-5 -2.68,-5.89 -2.46,-0.94 -5.08,0.76 -7.08,2.49 -2,1.73 -4.28,3.68 -6.88,3.32 a 10.5,10.5 0 0 0 3.21,-9.84 4.08,4.08 0 0 0 -0.9,-2 c -1.37,-1.46 -3.84,-0.84 -5.48,0.31 -5.2,3.66 -6.65,10.72 -6.68,17.08 -0.52,-2.29 -0.08,-4.68 -0.09,-7 -0.01,-2.32 -0.66,-5 -2.65,-6.23 a 7.91,7.91 0 0 0 -4,-0.94 c -2.33,-0.09 -4.94,0.14 -6.53,1.85 -2,2.13 -1.47,5.69 0.25,8 1.72,2.31 4.35,3.8 6.77,5.42 a 15,15 0 0 1 4.83,4.61 4.16,4.16 0 0 1 0.36,0.83 h 14.66 a 41.11,41.11 0 0 0 9.06,-6.22 z"
             transform="translate(-86.32,-50.56)"
             fill="#6c63ff"
             id="path55"
             style="stroke-width:2.55229" /><path
             d="m 701.49,827.88 a 11.63,11.63 0 0 0 3.84,-5.78 c 0.49,-2.3 -0.49,-5.05 -2.68,-5.89 -2.46,-0.94 -5.09,0.76 -7.08,2.48 -1.99,1.72 -4.28,3.69 -6.89,3.32 a 10.47,10.47 0 0 0 3.24,-9.81 4,4 0 0 0 -0.9,-2 c -1.36,-1.46 -3.84,-0.83 -5.48,0.32 -5.2,3.66 -6.65,10.72 -6.67,17.08 -0.53,-2.3 -0.09,-4.69 -0.1,-7 -0.01,-2.31 -0.66,-5 -2.64,-6.22 a 8,8 0 0 0 -4,-1 c -2.34,-0.08 -4.94,0.15 -6.54,1.86 -2,2.12 -1.47,5.69 0.26,8 1.73,2.31 4.35,3.8 6.76,5.42 a 14.82,14.82 0 0 1 4.84,4.61 4.41,4.41 0 0 1 0.36,0.82 h 14.65 a 40.77,40.77 0 0 0 9.03,-6.21 z"
             transform="translate(-86.32,-50.56)"
             fill="#6c63ff"
             id="path56"
             style="stroke-width:2.55229" /><path
             d="m 944,716.35 c 0,0 5.5,7.18 -2.53,18 -8.03,10.82 -14.65,20 -12,26.76 0,0 12.12,-20.14 22,-20.42 9.88,-0.28 3.42,-12.23 -7.47,-24.34 z"
             transform="translate(-86.32,-50.56)"
             fill="#6c63ff"
             id="path57"
             style="stroke-width:2.55229" /><path
             d="m 944,716.35 a 8.63,8.63 0 0 1 1.12,2.25 c 9.63,11.3 14.75,21.85 5.5,22.12 -8.61,0.24 -18.94,15.65 -21.42,19.54 a 9.06,9.06 0 0 0 0.29,0.88 c 0,0 12.12,-20.14 22,-20.42 9.88,-0.28 3.4,-12.26 -7.49,-24.37 z"
             transform="translate(-86.32,-50.56)"
             opacity="0.1"
             id="path58"
             style="stroke-width:2.55229" /><path
             d="m 954.25,725.5 c 0,2.53 -0.28,4.58 -0.63,4.58 -0.35,0 -0.62,-2.08 -0.62,-4.58 0,-2.5 0.35,-1.33 0.7,-1.33 0.35,0 0.55,-1.17 0.55,1.33 z"
             transform="translate(-86.32,-50.56)"
             fill="#ffd037"
             id="path59"
             style="stroke-width:2.55229" /><path
             d="m 957.76,728.52 c -2.22,1.21 -4.16,1.94 -4.32,1.64 -0.16,-0.3 1.49,-1.54 3.71,-2.75 2.22,-1.21 1.35,-0.33 1.51,0 0.16,0.33 1.34,-0.1 -0.9,1.11 z"
             transform="translate(-86.32,-50.56)"
             fill="#ffd037"
             id="path60"
             style="stroke-width:2.55229" /><path
             d="m 915,716.35 c 0,0 -5.5,7.18 2.53,18 8.03,10.82 14.65,20 12,26.76 0,0 -12.11,-20.14 -22,-20.42 -9.89,-0.28 -3.35,-12.23 7.47,-24.34 z"
             transform="translate(-86.32,-50.56)"
             fill="#6c63ff"
             id="path61"
             style="stroke-width:2.55229" /><path
             d="m 915,716.35 a 8.82,8.82 0 0 0 -1.13,2.25 c -9.62,11.3 -14.74,21.85 -5.5,22.12 8.62,0.24 19,15.65 21.43,19.54 a 7,7 0 0 1 -0.3,0.88 c 0,0 -12.11,-20.14 -22,-20.42 -9.89,-0.28 -3.32,-12.26 7.5,-24.37 z"
             transform="translate(-86.32,-50.56)"
             opacity="0.1"
             id="path62"
             style="stroke-width:2.55229" /><path
             d="m 904.81,725.5 c 0,2.53 0.29,4.58 0.64,4.58 0.35,0 0.63,-2.05 0.63,-4.58 0,-2.53 -0.35,-1.33 -0.7,-1.33 -0.35,0 -0.57,-1.17 -0.57,1.33 z"
             transform="translate(-86.32,-50.56)"
             fill="#ffd037"
             id="path63"
             style="stroke-width:2.55229" /><path
             d="m 901.31,728.52 c 2.22,1.21 4.15,1.94 4.32,1.64 0.17,-0.3 -1.49,-1.54 -3.71,-2.75 -2.22,-1.21 -1.35,-0.33 -1.52,0 -0.17,0.33 -1.31,-0.1 0.91,1.11 z"
             transform="translate(-86.32,-50.56)"
             fill="#ffd037"
             id="path64"
             style="stroke-width:2.55229" /><path
             d="m 906.56,760.2 c 0,0 15.36,-0.47 20,-3.77 4.64,-3.3 23.63,-7.23 24.78,-1.94 1.15,5.29 23.08,26.29 5.74,26.43 -17.34,0.14 -40.29,-2.7 -44.91,-5.52 -4.62,-2.82 -5.61,-15.2 -5.61,-15.2 z"
             transform="translate(-86.32,-50.56)"
             fill="#a8a8a8"
             id="path65"
             style="stroke-width:2.55229" /><path
             d="m 957.38,779.08 c -17.34,0.14 -40.3,-2.7 -44.92,-5.52 -3.51,-2.14 -4.92,-9.83 -5.38,-13.38 h -0.52 c 0,0 1,12.39 5.6,15.2 4.6,2.81 27.57,5.66 44.91,5.52 5,0 6.73,-1.82 6.64,-4.46 -0.71,1.61 -2.61,2.61 -6.33,2.64 z"
             transform="translate(-86.32,-50.56)"
             opacity="0.2"
             id="path66"
             style="stroke-width:2.55229" /></g></g></g></g></svg>
