<?xml version="1.0" encoding="UTF-8" standalone="no"?>
<!-- Uploaded to: SVG Repo, www.svgrepo.com, Transformed by: SVG Repo Mixer Tools -->

<svg
   width="800px"
   height="800px"
   viewBox="0 0 61.7998 61.7998"
   fill="#000000"
   version="1.1"
   id="svg14"
   sodipodi:docname="avatar_m14.svg"
   inkscape:version="1.3.2 (091e20ef0f, 2023-11-25, custom)"
   xmlns:inkscape="http://www.inkscape.org/namespaces/inkscape"
   xmlns:sodipodi="http://sodipodi.sourceforge.net/DTD/sodipodi-0.dtd"
   xmlns="http://www.w3.org/2000/svg"
   xmlns:svg="http://www.w3.org/2000/svg">
  <defs
     id="defs14" />
  <sodipodi:namedview
     id="namedview14"
     pagecolor="#ffffff"
     bordercolor="#000000"
     borderopacity="0.25"
     inkscape:showpageshadow="2"
     inkscape:pageopacity="0.0"
     inkscape:pagecheckerboard="0"
     inkscape:deskcolor="#d1d1d1"
     inkscape:zoom="0.68500969"
     inkscape:cx="520.43059"
     inkscape:cy="428.46109"
     inkscape:window-width="1680"
     inkscape:window-height="982"
     inkscape:window-x="1360"
     inkscape:window-y="0"
     inkscape:window-maximized="1"
     inkscape:current-layer="svg14" />
  <g
     id="SVGRepo_bgCarrier"
     stroke-width="0" />
  <g
     id="SVGRepo_tracerCarrier"
     stroke-linecap="round"
     stroke-linejoin="round" />
  <g
     id="SVGRepo_iconCarrier"
     transform="matrix(0.96532896,0,0,0.96532896,1.235996,1.0814965)">
    <title
       id="title1" />
    <g
       data-name="Layer 2"
       id="Layer_2">
      <g
         data-name="—ÎÓÈ 1"
         id="_ÎÓÈ_1">
        <path
           d="m 31.129,8.432 c 21.281,0 12.987,35.266 0,35.266 -12.266,0 -21.281,-35.266 0,-35.266 z"
           fill="#ffe8be"
           fill-rule="evenodd"
           id="path1" />
        <circle
           cx="30.8999"
           cy="30.8999"
           fill="#e6e6e6"
           r="30.8999"
           id="circle1" />
        <path
           d="m 45.487,19.987 -29.173,0.175 c 0,0 1.048,16.148 -2.619,21.21 h 35.701 c -0.92,-1.35 -3.353,-1.785 -3.909,-21.385 z"
           fill="#60350a"
           fill-rule="evenodd"
           id="path2" />
        <path
           d="m 18.135,45.599 7.206,-3.187 11.55,-0.3 7.42,3.897 -5.357,11.215 -7.613,4.088 -7.875,-4.35 z"
           fill="#d5e1ed"
           fill-rule="evenodd"
           id="path3" />
        <path
           d="m 24.744,38.68 12.931,0.084 v 8.949 L 24.744,47.628 Z"
           fill="#f9dca4"
           fill-rule="evenodd"
           id="path4" />
        <path
           d="m 37.677,38.778 v 3.58 a 9.168,9.168 0 0 1 -0.04,1.226 6.898,6.898 0 0 1 -0.313,1.327 c -4.37,4.165 -11.379,0.78 -12.49,-6.333 z"
           fill-rule="evenodd"
           opacity="0.11"
           id="path5" />
        <path
           d="M 52.797,52.701 A 30.896,30.896 0 0 1 8.717,52.408 l 1.221,-3.098 9.103,-4.122 c 3.262,5.98 6.81,11.524 12.317,15.455 A 45.397,45.397 0 0 0 43.2,45.483 l 8.144,3.853 z"
           fill="#434955"
           fill-rule="evenodd"
           id="path6" />
        <path
           d="m 19.11,24.183 c -2.958,1.29 -0.442,7.41 1.42,7.383 a 30.842,30.842 0 0 1 -1.42,-7.383 z"
           fill="#f9dca4"
           fill-rule="evenodd"
           id="path7" />
        <path
           d="m 43.507,24.182 c 2.96,1.292 0.443,7.411 -1.419,7.384 a 30.832,30.832 0 0 0 1.419,-7.384 z"
           fill="#f9dca4"
           fill-rule="evenodd"
           id="path8" />
        <path
           d="m 31.114,8.666 c 8.722,0 12.377,6.2 12.601,13.367 0.307,9.81 -5.675,21.43 -12.6,21.43 -6.56,0 -12.706,-12.018 -12.333,-21.928 0.26,-6.953 3.814,-12.869 12.332,-12.869 z"
           fill="#ffe8be"
           fill-rule="evenodd"
           id="path9" />
        <path
           d="m 33.399,24.983 a 7.536,7.536 0 0 1 5.223,-0.993 h 0.005 c 5.154,0.63 5.234,2.232 4.733,2.601 a 2.885,2.885 0 0 0 -0.785,1.022 6.566,6.566 0 0 1 -1.052,2.922 5.175,5.175 0 0 1 -3.464,2.312 c -0.168,0.027 -0.34,0.048 -0.516,0.058 a 4.345,4.345 0 0 1 -3.65,-1.554 8.33,8.33 0 0 1 -1.478,-2.53 v 0.003 c 0,0 -0.797,-1.636 -2.072,-0.114 a 8.446,8.446 0 0 1 -1.52,2.64 4.347,4.347 0 0 1 -3.651,1.555 5.242,5.242 0 0 1 -0.516,-0.058 5.176,5.176 0 0 1 -3.464,-2.312 6.568,6.568 0 0 1 -1.052,-2.921 2.75,2.75 0 0 0 -0.77,-1.023 c -0.5,-0.37 -0.425,-1.973 4.729,-2.603 h 0.002 a 7.545,7.545 0 0 1 5.24,1.01 l -0.001,-0.001 0.003,0.002 0.215,0.131 A 3.93,3.93 0 0 0 33.4,24.982 Z m -4.672,0.638 A 6.638,6.638 0 0 0 22.57,25.368 c -1.511,0.686 -1.972,1.17 -1.386,3.163 a 5.617,5.617 0 0 0 0.712,1.532 4.204,4.204 0 0 0 3.326,1.995 3.536,3.536 0 0 0 2.966,-1.272 7.597,7.597 0 0 0 1.36,-2.37 c 0.679,-1.78 0.862,-1.863 -0.82,-2.795 z m 10.947,-0.45 a 6.727,6.727 0 0 0 -5.886,0.565 c -1.538,0.911 -1.258,1.063 -0.578,2.79 a 7.476,7.476 0 0 0 1.316,2.26 3.536,3.536 0 0 0 2.967,1.272 4.228,4.228 0 0 0 0.43,-0.048 4.34,4.34 0 0 0 2.896,-1.947 5.593,5.593 0 0 0 0.684,-1.44 c 0.702,-2.25 0.076,-2.751 -1.828,-3.451 z"
           fill="#464449"
           fill-rule="evenodd"
           id="path10" />
        <path
           d="m 17.89,25.608 c 0,-0.638 0.984,-0.886 1.598,2.943 a 22.164,22.164 0 0 0 0.956,-4.813 c 1.162,0.225 2.278,2.848 1.927,5.148 3.166,-0.777 11.303,-5.687 13.949,-12.324 6.772,3.901 6.735,12.094 6.735,12.094 0,0 0.358,-1.9 0.558,-3.516 0.066,-0.538 0.293,-0.733 0.798,-0.213 C 48.073,17.343 42.3,5.75 31.297,5.57 16.189,5.324 14.267,21.684 17.891,25.609 Z"
           fill="#8a5c42"
           fill-rule="evenodd"
           id="path11" />
        <path
           d="m 24.765,42.431 a 14.125,14.125 0 0 0 6.463,5.236 l -4.208,6.144 -5.917,-9.78 z"
           fill="#ffffff"
           fill-rule="evenodd"
           id="path12" />
        <path
           d="m 37.682,42.431 a 14.126,14.126 0 0 1 -6.463,5.236 l 4.209,6.144 5.953,-9.668 z"
           fill="#ffffff"
           fill-rule="evenodd"
           id="path13" />
        <circle
           cx="31.22307"
           cy="52.562222"
           fill="#434955"
           r="0.83904999"
           id="circle13" />
        <circle
           cx="31.22307"
           cy="56.291222"
           fill="#434955"
           r="0.83904999"
           id="circle14" />
        <path
           d="m 41.997,24.737 c 1.784,0.712 1.719,1.581 1.367,1.841 a 2.886,2.886 0 0 0 -0.785,1.022 6.618,6.618 0 0 1 -0.582,2.086 z m -21.469,4.479 a 6.619,6.619 0 0 1 -0.384,-1.615 2.748,2.748 0 0 0 -0.77,-1.023 c -0.337,-0.249 -0.413,-1.06 1.154,-1.754 z"
           fill="#464449"
           fill-rule="evenodd"
           id="path14" />
      </g>
    </g>
  </g>
</svg>
