<?xml version="1.0" encoding="UTF-8" standalone="no"?>
<!-- Uploaded to: SVG Repo, www.svgrepo.com, Transformed by: SVG Repo Mixer Tools -->

<svg
   height="800px"
   width="800px"
   version="1.1"
   id="Layer_1"
   viewBox="0 0 508 508"
   xml:space="preserve"
   fill="#000000"
   sodipodi:docname="avatar_profile_h3.svg"
   inkscape:version="1.3.2 (091e20ef0f, 2023-11-25, custom)"
   xmlns:inkscape="http://www.inkscape.org/namespaces/inkscape"
   xmlns:sodipodi="http://sodipodi.sourceforge.net/DTD/sodipodi-0.dtd"
   xmlns="http://www.w3.org/2000/svg"
   xmlns:svg="http://www.w3.org/2000/svg"><defs
   id="defs11" /><sodipodi:namedview
   id="namedview11"
   pagecolor="#ffffff"
   bordercolor="#000000"
   borderopacity="0.25"
   inkscape:showpageshadow="2"
   inkscape:pageopacity="0.0"
   inkscape:pagecheckerboard="0"
   inkscape:deskcolor="#d1d1d1"
   inkscape:zoom="0.68500969"
   inkscape:cx="488.31426"
   inkscape:cy="451.81842"
   inkscape:window-width="1680"
   inkscape:window-height="982"
   inkscape:window-x="1360"
   inkscape:window-y="0"
   inkscape:window-maximized="1"
   inkscape:current-layer="Layer_1" />

<g
   id="SVGRepo_bgCarrier"
   stroke-width="0" />

<g
   id="SVGRepo_tracerCarrier"
   stroke-linecap="round"
   stroke-linejoin="round" />

<g
   id="SVGRepo_iconCarrier"
   transform="matrix(0.96350417,0,0,0.96350417,8.89,8.89)"> <circle
   style="fill:#e6e6e6"
   cx="254"
   cy="254"
   r="254"
   id="circle1" /> <path
   style="fill:#2b3b4e"
   d="M 455.2,408.8 C 408.8,469.2 336,508 254,508 172,508 99.2,469.2 52.8,408.8 l 10.8,-69.2 136.8,-70.4 c 0,0.4 0,1.2 0,1.6 l -36,39.2 22,16.4 -27.2,14.4 94.8,149.6 94.8,-149.6 -27.2,-14.4 22,-16.4 -36,-38.8 c 0,-0.4 0,-0.8 0,-1.6 L 444.4,340 Z"
   id="path1" /> <g
   id="g3"> <path
   style="fill:#324a5e"
   d="m 348.8,340.8 -94.8,149.6 38.8,-168 c 1.2,2 2,4.4 3.2,6.8 0,0 13.6,-29.6 12,-57.6 l 36,38.8 -22,16.4 z"
   id="path2" /> <path
   style="fill:#324a5e"
   d="m 159.2,340.8 27.2,-14.4 -22,-16.4 35.6,-38.8 c -1.6,28.4 12,57.6 12,57.6 0.8,-2.4 2,-4.8 3.2,-6.8 L 254,490.4 Z"
   id="path3" /> </g> <path
   style="fill:#e6e9ee"
   d="M 292.8,322 254,490 215.2,322 C 228.4,298.4 254,301.2 254,301.2 v 0 c 0,0 25.6,-2.8 38.8,20.8 z"
   id="path4" /> <g
   id="g6"> <path
   style="fill:#f1543f"
   d="m 254.4,300.8 c -0.4,0.4 -0.4,0.4 0,0 -0.4,0 -0.4,0 -0.4,0 z"
   id="path5" /> <path
   style="fill:#f1543f"
   d="m 278,306.8 -8.8,19.2 h -30 L 230,306.8 c 12,-6.8 24,-5.2 24,-5.2 0,0 12,-1.6 24,5.2 z"
   id="path6" /> </g> <polygon
   style="fill:#ff7058"
   points="274.4,402 254,490 233.6,402 239.2,325.6 268.8,325.6 "
   id="polygon6" /> <path
   style="fill:#f9b54c"
   d="m 296,244.4 c -1.6,8.8 -9.2,27.2 -42,56.8 -28.4,-26.8 -37.6,-45.6 -40.8,-55.2 11.2,14.8 25.2,24.8 40.8,24.8 16,0 30.4,-10.4 42,-26.4 z"
   id="path7" /> <g
   id="g9"> <path
   style="fill:#ffffff"
   d="m 296,328.8 c -11.6,-31.2 -42,-27.6 -42,-27.6 32.4,-29.2 40.4,-47.6 41.6,-56.4 0.8,-1.2 1.6,-2 2.4,-3.2 23.2,32 -2,87.2 -2,87.2 z"
   id="path8" /> <path
   style="fill:#ffffff"
   d="m 254,301.2 c 0,0 -30.4,-3.6 -42,27.6 0,0 -25.6,-55.6 -2.4,-87.2 1.2,1.6 2.4,3.2 3.6,4.8 v 0 c 3.2,9.2 12.4,28 40.8,54.8 z"
   id="path9" /> </g> <path
   style="fill:#ffd05b"
   d="m 325.6,201.2 c -3.6,5.6 -8.4,9.6 -12.8,11.2 -11.6,31.6 -33.6,58.4 -58.8,58.4 -25.2,0 -47.2,-26.8 -58.8,-58.4 -4.4,-1.6 -9.2,-5.6 -12.8,-11.2 -6,-9.6 -6,-20.4 0,-24 0.4,-0.4 1.2,-0.4 2,-0.8 1.2,6.8 2.8,13.2 4.8,18.8 0,0 5.2,9.6 6.4,18 -0.4,-9.6 -0.8,-29.6 2.4,-33.6 0,0 14,-24.4 3.6,-46 0,0 2.4,-32 38,-17.2 0,0 6.8,1.6 14,2 v 0 0 0 0 c 6.8,-0.4 14,-2 14,-2 36,-14.8 38.4,17.6 38.4,17.6 -10.4,21.6 3.6,46 3.6,46 3.2,4 2.8,24 2.4,33.6 1.2,-8.4 6.4,-18 6.4,-18 2.4,-5.2 4,-12 4.8,-18.8 0.8,0 1.2,0.4 2,0.8 6,3.6 6,14 0.4,23.6 z"
   id="path10" /> <path
   style="fill:#324a5e"
   d="m 330,102.8 c -2,-3.2 -11.6,2 -11.6,2 1.2,-7.2 -3.2,-23.2 -3.2,-23.2 -1.6,5.6 -8,6.4 -8,6.4 0.8,-5.2 -5.6,-19.2 -5.6,-19.2 1.2,6.4 -8,12.8 -8,12.8 1.6,-5.2 -10.8,-23.2 -10.8,-23.2 2,2.8 1.2,10.8 1.2,10.8 -4.4,-9.2 -16.8,-18.4 -16.8,-18.4 0,2.4 -1.2,4.8 -3.2,6.8 -3.2,-5.6 -9.2,-8.8 -10.4,-9.6 v 0 0 0 0 0 0 0 0 0 c -1.2,0.4 -7.6,3.6 -10.4,9.6 -1.6,-2 -3.2,-4.4 -3.2,-6.8 0,0 -12.4,9.2 -16.8,18.4 0,0 -0.8,-8 1.2,-10.8 0,0 -12.4,18 -10.8,23.2 0,0 -9.2,-6.4 -8,-12.8 0,0 -6.4,14 -5.6,19.2 0,0 -6.4,-0.8 -8,-6.4 0,0 -4.4,16 -3.2,23.2 0,0 -9.6,-5.6 -11.6,-2 0,0 9.2,9.6 4.4,18.4 0,0 -3.2,48.8 6.8,74 0,0 5.2,9.6 6.4,18 -0.4,-9.6 -0.8,-29.6 2.4,-33.6 0,0 14,-24.4 3.6,-46 0,0 2.4,-32 38,-17.2 0,0 6.8,1.6 14,2 v 0 0 0 0 c 7.2,-0.4 14,-2 14,-2 36.8,-14.8 39.2,17.6 39.2,17.6 -10.4,21.6 3.6,46 3.6,46 3.2,4 2.8,24 2.4,33.6 1.2,-8.4 6.4,-18 6.4,-18 10.4,-25.2 6.8,-74 6.8,-74 -4.4,-8.8 4.8,-18.8 4.8,-18.8 z"
   id="path11" /> </g>

</svg>
