<?xml version="1.0" encoding="UTF-8" standalone="no"?>
<svg
   viewBox="0 0 250 250"
   version="1.1"
   id="svg164"
   sodipodi:docname="guia-bot.svg"
   width="250"
   height="250"
   inkscape:version="1.3.2 (091e20ef0f, 2023-11-25, custom)"
   xmlns:inkscape="http://www.inkscape.org/namespaces/inkscape"
   xmlns:sodipodi="http://sodipodi.sourceforge.net/DTD/sodipodi-0.dtd"
   xmlns="http://www.w3.org/2000/svg"
   xmlns:svg="http://www.w3.org/2000/svg">
  <defs
     id="defs164" />
  <sodipodi:namedview
     id="namedview164"
     pagecolor="#ffffff"
     bordercolor="#000000"
     borderopacity="0.25"
     inkscape:showpageshadow="2"
     inkscape:pageopacity="0.0"
     inkscape:pagecheckerboard="0"
     inkscape:deskcolor="#d1d1d1"
     inkscape:zoom="2.976"
     inkscape:cx="141.12903"
     inkscape:cy="150.53763"
     inkscape:window-width="1120"
     inkscape:window-height="646"
     inkscape:window-x="78"
     inkscape:window-y="54"
     inkscape:window-maximized="0"
     inkscape:current-layer="svg164" />
  <circle
     style="opacity:0.96;fill:#cccccc;fill-rule:evenodd;stroke-width:0.958249;stroke-miterlimit:2.9;fill-opacity:1"
     id="path165"
     cx="125.23934"
     cy="125.51219"
     r="120" />
  <path
     d="m 73.808597,133.81378 -26.120898,-2.70387 -11.063552,-25.11005 -8.595339,2.23876 c 0,0 6.35038,26.5364 13.457348,30.64802 7.106968,4.11163 31.386008,4.84961 31.386008,4.84961 z"
     style="fill:#4078f3;stroke-width:0.620154"
     id="path126" />
  <circle
     cx="-51.307938"
     cy="151.34235"
     r="11.584482"
     transform="rotate(-48.37)"
     style="fill:#263238;stroke-width:0.620154"
     id="circle126" />
  <path
     d="m 79.036498,150.48353 a 11.603087,11.603087 0 1 1 8.204641,-3.39845 11.528668,11.528668 0 0 1 -8.204641,3.39845 z m 0,-23.16897 a 11.572079,11.572079 0 1 0 8.179835,3.39845 11.49766,11.49766 0 0 0 -8.179835,-3.39845 z"
     style="fill:#263238;stroke-width:0.620154"
     id="path127" />
  <circle
     cx="11.20773"
     cy="138.87556"
     r="8.6883612"
     transform="rotate(-13.5)"
     style="fill:#263238;stroke-width:0.620154"
     id="circle127" />
  <circle
     cx="-50.42366"
     cy="95.253136"
     r="7.1007667"
     transform="rotate(-45)"
     style="fill:#263238;stroke-width:0.620154"
     id="circle128" />
  <path
     d="m 42.766783,99.166238 -5.846828,4.937452 -2.108622,-2.49698 5.846828,-4.937457 a 1.519378,1.519378 0 0 1 2.141127,0.180548 l 0.144042,0.170572 a 1.519378,1.519378 0 0 1 -0.176547,2.145865 z"
     style="fill:#263238;stroke-width:0.620154"
     id="path128" />
  <path
     d="m 35.340424,90.123911 v 7.441852 a 0.217054,0.217054 0 0 1 -0.217054,0.217054 h -2.827903 a 0.217054,0.217054 0 0 1 -0.217054,-0.217054 v -7.441852 a 1.519378,1.519378 0 0 1 1.519378,-1.519378 h 0.223255 a 1.519378,1.519378 0 0 1 1.519378,1.519378 z"
     style="fill:#263238;stroke-width:0.620154"
     id="path129" />
  <path
     d="m 30.074647,90.152071 1.624657,7.262344 a 0.217054,0.217054 0 0 1 -0.164433,0.259204 l -2.75969,0.61737 a 0.217054,0.217054 0 0 1 -0.259205,-0.164433 l -1.624657,-7.262344 a 1.519378,1.519378 0 0 1 1.151028,-1.814429 l 0.21787,-0.04874 a 1.519378,1.519378 0 0 1 1.81443,1.151028 z"
     style="fill:#263238;stroke-width:0.620154"
     id="path130" />
  <path
     d="m 24.409812,91.972018 3.720926,6.444832 a 0.217054,0.217054 0 0 1 -0.07945,0.296501 l -2.449036,1.413949 a 0.217054,0.217054 0 0 1 -0.296501,-0.0794 l -3.720926,-6.444837 a 1.519378,1.519378 0 0 1 0.556131,-2.075508 l 0.193345,-0.111628 a 1.519378,1.519378 0 0 1 2.075509,0.556131 z"
     style="fill:#263238;stroke-width:0.620154"
     id="path131" />
  <rect
     x="-103.0567"
     y="-256.31625"
     width="8.4961138"
     height="57.643337"
     transform="rotate(156.96)"
     style="fill:#4078f3;stroke-width:0.620154"
     id="rect131" />
  <circle
     cx="-0.30382535"
     cy="216.34068"
     r="11.584482"
     transform="rotate(-49.73)"
     style="fill:#263238;stroke-width:0.620154"
     id="circle131" />
  <path
     d="m 164.89686,151.69903 a 11.609288,11.609288 0 0 1 -11.10076,-15.02634 11.596885,11.596885 0 1 1 11.10076,15.02634 z m 0,-23.18137 a 11.572079,11.572079 0 1 0 11.06975,14.98293 v 0 a 11.57828,11.57828 0 0 0 -7.6465,-14.462 11.640296,11.640296 0 0 0 -3.46046,-0.52093 z"
     style="fill:#263238;stroke-width:0.620154"
     id="path132" />
  <circle
     cx="-117.90677"
     cy="219.54147"
     r="8.6883612"
     transform="rotate(-74.47)"
     style="fill:#263238;stroke-width:0.620154"
     id="circle132" />
  <circle
     cx="193.05806"
     cy="199.4261"
     r="7.1007662"
     style="fill:#263238;stroke-width:0.620154"
     id="circle133" />
  <path
     d="m 183.77081,206.57706 3.97612,-6.52416 2.79077,1.70082 -3.97612,6.52416 a 1.519378,1.519378 0 0 1 -2.08812,0.50671 l -0.19064,-0.11618 a 1.519378,1.519378 0 0 1 -0.51201,-2.09135 z"
     style="fill:#263238;stroke-width:0.620154"
     id="path133" />
  <path
     d="m 193.67074,212.79949 -2.35641,-7.05893 a 0.217054,0.217054 0 0 1 0.13716,-0.27462 l 2.68239,-0.89543 a 0.217054,0.217054 0 0 1 0.27462,0.13715 l 2.3564,7.05894 a 1.519378,1.519378 0 0 1 -0.98363,1.91054 l -0.21177,0.0707 a 1.519378,1.519378 0 0 1 -1.89876,-0.94834 z"
     style="fill:#263238;stroke-width:0.620154"
     id="path134" />
  <path
     d="m 198.66205,211.10776 -3.84063,-6.37423 a 0.217054,0.217054 0 0 1 0.0739,-0.29793 l 2.42221,-1.45944 a 0.217054,0.217054 0 0 1 0.29793,0.0739 l 3.84063,6.37422 a 1.519378,1.519378 0 0 1 -0.51728,2.08553 l -0.19123,0.11522 a 1.519378,1.519378 0 0 1 -2.08553,-0.51727 z"
     style="fill:#263238;stroke-width:0.620154"
     id="path135" />
  <path
     d="m 203.45619,207.59323 -5.57018,-4.93501 a 0.217054,0.217054 0 0 1 -0.0185,-0.3064 l 1.87119,-2.11202 a 0.217054,0.217054 0 0 1 0.3064,-0.0185 l 5.57017,4.93501 a 1.519378,1.519378 0 0 1 0.12968,2.14481 l -0.14805,0.1671 a 1.519378,1.519378 0 0 1 -2.14069,0.12504 z"
     style="fill:#263238;stroke-width:0.620154"
     id="path136" />
  <path
     d="m 75.594642,126.83084 c 0,0 0.837208,81.32704 46.474358,82.91463 45.63716,1.5876 47.55343,-82.33168 47.55343,-82.91463 0,0 -5.38914,-12.12401 -47.01389,-11.6527 -41.624758,0.47132 -47.013898,11.6527 -47.013898,11.6527 z"
     style="fill:#4078f3;stroke-width:0.620154"
     id="path137" />
  <rect
     x="-144.35114"
     y="-112.51768"
     width="47.689865"
     height="9.7798328"
     rx="7.3499999"
     transform="scale(-1)"
     style="fill:#263238;stroke-width:0.620154"
     id="rect137"
     ry="7.3499999" />
  <rect
     x="-122.17443"
     y="-40.201488"
     width="3.3302283"
     height="16.837189"
     transform="scale(-1)"
     style="fill:#263238;stroke-width:0.620154"
     id="rect138" />
  <circle
     cx="145.8965"
     cy="117.73369"
     r="9.7860346"
     transform="rotate(-13.37)"
     style="fill:#4078f3;stroke-width:0.620154"
     id="circle138" />
  <circle
     cx="50.909756"
     cy="93.731255"
     r="9.7860346"
     transform="rotate(-12.78)"
     style="fill:#4078f3;stroke-width:0.620154"
     id="circle139" />
  <path
     d="m 118.57133,36.548783 c 0,0 -39.789095,-0.477518 -46.07746,34.009261 -6.288364,34.486776 27.348804,35.106936 37.02941,35.758096 4.38449,0.29767 13.77363,0.32868 22.05889,0.17984 18.34416,-0.31627 31.30539,-3.86356 35.71469,-20.88059 a 31.888333,31.888333 0 0 0 0.98604,-6.096116 C 169.44259,60.840227 156.83485,35.630955 118.57133,36.548783 Z"
     style="fill:#4078f3;stroke-width:0.620154"
     id="path139" />
  <path
     d="M 147.43331,89.038642 89.628733,89.937865 A 10.970529,10.970529 0 0 1 78.465956,79.140979 v 0 A 10.976731,10.976731 0 0 1 89.269043,67.978202 l 57.804577,-0.899223 a 10.964328,10.964328 0 0 1 11.16278,10.796886 v 0 a 10.970529,10.970529 0 0 1 -10.80309,11.162777 z"
     style="fill:#ffffff;stroke-width:0.620154"
     id="path140" />
  <path
     d="m 101.64112,77.944082 a 3.5224763,3.5224763 0 1 1 -2.77829,-4.136429 3.5224763,3.5224763 0 0 1 2.77829,4.136429 z"
     style="fill:#000000;stroke-width:0.620154"
     id="path141" />
  <path
     d="m 142.00696,77.299121 a 3.5224763,3.5224763 0 1 1 -2.77829,-4.130227 3.5224763,3.5224763 0 0 1 2.77829,4.130227 z"
     style="fill:#000000;stroke-width:0.620154"
     id="path142" />
  <path
     d="m 136.19612,159.12848 a 15.733314,15.733314 0 1 1 -14.54882,-16.83719 15.739516,15.739516 0 0 1 14.54882,16.83719 z"
     style="fill:#263238;stroke-width:0.620154"
     id="path143" />
  <path
     d="m 131.93566,158.8184 a 11.466653,11.466653 0 1 1 -10.59844,-12.27285 11.460451,11.460451 0 0 1 10.59844,12.27285 z"
     style="fill:#ffffff;stroke-width:0.620154"
     id="path144" />
  <circle
     cx="68.935608"
     cy="101.49529"
     r="5.4883657"
     transform="rotate(-45)"
     style="fill:#4078f3;stroke-width:0.620154"
     id="circle145" />
  <path
     d="m 111.74343,76.319277 c 0.26047,0.03101 0.13024,1.240309 0.89923,2.896121 a 7.311619,7.311619 0 0 0 1.86046,2.480617 6.0589073,6.0589073 0 0 0 3.30542,1.469766 6.1395274,6.1395274 0 0 0 3.52248,-0.84341 7.3426267,7.3426267 0 0 0 2.28217,-2.077517 c 1.05426,-1.469766 1.14728,-2.703873 1.40775,-2.685268 0.10542,0 0.21085,0.310077 0.21085,0.893022 a 5.4821638,5.4821638 0 0 1 -0.62015,2.381393 7.3178205,7.3178205 0 0 1 -2.48062,2.747283 6.6790616,6.6790616 0 0 1 -8.62015,-0.787596 7.2744097,7.2744097 0 0 1 -1.93488,-3.150384 5.3953422,5.3953422 0 0 1 -0.19845,-2.480617 c 0.10543,-0.576743 0.26667,-0.862014 0.36589,-0.84341 z"
     style="fill:#000000;stroke-width:0.620154"
     id="path146" />
  <path
     d="m 164.72321,92.387475 c -0.062,0 0.65117,-1.116278 1.33954,-3.069764 a 33.240269,33.240269 0 0 0 1.6124,-7.900765 58.195278,58.195278 0 0 0 0.18605,-8.062006 c -0.0434,-1.035658 -0.093,-1.860463 -0.14264,-2.480617 a 4.34108,4.34108 0 0 1 -0.031,-0.905425 4.8496065,4.8496065 0 0 1 0.15504,0.893022 c 0.0868,0.576743 0.17364,1.413952 0.24806,2.480617 a 49.023196,49.023196 0 0 1 -0.093,8.136424 30.765854,30.765854 0 0 1 -1.71783,7.950378 15.6775,15.6775 0 0 1 -1.05426,2.238757 5.1162728,5.1162728 0 0 1 -0.50233,0.719379 z"
     style="fill:#263238;stroke-width:0.620154"
     id="path147" />
  <path
     d="m 72.568289,69.404557 a 4.6635602,4.6635602 0 0 1 -0.192248,0.886821 c -0.08062,0.279069 -0.167442,0.620154 -0.248062,1.029456 -0.08062,0.409302 -0.204651,0.855813 -0.279069,1.370541 a 30.1457,30.1457 0 0 0 -0.434108,3.615499 31.79531,31.79531 0 0 0 0.06202,4.452708 32.291433,32.291433 0 0 0 0.719379,4.390692 30.058878,30.058878 0 0 0 1.066666,3.485267 c 0.167441,0.489922 0.359689,0.917829 0.514728,1.302324 0.155038,0.384496 0.303875,0.706976 0.427906,0.967441 a 4.8992188,4.8992188 0 0 1 0.347286,0.837208 4.9612342,4.9612342 0 0 1 -0.458914,-0.781394 10.462003,10.462003 0 0 1 -0.477519,-0.955038 c -0.173643,-0.372092 -0.384495,-0.799999 -0.56434,-1.289921 a 26.573611,26.573611 0 0 1 -1.141084,-3.491468 30.052676,30.052676 0 0 1 -0.756588,-4.440305 29.599964,29.599964 0 0 1 -0.03721,-4.496118 26.958107,26.958107 0 0 1 0.508526,-3.640306 c 0.09302,-0.514728 0.223256,-0.967441 0.328682,-1.370541 0.105426,-0.4031 0.204651,-0.744185 0.297674,-1.023254 a 5.5813885,5.5813885 0 0 1 0.316279,-0.849612 z"
     style="fill:#263238;stroke-width:0.620154"
     id="path148" />
  <path
     d="m 75.383789,126.76263 0.235659,0.0682 0.694573,0.23566 2.641857,0.93023 1.910075,0.68217 c 0.700774,0.23566 1.475967,0.45892 2.300772,0.71318 1.655812,0.48992 3.522477,1.12868 5.643404,1.6248 l 3.305423,0.84962 c 1.153487,0.29147 2.368989,0.50852 3.621701,0.78139 2.480617,0.57054 5.203097,0.96124 8.062007,1.42015 a 143.99362,143.99362 0 0 0 18.65424,1.33334 142.90215,142.90215 0 0 0 18.65424,-1.33334 c 2.84031,-0.45891 5.54418,-0.84341 8.06201,-1.42015 1.2403,-0.26667 2.48061,-0.48372 3.6217,-0.77519 l 3.31162,-0.84961 c 2.11473,-0.49613 3.98139,-1.13489 5.6372,-1.62481 0.82481,-0.25426 1.6,-0.47752 2.30078,-0.71318 l 1.91007,-0.68216 2.64186,-0.93024 0.69457,-0.23565 a 1.2403086,1.2403086 0 0 1 0.24186,-0.0682 l -0.22946,0.0992 -0.68217,0.26667 -2.62325,0.98604 -1.95348,0.73179 c -0.69458,0.24186 -1.46977,0.47131 -2.29458,0.73798 -1.65581,0.50853 -3.51627,1.15969 -5.6372,1.67442 l -3.31162,0.86821 c -1.14729,0.29768 -2.36899,0.52093 -3.6217,0.8 -2.48062,0.58295 -5.2093,0.97985 -8.06201,1.45116 a 140.23549,140.23549 0 0 1 -18.69765,1.35814 140.97967,140.97967 0 0 1 -18.69145,-1.36434 c -2.84651,-0.46511 -5.581389,-0.86821 -8.062006,-1.45116 -1.240308,-0.27907 -2.480617,-0.50232 -3.621701,-0.8 l -3.311624,-0.86821 c -2.120927,-0.51473 -3.98139,-1.16589 -5.637202,-1.67442 -0.824805,-0.26667 -1.593797,-0.49612 -2.294571,-0.73799 l -1.903874,-0.71317 -2.623252,-0.98605 -0.68217,-0.26666 a 1.2403086,1.2403086 0 0 1 -0.204651,-0.11783 z"
     style="fill:#263238;stroke-width:0.620154"
     id="path149" />
  <g
     style="opacity:0.3"
     id="g150"
     transform="matrix(0.62015428,0,0,0.62015428,7.9978251,-51.612349)">
    <path
       d="m 109,287.74 c 0,0 8.69,-18 75.81,-18.79 67.12,-0.79 75.81,18.79 75.81,18.79 0,0 -67.74,33.39 -151.62,0 z"
       id="path150" />
  </g>
  <path
     d="m 113.52948,39.128625 a 0.75658822,0.75658822 0 0 1 -0.14264,0 l -0.4155,0.04341 c -0.37209,0.03721 -0.91783,0.04961 -1.6186,0.130232 a 44.099171,44.099171 0 0 0 -5.87286,0.973643 42.120879,42.120879 0 0 0 -24.806175,16.4837 43.541032,43.541032 0 0 0 -6.474411,13.209287 c -0.217054,0.669766 -0.334883,1.203099 -0.440309,1.556587 l -0.117829,0.409302 a 0.62015428,0.62015428 0 0 1 -0.04961,0.136434 0.41550337,0.41550337 0 0 1 0,-0.142636 c 0,-0.111628 0.04961,-0.248062 0.08682,-0.415503 0.08682,-0.35969 0.179845,-0.899224 0.378294,-1.581394 a 39.342588,39.342588 0 0 1 1.984494,-5.637202 42.393747,42.393747 0 0 1 11.782931,-15.658896 42.399948,42.399948 0 0 1 17.606175,-8.582935 39.06972,39.06972 0 0 1 5.91007,-0.874417 c 0.70698,-0.06202 1.24031,-0.05581 1.62481,-0.07442 h 0.4217 c 0.0992,0.0124 0.14264,0.01861 0.14264,0.02481 z"
     style="fill:#ffffff;stroke-width:0.620154"
     id="path151" />
  <path
     d="m 74.602395,86.868102 a 4.7813895,4.7813895 0 0 1 -0.570542,-1.240309 17.693002,17.693002 0 0 1 -1.010852,-6.462007 4.34108,4.34108 0 0 1 0.16124,-1.351937 c 0.09922,0 -0.03721,2.071316 0.35969,4.576739 0.396899,2.505423 1.153487,4.440304 1.060464,4.477514 z"
     style="fill:#ffffff;stroke-width:0.620154"
     id="path152" />
  <path
     d="m 64.165198,83.661904 c 0,0 -0.142635,-0.09923 -0.334883,-0.334883 a 5.6868147,5.6868147 0 0 1 -0.700774,-1.08527 7.0573557,7.0573557 0 0 1 1.060463,-7.99999 5.5007685,5.5007685 0 0 1 0.96124,-0.868216 1.3395332,1.3395332 0 0 1 0.409301,-0.235659 c 0.03721,0.04961 -0.520929,0.427906 -1.196897,1.240309 a 7.3178205,7.3178205 0 0 0 -1.029456,7.751928 c 0.434108,0.986045 0.874417,1.494572 0.831006,1.531781 z"
     style="fill:#ffffff;stroke-width:0.620154"
     id="path153" />
  <path
     d="m 120.8659,19.196867 a 8.260455,8.260455 0 0 0 -1.45736,-0.03101 3.8015457,3.8015457 0 0 0 -3.24961,5.060459 8.1364242,8.1364242 0 0 0 0.62016,1.308525 c 0,0 -0.12403,-0.07442 -0.29768,-0.272867 a 3.3488331,3.3488331 0 0 1 -0.55814,-0.96124 3.8945689,3.8945689 0 0 1 3.44806,-5.364334 3.3860424,3.3860424 0 0 1 1.10388,0.105426 c 0.27907,0.04341 0.39069,0.136434 0.39069,0.155039 z"
     style="fill:#ffffff;stroke-width:0.620154"
     id="path154" />
  <path
     d="m 174.91855,76.139433 c -0.0682,0.07442 -1.02946,-0.849612 -2.48062,-1.544184 -1.45116,-0.694573 -2.77209,-0.899224 -2.75968,-0.998449 a 5.7054194,5.7054194 0 0 1 2.89612,0.706976 5.6185978,5.6185978 0 0 1 2.34418,1.835657 z"
     style="fill:#ffffff;stroke-width:0.620154"
     id="path155" />
  <path
     d="m 89.85819,184.70984 a 0.77519285,0.77519285 0 0 1 -0.07442,-0.11783 l -0.204651,-0.36589 c -0.186047,-0.35349 -0.434108,-0.8248 -0.756589,-1.42635 -0.16124,-0.31008 -0.334883,-0.65737 -0.533332,-1.02946 L 87.706255,180.53 c -0.421705,-0.89922 -0.893022,-1.92248 -1.358138,-3.10077 -0.235659,-0.57674 -0.483721,-1.18449 -0.744185,-1.81085 -0.260465,-0.62636 -0.483721,-1.30852 -0.737984,-1.9969 -0.533333,-1.37054 -0.986045,-2.87751 -1.513176,-4.4403 -0.973643,-3.16279 -1.92868,-6.66666 -2.765888,-10.38758 -0.837209,-3.72093 -1.44496,-7.31162 -1.941083,-10.57984 -0.496124,-3.26821 -0.818604,-6.20154 -1.017053,-8.71937 -0.11783,-1.2403 -0.192248,-2.36899 -0.254264,-3.36123 -0.06202,-0.99225 -0.117829,-1.86047 -0.136434,-2.54263 -0.0186,-0.68217 -0.03721,-1.20931 -0.05581,-1.6062 v -0.41551 a 0.50852651,0.50852651 0 0 1 0,-0.14263 0.4775188,0.4775188 0 0 1 0,0.14263 l 0.03721,0.41551 c 0,0.39069 0.06822,0.93023 0.111628,1.59999 0.04341,0.66977 0.105426,1.55039 0.192247,2.53643 0.08682,0.98605 0.167442,2.11473 0.303876,3.35504 0.223256,2.48062 0.620154,5.43255 1.08527,8.68216 0.465116,3.24961 1.141084,6.8217 1.959688,10.54262 0.818603,3.72093 1.779842,7.2186 2.728678,10.37518 0.527132,1.56279 0.967441,3.06357 1.488371,4.43411 0.248061,0.69457 0.48372,1.35813 0.719379,1.99689 l 0.719379,1.82326 c 0.446511,1.15969 0.905425,2.18914 1.314727,3.10077 l 0.558139,1.24031 c 0.179844,0.37829 0.353487,0.72558 0.508526,1.04186 l 0.694573,1.45116 0.173643,0.37829 a 0.4775188,0.4775188 0 0 1 0.08062,0.16744 z"
     style="fill:#ffffff;stroke-width:0.620154"
     id="path156" />
  <path
     d="m 65.591553,134.14866 a 30.939497,30.939497 0 0 1 -4.533328,-0.16124 32.186007,32.186007 0 0 1 -4.508521,-0.47751 30.939497,30.939497 0 0 1 4.533327,0.16124 32.030969,32.030969 0 0 1 4.508522,0.47751 z"
     style="fill:#ffffff;stroke-width:0.620154"
     id="path157" />
  <path
     d="m 42.261349,120.90837 a 33.556548,33.556548 0 0 1 -2.362788,-4.0124 33.488331,33.488331 0 0 1 -2.071315,-4.16743 33.854222,33.854222 0 0 1 2.356586,4.01859 32.744146,32.744146 0 0 1 2.077517,4.16124 z"
     style="fill:#ffffff;stroke-width:0.620154"
     id="path158" />
  <path
     d="m 111.87367,204.26331 a 3.6341041,3.6341041 0 0 1 -0.72558,-0.0868 16.124011,16.124011 0 0 1 -1.94109,-0.47132 20.998424,20.998424 0 0 1 -2.76588,-1.06047 23.565863,23.565863 0 0 1 -3.13799,-1.82325 22.945708,22.945708 0 0 1 -2.77829,-2.33798 20.279045,20.279045 0 0 1 -1.934878,-2.24496 14.505409,14.505409 0 0 1 -1.097673,-1.66821 3.2186007,3.2186007 0 0 1 -0.328682,-0.65117 c 0.04961,-0.031 0.570542,0.86822 1.6062,2.18295 a 23.125553,23.125553 0 0 0 1.965893,2.17054 22.691445,22.691445 0 0 0 5.83565,4.10542 24.186017,24.186017 0 0 0 2.70387,1.11007 c 1.5876,0.53334 2.61085,0.71318 2.59845,0.7752 z"
     style="fill:#ffffff;stroke-width:0.620154"
     id="path159" />
  <path
     d="m 121.38683,175.57497 a 3.0077483,3.0077483 0 0 1 -0.4341,0.0434 11.379831,11.379831 0 0 1 -1.24031,0.0372 16.632538,16.632538 0 0 1 -4.54573,-0.73798 19.987572,19.987572 0 0 1 -2.96434,-1.1907 19.280597,19.280597 0 0 1 -3.10077,-1.9907 16.669747,16.669747 0 0 1 -6.4372,-14.82168 19.150364,19.150364 0 0 1 0.65116,-3.6093 18.753465,18.753465 0 0 1 1.14728,-2.97674 16.502305,16.502305 0 0 1 2.56744,-3.82635 11.032545,11.032545 0 0 1 0.88062,-0.89302 3.0511591,3.0511591 0 0 1 0.32868,-0.28528 c 0,0 -0.4093,0.44031 -1.11627,1.24031 a 17.413932,17.413932 0 0 0 -2.48062,3.84496 17.953466,17.953466 0 0 0 -1.71163,6.50542 16.551918,16.551918 0 0 0 6.32558,14.56742 18.939512,18.939512 0 0 0 3.01395,1.9845 19.224783,19.224783 0 0 0 2.90852,1.2403 17.36432,17.36432 0 0 0 4.48371,0.82481 c 1.12248,0.0434 1.72403,0.006 1.72403,0.0434 z"
     style="fill:#ffffff;stroke-width:0.620154"
     id="path160" />
  <path
     d="m 46.304755,126.73782 c 0,0.0496 -0.477519,-0.17984 -1.240309,-0.35969 a 6.9209218,6.9209218 0 0 0 -5.866659,1.40775 c -0.620154,0.51473 -0.917828,0.92403 -0.961239,0.89302 a 2.8651128,2.8651128 0 0 1 0.768991,-1.06666 6.4185968,6.4185968 0 0 1 6.071311,-1.45116 2.9767405,2.9767405 0 0 1 1.227905,0.57674 z"
     style="fill:#ffffff;stroke-width:0.620154"
     id="path161" />
  <path
     d="m 137.88294,65.07588 c 0,0.08682 -7.6155,0.16124 -17.00463,0.16124 -9.38914,0 -17.01083,-0.07442 -17.01083,-0.16124 0,-0.08682 7.61549,-0.16124 17.01083,-0.16124 9.39533,0 17.00463,0.06202 17.00463,0.16124 z"
     style="fill:#ffffff;stroke-width:0.620154"
     id="path162" />
  <path
     d="m 108.85972,103.85413 a 1.16589,1.16589 0 0 1 -0.28527,0.0434 l -0.83101,0.0744 c -0.35969,0.031 -0.8,0.0558 -1.31473,0.0682 -0.51473,0.0124 -1.09767,0.0372 -1.74263,0 -1.29612,0 -2.83411,-0.093 -4.53953,-0.27286 a 50.331721,50.331721 0 0 1 -5.488366,-0.94884 49.686761,49.686761 0 0 1 -5.333327,-1.6 44.099171,44.099171 0 0 1 -4.179839,-1.779841 C 84.524863,99.165761 84.047344,98.88049 83.594632,98.63863 83.141919,98.39677 82.757424,98.179716 82.447346,98.018476 L 81.734169,97.584368 A 1.2961224,1.2961224 0 0 1 81.49851,97.416926 c 0,0 0.09923,0 0.266667,0.111628 l 0.744185,0.378294 c 0.316279,0.173643 0.706976,0.378294 1.16589,0.620154 0.458914,0.24186 0.979844,0.489922 1.56899,0.750387 1.16589,0.545736 2.586044,1.128681 4.186042,1.705421 a 48.91777,48.91777 0 0 0 10.753476,2.53023 c 1.68682,0.19845 3.2186,0.31008 4.50232,0.34109 0.62015,0.0372 1.24031,0 1.74263,0 0.50233,0 0.94884,0 1.30853,0 h 0.831 a 0.88682062,0.88682062 0 0 1 0.29148,0 z"
     style="fill:#ffffff;stroke-width:0.620154"
     id="path163" />
  <path
     d="m 158.36663,131.79828 a 0.53333268,0.53333268 0 0 1 -0.14883,0.0682 l -0.44651,0.16744 -1.72403,0.62015 c -0.75039,0.27287 -1.66822,0.58915 -2.75349,0.90543 -1.08527,0.31628 -2.30697,0.72558 -3.68992,1.07286 l -2.15813,0.57055 c -0.75039,0.19224 -1.54419,0.35348 -2.35659,0.54573 -1.6248,0.3907 -3.38604,0.70078 -5.2341,1.05426 a 110.06498,110.06498 0 0 1 -24.39067,1.49458 c -1.86046,-0.11783 -3.66511,-0.21086 -5.32712,-0.4031 -0.83101,-0.0868 -1.63721,-0.14884 -2.4062,-0.25427 l -2.21395,-0.30387 c -1.41396,-0.16744 -2.67907,-0.42171 -3.78915,-0.62016 -1.11007,-0.19845 -2.071312,-0.38449 -2.846505,-0.56434 l -1.786044,-0.3969 -0.465116,-0.11162 a 0.55813885,0.55813885 0 0 1 -0.155039,-0.0496 1.0046499,1.0046499 0 0 1 0.167442,0 l 0.465116,0.0806 1.798447,0.34109 c 0.781394,0.15504 1.736429,0.33488 2.852709,0.50232 1.11628,0.16745 2.37519,0.40931 3.78914,0.56434 l 2.20775,0.27907 c 0.76899,0.0992 1.57519,0.15504 2.4062,0.23566 1.65581,0.17985 3.44186,0.26047 5.31472,0.37209 3.75194,0.15504 7.87596,0.16124 12.20464,-0.093 4.32868,-0.25426 8.41549,-0.7938 12.11781,-1.40155 1.86047,-0.34108 3.6093,-0.62015 5.23411,-1.01705 0.8124,-0.18605 1.6062,-0.34109 2.35658,-0.52713 l 2.15814,-0.55194 c 1.38294,-0.32868 2.60465,-0.71318 3.68992,-1.02325 1.08527,-0.31008 2.0155,-0.62016 2.76589,-0.84961 l 1.74263,-0.55814 0.45891,-0.13644 z"
     style="fill:#ffffff;stroke-width:0.620154"
     id="path164" />
  <g
     id="g4"
     transform="matrix(0.69009605,0,0,0.74944325,103.53282,148.71496)"
     style="stroke-width:0.29783">
    <path
       style="fill:#0064a3;fill-opacity:1;stroke-width:0.29783"
       d="m 24.134361,19.273644 c -0.7754,-0.816263 -4.390425,-1.436189 -5.74639,-3.27918 -0.893144,-1.213933 -1.185808,-1.778109 -1.529065,-2.947628 -0.323995,-1.103888 -0.413396,-1.713913 -0.411974,-2.81111 0.0017,-1.4227257 0.211567,-2.3144693 0.824927,-3.5075793 1.166619,-2.269306 3.650013,-3.9177446 6.829789,-4.5335095 0.765796,-0.1482971 0.802636,-0.1917461 0.205647,-0.2425462 -0.835694,-0.071112 -2.579071,0.00421 -3.420967,0.1477355 -3.669631,0.6257397 -6.31658,2.7508002 -7.134495,5.7278131 -0.161368,0.58735 -0.177922,1.3225899 -0.03672,1.6295421 0.09585,0.208296 0.09253,0.223541 -0.105198,0.4845184 -0.112289,0.1482009 -0.57003,0.6830479 -1.017206,1.1885499 -1.627449,1.839725 -2.038807,2.425809 -2.038919,2.904935 -3.6e-5,0.178324 0.04444,0.270113 0.190262,0.39295 0.288989,0.243379 0.814736,0.477376 1.179978,0.525175 0.381137,0.04988 0.560364,0.169396 0.560364,0.373674 0,0.236945 -0.206361,0.757187 -0.389154,0.98107 -0.26571,0.325432 -0.233002,0.577955 0.109544,0.845857 0.153786,0.120273 0.27961,0.255448 0.27961,0.300386 0,0.04494 -0.104854,0.187096 -0.233009,0.315909 -0.232413,0.233606 -0.288034,0.377198 -0.171456,0.442625 0.18233,0.102327 0.670764,0.787955 0.670764,0.94157 0,0.0941 -0.104854,0.458704 -0.233009,0.810223 -0.159949,0.43873 -0.233009,0.750448 -0.233009,0.994164 0,0.32146 0.02604,0.386958 0.275376,0.692558 0.323879,0.396975 0.63011,0.594809 1.182069,0.763657 0.366633,0.112155 0.567522,0.123106 2.258296,0.123106 2.094609,0 2.637358,-0.331919 2.898471,0.2041 0.177236,0.363836 0.80251,0.979085 0.908176,1.6251 0.124162,1.631473 5.212964,-4.161321 4.327296,-5.093665 z"
       id="path1-6-3"
       sodipodi:nodetypes="ssscssscssssssssssssssssssssss" />
    <path
       style="fill:#800000;fill-opacity:1;stroke-width:0.29783"
       d="m 25.051612,19.273643 c 0.7754,-0.816263 4.390425,-1.436189 5.74639,-3.27918 0.893144,-1.213933 1.185807,-1.778109 1.529065,-2.947628 0.323994,-1.103888 0.413395,-1.713913 0.411973,-2.81111 C 32.737328,8.812999 32.527474,7.9212554 31.914113,6.728145 30.747495,4.4588396 28.264101,2.8104011 25.084325,2.1946361 24.318529,2.0463387 24.281689,2.0028899 24.878678,1.9520897 c 0.835694,-0.071111 2.57907,0.00422 3.420967,0.1477357 3.669631,0.6257392 6.31658,2.7508 7.134495,5.7278129 0.161367,0.58735 0.177921,1.3225899 0.03672,1.6295421 -0.09585,0.208296 -0.09253,0.223541 0.105198,0.4845184 0.11229,0.1482002 0.570031,0.6830482 1.017207,1.1885492 1.627448,1.839726 2.038806,2.42581 2.038919,2.904935 3.5e-5,0.178325 -0.04444,0.270114 -0.190262,0.392951 -0.288989,0.243379 -0.814736,0.477375 -1.179979,0.525175 -0.381136,0.04988 -0.560363,0.169396 -0.560363,0.373674 0,0.236945 0.206361,0.757187 0.389154,0.98107 0.265709,0.325432 0.233002,0.577954 -0.109544,0.845856 -0.153786,0.120274 -0.27961,0.255448 -0.27961,0.300387 0,0.04494 0.104854,0.187096 0.233009,0.315908 0.232412,0.233607 0.288034,0.377199 0.171456,0.442625 -0.18233,0.102328 -0.670764,0.787955 -0.670764,0.941571 0,0.0941 0.104854,0.458703 0.233009,0.810223 0.159949,0.438729 0.233009,0.750448 0.233009,0.994164 0,0.32146 -0.02604,0.386958 -0.275376,0.692558 -0.323879,0.396975 -0.63011,0.594808 -1.182069,0.763657 -0.366633,0.112155 -0.567522,0.123105 -2.258296,0.123105 -2.094609,0 -2.637358,-0.331918 -2.898471,0.204101 -0.177236,0.363836 -0.80251,0.979084 -0.908176,1.6251 -0.124163,1.631473 -5.212965,-4.161321 -4.327296,-5.093665 z"
       id="path1-6-3-8"
       sodipodi:nodetypes="ssscssscssssssssssssssssssssss" />
    <g
       id="g3"
       transform="matrix(0.30150378,0,0,0.30591615,-8.5250768,-15.136779)"
       style="stroke-width:0.980665">
      <path
         style="fill:#0064a3;fill-opacity:1;stroke-width:0.980665"
         d="m 112.72245,104.61073 c -1.86145,-0.71489 -2.03355,-0.95158 -1.89045,-2.60002 -1.21239,-2.945658 0.79517,-8.120519 0.12883,-10.73731 -0.34626,-0.465529 -0.25178,-1.392251 0.19578,-1.920482 l 0.4118,-0.486093 -0.44148,-0.609596 c -0.40476,-0.558847 -0.43229,-0.773731 -0.33077,-2.581171 0.0996,-1.770469 0.17343,-2.070926 0.72546,-2.945583 0.59785,-0.947294 0.6039,-0.980122 0.22064,-1.196981 -0.88835,-0.502666 -1.23306,-2.216927 -0.78539,-3.905713 0.16068,-0.606008 0.14951,-0.89278 -0.0451,-1.155987 -0.21637,-0.292618 -0.19862,-0.42547 0.1079,-0.809788 0.20168,-0.252857 0.28669,-0.499318 0.18897,-0.547689 -0.47632,-0.235793 -1.41024,-0.917734 -0.29145,-2.318171 0.54322,-0.679957 0.56675,-0.773585 0.31929,-1.271792 -0.6312,-1.270891 -0.16815,-2.218304 1.35561,-2.774033 0.57635,-0.21019 1.3083,-0.381352 1.62656,-0.380359 0.87324,0.0027 4.23683,0.857269 4.75605,1.208324 l 0.45615,0.308399 0.84539,-0.310397 c 1.66409,-0.610978 3.45264,-0.309242 4.65819,0.785863 0.5914,0.537208 0.67361,0.722199 0.67361,1.515878 0,0.97408 0.12546,1.122608 0.95128,1.126141 0.90764,0.0039 1.45013,0.587793 1.65913,1.785767 0.22124,1.268019 0.31824,1.414548 1.42339,2.150213 1.5331,1.020555 2.07978,2.273718 1.68146,3.854571 -0.21507,0.853814 -0.2041,0.894241 0.41019,1.504563 0.51586,0.512491 0.6313,0.773543 0.6313,1.427649 0,0.440261 0.0861,0.800475 0.1916,0.800475 0.32688,0 1.47151,1.816103 1.47151,2.334706 0,0.302959 -0.19116,0.651469 -0.4987,0.908698 l -0.4987,0.41726 0.4987,0.708279 c 0.54075,0.767985 0.66109,1.855699 0.26679,2.411319 -0.12765,0.179749 -0.63771,0.629801 -1.13362,1.000118 -0.84951,0.634341 -0.90311,0.725246 -0.92639,1.571037 -0.0131,0.493756 0.0395,1.348926 0.11771,1.900379 0.13614,0.957952 0.10971,1.044655 -0.59074,1.945096 -0.85344,1.097078 -1.41613,1.512939 -2.47982,1.832802 -0.84291,0.253466 -1.07826,0.489178 -1.27727,1.279178 -0.4132,1.64017 -2.76927,2.53574 -5.54429,2.10741 l -1.11047,-0.1714 -1.15584,0.81227 c -1.48071,1.04058 -2.66752,1.46667 -4.26822,1.53232 -1.12041,0.0459 -1.4077,-0.007 -2.70531,-0.50615 z m 4.16873,-0.25676 c 0.64301,-0.13978 1.44786,-0.49332 2.15873,-0.94823 l 1.13347,-0.72535 -1.11558,-0.54066 -1.11555,-0.54067 -0.60558,0.36671 c -0.59823,0.36228 -1.82107,0.50942 -1.82107,0.21912 0,-0.0813 0.31173,-0.24136 0.69274,-0.35593 0.91346,-0.27468 1.50727,-0.84081 1.67536,-1.59726 0.19203,-0.86436 0.64643,-0.695249 0.64643,0.24059 0,0.88032 0.43239,1.03896 1.24255,0.4559 0.63473,-0.4568 0.66166,-0.88484 0.10274,-1.635149 -0.57646,-0.774067 -0.35,-0.925761 0.71282,-0.477491 0.51073,0.215406 1.21275,0.374888 1.6502,0.374888 0.41877,0 0.76138,0.05387 0.76138,0.119704 0,0.261607 -0.53376,0.478789 -1.17667,0.478789 -0.62038,0 -0.69843,0.05378 -0.92222,0.635889 -0.13437,0.34975 -0.51243,0.80912 -0.83992,1.02085 l -0.59546,0.38494 0.95259,0.34238 c 1.27021,0.45654 3.65421,0.48144 4.80882,0.0502 0.78811,-0.29434 1.53769,-1.13105 1.81214,-2.02279 0.12107,-0.393231 0.0913,-0.411469 -0.67141,-0.411469 -0.69991,0 -0.8346,0.05956 -1.09542,0.484509 -0.16356,0.26647 -0.53129,0.56847 -0.81714,0.67109 -0.64691,0.23225 -2.21317,0.2483 -2.40522,0.0246 -0.20629,-0.24031 0.31309,-0.42721 1.19469,-0.42985 0.57933,-0.002 0.87069,-0.0994 1.20276,-0.40324 l 0.43826,-0.400954 -0.9429,-0.688949 c -0.84061,-0.614219 -1.17986,-1.052727 -0.81442,-1.052727 0.0706,0 0.46146,0.210414 0.86844,0.467586 1.39029,0.878513 2.86415,1.097356 4.36033,0.647444 1.87168,-0.56282 3.19158,-2.239125 2.83629,-3.60212 -0.12677,-0.48614 -0.13043,-0.487436 -1.13243,-0.402026 -1.17868,0.100464 -1.9336,-0.03499 -1.442,-0.258718 0.16836,-0.0766 0.57932,-0.140311 0.91335,-0.141572 0.96566,-0.0036 1.36771,-0.377622 1.36771,-1.272206 0,-0.729659 0.0449,-0.795684 0.77403,-1.136388 0.88886,-0.415369 1.71236,-1.364769 1.71737,-1.979842 0.001,-0.231621 -0.19818,-0.75854 -0.44475,-1.17093 -0.38172,-0.638599 -0.51278,-0.73523 -0.88358,-0.651554 -0.23947,0.05404 -0.66928,0.131933 -0.95511,0.173112 -1.02648,0.147852 -1.04501,0.177419 -0.41993,0.669973 0.55227,0.435158 0.66258,0.464611 1.14621,0.306029 0.4396,-0.144145 0.55637,-0.135578 0.6543,0.04806 0.20542,0.385271 -0.0737,0.631031 -0.83253,0.733509 -0.50764,0.06854 -0.77538,0.200662 -0.87211,0.430354 -0.19423,0.461153 -0.91673,1.008721 -1.61665,1.225121 -0.52241,0.161517 -0.59578,0.268033 -0.6459,0.937821 -0.0576,0.770615 -1.0547,2.53767 -1.73872,3.081642 -0.66707,0.530483 -1.57038,0.742228 -3.4698,0.81336 -1.42919,0.05351 -2.06273,0.01278 -2.67725,-0.172385 -0.44275,-0.133369 -0.83211,-0.2425 -0.86529,-0.2425 -0.033,0 -0.12327,0.268148 -0.20016,0.595888 -0.16157,0.687922 -1.17616,1.417193 -1.80672,1.298521 -0.2833,-0.05331 -0.46127,0.05359 -0.66669,0.400439 -0.72142,1.218062 -2.71862,1.747902 -4.89522,1.298652 -0.39187,-0.0808 -0.74429,-0.12419 -0.78316,-0.09619 -0.20213,0.14539 0.26621,0.53706 1.09005,0.91184 0.50946,0.23175 1.0317,0.51278 1.16053,0.62451 0.37445,0.32471 -0.58154,0.25723 -1.37863,-0.0973 l -0.67553,-0.30046 -0.1259,0.33786 c -0.29618,0.79548 -0.13832,1.58084 0.41241,2.0519 0.49722,0.42526 0.56622,0.44319 0.80422,0.20894 0.24134,-0.23751 0.27794,-0.23259 0.50086,0.0672 0.54826,0.73729 1.89818,0.94118 3.67461,0.555 z m -2.18174,-4.715277 c 0.92886,-0.1857 1.65241,-0.727459 1.83454,-1.373628 0.12693,-0.450491 0.21551,-0.500185 0.96405,-0.541087 0.45713,-0.02497 0.93997,-0.154338 1.08411,-0.290437 0.32773,-0.3095 0.33281,-0.9943 0.0101,-1.632644 -0.34833,-0.693234 -0.0693,-0.784955 0.71865,-0.236173 0.9191,0.640188 1.99286,0.932655 3.42055,0.931663 2.4848,-0.0017 3.60275,-0.486513 4.5222,-1.960975 0.48848,-0.783377 0.56097,-1.062192 0.46801,-1.800018 l -0.11015,-0.873057 0.82397,-0.177669 c 1.02174,-0.22031 1.92582,-0.941709 1.73446,-1.383961 -0.0743,-0.171639 -0.20081,-0.509909 -0.28109,-0.75171 l -0.14608,-0.43964 -0.82571,0.762217 c -0.89785,0.828818 -1.8335,1.239232 -2.82512,1.239232 -0.92538,0 -0.65373,-0.329924 0.49278,-0.59849 1.16546,-0.273016 1.88182,-0.737935 2.4589,-1.595876 0.40523,-0.60247 0.49442,-0.648465 1.25753,-0.648465 1.08647,0 2.38001,-0.490972 2.78742,-1.057989 0.37671,-0.524263 0.17868,-1.179625 -0.56072,-1.856181 l -0.42548,-0.389283 -0.70391,0.492151 c -0.38717,0.270684 -0.70491,0.628302 -0.70615,0.79471 -0.003,0.416406 -1.19012,1.418102 -1.68055,1.418102 -0.57661,0 -0.49384,-0.262142 0.21923,-0.693885 1.30932,-0.792899 1.19291,-2.305232 -0.26618,-3.458145 l -0.42606,-0.336651 h 0.43356 c 0.53564,0 1.4908,0.791175 1.65097,1.367495 0.14301,0.514435 0.35041,0.539729 0.78282,0.09543 0.44445,-0.45668 0.40446,-1.29089 -0.0899,-1.874396 -0.45842,-0.541105 -0.66101,-0.592024 -1.04178,-0.261839 -0.25242,0.218892 -0.8316,0.313134 -0.8316,0.135309 0,-0.04902 0.18525,-0.276414 0.4118,-0.505329 0.59851,-0.604897 1.08119,-2.058506 0.92052,-2.77206 -0.18151,-0.805921 -0.73174,-1.543327 -1.59883,-2.142563 -0.63486,-0.438723 -0.80688,-0.484818 -1.47353,-0.394811 -0.86629,0.116959 -0.98384,-0.07829 -0.40512,-0.672936 0.38234,-0.392856 0.40082,-1.651285 0.0316,-2.147891 -0.1653,-0.222379 -1.32507,-0.701518 -1.69796,-0.701518 -0.0454,0 -0.072,0.353483 -0.0585,0.785519 0.0277,0.90749 -0.35923,1.218274 -0.4568,0.366754 -0.0504,-0.439928 -0.17824,-0.599356 -0.56592,-0.705416 -0.27543,-0.07537 -0.55737,-0.299286 -0.62653,-0.497603 -0.12239,-0.350947 -0.84512,-0.697368 -1.4549,-0.697368 -0.16618,0 -0.30208,-0.100995 -0.30208,-0.224434 0,-0.303286 0.54545,-0.277366 1.63227,0.07756 0.49755,0.162484 0.9887,0.258028 1.09149,0.212317 0.38595,-0.171664 0.19204,-1.272849 -0.31962,-1.814709 -1.00758,-1.067141 -2.20034,-1.329428 -3.86533,-0.849978 -1.0355,0.298182 -1.05876,0.705272 -0.0445,0.77584 1.04065,0.0724 0.71622,0.476794 -0.38255,0.476794 -0.34476,0 -0.39878,0.111438 -0.39878,0.822925 0,0.631741 -0.0725,0.822925 -0.31186,0.822925 -0.25047,0 -0.31186,-0.229046 -0.31186,-1.163691 0,-1.285896 -0.23834,-1.677666 -1.24966,-2.054051 -1.00382,-0.373579 -1.26173,-0.305626 -0.99696,0.262694 0.12458,0.26745 0.35359,0.592571 0.50892,0.72249 0.38003,0.317864 0.35727,0.96034 -0.0444,1.249323 -0.46355,0.333604 -2.376,0.32915 -2.376,-0.0055 0,-0.179878 0.12722,-0.217698 0.50325,-0.149763 0.66315,0.119785 1.15994,-0.02864 1.15994,-0.346553 0,-0.557913 -0.68179,-1.862049 -1.14945,-2.198598 -0.5437,-0.391309 -1.04493,-0.435283 -2.2397,-0.196499 -0.95256,0.190369 -1.59853,0.8611 -1.59964,1.661002 -0.001,1.014567 0.14038,1.072589 1.19922,0.490718 0.59215,-0.325407 1.02568,-0.470161 1.14687,-0.382942 0.27359,0.196905 0.0338,0.419186 -0.91945,0.852264 -0.94957,0.431405 -2.05111,1.58761 -2.05111,2.152868 0,0.478566 0.53447,1.051359 0.98103,1.051359 0.1835,0 0.82818,-0.112163 1.43247,-0.249257 1.02876,-0.233385 1.20199,-0.232924 2.72061,0.0072 0.89205,0.141068 1.70939,0.319441 1.81631,0.396387 0.41669,0.299884 -0.14301,0.328545 -1.44871,0.07418 -1.58286,-0.308357 -2.59081,-0.250591 -3.9618,0.227054 l -0.96194,0.335134 0.12956,0.702517 c 0.0856,0.4636 0.0225,0.920716 -0.18504,1.344106 -0.56248,1.14734 -0.38967,2.640875 0.38695,3.344416 0.25503,0.231037 0.36351,0.243076 0.72529,0.08049 0.23399,-0.105166 0.47688,-0.154163 0.53975,-0.108914 0.0629,0.04527 -0.33047,0.713691 -0.87413,1.485405 -0.96281,1.366724 -0.99029,1.443388 -1.05989,2.955921 -0.0392,0.854044 -0.0131,1.774228 0.0567,2.044855 0.1699,0.651887 1.23262,1.37624 2.84568,1.939665 0.72101,0.251844 1.34573,0.542062 1.38826,0.644928 0.12121,0.293322 -0.28402,0.225731 -1.93194,-0.322231 -1.41169,-0.469416 -1.55508,-0.489903 -1.83285,-0.261841 -0.41748,0.342767 -0.61147,0.863961 -0.45426,1.220426 0.11756,0.266675 0.16661,0.274921 0.44465,0.07481 0.36508,-0.262751 0.90649,-0.298266 0.90649,-0.05946 0,0.09099 -0.23309,0.364787 -0.51798,0.608446 -0.28488,0.24366 -0.71791,0.916776 -0.9623,1.495814 -0.53269,1.262135 -0.46319,2.435913 0.2243,3.790029 0.57562,1.133705 0.73712,1.720661 0.47344,1.720661 -0.11334,0 -0.32166,-0.100253 -0.46299,-0.222785 -0.34738,-0.301264 -0.62701,-0.145944 -0.61897,0.343834 0.009,0.525346 0.38939,0.870241 1.26141,1.142622 0.83968,0.262282 1.48312,0.283551 2.48962,0.08233 z m -0.63914,-3.729774 c 0,-0.0767 0.28069,-0.283263 0.62372,-0.459055 0.93329,-0.478291 0.85733,-1.045942 -0.20784,-1.553279 -0.45738,-0.217836 -0.8316,-0.458463 -0.8316,-0.53473 0,-0.323406 0.41579,-0.273255 1.13236,0.136571 1.57366,0.900031 4.32328,0.937575 5.93641,0.08106 0.51261,-0.272176 0.77438,-0.326374 1.0548,-0.218371 0.58568,0.225579 1.9959,0.170935 2.36053,-0.09147 0.41565,-0.299154 0.41293,-0.726363 -0.0101,-1.620338 -0.21616,-0.456456 -0.26514,-0.763489 -0.13687,-0.85592 0.36451,-0.262345 0.72424,0.283888 0.95889,1.45611 l 0.22826,1.140348 -0.56543,0.350035 c -0.68374,0.423257 -1.87543,0.608151 -2.53202,0.392845 -0.38194,-0.125244 -0.66785,-0.09058 -1.38742,0.16823 -0.72168,0.259571 -1.27305,0.325981 -2.70641,0.325981 h -1.80009 l -0.11289,0.499624 c -0.062,0.274793 -0.22245,0.594612 -0.35633,0.710707 -0.26895,0.23323 -1.64781,0.293185 -1.64781,0.07165 z m -0.62367,-3.439622 c 0,-0.07575 0.30404,-0.185521 0.67565,-0.24393 0.37163,-0.0584 0.89387,-0.229295 1.16054,-0.379745 0.32575,-0.183786 0.67706,-0.245885 1.07054,-0.189245 0.70436,0.101388 0.93436,-0.238338 0.71946,-1.06271 -0.1528,-0.586144 0.0778,-0.685957 0.64371,-0.278667 0.26351,0.18964 0.32585,0.429 0.25328,0.972546 -0.0658,0.491833 -0.0175,0.720996 0.14797,0.720996 0.55619,0 2.17326,-0.487224 2.51251,-0.757024 0.46699,-0.371356 0.71645,-0.368992 0.71645,0.0067 0,0.536224 -1.52199,1.108771 -3.12019,1.173764 -0.77731,0.0316 -1.58765,-0.01578 -1.82346,-0.106594 -0.32254,-0.124234 -0.5662,-0.110271 -1.01482,0.05812 -0.6528,0.245032 -1.94172,0.301926 -1.94172,0.08571 z m 5.52333,-2.38955 c -0.0633,-0.07378 0.0246,-0.374778 0.19533,-0.668902 0.78336,-1.349291 -0.0357,-2.786184 -1.72704,-3.029627 -0.56325,-0.08107 -0.75225,-0.02291 -1.30203,0.400657 -0.61291,0.472195 -0.67416,0.486374 -1.30253,0.301536 -0.94137,-0.276913 -1.39242,-0.22961 -1.95199,0.204713 -0.6118,0.474835 -0.89033,0.484375 -0.89033,0.0305 0,-0.668072 1.09905,-1.055795 2.39601,-0.845274 0.63412,0.102926 0.81595,0.06791 1.24294,-0.239382 0.27507,-0.197971 0.69149,-0.359948 0.9254,-0.359948 0.61903,0 0.56493,-0.755307 -0.0944,-1.319317 -0.28585,-0.2445 -0.51974,-0.518986 -0.51974,-0.60997 0,-0.29303 0.62954,-0.176308 1.12524,0.208627 0.52368,0.406656 1.24537,0.476536 2.08343,0.201726 0.68888,-0.225891 0.8488,-0.636346 0.52398,-1.3447 -0.22976,-0.501007 -0.21923,-0.612354 0.0804,-0.850694 0.21332,-0.169604 0.34484,-0.530223 0.34484,-0.945169 0,-0.555515 -0.11072,-0.746531 -0.64308,-1.110389 -0.35367,-0.241706 -0.86305,-0.749682 -1.13193,-1.128839 -0.80884,-1.140649 -1.44506,-1.581569 -2.55971,-1.774021 -0.5532,-0.0955 -1.26784,-0.152616 -1.58814,-0.126914 -0.81259,0.06522 -0.93525,-0.305255 -0.13906,-0.419862 0.57441,-0.08267 0.60774,-0.120036 0.3999,-0.448331 -0.12472,-0.196975 -0.17823,-0.393103 -0.11887,-0.435838 0.22584,-0.162535 0.78329,0.122845 1.03301,0.528816 0.16266,0.264338 0.46687,0.452644 0.81169,0.502275 0.85328,0.122813 1.78505,0.777223 2.68409,1.885068 0.45135,0.556192 1.05471,1.121644 1.34083,1.25656 0.73482,0.34651 2.02068,0.31395 2.69585,-0.06826 0.61461,-0.347929 1.23436,-0.279172 1.12623,0.124944 -0.0891,0.333737 -1.03523,0.66021 -2.18252,0.753278 -0.7877,0.0639 -0.89684,0.117701 -0.89684,0.442141 0,0.203165 -0.15367,0.60232 -0.34128,0.887011 -0.25577,0.387891 -0.28181,0.560427 -0.10398,0.688432 0.3003,0.216114 0.30771,1.083367 0.0131,1.480126 -0.25353,0.340927 -1.7171,0.866915 -2.42605,0.871894 -0.38014,0.0027 -0.46779,0.08738 -0.46779,0.452154 0,0.294508 0.10488,0.448868 0.30461,0.448868 0.49946,0 1.73863,0.880109 2.01576,1.431665 0.2467,0.491004 0.30381,0.513726 1.30768,0.520178 0.57735,0.0038 1.33038,0.09332 1.67341,0.199157 0.58868,0.181606 0.64412,0.168419 0.98761,-0.234911 0.41414,-0.486305 1.10837,-0.719109 2.14441,-0.719109 0.979,0 0.90093,0.250227 -0.11669,0.373958 -0.82285,0.100051 -1.66402,0.635289 -1.66402,1.058807 0,0.382468 -0.43665,0.377373 -1.56012,-0.01821 -0.85834,-0.302224 -1.31211,-0.377611 -1.84219,-0.306044 -0.66164,0.08933 -0.71143,0.138939 -0.8401,0.837131 -0.0935,0.508439 -0.26167,0.790268 -0.53333,0.894896 -0.2283,0.08792 -0.44538,0.09582 -0.51171,0.0186 z m 4.31788,-3.646843 c -0.0789,-0.09195 -0.0313,-0.194117 0.10611,-0.227051 0.79761,-0.191343 2.28849,-1.105418 2.82363,-1.731193 0.53317,-0.623475 0.61857,-0.866561 0.6044,-1.72066 -0.0263,-1.593102 -0.97812,-2.754826 -3.33503,-4.071011 -0.19468,-0.108725 -0.18702,-0.270301 0.0348,-0.722705 0.20827,-0.424834 0.23286,-0.751734 0.0908,-1.206793 -0.19446,-0.622695 -0.12166,-0.9042 0.23328,-0.9042 0.29968,0 0.6704,1.212308 0.54321,1.776389 -0.11976,0.530912 0.3193,1.285969 0.82966,1.426913 0.46455,0.128289 0.80607,-0.388581 0.79494,-1.203025 -0.009,-0.606663 -0.11947,-0.879098 -0.46779,-1.145885 -0.88917,-0.681182 -0.33557,-0.790114 0.59862,-0.11778 0.39824,0.286612 0.6077,0.590182 0.6077,0.880746 0,0.40876 0.0707,0.451038 0.90749,0.541328 1.09871,0.118585 1.79387,0.439355 1.4682,0.677514 -0.16092,0.117623 -0.43307,0.09999 -0.97591,-0.06326 -0.95377,-0.286799 -1.18916,-0.215423 -1.75433,0.531955 l -0.4585,0.606314 0.61444,0.610431 c 0.33792,0.335736 0.61441,0.703341 0.61441,0.816895 0,0.154212 0.14476,0.131934 0.57173,-0.08799 0.55108,-0.283828 0.99498,-0.366783 1.76714,-0.330216 0.59512,0.02818 0.41345,0.271929 -0.27673,0.371271 -0.35233,0.05071 -0.88284,0.229356 -1.17895,0.396991 -0.48461,0.274328 -0.54253,0.416154 -0.5796,1.419055 -0.0267,0.723089 -0.15719,1.241717 -0.3717,1.47732 -0.31698,0.348135 -0.30927,0.366903 0.18699,0.456559 0.50215,0.0907 1.33398,0.86615 1.33556,1.245045 0.001,0.346262 -0.5964,0.190723 -0.95739,-0.249091 -0.19686,-0.239878 -0.57256,-0.506498 -0.83482,-0.5925 -0.39507,-0.129551 -0.54182,-0.09965 -0.8556,0.174278 -0.92029,0.803487 -2.37627,1.326048 -2.68686,0.964351 z m -10.67281,-2.935097 c 0,-0.268034 1.44486,-0.915494 2.04301,-0.915494 0.61135,0 0.61421,-0.0041 0.42726,-0.602899 -0.20498,-0.656945 -0.0865,-1.232026 0.36123,-1.74856 0.2639,-0.304557 0.22803,-0.374206 -0.44052,-0.855344 -0.40028,-0.288084 -0.72778,-0.559698 -0.72778,-0.603588 0,-0.207871 0.82302,-0.04147 1.45529,0.294257 0.4168,0.221312 0.98512,0.374058 1.39173,0.374058 0.37799,0 0.68724,0.06253 0.68724,0.138938 0,0.265494 -0.65637,0.609178 -1.16343,0.609178 -0.57812,0 -0.91737,0.462418 -0.91271,1.244127 0.004,0.737114 0.20673,1.115227 0.64008,1.196807 0.21813,0.04105 0.39658,0.153107 0.39658,0.249033 0,0.122766 -0.32308,0.146101 -1.09147,0.07879 -0.96227,-0.08428 -1.17625,-0.05013 -1.80756,0.288477 -0.72257,0.387576 -1.25895,0.495033 -1.25895,0.252215 z m 5.49872,-6.827574 c -0.64313,-0.914803 -0.59314,-1.115107 0.18657,-0.74745 0.55619,0.262279 1.02988,0.175189 1.85109,-0.340341 0.61822,-0.388099 0.31976,-1.445019 -0.55572,-1.967934 -0.47376,-0.282973 -0.18898,-0.474632 0.41234,-0.277468 0.67598,0.221667 1.33881,1.00655 1.33881,1.585362 0,0.441248 0.0285,0.455885 0.72766,0.374227 0.57691,-0.06737 0.72764,-0.03553 0.72764,0.15377 0,0.299742 -0.74898,0.598971 -1.259,0.502985 -0.21176,-0.03984 -0.55293,0.02035 -0.75838,0.133748 -0.20541,0.113395 -0.7113,0.274681 -1.12421,0.358403 -0.63905,0.129566 -0.73668,0.205248 -0.65611,0.508568 0.18306,0.688965 -0.31928,0.528883 -0.89066,-0.283863 z"
         id="path1"
         sodipodi:nodetypes="cccscscssssssscssscscssscsssssssscssssssssscsscccscccssssssssssssscssssssssscssssssscsccsssssssssssscscssscssscsssscccsssccssccssscssssssscscssscsssssssssssssccsssssssssssssssscssssscssssssccsscscsscsccsssssssssssscscccsssssssssscssssccscccssssssssssccccccssssssssssssssssssssscssssssssscccssscsssssssssccscsssssssscssssssscssssssssscssssssscssssssscssscsssssssssssscss" />
      <path
         id="path2"
         style="fill:#800000;stroke-width:0.980665"
         d="m 98.698325,64.52371 c 2.169265,4.14e-4 2.597315,0.07416 4.341335,0.746724 2.15908,0.832631 4.36204,2.653546 5.59707,4.626075 0.0843,0.134706 0.1582,0.236878 0.22841,0.324011 v 21.647257 c -0.0397,-0.06813 -0.0715,-0.115585 -0.11265,-0.189135 -0.69111,-1.235919 -0.70832,-1.240332 -2.2779,-0.593763 -0.71317,0.29378 -1.32931,0.496419 -1.36891,0.450619 -0.0396,-0.04582 -0.65336,-1.089716 -1.36426,-2.319755 -1.29703,-2.244238 -1.55163,-2.59209 -1.89704,-2.59209 -0.43996,0 -0.67293,0.412161 -1.0051,1.779219 -0.17661,0.72683 -0.36638,1.493079 -0.42168,1.702739 l -0.10026,0.380855 h -3.697955 -3.697969 l -0.53485,-0.67231 c -1.06048,-1.332729 -2.64049,-3.832041 -3.38584,-5.356262 -0.87314,-1.785575 -1.34739,-3.087295 -1.74976,-4.800224 -0.26473,-1.127061 -0.28603,-1.372041 -0.28577,-3.301091 2.5e-4,-1.943939 0.01856,-2.15157 0.27336,-3.089217 0.35594,-1.309774 1.20371,-3.053942 1.98955,-4.09329 1.59696,-2.112128 3.93035,-3.686204 6.49417,-4.381128 0.916199,-0.248335 1.148779,-0.269583 2.976049,-0.269234 z m 3.443715,24.797969 c 0.0349,0.03482 0.54637,0.893916 1.13636,1.909445 0.83977,1.445448 1.13228,1.86755 1.34824,1.94355 0.22989,0.08085 0.48724,0.0102 1.54461,-0.424263 l 1.26917,-0.521415 0.39068,0.679028 c 0.21484,0.373459 0.62998,1.102477 0.92294,1.620056 0.0424,0.07487 0.0717,0.111313 0.1111,0.178284 v 10.423656 c -0.39653,-0.33145 -1.73946,-1.4202 -3.10162,-2.51303 -4.12904,-3.312634 -6.144095,-5.094144 -8.996345,-7.954551 l -2.693889,-2.701644 3.591509,-0.05116 c 3.308945,-0.04682 3.602015,-0.06529 3.725355,-0.234094 0.0736,-0.10077 0.25891,-0.68575 0.41134,-1.300179 0.15244,-0.614429 0.30555,-1.088483 0.34055,-1.053683 z" />
    </g>
  </g>
</svg>
