<?xml version="1.0" encoding="UTF-8" standalone="no"?>
<svg
   viewBox="0 0 500 500"
   version="1.1"
   id="svg264"
   sodipodi:docname="Sign in-amico.svg"
   inkscape:version="1.3.2 (091e20ef0f, 2023-11-25, custom)"
   xmlns:inkscape="http://www.inkscape.org/namespaces/inkscape"
   xmlns:sodipodi="http://sodipodi.sourceforge.net/DTD/sodipodi-0.dtd"
   xmlns="http://www.w3.org/2000/svg"
   xmlns:svg="http://www.w3.org/2000/svg">
  <defs
     id="defs264" />
  <sodipodi:namedview
     id="namedview264"
     pagecolor="#ffffff"
     bordercolor="#000000"
     borderopacity="0.25"
     inkscape:showpageshadow="2"
     inkscape:pageopacity="0.0"
     inkscape:pagecheckerboard="0"
     inkscape:deskcolor="#d1d1d1"
     inkscape:zoom="1.55"
     inkscape:cx="250"
     inkscape:cy="250"
     inkscape:window-width="1680"
     inkscape:window-height="980"
     inkscape:window-x="1360"
     inkscape:window-y="0"
     inkscape:window-maximized="1"
     inkscape:current-layer="svg264" />
  <g
     id="freepik--Floor--inject-148"
     transform="matrix(0.81468924,0,0,0.81468924,42.526004,88.106692)"
     style="stroke-width:1.22747">
    <ellipse
       id="freepik--floor--inject-148"
       cx="250"
       cy="353.17999"
       rx="243.67999"
       ry="140.69"
       style="fill:#fafafa;stroke-width:1.22747" />
  </g>
  <g
     id="freepik--Device--inject-148"
     transform="translate(72,20)">
    <g
       id="freepik--Mobile--inject-148">
      <path
         d="M 255.15,356.07 V 37.53 c 0,-8.19 -4.08,-10.45 -7.69,-12.54 -3.61,-2.09 -9.57,-3.35 -14.71,-0.38 l -131.53,75.94 c -5.14,3 -9.3,10.18 -9.3,16.11 V 435.2 c 0,5.93 3.72,9.43 7.33,11.51 3.61,2.08 9.92,4.38 15.06,1.42 l 131.53,-75.95 a 17.49,17.49 0 0 0 9.31,-16.11 z"
         style="fill:#37474f"
         id="path67" />
      <path
         d="M 246.78,359.09 111.52,437.18 V 117.26 L 94.6,107.49 a 19.05,19.05 0 0 0 -2.72,9.17 V 435.2 c 0,5.93 3.72,9.43 7.33,11.51 3.61,2.08 9.92,4.38 15.06,1.42 L 245.8,372.18 a 17.72,17.72 0 0 0 8.06,-9 l -0.53,-0.31 z"
         style="fill:#263238"
         id="path68" />
      <path
         d="M 245.6,34.78 113.69,111 a 14.45,14.45 0 0 0 -6.54,11.3 v 315.89 c 0,6.37 4.53,9 10,5.79 l 128.4,-74.13 A 16.4,16.4 0 0 0 253,357 V 39 c 0,-4.65 -3.33,-6.57 -7.4,-4.22 z"
         style="fill:#455a64"
         id="path69" />
      <path
         d="m 246.56,54.15 v 295.34 a 15.6,15.6 0 0 1 -7,12.19 l -118.94,68.66 c -3.88,2.25 -7,0.44 -7,-4 V 128.78 a 15.73,15.73 0 0 1 4.93,-10.6 l 0.67,-0.6 a 10.91,10.91 0 0 1 1.43,-1 L 154.1,97.26 c 0,0 1,-0.57 2.18,-1.25 1.18,-0.68 2.18,-0.14 2.18,1.25 0,1.39 1,1.92 2.33,1.17 l 39,-22.5 a 5,5 0 0 0 2.33,-3.86 4.94,4.94 0 0 1 2,-3.65 l 0.23,-0.14 32.65,-18.85 0.7,-0.41 c 4.87,-2.83 8.86,-0.52 8.86,5.13 z"
         id="path70" />
      <path
         d="m 229.33,353.79 a 15.54,15.54 0 0 0 7,-12.18 V 49.78 l -32.1,18.53 -0.23,0.14 a 4.94,4.94 0 0 0 -2,3.65 5,5 0 0 1 -2.26,3.9 l -39,22.5 c -1.29,0.75 -2.33,0.22 -2.33,-1.17 0,-1.39 -1,-2 -2.18,-1.25 -1.18,0.75 -2.18,1.25 -2.18,1.25 l -33.45,19.32 a 10.91,10.91 0 0 0 -1.43,1 l -0.67,0.6 a 15.73,15.73 0 0 0 -4.93,10.6 v 291.76 z"
         style="fill:#263238"
         id="path71" />
      <path
         d="m 166.68,86.58 17.87,-10.32 c 1.06,-0.62 1.93,-0.18 1.93,1 a 4.16,4.16 0 0 1 -1.93,3.21 l -17.87,10.29 c -1.07,0.61 -1.93,0.18 -1.93,-1 a 4.12,4.12 0 0 1 1.93,-3.18 z"
         style="fill:#263238"
         id="path72" />
      <path
         d="m 193.71,70.12 c 1.21,-0.7 2.18,-0.13 2.18,1.25 a 4.78,4.78 0 0 1 -2.18,3.77 c -1.2,0.69 -2.17,0.13 -2.17,-1.26 a 4.8,4.8 0 0 1 2.17,-3.76 z"
         style="fill:#263238"
         id="path73" />
      <path
         d="m 104.12,154.87 a 7.85,7.85 0 0 0 -3.44,-6.21 2.28,2.28 0 0 0 -2.36,-0.2 c -0.43,0.26 -2.12,1.21 -2.57,1.48 a 2.68,2.68 0 0 0 -1.07,2.44 v 26 a 7.85,7.85 0 0 0 3.44,6.22 2.3,2.3 0 0 0 2.27,0.24 c 0.48,-0.25 2.21,-1.25 2.66,-1.52 a 2.68,2.68 0 0 0 1.07,-2.44 z"
         style="fill:#455a64"
         id="path74" />
      <path
         d="m 101.56,156.35 v 26 c 0,2.34 -1.54,3.35 -3.44,2.25 a 7.85,7.85 0 0 1 -3.44,-6.22 v -26 c 0,-2.34 1.54,-3.34 3.44,-2.25 a 7.86,7.86 0 0 1 3.44,6.22 z"
         style="fill:#37474f"
         id="path75" />
      <path
         d="m 104.12,200.3 a 7.86,7.86 0 0 0 -3.44,-6.22 2.3,2.3 0 0 0 -2.36,-0.19 c -0.43,0.26 -2.12,1.21 -2.57,1.48 a 2.68,2.68 0 0 0 -1.07,2.44 v 25.95 a 7.86,7.86 0 0 0 3.44,6.24 2.33,2.33 0 0 0 2.27,0.24 c 0.48,-0.25 2.21,-1.25 2.66,-1.52 a 2.68,2.68 0 0 0 1.07,-2.44 z"
         style="fill:#455a64"
         id="path76" />
      <path
         d="m 101.56,201.78 v 25.95 c 0,2.34 -1.54,3.35 -3.44,2.25 a 7.86,7.86 0 0 1 -3.44,-6.22 v -25.95 c 0,-2.34 1.54,-3.35 3.44,-2.25 a 7.86,7.86 0 0 1 3.44,6.22 z"
         style="fill:#37474f"
         id="path77" />
    </g>
  </g>
  <g
     id="freepik--Screen--inject-148"
     transform="translate(64,14)">
    <g
       id="g163">
      <path
         d="m 269.53,64.09 c -1.63,-0.94 -3.88,-0.81 -6.36,0.62 l -0.71,0.42 -33.21,19.17 a 1.42,1.42 0 0 0 -0.23,0.14 5,5 0 0 0 -2,3.71 5.08,5.08 0 0 1 -2.37,3.91 L 185.1,114.9 h -0.09 a 1.53,1.53 0 0 0 -0.64,-1.35 l -2.29,-1.32 a 1.56,1.56 0 0 0 -1.56,0.16 l -2.21,1.28 -34,19.6 a 13.3,13.3 0 0 0 -1.45,1 l -0.68,0.61 a 16,16 0 0 0 -5,10.76 v 302 c 0,2.27 0.8,3.86 2.08,4.6 l 2.3,1.33 c 1.29,0.75 3.07,0.64 5,-0.5 l 120.72,-69.7 A 15.82,15.82 0 0 0 274.41,371 V 71.24 c 0,-2.86 -1,-4.87 -2.64,-5.82 z"
         style="fill:#ba68c8"
         id="path78" />
      <path
         d="m 147.31,452.14 v 0.59 l -0.68,0.39 c -2,1.14 -3.74,1.25 -5,0.51 l -2.3,-1.33 c -1.29,-0.75 -2.08,-2.34 -2.08,-4.61 v -302 a 14.85,14.85 0 0 1 2.46,-7.62 l 2.72,1.57 A 14.45,14.45 0 0 0 140,147 v 302 a 5.52,5.52 0 0 0 1,3.44 3,3 0 0 0 2.45,1.15 6,6 0 0 0 2.94,-0.92 z"
         style="opacity:0.3"
         id="path79" />
      <path
         d="m 230.66,87.15 a 4.21,4.21 0 0 0 -0.83,2.32 5.07,5.07 0 0 1 -0.88,2.64 l -2.74,-1.58 a 4.53,4.53 0 0 0 0.83,-2.38 4.83,4.83 0 0 1 0.89,-2.58 z"
         style="opacity:0.3"
         id="path80" />
      <path
         d="m 143.44,453.59 a 3,3 0 0 1 -2.44,-1.14 5.46,5.46 0 0 1 -1,-3.44 V 147 a 15.49,15.49 0 0 1 4.85,-10.39 l 0.21,-0.19 0.45,-0.4 a 10.45,10.45 0 0 1 1.37,-0.94 l 34,-19.61 2.21,-1.27 a 1.49,1.49 0 0 1 0.74,-0.24 c 0.64,0 0.71,0.75 0.71,1.07 a 1.82,1.82 0 0 0 1.76,2 2.68,2.68 0 0 0 1.37,-0.42 l 39.57,-22.84 a 5.56,5.56 0 0 0 2.62,-4.36 4.51,4.51 0 0 1 1.77,-3.29 l 0.19,-0.11 33.18,-19.12 0.72,-0.42 a 7.69,7.69 0 0 1 3.76,-1.16 c 2.77,0 4.5,2.28 4.5,5.93 V 371.05 A 15.19,15.19 0 0 1 267.1,383 l -120.72,69.7 a 6,6 0 0 1 -2.94,0.89 z"
         style="fill:#fafafa"
         id="path81" />
      <path
         d="m 269.48,65.82 v 0 c 2.5,0 4,2 4,5.42 v 299.81 a 14.89,14.89 0 0 1 -6.62,11.49 l -120.72,69.7 a 5.59,5.59 0 0 1 -2.69,0.85 c -1.83,0 -2.92,-1.53 -2.92,-4.08 V 147 a 15,15 0 0 1 4.67,-10 l 0.23,-0.22 0.4,-0.35 a 11.18,11.18 0 0 1 1.32,-0.91 l 34,-19.61 2.22,-1.27 a 1,1 0 0 1 0.48,-0.17 c 0.2,0 0.2,0.51 0.2,0.56 a 2.32,2.32 0 0 0 2.27,2.55 3.18,3.18 0 0 0 1.62,-0.48 l 39.58,-22.84 a 6.12,6.12 0 0 0 2.87,-4.8 4,4 0 0 1 1.56,-2.88 l 0.14,-0.09 33.22,-19.17 0.71,-0.41 a 7.22,7.22 0 0 1 3.51,-1.09 m 0,-1 a 8.14,8.14 0 0 0 -4,1.22 l -0.71,0.42 -33.28,19.16 a 1.09,1.09 0 0 0 -0.23,0.14 5,5 0 0 0 -2,3.7 5.1,5.1 0 0 1 -2.31,3.92 l -39.57,22.84 a 2.26,2.26 0 0 1 -1.12,0.35 c -0.74,0 -1.25,-0.56 -1.25,-1.54 0,-0.98 -0.5,-1.58 -1.22,-1.58 a 2,2 0 0 0 -1,0.31 l -2.25,1.24 -34,19.61 a 12,12 0 0 0 -1.45,1 l -0.68,0.61 a 16,16 0 0 0 -5,10.75 V 449 c 0,3.22 1.6,5.09 3.93,5.09 a 6.55,6.55 0 0 0 3.2,-1 l 120.72,-69.7 a 15.82,15.82 0 0 0 7.13,-12.37 V 71.24 c 0,-4.07 -2.05,-6.43 -5,-6.43 z"
         style="fill:#ba68c8"
         id="path82" />
      <path
         d="m 152.19,152.4 a 1,1 0 0 1 -0.56,-0.19 l -2.7,-2 a 1,1 0 0 1 -0.27,-1.18 l 2.7,-5.15 a 0.93033596,0.93033596 0 1 1 1.65,0.86 l -2.33,4.46 2.07,1.56 a 0.94,0.94 0 0 1 0.18,1.31 0.93,0.93 0 0 1 -0.74,0.33 z"
         style="fill:#455a64"
         id="path83" />
      <path
         d="m 251.93,90.28 a 3.59,3.59 0 0 1 -1.49,2.85 c -0.82,0.47 -1.49,0 -1.49,-1.13 a 3.59,3.59 0 0 1 1.49,-2.85 c 0.82,-0.47 1.49,0.03 1.49,1.13 z"
         style="fill:#455a64"
         id="path84" />
      <path
         d="m 258.22,86.65 a 3.59,3.59 0 0 1 -1.49,2.85 c -0.83,0.47 -1.49,0 -1.49,-1.13 a 3.52,3.52 0 0 1 1.49,-2.84 c 0.82,-0.48 1.49,0.02 1.49,1.12 z"
         style="fill:#455a64"
         id="path85" />
      <path
         d="m 264.5,83 a 3.59,3.59 0 0 1 -1.5,2.87 c -0.82,0.47 -1.49,0 -1.49,-1.13 A 3.57,3.57 0 0 1 263,81.9 c 0.83,-0.48 1.5,0.03 1.5,1.1 z"
         style="fill:#455a64"
         id="path86" />
      <path
         d="m 201.2,161.64 a 7.23,7.23 0 0 1 -3.63,-0.95 c -3.07,-1.77 -4.83,-5.84 -4.83,-11.17 0,-10 6.09,-21.58 13.58,-25.9 3.35,-1.94 6.6,-2.19 9.16,-0.71 3.06,1.77 4.82,5.84 4.82,11.17 0,10 -6.09,21.58 -13.58,25.9 a 11.14,11.14 0 0 1 -5.52,1.66 z m 10.64,-38.87 a 10.43,10.43 0 0 0 -5.12,1.54 c -7.26,4.2 -13.17,15.51 -13.17,25.21 0,5 1.61,8.85 4.42,10.47 2.3,1.33 5.26,1.08 8.35,-0.7 7.26,-4.2 13.17,-15.51 13.17,-25.21 0,-5 -1.61,-8.85 -4.42,-10.47 a 6.38,6.38 0 0 0 -3.23,-0.84 z"
         style="fill:#ba68c8"
         id="path87" />
      <path
         d="m 201.21,161.65 a 7.1,7.1 0 0 1 -4.29,-1.39 0.4,0.4 0 0 1 -0.17,-0.36 l 0.05,-0.55 c 0.4,-5.23 3.56,-10.82 7.35,-13 l 4.34,-2.5 a 5.06,5.06 0 0 1 5,-0.46 c 1.59,0.82 2.58,2.67 2.8,5.2 v 0.5 a 0.45,0.45 0 0 1 0,0.23 c -2.56,4.81 -5.94,8.6 -9.53,10.67 v 0 a 11.11,11.11 0 0 1 -5.55,1.66 z m -3.64,-1.91 c 2.36,1.6 5.46,1.45 8.75,-0.45 v 0 c 3.43,-2 6.68,-5.63 9.16,-10.26 v -0.39 c -0.19,-2.24 -1,-3.86 -2.36,-4.55 a 4.34,4.34 0 0 0 -4.19,0.44 l -4.38,2.47 c -3.57,2.06 -6.56,7.38 -7,12.37 z"
         style="fill:#ba68c8"
         id="path88" />
      <path
         d="m 204.34,144.19 a 3.11,3.11 0 0 1 -1.61,-0.43 c -1.34,-0.77 -2.1,-2.51 -2.1,-4.79 0,-4.16 2.55,-9 5.69,-10.84 a 3.92,3.92 0 0 1 4,-0.29 c 1.33,0.77 2.1,2.52 2.1,4.79 0,4.17 -2.56,9 -5.7,10.84 a 4.76,4.76 0 0 1 -2.38,0.72 z m 4.36,-16 a 4,4 0 0 0 -2,0.6 c -2.91,1.68 -5.29,6.24 -5.29,10.14 0,2 0.62,3.47 1.7,4.1 a 3.17,3.17 0 0 0 3.19,-0.29 c 2.92,-1.69 5.29,-6.24 5.29,-10.15 0,-2 -0.62,-3.47 -1.7,-4.09 a 2.37,2.37 0 0 0 -1.19,-0.27 z"
         style="fill:#ba68c8"
         id="path89" />
      <path
         d="m 191,175 a 3.54,3.54 0 0 1 1.39,-0.52 1.88,1.88 0 0 1 1,0.12 1.34,1.34 0 0 1 0.61,0.59 2,2 0 0 1 0.23,0.84 0.61,0.61 0 0 1 -0.09,0.36 0.7,0.7 0 0 1 -0.23,0.25 l -0.83,0.48 c -0.13,0.07 -0.23,0.1 -0.3,0.07 a 0.42,0.42 0 0 1 -0.18,-0.17 0.83,0.83 0 0 0 -0.54,-0.38 1.66,1.66 0 0 0 -1.06,0.36 3.33,3.33 0 0 0 -1.07,1 2.67,2.67 0 0 0 -0.33,0.59 1.68,1.68 0 0 0 -0.11,0.61 0.89,0.89 0 0 0 0.11,0.52 0.45,0.45 0 0 0 0.38,0.18 2.28,2.28 0 0 0 0.7,-0.1 l 1.09,-0.3 a 5.37,5.37 0 0 1 1.22,-0.22 1.38,1.38 0 0 1 0.84,0.18 1.11,1.11 0 0 1 0.48,0.61 2.83,2.83 0 0 1 0.16,1.05 4.73,4.73 0 0 1 -0.23,1.46 6.44,6.44 0 0 1 -0.68,1.43 7.53,7.53 0 0 1 -1.07,1.3 6.89,6.89 0 0 1 -1.43,1.08 4.43,4.43 0 0 1 -1.27,0.52 2.15,2.15 0 0 1 -1.07,0 1.34,1.34 0 0 1 -0.75,-0.53 2.09,2.09 0 0 1 -0.32,-1.08 0.8,0.8 0 0 1 0.09,-0.36 0.71,0.71 0 0 1 0.23,-0.25 l 0.83,-0.48 a 0.42,0.42 0 0 1 0.31,-0.08 0.28,0.28 0 0 1 0.17,0.18 1.94,1.94 0 0 0 0.21,0.29 0.54,0.54 0 0 0 0.31,0.18 1.14,1.14 0 0 0 0.51,0 3.18,3.18 0 0 0 0.75,-0.33 5.91,5.91 0 0 0 0.68,-0.47 3.14,3.14 0 0 0 0.58,-0.57 2.73,2.73 0 0 0 0.4,-0.64 1.52,1.52 0 0 0 0.16,-0.69 0.59,0.59 0 0 0 -0.17,-0.48 0.69,0.69 0 0 0 -0.5,-0.08 4.34,4.34 0 0 0 -0.83,0.18 l -1.15,0.3 a 3.76,3.76 0 0 1 -1,0.14 1.24,1.24 0 0 1 -0.74,-0.21 1.27,1.27 0 0 1 -0.43,-0.64 3.93,3.93 0 0 1 -0.14,-1.14 4.68,4.68 0 0 1 0.24,-1.45 5.92,5.92 0 0 1 0.65,-1.4 6.7,6.7 0 0 1 1,-1.23 A 5.82,5.82 0 0 1 191,175 Z"
         style="fill:#455a64"
         id="path90" />
      <path
         d="m 197,171.52 a 0.21,0.21 0 0 1 0.23,0 0.3,0.3 0 0 1 0.09,0.25 V 173 a 0.79,0.79 0 0 1 -0.09,0.35 0.66,0.66 0 0 1 -0.23,0.26 l -1,0.58 a 0.2,0.2 0 0 1 -0.23,0 0.3,0.3 0 0 1 -0.09,-0.25 v -1.23 a 0.79,0.79 0 0 1 0.09,-0.35 0.59,0.59 0 0 1 0.23,-0.26 z m 0.26,10.61 a 0.8,0.8 0 0 1 -0.09,0.36 0.56,0.56 0 0 1 -0.23,0.25 l -0.9,0.52 a 0.18,0.18 0 0 1 -0.22,0 0.27,0.27 0 0 1 -0.1,-0.24 v -7.34 a 0.81,0.81 0 0 1 0.1,-0.36 0.72,0.72 0 0 1 0.22,-0.26 l 0.9,-0.51 a 0.2,0.2 0 0 1 0.23,0 0.3,0.3 0 0 1 0.09,0.25 z"
         style="fill:#455a64"
         id="path91" />
      <path
         d="m 201.58,181.64 a 2.35,2.35 0 0 0 0.5,-0.39 3.24,3.24 0 0 0 0.48,-0.6 4.08,4.08 0 0 0 0.35,-0.76 A 2.82,2.82 0 0 0 203,179 v -0.59 a 3.62,3.62 0 0 1 -0.25,0.45 3.34,3.34 0 0 1 -0.37,0.52 5.06,5.06 0 0 1 -0.51,0.54 4,4 0 0 1 -0.65,0.47 1.92,1.92 0 0 1 -1.07,0.31 1.3,1.3 0 0 1 -0.82,-0.35 2.15,2.15 0 0 1 -0.53,-0.88 4.36,4.36 0 0 1 -0.22,-1.26 c 0,-0.16 0,-0.34 0,-0.55 0,-0.21 0,-0.39 0,-0.56 a 7.54,7.54 0 0 1 0.22,-1.52 8.23,8.23 0 0 1 0.53,-1.49 6.57,6.57 0 0 1 0.82,-1.29 3.86,3.86 0 0 1 1.07,-0.92 2.72,2.72 0 0 1 0.65,-0.29 1.6,1.6 0 0 1 0.51,-0.05 1,1 0 0 1 0.37,0.09 0.83,0.83 0 0 1 0.25,0.16 v -0.36 a 0.67,0.67 0 0 1 0.1,-0.35 0.58,0.58 0 0 1 0.22,-0.26 l 0.9,-0.52 a 0.18,0.18 0 0 1 0.22,0 0.27,0.27 0 0 1 0.1,0.24 V 178 a 6.73,6.73 0 0 1 -0.8,3.33 5.78,5.78 0 0 1 -2.2,2.24 3.4,3.4 0 0 1 -1.12,0.44 1.73,1.73 0 0 1 -0.89,-0.06 1.21,1.21 0 0 1 -0.61,-0.45 1.47,1.47 0 0 1 -0.25,-0.78 0.79,0.79 0 0 1 0.09,-0.35 0.75,0.75 0 0 1 0.23,-0.26 l 0.81,-0.46 a 0.24,0.24 0 0 1 0.28,0 2,2 0 0 1 0.2,0.16 0.58,0.58 0 0 0 0.42,0.2 1.76,1.76 0 0 0 0.88,-0.37 z m -1.42,-5.29 a 4.31,4.31 0 0 0 0,0.88 c 0,0.66 0.2,1.06 0.47,1.2 a 1,1 0 0 0 1,-0.12 2.68,2.68 0 0 0 1,-1 3.6,3.6 0 0 0 0.45,-1.57 5.54,5.54 0 0 0 0,-0.61 5,5 0 0 0 0,-0.59 1.27,1.27 0 0 0 -0.45,-1 0.94,0.94 0 0 0 -1,0.09 2.75,2.75 0 0 0 -1,1 3.81,3.81 0 0 0 -0.47,1.72 z"
         style="fill:#455a64"
         id="path92" />
      <path
         d="m 212,173.64 a 0.69,0.69 0 0 1 -0.1,0.35 0.5,0.5 0 0 1 -0.22,0.25 l -0.9,0.52 a 0.2,0.2 0 0 1 -0.22,0 0.28,0.28 0 0 1 -0.1,-0.25 v -4 a 2,2 0 0 0 -0.33,-1.32 c -0.22,-0.25 -0.56,-0.25 -1,0 a 2.49,2.49 0 0 0 -1,1.13 4.06,4.06 0 0 0 -0.36,1.73 v 4 a 0.81,0.81 0 0 1 -0.1,0.35 0.65,0.65 0 0 1 -0.22,0.26 l -0.9,0.52 a 0.19,0.19 0 0 1 -0.23,0 0.3,0.3 0 0 1 -0.09,-0.24 v -7.35 a 0.79,0.79 0 0 1 0.09,-0.35 0.66,0.66 0 0 1 0.23,-0.26 l 0.9,-0.52 a 0.18,0.18 0 0 1 0.22,0 0.3,0.3 0 0 1 0.1,0.24 v 0.37 a 6.13,6.13 0 0 1 0.72,-1.1 3.41,3.41 0 0 1 1,-0.83 2.37,2.37 0 0 1 1.2,-0.4 1.07,1.07 0 0 1 0.79,0.36 2,2 0 0 1 0.41,0.93 6.09,6.09 0 0 1 0.13,1.34 z"
         style="fill:#455a64"
         id="path93" />
      <path
         d="m 217.52,159.67 a 0.19,0.19 0 0 1 0.23,0 0.3,0.3 0 0 1 0.09,0.24 v 1.23 a 0.8,0.8 0 0 1 -0.09,0.36 0.63,0.63 0 0 1 -0.23,0.25 l -1,0.59 a 0.19,0.19 0 0 1 -0.23,0 0.3,0.3 0 0 1 -0.09,-0.24 v -1.23 a 0.8,0.8 0 0 1 0.09,-0.36 0.56,0.56 0 0 1 0.23,-0.25 z m 0.26,10.61 a 0.8,0.8 0 0 1 -0.09,0.36 0.63,0.63 0 0 1 -0.23,0.25 l -0.9,0.52 a 0.2,0.2 0 0 1 -0.22,0 0.3,0.3 0 0 1 -0.09,-0.25 v -7.34 a 0.8,0.8 0 0 1 0.09,-0.36 0.61,0.61 0 0 1 0.22,-0.25 l 0.9,-0.52 a 0.19,0.19 0 0 1 0.23,0 0.27,0.27 0 0 1 0.09,0.24 z"
         style="fill:#455a64"
         id="path94" />
      <path
         d="m 225.18,166 a 0.8,0.8 0 0 1 -0.09,0.36 0.63,0.63 0 0 1 -0.23,0.25 l -0.9,0.52 a 0.18,0.18 0 0 1 -0.22,0 0.27,0.27 0 0 1 -0.1,-0.24 v -4 a 2.07,2.07 0 0 0 -0.33,-1.33 c -0.22,-0.25 -0.56,-0.24 -1,0 a 2.48,2.48 0 0 0 -1,1.14 4,4 0 0 0 -0.36,1.72 v 4 a 0.79,0.79 0 0 1 -0.09,0.35 0.57,0.57 0 0 1 -0.23,0.25 l -0.9,0.52 a 0.18,0.18 0 0 1 -0.22,0 0.28,0.28 0 0 1 -0.1,-0.25 V 162 a 0.7,0.7 0 0 1 0.1,-0.36 0.61,0.61 0 0 1 0.22,-0.25 l 0.9,-0.52 a 0.19,0.19 0 0 1 0.23,0 0.28,0.28 0 0 1 0.09,0.24 v 0.36 a 7.34,7.34 0 0 1 0.72,-1.09 3.39,3.39 0 0 1 1,-0.83 2.37,2.37 0 0 1 1.21,-0.4 1.06,1.06 0 0 1 0.78,0.35 2.06,2.06 0 0 1 0.42,0.93 6.88,6.88 0 0 1 0.12,1.34 z"
         style="fill:#455a64"
         id="path95" />
      <path
         d="m 159.29,230.71 a 0.12,0.12 0 0 1 0.14,0 0.18,0.18 0 0 1 0.06,0.16 v 0.36 a 0.49,0.49 0 0 1 -0.06,0.22 0.38,0.38 0 0 1 -0.14,0.16 l -3,1.75 a 0.12,0.12 0 0 1 -0.14,0 0.18,0.18 0 0 1 -0.06,-0.15 v -6.46 a 0.49,0.49 0 0 1 0.06,-0.22 0.38,0.38 0 0 1 0.14,-0.16 l 3,-1.71 a 0.12,0.12 0 0 1 0.14,0 0.2,0.2 0 0 1 0.06,0.16 v 0.36 a 0.46,0.46 0 0 1 -0.06,0.22 0.38,0.38 0 0 1 -0.14,0.16 l -2.52,1.44 v 2.11 l 2.29,-1.32 q 0.09,-0.06 0.15,0 a 0.18,0.18 0 0 1 0.06,0.15 v 0.36 a 0.46,0.46 0 0 1 -0.06,0.22 0.42,0.42 0 0 1 -0.15,0.17 l -2.29,1.31 v 2.19 z"
         style="fill:#455a64"
         id="path96" />
      <path
         d="m 160.44,228.38 a 0.12,0.12 0 0 1 -0.14,0 0.18,0.18 0 0 1 -0.06,-0.15 v -0.32 a 0.49,0.49 0 0 1 0.06,-0.23 0.45,0.45 0 0 1 0.14,-0.16 l 2.21,-1.27 c 0.06,0 0.1,0 0.14,0 a 0.18,0.18 0 0 1 0.06,0.16 v 0.32 a 0.46,0.46 0 0 1 -0.06,0.22 0.32,0.32 0 0 1 -0.14,0.16 z"
         style="fill:#455a64"
         id="path97" />
      <path
         d="m 164.61,223.93 a 3.23,3.23 0 0 1 0.15,-0.34 2.39,2.39 0 0 1 0.21,-0.34 3.74,3.74 0 0 1 0.27,-0.31 2.07,2.07 0 0 1 0.37,-0.27 1.13,1.13 0 0 1 0.76,-0.21 0.66,0.66 0 0 1 0.47,0.37 c 0.06,-0.16 0.13,-0.31 0.2,-0.46 a 3.78,3.78 0 0 1 0.26,-0.43 2.91,2.91 0 0 1 0.33,-0.37 2.07,2.07 0 0 1 0.43,-0.31 c 0.5,-0.3 0.87,-0.31 1.1,0 a 2.31,2.31 0 0 1 0.35,1.46 v 2.76 a 0.51,0.51 0 0 1 -0.07,0.23 0.32,0.32 0 0 1 -0.14,0.16 L 169,226 a 0.12,0.12 0 0 1 -0.14,0 0.18,0.18 0 0 1 -0.06,-0.15 v -2.67 a 1.52,1.52 0 0 0 -0.22,-1 c -0.15,-0.16 -0.37,-0.15 -0.66,0 a 1.74,1.74 0 0 0 -0.64,0.72 2.79,2.79 0 0 0 -0.24,1.22 v 2.74 a 0.6,0.6 0 0 1 -0.06,0.22 0.39,0.39 0 0 1 -0.15,0.16 l -0.27,0.16 a 0.12,0.12 0 0 1 -0.15,0 0.2,0.2 0 0 1 -0.06,-0.16 v -2.66 a 1.56,1.56 0 0 0 -0.22,-1 c -0.15,-0.15 -0.37,-0.15 -0.66,0 a 1.62,1.62 0 0 0 -0.64,0.72 2.73,2.73 0 0 0 -0.24,1.22 v 2.73 a 0.49,0.49 0 0 1 -0.06,0.23 0.39,0.39 0 0 1 -0.15,0.16 l -0.27,0.16 a 0.14,0.14 0 0 1 -0.15,0 0.17,0.17 0 0 1 0,-0.15 V 224 a 0.44,0.44 0 0 1 0,-0.22 0.34,0.34 0 0 1 0.15,-0.16 l 0.27,-0.16 a 0.12,0.12 0 0 1 0.15,0 0.2,0.2 0 0 1 0.06,0.16 z"
         style="fill:#455a64"
         id="path98" />
      <path
         d="m 170.31,223.94 a 2.48,2.48 0 0 1 0.12,-0.77 3,3 0 0 1 0.33,-0.7 3.61,3.61 0 0 1 0.49,-0.62 6.2,6.2 0 0 1 0.6,-0.55 l 1.05,-0.83 v -0.13 c 0,-0.34 -0.08,-0.55 -0.25,-0.62 a 0.67,0.67 0 0 0 -0.62,0.1 1.47,1.47 0 0 0 -0.5,0.45 3.19,3.19 0 0 0 -0.29,0.55 0.49,0.49 0 0 1 -0.1,0.16 0.4,0.4 0 0 1 -0.14,0.11 l -0.22,0.13 a 0.12,0.12 0 0 1 -0.15,0 0.18,0.18 0 0 1 -0.06,-0.16 2.46,2.46 0 0 1 0.13,-0.52 3.09,3.09 0 0 1 0.3,-0.54 3,3 0 0 1 0.46,-0.56 2.53,2.53 0 0 1 0.54,-0.44 1.76,1.76 0 0 1 0.62,-0.23 0.74,0.74 0 0 1 0.5,0.1 0.87,0.87 0 0 1 0.32,0.43 2.13,2.13 0 0 1 0.12,0.78 v 3.05 a 0.46,0.46 0 0 1 -0.06,0.22 0.34,0.34 0 0 1 -0.15,0.16 l -0.27,0.16 a 0.12,0.12 0 0 1 -0.15,0 0.2,0.2 0 0 1 -0.06,-0.16 v -0.41 a 1.57,1.57 0 0 1 -0.21,0.46 3.19,3.19 0 0 1 -0.32,0.43 3.3,3.3 0 0 1 -0.38,0.37 2.35,2.35 0 0 1 -0.38,0.26 1.3,1.3 0 0 1 -0.53,0.2 0.68,0.68 0 0 1 -0.41,0 0.6,0.6 0 0 1 -0.26,-0.3 1.06,1.06 0 0 1 -0.07,-0.58 z m 1.38,-0.25 a 2.26,2.26 0 0 0 0.5,-0.39 2.85,2.85 0 0 0 0.38,-0.53 2.52,2.52 0 0 0 0.25,-0.61 2.36,2.36 0 0 0 0.08,-0.65 v -0.25 l -0.88,0.7 a 4.12,4.12 0 0 0 -0.75,0.76 1.26,1.26 0 0 0 -0.28,0.73 0.58,0.58 0 0 0 0,0.19 0.33,0.33 0 0 0 0.12,0.14 0.3,0.3 0 0 0 0.21,0 0.83,0.83 0 0 0 0.37,-0.09 z"
         style="fill:#455a64"
         id="path99" />
      <path
         d="m 175.44,216 a 0.46,0.46 0 0 1 -0.06,0.22 0.42,0.42 0 0 1 -0.15,0.17 l -0.42,0.24 a 0.14,0.14 0 0 1 -0.15,0 0.17,0.17 0 0 1 0,-0.15 V 216 a 0.5,0.5 0 0 1 0,-0.23 0.39,0.39 0 0 1 0.15,-0.16 l 0.42,-0.24 c 0.06,0 0.11,0 0.15,0 a 0.2,0.2 0 0 1 0.06,0.16 z m -0.08,6 a 0.49,0.49 0 0 1 -0.06,0.23 0.45,0.45 0 0 1 -0.14,0.16 l -0.28,0.16 a 0.12,0.12 0 0 1 -0.14,0 0.18,0.18 0 0 1 -0.06,-0.15 v -4.6 a 0.46,0.46 0 0 1 0.06,-0.22 0.38,0.38 0 0 1 0.14,-0.16 l 0.28,-0.16 a 0.1,0.1 0 0 1 0.14,0 0.18,0.18 0 0 1 0.06,0.15 z"
         style="fill:#455a64"
         id="path100" />
      <path
         d="m 177.17,221 a 0.71,0.71 0 0 1 -0.06,0.23 0.39,0.39 0 0 1 -0.15,0.16 l -0.27,0.16 a 0.14,0.14 0 0 1 -0.15,0 0.18,0.18 0 0 1 -0.06,-0.16 v -6.55 a 0.49,0.49 0 0 1 0.06,-0.22 0.34,0.34 0 0 1 0.15,-0.16 l 0.27,-0.16 a 0.14,0.14 0 0 1 0.15,0 0.21,0.21 0 0 1 0.06,0.15 z"
         style="fill:#455a64"
         id="path101" />
      <path
         d="m 161.6,245.46 0.16,-0.34 a 3.79,3.79 0 0 1 0.2,-0.34 2,2 0 0 1 0.28,-0.31 1.54,1.54 0 0 1 0.37,-0.27 1.11,1.11 0 0 1 0.75,-0.21 0.62,0.62 0 0 1 0.47,0.37 l 0.21,-0.46 a 3.7,3.7 0 0 1 0.25,-0.43 2.91,2.91 0 0 1 0.33,-0.37 2.83,2.83 0 0 1 0.43,-0.32 c 0.51,-0.29 0.88,-0.3 1.1,0 a 2.31,2.31 0 0 1 0.35,1.46 V 247 a 0.49,0.49 0 0 1 -0.06,0.23 0.45,0.45 0 0 1 -0.14,0.16 l -0.28,0.16 a 0.12,0.12 0 0 1 -0.14,0 0.18,0.18 0 0 1 -0.06,-0.15 v -2.7 a 1.51,1.51 0 0 0 -0.23,-1 c -0.15,-0.16 -0.37,-0.15 -0.65,0 a 1.59,1.59 0 0 0 -0.65,0.72 2.76,2.76 0 0 0 -0.24,1.22 v 2.74 a 0.49,0.49 0 0 1 -0.06,0.22 0.38,0.38 0 0 1 -0.14,0.16 l -0.28,0.16 c 0,0 -0.1,0 -0.14,0 a 0.18,0.18 0 0 1 -0.06,-0.15 v -2.67 a 1.53,1.53 0 0 0 -0.23,-1 c -0.15,-0.16 -0.37,-0.15 -0.65,0 a 1.59,1.59 0 0 0 -0.64,0.71 2.65,2.65 0 0 0 -0.25,1.22 v 2.74 a 0.46,0.46 0 0 1 -0.06,0.22 0.49,0.49 0 0 1 -0.14,0.17 l -0.28,0.16 a 0.12,0.12 0 0 1 -0.14,0 0.18,0.18 0 0 1 -0.06,-0.16 v -4.65 a 0.46,0.46 0 0 1 0.06,-0.22 0.49,0.49 0 0 1 0.14,-0.17 l 0.28,-0.16 a 0.12,0.12 0 0 1 0.14,0 0.18,0.18 0 0 1 0.06,0.16 z"
         style="fill:#e0e0e0"
         id="path102" />
      <path
         d="m 168.6,247.69 a 1,1 0 0 1 -0.08,0.2 0.28,0.28 0 0 1 -0.14,0.16 l -0.31,0.18 a 0.1,0.1 0 0 1 -0.13,0 0.17,0.17 0 0 1 -0.05,-0.14 c 0,0 0,-0.05 0,-0.07 l 0.72,-2.5 -1.47,-3.52 a 0.13,0.13 0 0 1 0,-0.06 0.54,0.54 0 0 1 0.05,-0.21 0.44,0.44 0 0 1 0.13,-0.14 l 0.3,-0.18 c 0.07,0 0.11,0 0.15,0 a 0.29,0.29 0 0 1 0.07,0.12 l 1.16,2.73 1.16,-4.07 a 1,1 0 0 1 0.08,-0.2 0.34,0.34 0 0 1 0.14,-0.17 l 0.31,-0.17 a 0.12,0.12 0 0 1 0.13,0 0.2,0.2 0 0 1 0.05,0.14 0.22,0.22 0 0 1 0,0.08 z"
         style="fill:#e0e0e0"
         id="path103" />
      <path
         d="m 175.08,242 a 0.49,0.49 0 0 1 -0.06,0.22 0.32,0.32 0 0 1 -0.14,0.16 l -0.28,0.16 c 0,0 -0.1,0 -0.14,0 a 0.16,0.16 0 0 1 -0.06,-0.15 v -2.64 c 0,-0.51 -0.09,-0.84 -0.28,-1 -0.19,-0.16 -0.44,-0.13 -0.77,0.06 a 2,2 0 0 0 -0.76,0.82 2.79,2.79 0 0 0 -0.29,1.31 v 2.64 a 0.46,0.46 0 0 1 -0.06,0.22 0.4,0.4 0 0 1 -0.14,0.17 l -0.28,0.16 a 0.12,0.12 0 0 1 -0.14,0 0.18,0.18 0 0 1 -0.06,-0.16 v -4.65 a 0.46,0.46 0 0 1 0.06,-0.22 0.49,0.49 0 0 1 0.14,-0.17 l 0.28,-0.16 a 0.12,0.12 0 0 1 0.14,0 0.18,0.18 0 0 1 0.06,0.16 v 0.31 a 3.73,3.73 0 0 1 0.43,-0.71 2.28,2.28 0 0 1 0.73,-0.64 1.47,1.47 0 0 1 0.66,-0.22 0.69,0.69 0 0 1 0.51,0.14 1.08,1.08 0 0 1 0.33,0.51 2.73,2.73 0 0 1 0.12,0.87 z"
         style="fill:#e0e0e0"
         id="path104" />
      <path
         d="m 175.89,240.51 a 2.48,2.48 0 0 1 0.12,-0.77 3.19,3.19 0 0 1 0.33,-0.7 4,4 0 0 1 0.49,-0.62 7.7,7.7 0 0 1 0.6,-0.54 l 1,-0.84 v -0.13 c 0,-0.34 -0.08,-0.55 -0.25,-0.62 a 0.68,0.68 0 0 0 -0.62,0.11 1.36,1.36 0 0 0 -0.5,0.44 3.6,3.6 0 0 0 -0.29,0.55 0.49,0.49 0 0 1 -0.1,0.16 0.58,0.58 0 0 1 -0.14,0.12 l -0.22,0.13 a 0.14,0.14 0 0 1 -0.15,0 0.18,0.18 0 0 1 -0.06,-0.16 2.07,2.07 0 0 1 0.13,-0.52 3.09,3.09 0 0 1 0.32,-0.59 3.42,3.42 0 0 1 0.46,-0.56 2.22,2.22 0 0 1 0.55,-0.43 1.79,1.79 0 0 1 0.62,-0.24 0.76,0.76 0 0 1 0.5,0.1 0.92,0.92 0 0 1 0.32,0.43 2.19,2.19 0 0 1 0.11,0.78 v 3 a 0.59,0.59 0 0 1 0,0.22 0.51,0.51 0 0 1 -0.15,0.17 l -0.27,0.16 a 0.14,0.14 0 0 1 -0.15,0 0.18,0.18 0 0 1 -0.06,-0.16 v -0.41 a 1.46,1.46 0 0 1 -0.21,0.46 2.67,2.67 0 0 1 -0.32,0.43 3.3,3.3 0 0 1 -0.38,0.37 3.44,3.44 0 0 1 -0.38,0.27 1.46,1.46 0 0 1 -0.53,0.2 0.68,0.68 0 0 1 -0.41,-0.06 0.64,0.64 0 0 1 -0.25,-0.26 1.29,1.29 0 0 1 -0.11,-0.49 z m 1.38,-0.25 a 2,2 0 0 0 0.49,-0.39 2.9,2.9 0 0 0 0.39,-0.53 2.52,2.52 0 0 0 0.25,-0.61 2.8,2.8 0 0 0 0.08,-0.64 v -0.25 l -0.88,0.7 a 3.54,3.54 0 0 0 -0.75,0.75 1.29,1.29 0 0 0 -0.28,0.73 0.65,0.65 0 0 0 0,0.2 0.39,0.39 0 0 0 0.12,0.14 0.35,0.35 0 0 0 0.21,0 0.83,0.83 0 0 0 0.37,-0.1 z"
         style="fill:#e0e0e0"
         id="path105" />
      <path
         d="m 180.94,234.29 a 3.29,3.29 0 0 1 0.16,-0.33 1.9,1.9 0 0 1 0.2,-0.34 2.67,2.67 0 0 1 0.28,-0.32 1.69,1.69 0 0 1 0.36,-0.27 1.27,1.27 0 0 1 0.76,-0.21 0.66,0.66 0 0 1 0.47,0.37 c 0.07,-0.15 0.13,-0.31 0.21,-0.46 a 2.58,2.58 0 0 1 0.25,-0.42 3,3 0 0 1 0.33,-0.38 2.37,2.37 0 0 1 0.43,-0.31 c 0.51,-0.29 0.87,-0.3 1.1,0 a 2.27,2.27 0 0 1 0.35,1.45 v 2.77 a 0.46,0.46 0 0 1 -0.06,0.22 0.34,0.34 0 0 1 -0.15,0.16 l -0.27,0.16 c -0.06,0 -0.1,0 -0.14,0 a 0.2,0.2 0 0 1 -0.06,-0.16 v -2.66 a 1.54,1.54 0 0 0 -0.23,-1 c -0.15,-0.16 -0.37,-0.15 -0.66,0 a 1.62,1.62 0 0 0 -0.64,0.72 2.72,2.72 0 0 0 -0.24,1.21 v 2.74 a 0.49,0.49 0 0 1 -0.06,0.23 0.45,0.45 0 0 1 -0.14,0.16 l -0.28,0.16 a 0.12,0.12 0 0 1 -0.14,0 0.18,0.18 0 0 1 -0.06,-0.15 V 235 a 1.51,1.51 0 0 0 -0.23,-1 c -0.15,-0.16 -0.37,-0.16 -0.66,0 a 1.69,1.69 0 0 0 -0.64,0.72 2.76,2.76 0 0 0 -0.24,1.22 v 2.74 a 0.49,0.49 0 0 1 -0.06,0.22 0.38,0.38 0 0 1 -0.14,0.16 l -0.28,0.16 c -0.06,0 -0.1,0 -0.14,0 a 0.18,0.18 0 0 1 -0.06,-0.15 v -4.65 a 0.49,0.49 0 0 1 0.06,-0.23 0.32,0.32 0 0 1 0.14,-0.16 l 0.28,-0.16 a 0.12,0.12 0 0 1 0.14,0 0.18,0.18 0 0 1 0.06,0.15 z"
         style="fill:#e0e0e0"
         id="path106" />
      <path
         d="m 186.74,232.46 a 4.41,4.41 0 0 1 0.17,-1 4.76,4.76 0 0 1 0.35,-0.91 3.72,3.72 0 0 1 0.52,-0.77 2.78,2.78 0 0 1 0.68,-0.56 1.69,1.69 0 0 1 0.72,-0.24 0.75,0.75 0 0 1 0.54,0.19 1.24,1.24 0 0 1 0.35,0.6 3.45,3.45 0 0 1 0.12,1 v 0.27 a 0.46,0.46 0 0 1 -0.06,0.22 0.49,0.49 0 0 1 -0.14,0.17 l -2.58,1.48 V 233 c 0,0.45 0.11,0.74 0.31,0.87 a 0.68,0.68 0 0 0 0.74,-0.07 1.91,1.91 0 0 0 0.62,-0.51 4.53,4.53 0 0 0 0.33,-0.53 0.75,0.75 0 0 1 0.1,-0.17 0.4,0.4 0 0 1 0.14,-0.11 l 0.22,-0.13 c 0.06,0 0.11,0 0.15,0 a 0.14,0.14 0 0 1 0.06,0.16 2.26,2.26 0 0 1 -0.13,0.47 2.7,2.7 0 0 1 -0.31,0.57 3.69,3.69 0 0 1 -0.49,0.6 3.29,3.29 0 0 1 -0.69,0.52 1.35,1.35 0 0 1 -0.68,0.22 0.8,0.8 0 0 1 -0.52,-0.18 1.32,1.32 0 0 1 -0.35,-0.51 2.7,2.7 0 0 1 -0.17,-0.81 7.06,7.06 0 0 1 0,-0.93 z m 0.67,-0.36 2.1,-1.21 v 0 a 0.93,0.93 0 0 0 -0.28,-0.81 0.72,0.72 0 0 0 -0.77,0.08 1.57,1.57 0 0 0 -0.41,0.33 2.71,2.71 0 0 0 -0.33,0.46 2.43,2.43 0 0 0 -0.22,0.55 2.49,2.49 0 0 0 -0.09,0.6 z"
         style="fill:#e0e0e0"
         id="path107" />
      <path
         d="m 196.46,227.71 a 3.2,3.2 0 0 1 -0.11,0.72 2.81,2.81 0 0 1 -0.24,0.58 2,2 0 0 1 -0.34,0.46 2,2 0 0 1 -0.41,0.32 1,1 0 0 1 -0.55,0.18 0.5,0.5 0 0 1 -0.33,-0.13 l -0.12,0.27 a 3,3 0 0 1 -0.17,0.28 3.2,3.2 0 0 1 -0.26,0.28 2.42,2.42 0 0 1 -0.41,0.28 0.85,0.85 0 0 1 -0.53,0.15 0.54,0.54 0 0 1 -0.38,-0.22 1.32,1.32 0 0 1 -0.23,-0.52 3.26,3.26 0 0 1 -0.07,-0.74 4.57,4.57 0 0 1 0.07,-0.83 3.73,3.73 0 0 1 0.23,-0.78 2.7,2.7 0 0 1 0.38,-0.66 1.81,1.81 0 0 1 0.53,-0.47 0.72,0.72 0 0 1 0.49,-0.14 0.71,0.71 0 0 1 0.26,0.14 v -0.09 a 0.53,0.53 0 0 1 0.06,-0.23 0.45,0.45 0 0 1 0.14,-0.16 l 0.24,-0.14 a 0.14,0.14 0 0 1 0.15,0 0.22,0.22 0 0 1 0.06,0.16 v 2.12 a 0.63,0.63 0 0 0 0.11,0.44 q 0.12,0.12 0.33,0 a 0.69,0.69 0 0 0 0.22,-0.19 0.89,0.89 0 0 0 0.14,-0.25 1.38,1.38 0 0 0 0.08,-0.27 1.21,1.21 0 0 0 0,-0.25 c 0,-0.08 0,-0.24 0,-0.47 a 6.26,6.26 0 0 0 0,-0.74 c -0.06,-0.77 -0.27,-1.25 -0.64,-1.42 a 1.74,1.74 0 0 0 -1.54,0.31 3.65,3.65 0 0 0 -0.73,0.56 4.72,4.72 0 0 0 -0.63,0.81 5.07,5.07 0 0 0 -0.45,1 4.94,4.94 0 0 0 -0.23,1.18 c 0,0.09 0,0.2 0,0.35 0,0.15 0,0.3 0,0.45 0,0.15 0,0.31 0,0.46 0,0.15 0,0.26 0,0.35 a 2.36,2.36 0 0 0 0.23,0.9 1.08,1.08 0 0 0 0.45,0.47 1,1 0 0 0 0.63,0.07 2,2 0 0 0 0.73,-0.27 5.49,5.49 0 0 0 0.53,-0.34 3.37,3.37 0 0 0 0.39,-0.33 2.45,2.45 0 0 0 0.31,-0.34 c 0.09,-0.13 0.19,-0.26 0.28,-0.4 l 0.13,-0.18 a 0.3,0.3 0 0 1 0.13,-0.12 l 0.33,-0.19 a 0.14,0.14 0 0 1 0.14,0 c 0.05,0 0.06,0.09 0.06,0.17 a 0.41,0.41 0 0 1 -0.05,0.18 c -0.11,0.2 -0.23,0.41 -0.37,0.62 a 4.33,4.33 0 0 1 -0.47,0.61 5.86,5.86 0 0 1 -0.62,0.59 5.45,5.45 0 0 1 -0.79,0.54 2.76,2.76 0 0 1 -1,0.36 1.34,1.34 0 0 1 -1.43,-0.75 2.82,2.82 0 0 1 -0.28,-1.16 c 0,-0.09 0,-0.22 0,-0.37 0,-0.15 0,-0.32 0,-0.49 0,-0.17 0,-0.33 0,-0.48 0,-0.15 0,-0.28 0,-0.37 a 5.69,5.69 0 0 1 0.27,-1.47 5.86,5.86 0 0 1 0.6,-1.32 6.1,6.1 0 0 1 0.83,-1.1 4.66,4.66 0 0 1 1,-0.78 3.39,3.39 0 0 1 1.13,-0.44 1.31,1.31 0 0 1 0.87,0.1 1.19,1.19 0 0 1 0.57,0.65 3.35,3.35 0 0 1 0.25,1.19 c 0,0.13 0,0.26 0,0.4 v 0.39 c 0,0.12 0,0.23 0,0.32 z m -3.52,1.54 a 2.58,2.58 0 0 0 0,0.4 1,1 0 0 0 0.11,0.33 0.38,0.38 0 0 0 0.2,0.18 0.35,0.35 0 0 0 0.31,-0.07 1.1,1.1 0 0 0 0.53,-0.63 3.12,3.12 0 0 0 0.14,-1 3.58,3.58 0 0 0 0,-0.49 0.86,0.86 0 0 0 -0.11,-0.32 0.28,0.28 0 0 0 -0.2,-0.14 0.54,0.54 0 0 0 -0.33,0.1 1,1 0 0 0 -0.31,0.29 2,2 0 0 0 -0.2,0.41 2.47,2.47 0 0 0 -0.11,0.47 3.75,3.75 0 0 0 -0.03,0.47 z"
         style="fill:#e0e0e0"
         id="path108" />
      <path
         d="m 197.3,226.36 a 4.41,4.41 0 0 1 0.17,-1 5.1,5.1 0 0 1 0.35,-0.9 3.79,3.79 0 0 1 0.52,-0.78 3,3 0 0 1 0.68,-0.56 1.69,1.69 0 0 1 0.72,-0.24 0.79,0.79 0 0 1 0.54,0.19 1.35,1.35 0 0 1 0.35,0.6 3.5,3.5 0 0 1 0.12,1 V 225 a 0.49,0.49 0 0 1 -0.06,0.23 0.45,0.45 0 0 1 -0.14,0.16 l -2.55,1.46 v 0.05 c 0,0.45 0.11,0.74 0.31,0.87 a 0.68,0.68 0 0 0 0.74,-0.06 2.2,2.2 0 0 0 0.62,-0.51 5.63,5.63 0 0 0 0.33,-0.54 1.09,1.09 0 0 1 0.1,-0.17 l 0.14,-0.11 0.22,-0.13 a 0.16,0.16 0 0 1 0.15,0 0.15,0.15 0 0 1 0.06,0.16 2.26,2.26 0 0 1 -0.13,0.47 2.53,2.53 0 0 1 -0.31,0.58 3.64,3.64 0 0 1 -0.49,0.59 3.71,3.71 0 0 1 -0.69,0.53 1.43,1.43 0 0 1 -0.67,0.21 0.81,0.81 0 0 1 -0.53,-0.18 1.32,1.32 0 0 1 -0.35,-0.51 2.7,2.7 0 0 1 -0.17,-0.81 7.06,7.06 0 0 1 -0.03,-0.93 z m 0.7,-0.36 2.1,-1.22 v 0 a 1,1 0 0 0 -0.28,-0.81 0.72,0.72 0 0 0 -0.77,0.08 2.12,2.12 0 0 0 -0.41,0.33 3.17,3.17 0 0 0 -0.33,0.46 2.51,2.51 0 0 0 -0.22,0.56 2.89,2.89 0 0 0 -0.09,0.6 z"
         style="fill:#e0e0e0"
         id="path109" />
      <path
         d="m 202.34,221.94 a 3.23,3.23 0 0 1 0.15,-0.34 2.39,2.39 0 0 1 0.21,-0.34 3.74,3.74 0 0 1 0.3,-0.26 2.07,2.07 0 0 1 0.37,-0.27 1.13,1.13 0 0 1 0.76,-0.21 0.66,0.66 0 0 1 0.47,0.37 c 0.06,-0.16 0.13,-0.31 0.2,-0.46 a 3.78,3.78 0 0 1 0.2,-0.43 2.91,2.91 0 0 1 0.33,-0.37 2.07,2.07 0 0 1 0.43,-0.31 c 0.5,-0.3 0.87,-0.31 1.1,0 a 2.32,2.32 0 0 1 0.34,1.46 v 2.76 a 0.49,0.49 0 0 1 -0.06,0.23 0.32,0.32 0 0 1 -0.14,0.16 l -0.27,0.16 a 0.14,0.14 0 0 1 -0.15,0 0.18,0.18 0 0 1 -0.06,-0.15 v -2.67 a 1.52,1.52 0 0 0 -0.22,-1 c -0.15,-0.16 -0.37,-0.15 -0.66,0 a 1.67,1.67 0 0 0 -0.64,0.72 2.79,2.79 0 0 0 -0.25,1.22 v 2.74 a 0.37,0.37 0 0 1 -0.06,0.22 0.28,0.28 0 0 1 -0.14,0.16 l -0.27,0.16 a 0.12,0.12 0 0 1 -0.15,0 0.2,0.2 0 0 1 -0.06,-0.16 v -2.73 a 1.56,1.56 0 0 0 -0.22,-1 c -0.15,-0.16 -0.37,-0.15 -0.66,0 a 1.57,1.57 0 0 0 -0.64,0.72 2.73,2.73 0 0 0 -0.24,1.22 v 2.73 a 0.41,0.41 0 0 1 -0.07,0.23 0.32,0.32 0 0 1 -0.14,0.16 l -0.27,0.16 a 0.14,0.14 0 0 1 -0.15,0 0.21,0.21 0 0 1 -0.06,-0.15 V 222 a 0.6,0.6 0 0 1 0.06,-0.22 0.34,0.34 0 0 1 0.15,-0.16 l 0.27,-0.16 c 0.06,0 0.11,0 0.14,0 a 0.17,0.17 0 0 1 0.07,0.16 z"
         style="fill:#e0e0e0"
         id="path110" />
      <path
         d="m 208,222 a 2.48,2.48 0 0 1 0.12,-0.77 3,3 0 0 1 0.33,-0.7 4.17,4.17 0 0 1 0.49,-0.62 6.2,6.2 0 0 1 0.6,-0.55 l 1,-0.84 v -0.13 c 0,-0.33 -0.08,-0.54 -0.25,-0.61 a 0.67,0.67 0 0 0 -0.62,0.1 1.47,1.47 0 0 0 -0.5,0.45 3.19,3.19 0 0 0 -0.29,0.55 0.49,0.49 0 0 1 -0.1,0.16 0.4,0.4 0 0 1 -0.14,0.11 l -0.22,0.13 c -0.06,0 -0.11,0 -0.15,0 a 0.18,0.18 0 0 1 -0.06,-0.16 2,2 0 0 1 0.14,-0.52 2.57,2.57 0 0 1 0.31,-0.59 3.51,3.51 0 0 1 0.46,-0.56 2.53,2.53 0 0 1 0.55,-0.44 1.76,1.76 0 0 1 0.62,-0.23 0.74,0.74 0 0 1 0.5,0.1 0.82,0.82 0 0 1 0.32,0.43 2.13,2.13 0 0 1 0.12,0.78 v 3 a 0.46,0.46 0 0 1 -0.06,0.22 0.34,0.34 0 0 1 -0.15,0.16 l -0.27,0.16 a 0.12,0.12 0 0 1 -0.15,0 0.2,0.2 0 0 1 -0.06,-0.16 v -0.41 a 1.84,1.84 0 0 1 -0.2,0.46 4.46,4.46 0 0 1 -0.33,0.43 3.3,3.3 0 0 1 -0.38,0.37 2.31,2.31 0 0 1 -0.37,0.26 1.39,1.39 0 0 1 -0.54,0.2 0.76,0.76 0 0 1 -0.41,-0.05 0.6,0.6 0 0 1 -0.26,-0.3 A 1.06,1.06 0 0 1 208,222 Z m 1.38,-0.25 a 2.05,2.05 0 0 0 0.5,-0.39 2.85,2.85 0 0 0 0.38,-0.53 2.52,2.52 0 0 0 0.25,-0.61 2.36,2.36 0 0 0 0.08,-0.65 v -0.25 l -0.88,0.7 a 4.42,4.42 0 0 0 -0.75,0.75 1.32,1.32 0 0 0 -0.28,0.74 0.58,0.58 0 0 0 0,0.19 0.33,0.33 0 0 0 0.12,0.14 0.31,0.31 0 0 0 0.22,0 0.85,0.85 0 0 0 0.4,-0.14 z"
         style="fill:#e0e0e0"
         id="path111" />
      <path
         d="m 213.17,214.05 a 0.46,0.46 0 0 1 -0.06,0.22 0.34,0.34 0 0 1 -0.15,0.16 l -0.42,0.25 a 0.14,0.14 0 0 1 -0.15,0 0.21,0.21 0 0 1 0,-0.15 V 214 a 0.68,0.68 0 0 1 0,-0.23 0.47,0.47 0 0 1 0.15,-0.16 l 0.42,-0.24 a 0.12,0.12 0 0 1 0.15,0 0.18,0.18 0 0 1 0.06,0.16 z m -0.08,6 a 0.49,0.49 0 0 1 -0.06,0.23 0.45,0.45 0 0 1 -0.14,0.16 l -0.28,0.16 a 0.12,0.12 0 0 1 -0.14,0 0.18,0.18 0 0 1 -0.06,-0.15 v -4.66 a 0.46,0.46 0 0 1 0.06,-0.22 0.38,0.38 0 0 1 0.14,-0.16 l 0.28,-0.16 a 0.11,0.11 0 0 1 0.14,0 0.2,0.2 0 0 1 0.06,0.16 z"
         style="fill:#e0e0e0"
         id="path112" />
      <path
         d="m 214.9,219 a 0.46,0.46 0 0 1 -0.06,0.22 0.36,0.36 0 0 1 -0.15,0.17 l -0.27,0.16 a 0.14,0.14 0 0 1 -0.15,0 0.18,0.18 0 0 1 -0.06,-0.16 v -6.55 a 0.46,0.46 0 0 1 0.06,-0.22 0.34,0.34 0 0 1 0.15,-0.16 l 0.27,-0.16 c 0.06,0 0.11,0 0.15,0 a 0.2,0.2 0 0 1 0.06,0.16 z"
         style="fill:#e0e0e0"
         id="path113" />
      <path
         d="m 216.63,217.09 a 0.14,0.14 0 0 1 0.15,0 0.18,0.18 0 0 1 0.06,0.15 v 0.67 a 0.53,0.53 0 0 1 -0.06,0.23 0.39,0.39 0 0 1 -0.15,0.16 l -0.5,0.29 a 0.12,0.12 0 0 1 -0.14,0 0.18,0.18 0 0 1 -0.06,-0.16 v -0.67 a 0.49,0.49 0 0 1 0.06,-0.22 0.38,0.38 0 0 1 0.14,-0.16 z"
         style="fill:#e0e0e0"
         id="path114" />
      <path
         d="m 218.31,215.08 a 1.79,1.79 0 0 0 0.13,0.61 0.73,0.73 0 0 0 0.25,0.31 0.54,0.54 0 0 0 0.33,0.08 1,1 0 0 0 0.36,-0.13 2.11,2.11 0 0 0 0.62,-0.53 2.37,2.37 0 0 0 0.39,-0.83 1.15,1.15 0 0 1 0.11,-0.28 0.43,0.43 0 0 1 0.14,-0.13 l 0.22,-0.13 a 0.12,0.12 0 0 1 0.15,0 0.18,0.18 0 0 1 0.06,0.16 2.68,2.68 0 0 1 -0.12,0.59 3.71,3.71 0 0 1 -0.32,0.72 4.76,4.76 0 0 1 -0.52,0.71 2.78,2.78 0 0 1 -0.73,0.59 1.49,1.49 0 0 1 -0.73,0.24 0.79,0.79 0 0 1 -0.54,-0.18 1.16,1.16 0 0 1 -0.34,-0.53 2.74,2.74 0 0 1 -0.14,-0.82 c 0,-0.1 0,-0.23 0,-0.38 a 2.8,2.8 0 0 1 0,-0.42 5,5 0 0 1 0.49,-1.91 3.94,3.94 0 0 1 0.54,-0.79 2.78,2.78 0 0 1 0.72,-0.6 1.67,1.67 0 0 1 0.73,-0.25 1,1 0 0 1 0.52,0.11 0.78,0.78 0 0 1 0.32,0.35 1.21,1.21 0 0 1 0.12,0.45 0.46,0.46 0 0 1 -0.06,0.22 0.36,0.36 0 0 1 -0.15,0.17 l -0.22,0.13 a 0.15,0.15 0 0 1 -0.14,0 c 0,0 -0.07,-0.06 -0.11,-0.15 -0.04,-0.09 -0.22,-0.35 -0.39,-0.37 a 1,1 0 0 0 -0.62,0.18 1.63,1.63 0 0 0 -0.37,0.3 2,2 0 0 0 -0.33,0.45 3.26,3.26 0 0 0 -0.24,0.6 3.45,3.45 0 0 0 -0.13,0.75 c -0.01,0.27 -0.01,0.5 0,0.71 z"
         style="fill:#e0e0e0"
         id="path115" />
      <path
         d="m 223.56,209 a 1.88,1.88 0 0 1 0.72,-0.25 0.82,0.82 0 0 1 0.54,0.15 1,1 0 0 1 0.36,0.5 2.9,2.9 0 0 1 0.16,0.81 v 0.94 a 5.5,5.5 0 0 1 -0.17,1 3.91,3.91 0 0 1 -0.35,0.9 3.8,3.8 0 0 1 -0.54,0.77 3.11,3.11 0 0 1 -0.72,0.58 1.72,1.72 0 0 1 -0.72,0.25 0.82,0.82 0 0 1 -0.54,-0.15 1,1 0 0 1 -0.3,-0.5 2.58,2.58 0 0 1 -0.16,-0.81 c 0,-0.06 0,-0.12 0,-0.2 v -0.52 c 0,-0.09 0,-0.16 0,-0.22 a 4.85,4.85 0 0 1 0.16,-1 3.82,3.82 0 0 1 0.35,-0.91 4.1,4.1 0 0 1 0.54,-0.77 3.11,3.11 0 0 1 0.67,-0.57 z m 1.09,2.49 c 0,-0.12 0,-0.26 0,-0.42 0,-0.16 0,-0.31 0,-0.42 a 1.79,1.79 0 0 0 -0.09,-0.5 0.67,0.67 0 0 0 -0.21,-0.33 0.47,0.47 0 0 0 -0.33,-0.11 1,1 0 0 0 -0.46,0.15 2.12,2.12 0 0 0 -0.46,0.38 2.34,2.34 0 0 0 -0.33,0.49 2.75,2.75 0 0 0 -0.2,0.57 3.11,3.11 0 0 0 -0.1,0.61 c 0,0.13 0,0.27 0,0.44 0,0.17 0,0.29 0,0.4 a 1.77,1.77 0 0 0 0.1,0.5 0.66,0.66 0 0 0 0.2,0.33 0.47,0.47 0 0 0 0.33,0.11 1,1 0 0 0 0.46,-0.15 1.7,1.7 0 0 0 0.46,-0.38 2.27,2.27 0 0 0 0.33,-0.48 2.66,2.66 0 0 0 0.21,-0.58 3.1,3.1 0 0 0 0.09,-0.61 z"
         style="fill:#e0e0e0"
         id="path116" />
      <path
         d="m 227,207.72 a 3.4,3.4 0 0 1 0.16,-0.34 3.79,3.79 0 0 1 0.2,-0.34 2,2 0 0 1 0.28,-0.31 1.69,1.69 0 0 1 0.36,-0.27 1.14,1.14 0 0 1 0.76,-0.21 0.62,0.62 0 0 1 0.47,0.37 c 0.07,-0.16 0.13,-0.31 0.21,-0.46 a 2.67,2.67 0 0 1 0.25,-0.43 2.91,2.91 0 0 1 0.33,-0.37 2.4,2.4 0 0 1 0.43,-0.32 c 0.51,-0.29 0.87,-0.3 1.1,0 a 2.31,2.31 0 0 1 0.35,1.46 v 2.76 a 0.53,0.53 0 0 1 -0.06,0.23 0.39,0.39 0 0 1 -0.15,0.16 l -0.27,0.16 c -0.06,0 -0.11,0 -0.14,0 -0.03,0 -0.06,-0.08 -0.06,-0.15 V 207 a 1.51,1.51 0 0 0 -0.23,-1 c -0.15,-0.16 -0.37,-0.16 -0.66,0 a 1.68,1.68 0 0 0 -0.64,0.72 2.76,2.76 0 0 0 -0.24,1.22 v 2.74 a 0.46,0.46 0 0 1 -0.06,0.22 0.38,0.38 0 0 1 -0.14,0.16 l -0.28,0.16 a 0.12,0.12 0 0 1 -0.14,0 0.16,0.16 0 0 1 -0.06,-0.15 v -2.67 a 1.53,1.53 0 0 0 -0.23,-1 c -0.15,-0.16 -0.37,-0.15 -0.66,0 a 1.62,1.62 0 0 0 -0.64,0.72 2.72,2.72 0 0 0 -0.24,1.21 v 2.74 a 0.46,0.46 0 0 1 -0.06,0.22 0.49,0.49 0 0 1 -0.14,0.17 l -0.28,0.16 a 0.12,0.12 0 0 1 -0.14,0 0.18,0.18 0 0 1 -0.06,-0.16 v -4.66 a 0.46,0.46 0 0 1 0.06,-0.22 0.49,0.49 0 0 1 0.14,-0.17 l 0.28,-0.16 a 0.12,0.12 0 0 1 0.14,0 0.18,0.18 0 0 1 0.06,0.16 z"
         style="fill:#e0e0e0"
         id="path117" />
      <path
         d="m 152.55,220.05 a 0.41,0.41 0 0 1 -0.21,-0.76 L 260.3,157 a 0.4,0.4 0 0 1 0.55,0.15 0.41,0.41 0 0 1 -0.15,0.55 L 152.75,220 a 0.41,0.41 0 0 1 -0.2,0.05 z"
         style="fill:#e0e0e0"
         id="path118" />
      <path
         d="m 213.2,330.55 a 0.39,0.39 0 0 1 -0.35,-0.2 0.4,0.4 0 0 1 0.14,-0.55 l 47.31,-27.31 a 0.4,0.4 0 0 1 0.55,0.14 0.4,0.4 0 0 1 -0.15,0.55 l -47.3,27.31 a 0.41,0.41 0 0 1 -0.2,0.06 z"
         style="fill:#e0e0e0"
         id="path119" />
      <path
         d="m 152.55,365.56 a 0.4,0.4 0 0 1 -0.2,-0.75 l 47.3,-27.31 a 0.40311289,0.40311289 0 0 1 0.4,0.7 l -47.3,27.31 a 0.39,0.39 0 0 1 -0.2,0.05 z"
         style="fill:#e0e0e0"
         id="path120" />
      <path
         d="m 203.22,334.47 a 5.41,5.41 0 0 1 0.14,-1 5,5 0 0 1 0.37,-1 4.38,4.38 0 0 1 0.62,-0.88 3.57,3.57 0 0 1 0.87,-0.7 2.13,2.13 0 0 1 0.87,-0.31 0.89,0.89 0 0 1 0.61,0.18 1.15,1.15 0 0 1 0.37,0.56 2.83,2.83 0 0 1 0.15,0.88 c 0,0.11 0,0.24 0,0.37 0,0.13 0,0.28 0,0.43 0,0.15 0,0.3 0,0.44 0,0.14 0,0.27 0,0.39 a 5.41,5.41 0 0 1 -0.14,1 4.69,4.69 0 0 1 -0.37,1 4.12,4.12 0 0 1 -0.62,0.88 3.72,3.72 0 0 1 -0.87,0.7 2.24,2.24 0 0 1 -0.87,0.31 0.91,0.91 0 0 1 -0.62,-0.17 1.26,1.26 0 0 1 -0.37,-0.57 3.17,3.17 0 0 1 -0.14,-0.87 c 0,-0.11 0,-0.24 0,-0.38 v -0.86 c -0.01,-0.15 -0.01,-0.28 0,-0.4 z m 3.08,-1.74 a 1,1 0 0 0 -0.31,-0.83 0.72,0.72 0 0 0 -0.77,0.09 2,2 0 0 0 -0.77,0.8 2.6,2.6 0 0 0 -0.31,1.2 c 0,0.23 0,0.49 0,0.77 0,0.28 0,0.54 0,0.76 a 1,1 0 0 0 0.31,0.83 0.75,0.75 0 0 0 0.77,-0.09 2,2 0 0 0 0.77,-0.8 2.65,2.65 0 0 0 0.31,-1.19 c 0,-0.23 0,-0.49 0,-0.78 0,-0.29 0.01,-0.49 0,-0.76 z"
         style="fill:#e0e0e0"
         id="path121" />
      <path
         d="m 209.72,331.07 a 1.5,1.5 0 0 0 -0.59,0.58 1.93,1.93 0 0 0 -0.18,0.89 v 2.37 a 0.41,0.41 0 0 1 -0.06,0.2 0.31,0.31 0 0 1 -0.12,0.15 l -0.52,0.3 a 0.1,0.1 0 0 1 -0.13,0 0.16,0.16 0 0 1 -0.06,-0.14 v -4.24 a 0.41,0.41 0 0 1 0.06,-0.2 0.32,0.32 0 0 1 0.13,-0.15 l 0.52,-0.3 c 0,0 0.09,0 0.12,0 a 0.16,0.16 0 0 1 0.06,0.14 v 0.21 a 3,3 0 0 1 0.38,-0.55 2,2 0 0 1 0.53,-0.43 l 0.3,-0.18 a 0.15,0.15 0 0 1 0.13,0 0.17,0.17 0 0 1 0.06,0.14 v 0.61 a 0.41,0.41 0 0 1 -0.06,0.2 0.32,0.32 0 0 1 -0.13,0.15 z"
         style="fill:#e0e0e0"
         id="path122" />
      <path
         d="m 157.49,260 a 2.31,2.31 0 0 1 -1.18,-0.31 3.69,3.69 0 0 1 -1.5,-3.36 v -10.44 c 0,-2.85 1.68,-6 3.84,-7.29 l 95.21,-55 a 2.8,2.8 0 0 1 2.88,-0.19 3.69,3.69 0 0 1 1.5,3.35 v 10.49 c 0,2.84 -1.69,6.05 -3.84,7.29 v 0 l -95.21,55 a 3.48,3.48 0 0 1 -1.7,0.46 z m 98,-75.84 a 2.29,2.29 0 0 0 -1.14,0.36 l -95.21,55 c -1.83,1.05 -3.31,3.9 -3.31,6.36 v 10.48 a 2.69,2.69 0 0 0 1,2.43 1.83,1.83 0 0 0 1.8,-0.19 l 95.21,-55 c 1.82,-1 3.3,-3.91 3.3,-6.36 v -10.45 a 2.7,2.7 0 0 0 -1,-2.42 1.3,1.3 0 0 0 -0.6,-0.17 z m -1.41,19.91 z"
         style="fill:#e0e0e0"
         id="path123" />
      <path
         d="m 158.15,266.42 a 2.57,2.57 0 0 1 0.69,-0.28 0.93,0.93 0 0 1 0.58,0.06 0.87,0.87 0 0 1 0.39,0.43 2.06,2.06 0 0 1 0.14,0.86 3.49,3.49 0 0 1 -0.14,1 4.08,4.08 0 0 1 -0.39,0.9 3.52,3.52 0 0 1 -0.58,0.73 3.43,3.43 0 0 1 -0.69,0.53 l -1.38,0.8 v 2.44 a 0.49,0.49 0 0 1 -0.06,0.23 0.38,0.38 0 0 1 -0.14,0.16 l -0.31,0.18 a 0.12,0.12 0 0 1 -0.14,0 0.18,0.18 0 0 1 -0.06,-0.15 v -6.46 a 0.49,0.49 0 0 1 0.06,-0.22 0.38,0.38 0 0 1 0.14,-0.16 z m -1.38,4.17 1.34,-0.78 A 2.29,2.29 0 0 0 159,269 a 2.06,2.06 0 0 0 0.29,-1.12 c 0,-0.42 -0.09,-0.67 -0.29,-0.75 a 1,1 0 0 0 -0.84,0.19 l -1.34,0.77 z"
         style="fill:#455a64"
         id="path124" />
      <path
         d="m 160.42,270.79 a 2.48,2.48 0 0 1 0.12,-0.77 3.19,3.19 0 0 1 0.33,-0.7 3.61,3.61 0 0 1 0.49,-0.62 7.39,7.39 0 0 1 0.59,-0.54 l 1.06,-0.84 v -0.13 c 0,-0.34 -0.08,-0.55 -0.25,-0.62 a 0.7,0.7 0 0 0 -0.63,0.11 1.41,1.41 0 0 0 -0.49,0.44 2.62,2.62 0 0 0 -0.29,0.55 0.49,0.49 0 0 1 -0.1,0.16 0.58,0.58 0 0 1 -0.14,0.12 l -0.23,0.13 a 0.12,0.12 0 0 1 -0.14,0 c -0.05,0 -0.06,-0.08 -0.06,-0.16 a 2.07,2.07 0 0 1 0.13,-0.52 3.09,3.09 0 0 1 0.32,-0.59 3.94,3.94 0 0 1 0.45,-0.56 2.66,2.66 0 0 1 0.55,-0.43 1.92,1.92 0 0 1 0.63,-0.24 0.72,0.72 0 0 1 0.49,0.1 0.87,0.87 0 0 1 0.33,0.43 2.39,2.39 0 0 1 0.11,0.78 v 3.05 a 0.46,0.46 0 0 1 -0.06,0.22 0.49,0.49 0 0 1 -0.14,0.17 l -0.28,0.16 a 0.12,0.12 0 0 1 -0.14,0 0.18,0.18 0 0 1 -0.06,-0.16 v -0.41 a 1.46,1.46 0 0 1 -0.21,0.46 2.24,2.24 0 0 1 -0.33,0.43 3.49,3.49 0 0 1 -0.75,0.64 1.46,1.46 0 0 1 -0.53,0.2 0.71,0.71 0 0 1 -0.42,-0.06 0.67,0.67 0 0 1 -0.26,-0.29 1.29,1.29 0 0 1 -0.09,-0.51 z m 1.38,-0.25 a 2,2 0 0 0 0.49,-0.39 2.9,2.9 0 0 0 0.39,-0.53 3,3 0 0 0 0.25,-0.61 2.8,2.8 0 0 0 0.08,-0.64 v -0.25 l -0.88,0.7 a 3.32,3.32 0 0 0 -0.75,0.75 1.2,1.2 0 0 0 -0.28,0.73 0.38,0.38 0 0 0 0,0.19 0.29,0.29 0 0 0 0.12,0.15 0.34,0.34 0 0 0 0.21,0 0.83,0.83 0 0 0 0.37,-0.1 z"
         style="fill:#455a64"
         id="path125" />
      <path
         d="m 167,266.86 a 0.34,0.34 0 0 0 -0.08,-0.27 0.32,0.32 0 0 0 -0.23,-0.08 1.68,1.68 0 0 0 -0.4,0.06 l -0.57,0.16 c -0.4,0.12 -0.69,0.1 -0.85,-0.07 a 1.11,1.11 0 0 1 -0.24,-0.79 2.32,2.32 0 0 1 0.09,-0.62 2.85,2.85 0 0 1 0.27,-0.63 2.8,2.8 0 0 1 0.45,-0.59 2.86,2.86 0 0 1 0.64,-0.49 2.09,2.09 0 0 1 0.64,-0.26 1,1 0 0 1 0.46,0 0.56,0.56 0 0 1 0.29,0.2 0.57,0.57 0 0 1 0.1,0.31 0.39,0.39 0 0 1 0,0.23 0.47,0.47 0 0 1 -0.15,0.16 l -0.25,0.14 h -0.11 a 0.11,0.11 0 0 1 -0.11,-0.05 0.38,0.38 0 0 0 -0.29,-0.11 1.06,1.06 0 0 0 -0.53,0.19 1.77,1.77 0 0 0 -0.56,0.49 1,1 0 0 0 -0.21,0.59 0.45,0.45 0 0 0 0.06,0.27 0.26,0.26 0 0 0 0.19,0.09 1.38,1.38 0 0 0 0.36,0 l 0.55,-0.15 a 1.64,1.64 0 0 1 0.58,-0.08 0.77,0.77 0 0 1 0.37,0.13 0.59,0.59 0 0 1 0.2,0.32 1.56,1.56 0 0 1 0.06,0.46 2.17,2.17 0 0 1 -0.1,0.64 3.67,3.67 0 0 1 -0.31,0.67 4,4 0 0 1 -0.5,0.62 2.93,2.93 0 0 1 -0.65,0.51 1.78,1.78 0 0 1 -0.65,0.25 1.13,1.13 0 0 1 -0.49,0 0.56,0.56 0 0 1 -0.31,-0.2 0.6,0.6 0 0 1 -0.12,-0.32 0.49,0.49 0 0 1 0.06,-0.22 0.33,0.33 0 0 1 0.15,-0.16 l 0.26,-0.16 h 0.11 c 0,0 0.08,0 0.11,0.05 a 0.37,0.37 0 0 0 0.33,0.14 1.19,1.19 0 0 0 0.55,-0.19 1.41,1.41 0 0 0 0.32,-0.24 2,2 0 0 0 0.29,-0.3 1.94,1.94 0 0 0 0.2,-0.33 0.77,0.77 0 0 0 0.02,-0.37 z"
         style="fill:#455a64"
         id="path126" />
      <path
         d="m 170.79,264.67 a 0.36,0.36 0 0 0 -0.08,-0.27 0.32,0.32 0 0 0 -0.23,-0.08 1.77,1.77 0 0 0 -0.4,0.07 l -0.57,0.15 c -0.4,0.12 -0.69,0.1 -0.85,-0.07 a 1.1,1.1 0 0 1 -0.24,-0.78 2.39,2.39 0 0 1 0.09,-0.63 2.85,2.85 0 0 1 0.27,-0.63 2.8,2.8 0 0 1 0.45,-0.59 2.86,2.86 0 0 1 0.64,-0.49 2,2 0 0 1 0.64,-0.26 1,1 0 0 1 0.46,0 0.56,0.56 0 0 1 0.29,0.2 0.58,0.58 0 0 1 0.1,0.32 0.32,0.32 0 0 1 -0.06,0.22 0.38,0.38 0 0 1 -0.14,0.16 l -0.25,0.15 a 0.29,0.29 0 0 1 -0.11,0 0.1,0.1 0 0 1 -0.11,0 0.36,0.36 0 0 0 -0.29,-0.12 1.06,1.06 0 0 0 -0.53,0.19 1.67,1.67 0 0 0 -0.56,0.49 1,1 0 0 0 -0.21,0.59 0.45,0.45 0 0 0 0.06,0.27 0.25,0.25 0 0 0 0.19,0.09 1.38,1.38 0 0 0 0.36,0 l 0.55,-0.15 a 1.9,1.9 0 0 1 0.58,-0.08 0.69,0.69 0 0 1 0.37,0.14 0.56,0.56 0 0 1 0.2,0.31 1.6,1.6 0 0 1 0.06,0.46 1.91,1.91 0 0 1 -0.11,0.64 2.69,2.69 0 0 1 -0.31,0.67 3.1,3.1 0 0 1 -0.49,0.62 2.93,2.93 0 0 1 -0.65,0.51 2,2 0 0 1 -0.65,0.26 1.12,1.12 0 0 1 -0.49,0 0.53,0.53 0 0 1 -0.31,-0.2 0.59,0.59 0 0 1 -0.12,-0.31 0.53,0.53 0 0 1 0.06,-0.23 0.39,0.39 0 0 1 0.15,-0.16 l 0.27,-0.16 h 0.1 c 0,0 0.08,0 0.11,0.05 a 0.4,0.4 0 0 0 0.33,0.15 1.23,1.23 0 0 0 0.55,-0.2 1.41,1.41 0 0 0 0.32,-0.24 1.64,1.64 0 0 0 0.29,-0.3 1.94,1.94 0 0 0 0.2,-0.33 0.77,0.77 0 0 0 0.07,-0.43 z"
         style="fill:#455a64"
         id="path127" />
      <path
         d="m 175.92,261.53 0.84,-3.82 a 1.45,1.45 0 0 1 0.08,-0.21 0.52,0.52 0 0 1 0.18,-0.18 l 0.24,-0.14 a 0.1,0.1 0 0 1 0.13,0 c 0,0 0.05,0.07 0.05,0.14 v 0.08 l -1.15,5.26 a 1.35,1.35 0 0 1 -0.08,0.24 0.35,0.35 0 0 1 -0.15,0.17 l -0.23,0.13 c -0.06,0 -0.11,0 -0.14,0 a 0.38,0.38 0 0 1 -0.09,-0.15 l -0.89,-2.8 -0.89,3.83 a 1.84,1.84 0 0 1 -0.09,0.25 0.39,0.39 0 0 1 -0.14,0.17 l -0.24,0.13 c -0.06,0 -0.11,0 -0.14,0 a 0.48,0.48 0 0 1 -0.08,-0.16 L 172,260.55 v -0.08 a 0.39,0.39 0 0 1 0.05,-0.2 0.35,0.35 0 0 1 0.13,-0.14 l 0.24,-0.14 c 0.08,-0.05 0.13,-0.05 0.17,0 a 0.31,0.31 0 0 1 0.09,0.11 l 0.84,2.85 0.89,-3.85 a 1,1 0 0 1 0.08,-0.2 0.35,0.35 0 0 1 0.16,-0.18 l 0.16,-0.09 c 0.08,-0.05 0.13,-0.05 0.16,0 a 0.19,0.19 0 0 1 0.07,0.11 z"
         style="fill:#455a64"
         id="path128" />
      <path
         d="m 179.76,255.64 a 1.59,1.59 0 0 1 0.72,-0.25 0.81,0.81 0 0 1 0.54,0.14 1.08,1.08 0 0 1 0.36,0.5 2.58,2.58 0 0 1 0.16,0.81 c 0,0.06 0,0.13 0,0.21 v 0.52 c 0,0.08 0,0.15 0,0.21 a 4.65,4.65 0 0 1 -0.17,1 3.91,3.91 0 0 1 -0.35,0.9 3.8,3.8 0 0 1 -0.54,0.77 3.11,3.11 0 0 1 -0.72,0.58 1.64,1.64 0 0 1 -0.72,0.25 0.86,0.86 0 0 1 -0.53,-0.14 1.08,1.08 0 0 1 -0.36,-0.5 2.58,2.58 0 0 1 -0.16,-0.81 1.15,1.15 0 0 1 0,-0.2 c 0,-0.08 0,-0.17 0,-0.26 0,-0.09 0,-0.17 0,-0.26 a 1.48,1.48 0 0 1 0,-0.22 4.85,4.85 0 0 1 0.16,-1 4.54,4.54 0 0 1 0.36,-0.91 4.12,4.12 0 0 1 0.53,-0.76 3.28,3.28 0 0 1 0.72,-0.58 z m 1.1,2.48 c 0,-0.12 0,-0.26 0,-0.42 0,-0.16 0,-0.3 0,-0.42 a 2.21,2.21 0 0 0 -0.1,-0.5 0.78,0.78 0 0 0 -0.21,-0.33 0.52,0.52 0 0 0 -0.33,-0.11 0.91,0.91 0 0 0 -0.46,0.16 1.78,1.78 0 0 0 -0.45,0.37 2.34,2.34 0 0 0 -0.33,0.49 2.78,2.78 0 0 0 -0.21,0.57 4.22,4.22 0 0 0 -0.1,0.62 c 0,0.12 0,0.27 0,0.43 0,0.16 0,0.3 0,0.41 a 2.46,2.46 0 0 0 0.1,0.5 0.78,0.78 0 0 0 0.21,0.33 0.47,0.47 0 0 0 0.33,0.1 0.92,0.92 0 0 0 0.45,-0.15 1.67,1.67 0 0 0 0.46,-0.37 2.34,2.34 0 0 0 0.33,-0.49 2.78,2.78 0 0 0 0.21,-0.57 4.22,4.22 0 0 0 0.1,-0.62 z"
         style="fill:#455a64"
         id="path129" />
      <path
         d="m 184.47,253 a 0.12,0.12 0 0 1 0.14,0 0.18,0.18 0 0 1 0.06,0.15 v 0.32 a 0.49,0.49 0 0 1 -0.06,0.23 0.38,0.38 0 0 1 -0.14,0.16 l -0.44,0.25 a 1.76,1.76 0 0 0 -0.86,1.65 v 2.91 a 0.49,0.49 0 0 1 -0.06,0.23 0.45,0.45 0 0 1 -0.14,0.16 l -0.28,0.16 a 0.12,0.12 0 0 1 -0.14,0 0.18,0.18 0 0 1 -0.06,-0.15 v -4.66 a 0.46,0.46 0 0 1 0.06,-0.22 0.38,0.38 0 0 1 0.14,-0.16 l 0.28,-0.16 a 0.1,0.1 0 0 1 0.14,0 0.16,0.16 0 0 1 0.06,0.15 v 0.31 a 2.5,2.5 0 0 1 0.36,-0.65 2.07,2.07 0 0 1 0.55,-0.45 z"
         style="fill:#455a64"
         id="path130" />
      <path
         d="m 186.75,251.61 a 1.17,1.17 0 0 1 0.74,-0.22 0.78,0.78 0 0 1 0.42,0.23 v -2.21 a 0.59,0.59 0 0 1 0.05,-0.22 0.43,0.43 0 0 1 0.15,-0.17 l 0.27,-0.16 a 0.14,0.14 0 0 1 0.15,0 0.18,0.18 0 0 1 0.06,0.16 v 6.55 a 0.46,0.46 0 0 1 -0.06,0.22 0.34,0.34 0 0 1 -0.15,0.16 l -0.27,0.16 a 0.16,0.16 0 0 1 -0.15,0 0.23,0.23 0 0 1 -0.05,-0.16 v -0.31 a 3.42,3.42 0 0 1 -0.43,0.72 2.66,2.66 0 0 1 -0.73,0.63 1.33,1.33 0 0 1 -0.66,0.21 0.77,0.77 0 0 1 -0.53,-0.17 1.22,1.22 0 0 1 -0.36,-0.54 3.09,3.09 0 0 1 -0.16,-0.9 V 255 a 5.3,5.3 0 0 1 0.16,-1.08 4.55,4.55 0 0 1 0.36,-1 4.2,4.2 0 0 1 0.53,-0.77 2.38,2.38 0 0 1 0.66,-0.54 z m 1.16,2.45 v -0.79 a 1.19,1.19 0 0 0 -0.32,-0.91 0.69,0.69 0 0 0 -0.77,0.06 2,2 0 0 0 -0.78,0.87 3.29,3.29 0 0 0 -0.31,1.32 5.23,5.23 0 0 0 0,0.56 1.35,1.35 0 0 0 0.31,1 q 0.28,0.25 0.78,0 a 2.09,2.09 0 0 0 0.76,-0.82 2.81,2.81 0 0 0 0.33,-1.29 z"
         style="fill:#455a64"
         id="path131" />
      <path
         d="m 161.22,289.38 a 3.74,3.74 0 0 1 0.14,-1 4.25,4.25 0 0 1 0.37,-0.95 3.85,3.85 0 0 1 0.55,-0.81 2.66,2.66 0 0 1 0.67,-0.56 1.5,1.5 0 0 1 0.68,-0.22 0.89,0.89 0 0 1 0.55,0.18 1.14,1.14 0 0 1 0.37,0.52 2.24,2.24 0 0 1 0.13,0.82 3.72,3.72 0 0 1 -0.13,1 4.57,4.57 0 0 1 -0.37,0.95 4.27,4.27 0 0 1 -0.55,0.81 2.75,2.75 0 0 1 -0.68,0.57 1.33,1.33 0 0 1 -0.67,0.21 0.92,0.92 0 0 1 -0.55,-0.17 1.12,1.12 0 0 1 -0.37,-0.52 2.29,2.29 0 0 1 -0.14,-0.83 z"
         style="fill:#e0e0e0"
         id="path132" />
      <path
         d="m 166.81,286.16 a 3.72,3.72 0 0 1 0.13,-1 4.57,4.57 0 0 1 0.37,-0.95 4.27,4.27 0 0 1 0.55,-0.81 2.58,2.58 0 0 1 0.68,-0.57 1.33,1.33 0 0 1 0.67,-0.21 0.92,0.92 0 0 1 0.55,0.17 1.18,1.18 0 0 1 0.37,0.53 2.19,2.19 0 0 1 0.14,0.82 3.74,3.74 0 0 1 -0.14,1 4.57,4.57 0 0 1 -0.37,0.95 3.85,3.85 0 0 1 -0.55,0.81 2.71,2.71 0 0 1 -0.67,0.57 1.65,1.65 0 0 1 -0.68,0.21 0.89,0.89 0 0 1 -0.55,-0.18 1.14,1.14 0 0 1 -0.37,-0.52 2.24,2.24 0 0 1 -0.13,-0.82 z"
         style="fill:#e0e0e0"
         id="path133" />
      <path
         d="m 172.39,282.93 a 3.65,3.65 0 0 1 0.13,-1 4.93,4.93 0 0 1 0.37,-0.95 4.27,4.27 0 0 1 0.55,-0.81 2.75,2.75 0 0 1 0.68,-0.57 1.37,1.37 0 0 1 0.68,-0.21 0.82,0.82 0 0 1 0.55,0.17 1.22,1.22 0 0 1 0.37,0.52 2.54,2.54 0 0 1 0.13,0.83 4.11,4.11 0 0 1 -0.13,1 4.93,4.93 0 0 1 -0.37,0.95 4.27,4.27 0 0 1 -0.55,0.81 2.75,2.75 0 0 1 -0.68,0.57 1.37,1.37 0 0 1 -0.68,0.21 0.82,0.82 0 0 1 -0.55,-0.17 1.22,1.22 0 0 1 -0.37,-0.52 2.26,2.26 0 0 1 -0.13,-0.83 z"
         style="fill:#e0e0e0"
         id="path134" />
      <path
         d="m 178,279.71 a 3.74,3.74 0 0 1 0.14,-1 4.07,4.07 0 0 1 0.37,-1 3.85,3.85 0 0 1 0.49,-0.71 2.71,2.71 0 0 1 0.67,-0.57 1.61,1.61 0 0 1 0.68,-0.21 0.89,0.89 0 0 1 0.55,0.18 1.14,1.14 0 0 1 0.37,0.52 2.24,2.24 0 0 1 0.13,0.82 3.72,3.72 0 0 1 -0.13,1 4.57,4.57 0 0 1 -0.37,0.95 4.27,4.27 0 0 1 -0.55,0.81 2.75,2.75 0 0 1 -0.68,0.57 1.33,1.33 0 0 1 -0.67,0.21 0.87,0.87 0 0 1 -0.55,-0.18 1,1 0 0 1 -0.37,-0.52 2.19,2.19 0 0 1 -0.08,-0.87 z"
         style="fill:#e0e0e0"
         id="path135" />
      <path
         d="m 183.56,276.49 a 3.72,3.72 0 0 1 0.13,-1 4.57,4.57 0 0 1 0.37,-0.95 4.27,4.27 0 0 1 0.55,-0.81 2.71,2.71 0 0 1 0.67,-0.57 1.4,1.4 0 0 1 0.72,-0.16 0.92,0.92 0 0 1 0.55,0.17 1.18,1.18 0 0 1 0.37,0.53 2.19,2.19 0 0 1 0.14,0.82 3.74,3.74 0 0 1 -0.14,1 4.57,4.57 0 0 1 -0.37,0.95 3.85,3.85 0 0 1 -0.55,0.81 2.58,2.58 0 0 1 -0.68,0.57 1.57,1.57 0 0 1 -0.67,0.21 0.89,0.89 0 0 1 -0.55,-0.18 1.14,1.14 0 0 1 -0.37,-0.52 2.24,2.24 0 0 1 -0.17,-0.87 z"
         style="fill:#e0e0e0"
         id="path136" />
      <path
         d="m 189.14,273.26 a 3.65,3.65 0 0 1 0.13,-1 4.93,4.93 0 0 1 0.37,-1 4.27,4.27 0 0 1 0.55,-0.81 2.75,2.75 0 0 1 0.68,-0.57 1.36,1.36 0 0 1 0.67,-0.21 0.83,0.83 0 0 1 0.56,0.17 1.13,1.13 0 0 1 0.36,0.52 2.25,2.25 0 0 1 0.14,0.83 3.67,3.67 0 0 1 -0.14,1 4.33,4.33 0 0 1 -0.36,0.95 3.89,3.89 0 0 1 -0.56,0.81 2.54,2.54 0 0 1 -0.67,0.57 1.37,1.37 0 0 1 -0.68,0.21 0.82,0.82 0 0 1 -0.55,-0.17 1.22,1.22 0 0 1 -0.37,-0.52 2.3,2.3 0 0 1 -0.13,-0.78 z"
         style="fill:#e0e0e0"
         id="path137" />
      <path
         d="m 194.72,270 a 3.74,3.74 0 0 1 0.14,-1 4.07,4.07 0 0 1 0.37,-0.95 3.85,3.85 0 0 1 0.55,-0.81 2.71,2.71 0 0 1 0.67,-0.57 1.37,1.37 0 0 1 0.68,-0.21 0.89,0.89 0 0 1 0.55,0.18 1.14,1.14 0 0 1 0.37,0.52 2.24,2.24 0 0 1 0.13,0.82 3.72,3.72 0 0 1 -0.13,1 4.57,4.57 0 0 1 -0.37,1 4.27,4.27 0 0 1 -0.55,0.81 2.75,2.75 0 0 1 -0.68,0.57 1.33,1.33 0 0 1 -0.67,0.21 0.92,0.92 0 0 1 -0.55,-0.17 1.1,1.1 0 0 1 -0.37,-0.53 2.19,2.19 0 0 1 -0.14,-0.87 z"
         style="fill:#e0e0e0"
         id="path138" />
      <path
         d="m 200.31,266.82 a 3.72,3.72 0 0 1 0.13,-1 4.57,4.57 0 0 1 0.37,-0.95 4.27,4.27 0 0 1 0.55,-0.81 2.71,2.71 0 0 1 0.67,-0.57 1.4,1.4 0 0 1 0.68,-0.21 0.86,0.86 0 0 1 0.55,0.17 1.2,1.2 0 0 1 0.37,0.52 2.29,2.29 0 0 1 0.14,0.83 3.74,3.74 0 0 1 -0.14,1 4.79,4.79 0 0 1 -0.37,0.95 3.54,3.54 0 0 1 -0.55,0.8 2.63,2.63 0 0 1 -0.68,0.58 1.57,1.57 0 0 1 -0.67,0.21 0.89,0.89 0 0 1 -0.55,-0.18 1.14,1.14 0 0 1 -0.37,-0.52 2.24,2.24 0 0 1 -0.13,-0.82 z"
         style="fill:#e0e0e0"
         id="path139" />
      <path
         d="m 157.5,301.18 a 2.32,2.32 0 0 1 -1.19,-0.31 3.69,3.69 0 0 1 -1.5,-3.36 V 287 c 0,-2.85 1.68,-6 3.84,-7.29 l 95.21,-55 a 2.8,2.8 0 0 1 2.88,-0.19 3.69,3.69 0 0 1 1.5,3.35 v 10.49 c 0,2.84 -1.69,6.05 -3.84,7.29 v 0 l -95.21,55 a 3.47,3.47 0 0 1 -1.69,0.53 z m 98,-75.84 a 2.29,2.29 0 0 0 -1.14,0.36 l -95.21,55 c -1.83,1.05 -3.31,3.9 -3.31,6.36 v 10.48 a 2.69,2.69 0 0 0 1,2.43 1.83,1.83 0 0 0 1.8,-0.19 l 95.21,-55 c 1.82,-1.05 3.3,-3.91 3.3,-6.36 v -10.49 a 2.7,2.7 0 0 0 -1,-2.42 1.3,1.3 0 0 0 -0.61,-0.17 z m -1.41,19.91 z"
         style="fill:#e0e0e0"
         id="path140" />
      <path
         d="m 254.13,294.55 -95.21,55 c -2,1.14 -3.58,-0.07 -3.58,-2.7 V 330.6 c 0,-2.63 1.6,-5.69 3.58,-6.83 l 95.21,-55 c 2,-1.14 3.57,0.07 3.57,2.7 v 16.22 c 0,2.66 -1.6,5.72 -3.57,6.86 z"
         style="fill:#ba68c8"
         id="path141" />
      <path
         d="m 193.3,312.34 a 3,3 0 0 1 1.19,-0.44 1.46,1.46 0 0 1 0.86,0.11 1.1,1.1 0 0 1 0.52,0.5 1.6,1.6 0 0 1 0.19,0.71 0.48,0.48 0 0 1 -0.07,0.3 0.54,0.54 0 0 1 -0.2,0.22 l -0.7,0.41 a 0.36,0.36 0 0 1 -0.26,0.06 0.45,0.45 0 0 1 -0.16,-0.15 0.71,0.71 0 0 0 -0.46,-0.32 1.44,1.44 0 0 0 -0.91,0.28 3.31,3.31 0 0 0 -0.5,0.36 3,3 0 0 0 -0.41,0.46 2.06,2.06 0 0 0 -0.28,0.5 1.54,1.54 0 0 0 -0.1,0.51 0.75,0.75 0 0 0 0.1,0.45 0.37,0.37 0 0 0 0.32,0.15 2.15,2.15 0 0 0 0.6,-0.08 l 0.93,-0.26 a 4.72,4.72 0 0 1 1,-0.19 1.33,1.33 0 0 1 0.72,0.15 1.08,1.08 0 0 1 0.41,0.52 2.6,2.6 0 0 1 0.14,0.91 3.88,3.88 0 0 1 -0.21,1.23 4.83,4.83 0 0 1 -0.57,1.22 6,6 0 0 1 -0.92,1.12 6.2,6.2 0 0 1 -1.22,0.92 3.73,3.73 0 0 1 -1.08,0.44 1.75,1.75 0 0 1 -0.91,0 1.13,1.13 0 0 1 -0.64,-0.46 1.72,1.72 0 0 1 -0.27,-0.91 0.5,0.5 0 0 1 0.08,-0.31 0.49,0.49 0 0 1 0.19,-0.21 l 0.71,-0.41 a 0.33,0.33 0 0 1 0.26,-0.07 0.27,0.27 0 0 1 0.15,0.15 1.1,1.1 0 0 0 0.17,0.25 0.53,0.53 0 0 0 0.27,0.16 1.1,1.1 0 0 0 0.43,0 2.7,2.7 0 0 0 0.64,-0.28 5.57,5.57 0 0 0 0.59,-0.4 2.84,2.84 0 0 0 0.49,-0.49 2.43,2.43 0 0 0 0.34,-0.54 1.39,1.39 0 0 0 0.14,-0.6 0.47,0.47 0 0 0 -0.15,-0.4 0.58,0.58 0 0 0 -0.42,-0.08 6.14,6.14 0 0 0 -0.72,0.16 l -1,0.26 a 3.9,3.9 0 0 1 -0.88,0.12 1,1 0 0 1 -0.63,-0.18 1.08,1.08 0 0 1 -0.37,-0.55 3.19,3.19 0 0 1 -0.12,-1 4.11,4.11 0 0 1 0.2,-1.23 5.46,5.46 0 0 1 0.56,-1.2 5.53,5.53 0 0 1 0.84,-1 5.33,5.33 0 0 1 1.12,-0.87 z"
         style="fill:#fafafa"
         id="path142" />
      <path
         d="m 198.41,309.39 a 0.18,0.18 0 0 1 0.2,0 0.26,0.26 0 0 1 0.08,0.21 v 1 a 0.75,0.75 0 0 1 -0.08,0.31 0.51,0.51 0 0 1 -0.2,0.21 l -0.86,0.5 c -0.08,0 -0.14,0 -0.19,0 a 0.23,0.23 0 0 1 -0.09,-0.21 v -1 a 0.58,0.58 0 0 1 0.09,-0.3 0.46,0.46 0 0 1 0.19,-0.22 z m 0.22,9.05 a 0.56,0.56 0 0 1 -0.08,0.3 0.46,0.46 0 0 1 -0.19,0.22 l -0.76,0.44 c -0.08,0.05 -0.14,0.05 -0.19,0 a 0.23,0.23 0 0 1 -0.09,-0.21 v -6.27 a 0.61,0.61 0 0 1 0.09,-0.3 0.52,0.52 0 0 1 0.19,-0.22 l 0.76,-0.44 a 0.16,0.16 0 0 1 0.19,0 0.23,0.23 0 0 1 0.08,0.21 z"
         style="fill:#fafafa"
         id="path143" />
      <path
         d="m 202.31,318 a 2.4,2.4 0 0 0 0.44,-0.33 3.47,3.47 0 0 0 0.4,-0.51 3.23,3.23 0 0 0 0.3,-0.65 2.67,2.67 0 0 0 0.11,-0.75 v -0.49 a 3.05,3.05 0 0 1 -0.21,0.38 3.48,3.48 0 0 1 -0.32,0.45 3.57,3.57 0 0 1 -0.43,0.45 3,3 0 0 1 -0.56,0.4 1.65,1.65 0 0 1 -0.91,0.27 1.14,1.14 0 0 1 -0.7,-0.3 1.83,1.83 0 0 1 -0.45,-0.75 3.79,3.79 0 0 1 -0.19,-1.08 c 0,-0.13 0,-0.28 0,-0.46 0,-0.18 0,-0.34 0,-0.48 a 6.82,6.82 0 0 1 0.64,-2.57 5.88,5.88 0 0 1 0.7,-1.1 3.54,3.54 0 0 1 0.91,-0.79 2.29,2.29 0 0 1 0.56,-0.24 1.42,1.42 0 0 1 0.43,-0.05 0.88,0.88 0 0 1 0.32,0.08 1,1 0 0 1 0.21,0.14 v -0.31 a 0.67,0.67 0 0 1 0.08,-0.3 0.62,0.62 0 0 1 0.2,-0.22 l 0.76,-0.44 a 0.16,0.16 0 0 1 0.19,0 0.23,0.23 0 0 1 0.08,0.21 v 6.3 a 5.66,5.66 0 0 1 -0.68,2.84 4.89,4.89 0 0 1 -1.88,1.92 2.82,2.82 0 0 1 -0.95,0.36 1.47,1.47 0 0 1 -0.76,0 1,1 0 0 1 -0.51,-0.39 1.27,1.27 0 0 1 -0.22,-0.66 0.56,0.56 0 0 1 0.08,-0.3 0.48,0.48 0 0 1 0.2,-0.22 l 0.68,-0.4 c 0.1,-0.05 0.18,-0.06 0.24,0 a 1.41,1.41 0 0 1 0.18,0.14 0.51,0.51 0 0 0 0.35,0.17 1.47,1.47 0 0 0 0.71,-0.32 z m -1.2,-4.51 a 3.14,3.14 0 0 0 0,0.75 c 0,0.56 0.17,0.9 0.4,1 a 0.83,0.83 0 0 0 0.84,-0.1 2.4,2.4 0 0 0 0.83,-0.87 3,3 0 0 0 0.38,-1.34 4,4 0 0 0 0,-0.52 3.63,3.63 0 0 0 0,-0.5 1.08,1.08 0 0 0 -0.38,-0.88 0.8,0.8 0 0 0 -0.83,0.08 2.35,2.35 0 0 0 -0.84,0.87 3.16,3.16 0 0 0 -0.4,1.53 z"
         style="fill:#fafafa"
         id="path144" />
      <path
         d="m 211.18,311.2 a 0.61,0.61 0 0 1 -0.08,0.3 0.52,0.52 0 0 1 -0.19,0.22 l -0.76,0.44 a 0.18,0.18 0 0 1 -0.2,0 0.26,0.26 0 0 1 -0.08,-0.21 v -3.41 a 1.73,1.73 0 0 0 -0.28,-1.13 c -0.19,-0.21 -0.48,-0.21 -0.87,0 a 2.13,2.13 0 0 0 -0.84,1 3.51,3.51 0 0 0 -0.3,1.47 v 3.41 a 0.58,0.58 0 0 1 -0.09,0.3 0.46,0.46 0 0 1 -0.19,0.22 l -0.76,0.44 c -0.08,0 -0.14,0.05 -0.19,0 a 0.22,0.22 0 0 1 -0.08,-0.2 v -6.27 a 0.56,0.56 0 0 1 0.08,-0.3 0.52,0.52 0 0 1 0.19,-0.22 l 0.76,-0.44 a 0.16,0.16 0 0 1 0.19,0 0.23,0.23 0 0 1 0.09,0.21 v 0.31 a 4.89,4.89 0 0 1 0.61,-0.94 3,3 0 0 1 0.84,-0.71 2,2 0 0 1 1,-0.34 0.9,0.9 0 0 1 0.67,0.3 1.7,1.7 0 0 1 0.36,0.8 5.69,5.69 0 0 1 0.1,1.14 z"
         style="fill:#fafafa"
         id="path145" />
      <path
         d="m 215.91,299.29 c 0.08,-0.05 0.14,-0.05 0.19,0 a 0.24,0.24 0 0 1 0.08,0.21 v 1.05 a 0.56,0.56 0 0 1 -0.08,0.3 0.42,0.42 0 0 1 -0.19,0.22 l -0.87,0.5 a 0.15,0.15 0 0 1 -0.19,0 0.25,0.25 0 0 1 -0.08,-0.2 v -1.05 a 0.67,0.67 0 0 1 0.08,-0.3 0.53,0.53 0 0 1 0.19,-0.22 z m 0.22,9 a 0.56,0.56 0 0 1 -0.08,0.3 0.46,0.46 0 0 1 -0.19,0.22 l -0.76,0.44 a 0.18,0.18 0 0 1 -0.2,0 0.26,0.26 0 0 1 -0.08,-0.21 v -6.26 a 0.67,0.67 0 0 1 0.08,-0.3 0.54,0.54 0 0 1 0.2,-0.22 l 0.76,-0.44 a 0.16,0.16 0 0 1 0.19,0 0.22,0.22 0 0 1 0.08,0.2 z"
         style="fill:#fafafa"
         id="path146" />
      <path
         d="m 222.44,304.7 a 0.61,0.61 0 0 1 -0.08,0.3 0.6,0.6 0 0 1 -0.19,0.22 l -0.77,0.44 a 0.17,0.17 0 0 1 -0.19,0 0.26,0.26 0 0 1 -0.08,-0.21 V 302 a 1.73,1.73 0 0 0 -0.28,-1.13 c -0.19,-0.21 -0.48,-0.21 -0.87,0 a 2.13,2.13 0 0 0 -0.84,1 3.52,3.52 0 0 0 -0.31,1.47 v 3.41 a 0.56,0.56 0 0 1 -0.08,0.3 0.46,0.46 0 0 1 -0.19,0.22 l -0.76,0.44 a 0.16,0.16 0 0 1 -0.19,0 0.23,0.23 0 0 1 -0.09,-0.2 v -6.27 a 0.58,0.58 0 0 1 0.09,-0.3 0.52,0.52 0 0 1 0.19,-0.22 l 0.76,-0.44 a 0.16,0.16 0 0 1 0.19,0 0.23,0.23 0 0 1 0.08,0.21 v 0.3 a 5.79,5.79 0 0 1 0.62,-0.93 3,3 0 0 1 0.84,-0.71 2,2 0 0 1 1,-0.34 0.9,0.9 0 0 1 0.67,0.3 1.7,1.7 0 0 1 0.36,0.8 5.69,5.69 0 0 1 0.1,1.14 z"
         style="fill:#fafafa"
         id="path147" />
      <path
         d="m 165.66,303.76 a 1.8,1.8 0 0 1 0.56,-0.22 0.71,0.71 0 0 1 0.46,0 0.63,0.63 0 0 1 0.31,0.33 1.56,1.56 0 0 1 0.12,0.68 2.79,2.79 0 0 1 -0.25,1.17 2.89,2.89 0 0 1 -0.62,0.9 l 0.91,1.58 a 0.24,0.24 0 0 1 0,0.08 0.42,0.42 0 0 1 0,0.15 0.24,0.24 0 0 1 -0.1,0.1 l -0.25,0.15 c -0.08,0.05 -0.14,0.05 -0.18,0 a 0.22,0.22 0 0 1 -0.08,-0.09 l -0.87,-1.53 -1,0.59 v 2 a 0.41,0.41 0 0 1 -0.05,0.18 0.36,0.36 0 0 1 -0.11,0.13 l -0.25,0.14 a 0.08,0.08 0 0 1 -0.11,0 0.14,0.14 0 0 1 0,-0.12 v -5.16 a 0.41,0.41 0 0 1 0,-0.18 0.29,0.29 0 0 1 0.11,-0.13 z m -1,3.22 1,-0.58 a 2,2 0 0 0 0.67,-0.61 1.59,1.59 0 0 0 0.24,-0.88 c 0,-0.34 -0.08,-0.54 -0.24,-0.59 a 0.9,0.9 0 0 0 -0.67,0.18 l -1,0.58 z"
         style="fill:#e0e0e0"
         id="path148" />
      <path
         d="m 167.7,305.7 a 3.36,3.36 0 0 1 0.13,-0.76 3.85,3.85 0 0 1 0.28,-0.72 3.07,3.07 0 0 1 0.42,-0.62 2.31,2.31 0 0 1 0.54,-0.45 1.27,1.27 0 0 1 0.58,-0.19 0.56,0.56 0 0 1 0.43,0.15 1.11,1.11 0 0 1 0.28,0.48 2.88,2.88 0 0 1 0.09,0.78 v 0.22 a 0.39,0.39 0 0 1 0,0.18 0.3,0.3 0 0 1 -0.12,0.13 l -2.06,1.19 v 0.05 a 0.82,0.82 0 0 0 0.25,0.69 0.56,0.56 0 0 0 0.59,-0.05 1.77,1.77 0 0 0 0.5,-0.41 2.24,2.24 0 0 0 0.26,-0.43 0.56,0.56 0 0 1 0.09,-0.14 0.44,0.44 0 0 1 0.1,-0.08 l 0.18,-0.11 a 0.13,0.13 0 0 1 0.12,0 c 0,0 0.05,0.06 0,0.13 a 1.38,1.38 0 0 1 -0.1,0.37 1.85,1.85 0 0 1 -0.24,0.46 2.83,2.83 0 0 1 -0.4,0.48 3.06,3.06 0 0 1 -0.55,0.42 1.16,1.16 0 0 1 -0.54,0.17 0.59,0.59 0 0 1 -0.41,-0.15 0.92,0.92 0 0 1 -0.29,-0.41 2,2 0 0 1 -0.13,-0.64 4.57,4.57 0 0 1 0,-0.74 z m 0.53,-0.28 1.69,-1 v 0 a 0.74,0.74 0 0 0 -0.23,-0.64 c -0.16,-0.11 -0.36,-0.09 -0.62,0.06 a 1.52,1.52 0 0 0 -0.32,0.26 2.07,2.07 0 0 0 -0.27,0.37 2.89,2.89 0 0 0 -0.18,0.44 2.65,2.65 0 0 0 -0.07,0.48 z"
         style="fill:#e0e0e0"
         id="path149" />
      <path
         d="m 171.73,302.16 a 2.86,2.86 0 0 1 0.12,-0.27 2,2 0 0 1 0.17,-0.27 2.32,2.32 0 0 1 0.21,-0.25 1.61,1.61 0 0 1 0.3,-0.21 0.87,0.87 0 0 1 0.6,-0.17 0.5,0.5 0 0 1 0.38,0.29 c 0.05,-0.12 0.11,-0.24 0.17,-0.36 a 1.45,1.45 0 0 1 0.2,-0.34 1.92,1.92 0 0 1 0.61,-0.56 c 0.4,-0.23 0.7,-0.24 0.88,0 a 1.86,1.86 0 0 1 0.27,1.16 v 2.22 a 0.38,0.38 0 0 1 0,0.17 c 0,0.07 -0.07,0.11 -0.12,0.13 l -0.22,0.13 a 0.08,0.08 0 0 1 -0.11,0 c 0,0 -0.05,-0.06 -0.05,-0.12 v -2.13 a 1.26,1.26 0 0 0 -0.18,-0.81 c -0.12,-0.12 -0.3,-0.12 -0.53,0 a 1.3,1.3 0 0 0 -0.51,0.57 2.2,2.2 0 0 0 -0.19,1 v 2.19 a 0.45,0.45 0 0 1 -0.05,0.18 0.3,0.3 0 0 1 -0.12,0.13 l -0.22,0.12 a 0.09,0.09 0 0 1 -0.11,0 0.17,0.17 0 0 1 -0.05,-0.13 V 302.7 A 1.21,1.21 0 0 0 173,301.9 c -0.12,-0.13 -0.3,-0.13 -0.53,0 a 1.3,1.3 0 0 0 -0.51,0.57 2.2,2.2 0 0 0 -0.19,1 v 2.19 a 0.41,0.41 0 0 1 0,0.18 0.3,0.3 0 0 1 -0.12,0.13 l -0.22,0.12 a 0.09,0.09 0 0 1 -0.11,0 0.17,0.17 0 0 1 0,-0.13 v -3.72 a 0.41,0.41 0 0 1 0,-0.18 0.36,0.36 0 0 1 0.11,-0.13 l 0.22,-0.13 a 0.13,0.13 0 0 1 0.12,0 0.15,0.15 0 0 1 0,0.12 z"
         style="fill:#e0e0e0"
         id="path150" />
      <path
         d="m 176.37,300.7 a 4.13,4.13 0 0 1 0.13,-0.77 4.48,4.48 0 0 1 0.28,-0.72 3.38,3.38 0 0 1 0.42,-0.62 2.31,2.31 0 0 1 0.54,-0.45 1.4,1.4 0 0 1 0.58,-0.19 0.64,0.64 0 0 1 0.43,0.15 1,1 0 0 1 0.28,0.48 3,3 0 0 1 0.1,0.79 v 0.21 a 0.41,0.41 0 0 1 0,0.18 0.26,0.26 0 0 1 -0.12,0.13 l -2.06,1.19 v 0.05 c 0,0.36 0.09,0.59 0.25,0.69 a 0.52,0.52 0 0 0 0.59,-0.05 1.51,1.51 0 0 0 0.5,-0.41 2,2 0 0 0 0.26,-0.43 0.48,0.48 0 0 1 0.09,-0.13 0.45,0.45 0 0 1 0.1,-0.09 l 0.18,-0.1 a 0.11,0.11 0 0 1 0.12,0 c 0,0 0,0.07 0,0.13 a 1.83,1.83 0 0 1 -0.11,0.37 1.85,1.85 0 0 1 -0.24,0.46 3.29,3.29 0 0 1 -0.39,0.48 2.65,2.65 0 0 1 -0.56,0.42 1.05,1.05 0 0 1 -0.54,0.17 0.64,0.64 0 0 1 -0.41,-0.14 1,1 0 0 1 -0.29,-0.41 2.34,2.34 0 0 1 -0.13,-0.65 4.45,4.45 0 0 1 0,-0.74 z m 0.53,-0.29 1.69,-1 v 0 a 0.76,0.76 0 0 0 -0.23,-0.65 c -0.16,-0.11 -0.36,-0.08 -0.62,0.06 a 1.58,1.58 0 0 0 -0.32,0.27 2,2 0 0 0 -0.27,0.36 3,3 0 0 0 -0.18,0.45 2.53,2.53 0 0 0 -0.07,0.48 z"
         style="fill:#e0e0e0"
         id="path151" />
      <path
         d="m 180.4,297.16 a 1.59,1.59 0 0 1 0.12,-0.27 1.24,1.24 0 0 1 0.17,-0.27 1.27,1.27 0 0 1 0.22,-0.25 1.3,1.3 0 0 1 0.29,-0.22 0.92,0.92 0 0 1 0.6,-0.17 0.54,0.54 0 0 1 0.38,0.3 c 0,-0.13 0.11,-0.25 0.17,-0.37 a 1.68,1.68 0 0 1 0.2,-0.34 2.55,2.55 0 0 1 0.26,-0.3 1.83,1.83 0 0 1 0.35,-0.25 c 0.4,-0.23 0.7,-0.24 0.88,0 a 1.9,1.9 0 0 1 0.27,1.17 v 2.21 a 0.39,0.39 0 0 1 0,0.18 0.38,0.38 0 0 1 -0.12,0.13 l -0.22,0.13 a 0.11,0.11 0 0 1 -0.11,0 0.14,0.14 0 0 1 0,-0.13 v -2.13 a 1.21,1.21 0 0 0 -0.18,-0.8 c -0.12,-0.13 -0.3,-0.12 -0.53,0 a 1.28,1.28 0 0 0 -0.51,0.58 2.15,2.15 0 0 0 -0.19,1 v 2.19 a 0.41,0.41 0 0 1 -0.05,0.18 0.38,0.38 0 0 1 -0.12,0.13 l -0.22,0.13 a 0.11,0.11 0 0 1 -0.11,0 0.16,0.16 0 0 1 -0.05,-0.13 v -2.13 a 1.23,1.23 0 0 0 -0.18,-0.8 c -0.12,-0.13 -0.29,-0.12 -0.53,0 a 1.33,1.33 0 0 0 -0.51,0.58 2.15,2.15 0 0 0 -0.19,1 v 2.19 a 0.41,0.41 0 0 1 -0.05,0.18 0.26,0.26 0 0 1 -0.12,0.13 l -0.22,0.13 a 0.11,0.11 0 0 1 -0.11,0 0.14,0.14 0 0 1 -0.05,-0.12 v -3.73 a 0.41,0.41 0 0 1 0.05,-0.17 0.33,0.33 0 0 1 0.11,-0.14 l 0.22,-0.12 q 0.08,0 0.12,0 a 0.14,0.14 0 0 1 0.05,0.12 z"
         style="fill:#e0e0e0"
         id="path152" />
      <path
         d="m 186.66,293 a 1.06,1.06 0 0 1 0.52,-0.17 0.62,0.62 0 0 1 0.42,0.13 0.93,0.93 0 0 1 0.29,0.43 2.32,2.32 0 0 1 0.13,0.72 v 0.52 a 4.06,4.06 0 0 1 -0.13,0.86 3.43,3.43 0 0 1 -0.29,0.76 2.88,2.88 0 0 1 -0.42,0.63 2.09,2.09 0 0 1 -0.52,0.43 1,1 0 0 1 -0.59,0.18 0.59,0.59 0 0 1 -0.34,-0.18 v 0.24 a 0.41,0.41 0 0 1 0,0.18 0.29,0.29 0 0 1 -0.11,0.13 l -0.22,0.13 c 0,0 -0.09,0 -0.12,0 a 0.14,0.14 0 0 1 0,-0.12 v -5.24 a 0.41,0.41 0 0 1 0,-0.18 0.26,0.26 0 0 1 0.12,-0.13 l 0.22,-0.13 a 0.08,0.08 0 0 1 0.11,0 0.14,0.14 0 0 1 0,0.12 v 1.77 a 2.86,2.86 0 0 1 0.33,-0.57 1.89,1.89 0 0 1 0.6,-0.51 z m -0.93,3 a 0.89,0.89 0 0 0 0.26,0.67 0.55,0.55 0 0 0 0.61,0 1.55,1.55 0 0 0 0.62,-0.69 2.75,2.75 0 0 0 0.25,-1.06 3.38,3.38 0 0 0 0,-0.45 1.1,1.1 0 0 0 -0.25,-0.76 c -0.15,-0.14 -0.36,-0.13 -0.62,0 a 1.57,1.57 0 0 0 -0.61,0.66 2.47,2.47 0 0 0 -0.26,1 3.22,3.22 0 0 0 0,0.33 2.73,2.73 0 0 0 0,0.3 z"
         style="fill:#e0e0e0"
         id="path153" />
      <path
         d="m 188.62,293.62 a 4,4 0 0 1 0.13,-0.76 4.69,4.69 0 0 1 0.28,-0.72 3.38,3.38 0 0 1 0.42,-0.62 2.31,2.31 0 0 1 0.54,-0.45 1.27,1.27 0 0 1 0.58,-0.19 0.58,0.58 0 0 1 0.44,0.15 1,1 0 0 1 0.27,0.48 2.55,2.55 0 0 1 0.1,0.78 v 0.22 a 0.41,0.41 0 0 1 0,0.18 0.36,0.36 0 0 1 -0.11,0.13 l -2.11,1.18 v 0.05 a 0.82,0.82 0 0 0 0.24,0.69 0.56,0.56 0 0 0 0.59,-0.05 1.64,1.64 0 0 0 0.5,-0.41 3,3 0 0 0 0.27,-0.43 0.58,0.58 0 0 1 0.08,-0.14 0.35,0.35 0 0 1 0.11,-0.08 l 0.18,-0.11 a 0.13,0.13 0 0 1 0.12,0 0.12,0.12 0 0 1 0,0.13 1.89,1.89 0 0 1 -0.1,0.37 2.34,2.34 0 0 1 -0.25,0.46 3.29,3.29 0 0 1 -0.39,0.48 3.56,3.56 0 0 1 -0.56,0.42 1.16,1.16 0 0 1 -0.54,0.17 0.61,0.61 0 0 1 -0.41,-0.15 1,1 0 0 1 -0.29,-0.41 2.26,2.26 0 0 1 -0.13,-0.64 4.57,4.57 0 0 1 0.04,-0.73 z m 0.54,-0.28 1.68,-1 v 0 a 0.74,0.74 0 0 0 -0.23,-0.64 c -0.16,-0.11 -0.36,-0.09 -0.62,0.06 a 1.52,1.52 0 0 0 -0.32,0.26 1.64,1.64 0 0 0 -0.26,0.37 1.7,1.7 0 0 0 -0.18,0.44 1.59,1.59 0 0 0 -0.07,0.48 z"
         style="fill:#e0e0e0"
         id="path154" />
      <path
         d="m 193.69,289 a 0.11,0.11 0 0 1 0.11,0 0.14,0.14 0 0 1 0,0.12 v 0.26 a 0.41,0.41 0 0 1 0,0.18 0.36,0.36 0 0 1 -0.11,0.13 l -0.35,0.2 a 1.39,1.39 0 0 0 -0.69,1.31 v 2.34 a 0.41,0.41 0 0 1 -0.05,0.18 0.36,0.36 0 0 1 -0.11,0.13 l -0.22,0.12 a 0.11,0.11 0 0 1 -0.12,0 0.17,0.17 0 0 1 -0.05,-0.13 v -3.72 a 0.41,0.41 0 0 1 0.05,-0.18 0.3,0.3 0 0 1 0.12,-0.13 l 0.22,-0.13 a 0.11,0.11 0 0 1 0.11,0 0.16,0.16 0 0 1 0.05,0.13 v 0.24 a 1.66,1.66 0 0 1 0.29,-0.51 1.42,1.42 0 0 1 0.43,-0.37 z"
         style="fill:#e0e0e0"
         id="path155" />
      <path
         d="m 196.24,288 c 0,-0.08 0.08,-0.17 0.12,-0.27 0.04,-0.1 0.11,-0.18 0.17,-0.27 a 1.64,1.64 0 0 1 0.22,-0.25 1.69,1.69 0 0 1 0.25,-0.21 1,1 0 0 1 0.61,-0.17 0.52,0.52 0 0 1 0.37,0.3 c 0.06,-0.12 0.11,-0.25 0.17,-0.37 a 3,3 0 0 1 0.2,-0.34 2.52,2.52 0 0 1 0.27,-0.3 1.87,1.87 0 0 1 0.34,-0.25 c 0.4,-0.23 0.7,-0.24 0.88,0 a 1.83,1.83 0 0 1 0.28,1.16 v 2.21 a 0.41,0.41 0 0 1 0,0.18 0.26,0.26 0 0 1 -0.12,0.13 l -0.22,0.13 a 0.08,0.08 0 0 1 -0.11,0 0.14,0.14 0 0 1 0,-0.12 v -2.16 a 1.23,1.23 0 0 0 -0.18,-0.8 c -0.12,-0.12 -0.3,-0.12 -0.53,0 a 1.3,1.3 0 0 0 -0.51,0.57 2.2,2.2 0 0 0 -0.19,1 v 2.18 a 0.41,0.41 0 0 1 0,0.18 0.26,0.26 0 0 1 -0.12,0.13 l -0.22,0.13 a 0.08,0.08 0 0 1 -0.11,0 0.14,0.14 0 0 1 0,-0.12 v -2.13 a 1.26,1.26 0 0 0 -0.18,-0.81 c -0.12,-0.12 -0.29,-0.12 -0.53,0 a 1.3,1.3 0 0 0 -0.51,0.57 2.2,2.2 0 0 0 -0.19,1 v 2.19 a 0.49,0.49 0 0 1 -0.05,0.18 0.36,0.36 0 0 1 -0.11,0.13 l -0.22,0.12 a 0.11,0.11 0 0 1 -0.12,0 0.17,0.17 0 0 1 -0.05,-0.13 v -3.72 a 0.41,0.41 0 0 1 0.05,-0.18 0.26,0.26 0 0 1 0.12,-0.13 l 0.22,-0.13 a 0.11,0.11 0 0 1 0.11,0 0.14,0.14 0 0 1 0.05,0.12 z"
         style="fill:#e0e0e0"
         id="path156" />
      <path
         d="m 200.88,286.54 a 4.17,4.17 0 0 1 0.13,-0.76 4.48,4.48 0 0 1 0.28,-0.72 3.38,3.38 0 0 1 0.42,-0.62 2.31,2.31 0 0 1 0.54,-0.45 1.27,1.27 0 0 1 0.58,-0.19 0.67,0.67 0 0 1 0.44,0.15 1,1 0 0 1 0.27,0.48 2.62,2.62 0 0 1 0.1,0.79 v 0.21 a 0.41,0.41 0 0 1 0,0.18 0.26,0.26 0 0 1 -0.12,0.13 l -2.06,1.19 V 287 a 0.83,0.83 0 0 0 0.25,0.69 0.54,0.54 0 0 0 0.59,-0.05 1.64,1.64 0 0 0 0.5,-0.41 2.46,2.46 0 0 0 0.26,-0.43 0.92,0.92 0 0 1 0.09,-0.13 0.45,0.45 0 0 1 0.1,-0.09 l 0.19,-0.1 a 0.11,0.11 0 0 1 0.12,0 c 0,0 0,0.07 0,0.13 a 1.83,1.83 0 0 1 -0.11,0.37 1.85,1.85 0 0 1 -0.24,0.46 3.29,3.29 0 0 1 -0.39,0.48 2.65,2.65 0 0 1 -0.56,0.42 1.16,1.16 0 0 1 -0.54,0.17 0.66,0.66 0 0 1 -0.41,-0.14 1,1 0 0 1 -0.29,-0.41 2.34,2.34 0 0 1 -0.13,-0.65 4.57,4.57 0 0 1 -0.01,-0.77 z m 0.53,-0.28 1.69,-1 v 0 a 0.74,0.74 0 0 0 -0.23,-0.64 c -0.16,-0.11 -0.36,-0.09 -0.62,0.06 a 1.92,1.92 0 0 0 -0.32,0.26 1.9,1.9 0 0 0 -0.26,0.37 1.77,1.77 0 0 0 -0.18,0.45 1.85,1.85 0 0 0 -0.08,0.48 z"
         style="fill:#e0e0e0"
         id="path157" />
      <path
         d="m 155.94,316 a 0.64,0.64 0 0 1 -0.3,-0.08 0.6,0.6 0 0 1 -0.3,-0.53 v -6.74 a 0.58,0.58 0 0 1 0.3,-0.52 l 5.06,-2.93 a 0.64,0.64 0 0 1 0.6,0 0.6,0.6 0 0 1 0.3,0.53 v 6.74 a 0.58,0.58 0 0 1 -0.3,0.52 l -5.06,2.93 a 0.64,0.64 0 0 1 -0.3,0.08 z m 0.6,-7 v 5.35 l 3.86,-2.22 v -5.36 z m 4.46,3.47 z"
         style="fill:#e0e0e0"
         id="path158" />
      <path
         d="m 158.74,312.18 a 0.75,0.75 0 0 1 -0.46,-0.15 l -1.22,-0.92 a 0.77,0.77 0 0 1 -0.15,-1.07 0.76,0.76 0 0 1 1.07,-0.14 l 0.45,0.34 1.87,-4.24 a 0.76356074,0.76356074 0 0 1 1.4,0.61 l -2.26,5.16 a 0.78,0.78 0 0 1 -0.51,0.43 0.62,0.62 0 0 1 -0.19,-0.02 z"
         style="fill:#ba68c8"
         id="path159" />
      <path
         d="m 157.49,393.53 a 2.31,2.31 0 0 1 -1.18,-0.31 3.7,3.7 0 0 1 -1.5,-3.36 v -10.48 c 0,-2.85 1.68,-6.05 3.84,-7.3 l 95.21,-55 a 2.82,2.82 0 0 1 2.88,-0.19 3.72,3.72 0 0 1 1.5,3.36 v 10.48 a 9.05,9.05 0 0 1 -3.84,7.3 v 0 l -95.21,55 a 3.48,3.48 0 0 1 -1.7,0.5 z m 98,-75.85 a 2.4,2.4 0 0 0 -1.14,0.36 l -95.21,55 c -1.83,1.05 -3.31,3.91 -3.31,6.37 v 10.48 a 2.69,2.69 0 0 0 1,2.43 1.83,1.83 0 0 0 1.8,-0.19 l 95.21,-55 a 8,8 0 0 0 3.3,-6.37 v -10.48 a 2.72,2.72 0 0 0 -1,-2.43 1.3,1.3 0 0 0 -0.6,-0.17 z m -1.41,19.91 z"
         style="fill:#e0e0e0"
         id="path160" />
      <path
         d="m 167.55,378 a 0.41,0.41 0 0 1 -0.21,-0.76 l 78,-45 a 0.4,0.4 0 0 1 0.55,0.15 0.41,0.41 0 0 1 -0.15,0.55 l -77.95,45 a 0.41,0.41 0 0 1 -0.24,0.06 z"
         style="fill:#e0e0e0"
         id="path161" />
      <path
         d="m 157.5,424.61 a 2.32,2.32 0 0 1 -1.19,-0.31 3.7,3.7 0 0 1 -1.5,-3.36 v -10.48 c 0,-2.85 1.68,-6 3.84,-7.3 l 95.21,-55 a 2.82,2.82 0 0 1 2.88,-0.19 3.72,3.72 0 0 1 1.5,3.36 v 10.48 a 9.05,9.05 0 0 1 -3.84,7.3 v 0 l -95.21,55 a 3.47,3.47 0 0 1 -1.69,0.5 z m 98,-75.85 a 2.4,2.4 0 0 0 -1.14,0.36 l -95.21,55 c -1.83,1.05 -3.31,3.91 -3.31,6.37 v 10.48 a 2.69,2.69 0 0 0 1,2.43 1.83,1.83 0 0 0 1.8,-0.19 l 95.21,-55 a 8,8 0 0 0 3.3,-6.37 v -10.48 a 2.72,2.72 0 0 0 -1,-2.43 1.3,1.3 0 0 0 -0.61,-0.17 z m -1.41,19.91 z"
         style="fill:#e0e0e0"
         id="path162" />
      <path
         d="m 167.55,409.06 a 0.41,0.41 0 0 1 -0.21,-0.76 l 78,-45 a 0.4,0.4 0 0 1 0.55,0.15 0.41,0.41 0 0 1 -0.15,0.55 l -77.95,45 a 0.41,0.41 0 0 1 -0.24,0.06 z"
         style="fill:#e0e0e0"
         id="path163" />
    </g>
    <g
       id="freepik--Button--inject-148">
      <path
         d="m 256.46,268.61 a 2.27,2.27 0 0 0 -2.33,0.19 l -95.21,55 c -2,1.14 -3.58,4.2 -3.58,6.83 v 16.22 a 3.18,3.18 0 0 0 1.23,2.89 l 4.07,2.34 a 2.28,2.28 0 0 0 2.34,-0.18 l 95.21,-55 c 2,-1.14 3.57,-4.2 3.57,-6.83 v -16.22 a 3.2,3.2 0 0 0 -1.23,-2.9 z"
         style="fill:#ba68c8"
         id="path164" />
      <path
         d="m 160.64,352.05 -4.07,-2.35 a 3.16,3.16 0 0 1 -1.23,-2.88 v -16.23 a 8.8,8.8 0 0 1 1.07,-4 l 4.06,2.34 a 8.81,8.81 0 0 0 -1.07,4 v 16.22 a 3.16,3.16 0 0 0 1.24,2.9 z"
         style="opacity:0.15"
         id="path165" />
      <path
         d="m 256.46,268.61 4,2.3 a 2.34,2.34 0 0 0 -2.28,0.23 l -95.21,55 a 7,7 0 0 0 -2.51,2.82 l -4.06,-2.34 a 7,7 0 0 1 2.5,-2.82 l 95.22,-55 a 2.27,2.27 0 0 1 2.34,-0.19 z"
         style="opacity:0.2;fill:#ffffff"
         id="path166" />
      <path
         d="m 258.19,296.9 -95.21,55 c -2,1.14 -3.58,-0.07 -3.58,-2.71 v -16.25 c 0,-2.63 1.6,-5.69 3.58,-6.83 l 95.21,-55 c 2,-1.14 3.57,0.07 3.57,2.71 v 16.22 c 0,2.66 -1.6,5.72 -3.57,6.86 z"
         style="fill:#ba68c8"
         id="path167" />
      <g
         style="opacity:0.3"
         id="g168">
        <path
           d="m 163,326.11 c 9.42,-5.67 18.89,-11.25 28.37,-16.82 l 28.5,-16.58 28.61,-16.39 7.17,-4.07 1.8,-1 a 4.54,4.54 0 0 1 2,-0.79 2.08,2.08 0 0 1 1.14,0.23 2.45,2.45 0 0 1 0.84,0.79 4.1,4.1 0 0 1 0.57,2.1 l -0.24,16.5 -0.25,-16.48 a 3.69,3.69 0 0 0 -0.53,-1.83 1.56,1.56 0 0 0 -1.5,-0.75 4,4 0 0 0 -1.75,0.75 l -1.78,1 -7.1,4.18 -28.51,16.59 -28.61,16.46 c -9.56,5.38 -19.13,10.8 -28.73,16.11 z"
           style="fill:#ffffff"
           id="path168" />
      </g>
      <path
         d="m 197.36,314.69 a 3.29,3.29 0 0 1 1.19,-0.45 1.55,1.55 0 0 1 0.86,0.11 1.14,1.14 0 0 1 0.52,0.5 1.76,1.76 0 0 1 0.2,0.71 0.58,0.58 0 0 1 -0.08,0.31 0.51,0.51 0 0 1 -0.2,0.21 l -0.7,0.41 c -0.12,0.07 -0.2,0.09 -0.26,0.06 a 0.29,0.29 0 0 1 -0.15,-0.14 0.7,0.7 0 0 0 -0.46,-0.32 1.39,1.39 0 0 0 -0.92,0.28 2.8,2.8 0 0 0 -0.49,0.36 3,3 0 0 0 -0.42,0.45 1.88,1.88 0 0 0 -0.27,0.5 1.43,1.43 0 0 0 -0.11,0.52 0.86,0.86 0 0 0 0.1,0.45 0.39,0.39 0 0 0 0.32,0.15 2.23,2.23 0 0 0 0.6,-0.09 c 0.25,-0.06 0.56,-0.14 0.93,-0.25 a 4.19,4.19 0 0 1 1,-0.19 1.31,1.31 0 0 1 0.72,0.15 1,1 0 0 1 0.41,0.52 2.5,2.5 0 0 1 0.14,0.9 4.17,4.17 0 0 1 -0.2,1.24 5.44,5.44 0 0 1 -0.58,1.22 6.24,6.24 0 0 1 -0.91,1.11 6.1,6.1 0 0 1 -1.22,0.92 3.67,3.67 0 0 1 -1.08,0.44 1.91,1.91 0 0 1 -0.92,0 1.22,1.22 0 0 1 -0.64,-0.46 1.73,1.73 0 0 1 -0.27,-0.92 0.56,0.56 0 0 1 0.08,-0.3 0.6,0.6 0 0 1 0.19,-0.22 l 0.71,-0.41 a 0.44,0.44 0 0 1 0.26,-0.07 0.26,0.26 0 0 1 0.15,0.16 2.2,2.2 0 0 0 0.17,0.25 0.45,0.45 0 0 0 0.28,0.15 1,1 0 0 0 0.42,0 2.85,2.85 0 0 0 0.65,-0.29 4.29,4.29 0 0 0 0.58,-0.4 2.79,2.79 0 0 0 0.49,-0.48 2.54,2.54 0 0 0 0.35,-0.55 1.53,1.53 0 0 0 0.13,-0.59 0.48,0.48 0 0 0 -0.14,-0.4 0.57,0.57 0 0 0 -0.43,-0.08 4.34,4.34 0 0 0 -0.71,0.15 c -0.29,0.09 -0.61,0.17 -1,0.26 a 3.46,3.46 0 0 1 -0.88,0.13 1.15,1.15 0 0 1 -0.63,-0.19 1.08,1.08 0 0 1 -0.36,-0.54 2.94,2.94 0 0 1 -0.13,-1 3.88,3.88 0 0 1 0.21,-1.23 4.93,4.93 0 0 1 0.55,-1.19 6,6 0 0 1 0.84,-1.06 5.27,5.27 0 0 1 1.11,-0.8 z"
         style="fill:#fafafa"
         id="path169" />
      <path
         d="m 202.48,311.73 a 0.17,0.17 0 0 1 0.19,0 0.26,0.26 0 0 1 0.08,0.21 V 313 a 0.67,0.67 0 0 1 -0.08,0.3 0.6,0.6 0 0 1 -0.19,0.22 l -0.87,0.5 a 0.16,0.16 0 0 1 -0.19,0 0.23,0.23 0 0 1 -0.08,-0.21 v -1 a 0.62,0.62 0 0 1 0.08,-0.31 0.44,0.44 0 0 1 0.19,-0.21 z m 0.22,9.06 a 0.67,0.67 0 0 1 -0.08,0.3 0.62,0.62 0 0 1 -0.2,0.22 l -0.76,0.44 a 0.16,0.16 0 0 1 -0.19,0 0.23,0.23 0 0 1 -0.08,-0.21 v -6.26 a 0.56,0.56 0 0 1 0.08,-0.3 0.46,0.46 0 0 1 0.19,-0.22 l 0.76,-0.44 a 0.18,0.18 0 0 1 0.2,0 0.27,0.27 0 0 1 0.08,0.21 z"
         style="fill:#fafafa"
         id="path170" />
      <path
         d="m 206.38,320.37 a 2.06,2.06 0 0 0 0.43,-0.34 2.32,2.32 0 0 0 0.4,-0.51 3,3 0 0 0 0.3,-0.65 2.25,2.25 0 0 0 0.12,-0.74 v -0.5 l -0.22,0.39 a 3.58,3.58 0 0 1 -0.31,0.44 4.62,4.62 0 0 1 -0.44,0.45 3,3 0 0 1 -0.56,0.41 1.63,1.63 0 0 1 -0.91,0.26 1,1 0 0 1 -0.69,-0.3 1.8,1.8 0 0 1 -0.46,-0.74 3.59,3.59 0 0 1 -0.18,-1.08 c 0,-0.13 0,-0.29 0,-0.47 0,-0.18 0,-0.34 0,-0.47 a 6,6 0 0 1 0.18,-1.3 6.61,6.61 0 0 1 0.46,-1.27 5.37,5.37 0 0 1 0.69,-1.1 3.36,3.36 0 0 1 0.91,-0.79 2.29,2.29 0 0 1 0.56,-0.24 1.45,1.45 0 0 1 0.44,-0.05 0.71,0.71 0 0 1 0.31,0.08 0.93,0.93 0 0 1 0.22,0.14 v -0.31 a 0.56,0.56 0 0 1 0.08,-0.3 0.42,0.42 0 0 1 0.19,-0.22 l 0.76,-0.44 a 0.17,0.17 0 0 1 0.2,0 0.26,0.26 0 0 1 0.08,0.21 v 6.3 a 5.78,5.78 0 0 1 -0.68,2.85 5,5 0 0 1 -1.88,1.91 2.9,2.9 0 0 1 -1,0.37 1.46,1.46 0 0 1 -0.76,-0.05 1,1 0 0 1 -0.51,-0.38 1.21,1.21 0 0 1 -0.21,-0.67 0.51,0.51 0 0 1 0.07,-0.3 0.62,0.62 0 0 1 0.2,-0.22 l 0.68,-0.39 a 0.21,0.21 0 0 1 0.25,0 l 0.17,0.13 a 0.49,0.49 0 0 0 0.36,0.17 1.57,1.57 0 0 0 0.75,-0.28 z m -1.21,-4.52 a 4.82,4.82 0 0 0 0,0.76 c 0,0.56 0.17,0.9 0.4,1 a 0.85,0.85 0 0 0 0.84,-0.1 2.32,2.32 0 0 0 0.83,-0.87 3.22,3.22 0 0 0 0.39,-1.34 c 0,-0.14 0,-0.32 0,-0.52 0,-0.2 0,-0.37 0,-0.5 a 1.09,1.09 0 0 0 -0.39,-0.88 0.78,0.78 0 0 0 -0.83,0.08 2.39,2.39 0 0 0 -0.84,0.86 3.36,3.36 0 0 0 -0.4,1.51 z"
         style="fill:#fafafa"
         id="path171" />
      <path
         d="m 215.24,313.54 a 0.56,0.56 0 0 1 -0.08,0.3 0.42,0.42 0 0 1 -0.19,0.22 l -0.76,0.44 c -0.08,0.05 -0.14,0.05 -0.19,0 a 0.23,0.23 0 0 1 -0.08,-0.21 v -3.41 a 1.71,1.71 0 0 0 -0.29,-1.13 c -0.19,-0.22 -0.47,-0.21 -0.86,0 a 2.14,2.14 0 0 0 -0.85,1 3.51,3.51 0 0 0 -0.3,1.47 v 3.41 a 0.75,0.75 0 0 1 -0.08,0.31 0.51,0.51 0 0 1 -0.2,0.21 l -0.76,0.45 a 0.16,0.16 0 0 1 -0.19,0 0.23,0.23 0 0 1 -0.08,-0.21 v -6.26 a 0.56,0.56 0 0 1 0.08,-0.3 0.46,0.46 0 0 1 0.19,-0.22 l 0.76,-0.44 a 0.17,0.17 0 0 1 0.2,0 0.26,0.26 0 0 1 0.08,0.21 v 0.31 a 5.73,5.73 0 0 1 0.61,-0.93 3,3 0 0 1 0.84,-0.71 2,2 0 0 1 1,-0.34 0.89,0.89 0 0 1 0.66,0.3 1.65,1.65 0 0 1 0.36,0.8 5.69,5.69 0 0 1 0.1,1.14 z"
         style="fill:#fafafa"
         id="path172" />
      <path
         d="m 220,301.63 a 0.16,0.16 0 0 1 0.19,0 0.23,0.23 0 0 1 0.08,0.21 v 1.05 a 0.56,0.56 0 0 1 -0.08,0.3 0.52,0.52 0 0 1 -0.19,0.22 l -0.86,0.5 a 0.18,0.18 0 0 1 -0.2,0 0.26,0.26 0 0 1 -0.08,-0.21 v -1.05 a 0.71,0.71 0 0 1 0.08,-0.3 0.62,0.62 0 0 1 0.2,-0.22 z m 0.22,9.05 a 0.62,0.62 0 0 1 -0.08,0.31 0.44,0.44 0 0 1 -0.19,0.21 l -0.76,0.45 a 0.16,0.16 0 0 1 -0.19,0 0.23,0.23 0 0 1 -0.09,-0.21 v -6.26 a 0.58,0.58 0 0 1 0.09,-0.3 0.42,0.42 0 0 1 0.19,-0.22 l 0.76,-0.44 c 0.08,-0.05 0.14,-0.05 0.19,0 a 0.23,0.23 0 0 1 0.08,0.21 z"
         style="fill:#fafafa"
         id="path173" />
      <path
         d="m 226.5,307 a 0.56,0.56 0 0 1 -0.08,0.3 0.42,0.42 0 0 1 -0.19,0.22 l -0.76,0.44 a 0.17,0.17 0 0 1 -0.2,0 0.26,0.26 0 0 1 -0.08,-0.21 v -3.42 a 1.7,1.7 0 0 0 -0.28,-1.12 c -0.19,-0.22 -0.47,-0.21 -0.86,0 a 2.14,2.14 0 0 0 -0.85,1 3.51,3.51 0 0 0 -0.3,1.47 v 3.41 a 0.75,0.75 0 0 1 -0.08,0.31 0.51,0.51 0 0 1 -0.2,0.21 l -0.76,0.45 a 0.16,0.16 0 0 1 -0.19,0 0.23,0.23 0 0 1 -0.08,-0.21 v -6.26 a 0.56,0.56 0 0 1 0.08,-0.3 0.42,0.42 0 0 1 0.19,-0.22 l 0.76,-0.44 a 0.17,0.17 0 0 1 0.2,0 0.26,0.26 0 0 1 0.08,0.21 v 0.31 a 5.73,5.73 0 0 1 0.61,-0.93 3,3 0 0 1 0.84,-0.71 2,2 0 0 1 1,-0.34 0.89,0.89 0 0 1 0.66,0.3 1.66,1.66 0 0 1 0.36,0.79 5.73,5.73 0 0 1 0.1,1.15 z"
         style="fill:#fafafa"
         id="path174" />
    </g>
  </g>
</svg>
