<?xml version="1.0" encoding="UTF-8" standalone="no"?>
<!-- Created with Inkscape (http://www.inkscape.org/) -->

<svg
   width="341.92136"
   height="300.59933"
   viewBox="0 0 90.466698 79.533579"
   version="1.1"
   id="svg1"
   xml:space="preserve"
   inkscape:export-filename="background-jogos2.png"
   inkscape:export-xdpi="112.31"
   inkscape:export-ydpi="112.31"
   inkscape:version="1.3.2 (091e20ef0f, 2023-11-25, custom)"
   sodipodi:docname="background-jogos.svg"
   xmlns:inkscape="http://www.inkscape.org/namespaces/inkscape"
   xmlns:sodipodi="http://sodipodi.sourceforge.net/DTD/sodipodi-0.dtd"
   xmlns="http://www.w3.org/2000/svg"
   xmlns:svg="http://www.w3.org/2000/svg"><sodipodi:namedview
     id="namedview1"
     pagecolor="#ffffff"
     bordercolor="#000000"
     borderopacity="0.25"
     inkscape:showpageshadow="2"
     inkscape:pageopacity="0.0"
     inkscape:pagecheckerboard="0"
     inkscape:deskcolor="#d1d1d1"
     inkscape:document-units="px"
     inkscape:zoom="0.97638868"
     inkscape:cx="98.3215"
     inkscape:cy="183.84072"
     inkscape:window-width="1680"
     inkscape:window-height="984"
     inkscape:window-x="1360"
     inkscape:window-y="0"
     inkscape:window-maximized="1"
     inkscape:current-layer="layer1" /><defs
     id="defs1"><rect
       x="21.001982"
       y="102.11308"
       width="210.01981"
       height="32.951385"
       id="rect5" /><rect
       x="21.001982"
       y="102.11308"
       width="210.01981"
       height="32.951385"
       id="rect5-9" /></defs><g
     inkscape:label="Camada 1"
     inkscape:groupmode="layer"
     id="layer1"
     transform="translate(-7.6833192,-10.838333)"><g
       id="g4"
       transform="matrix(3.028915,0,0,3.2893971,-21.637379,6.6230905)"
       style="stroke-width:0.29783;opacity:0.14425428"><path
         style="fill:#0064a3;fill-opacity:1;stroke-width:0.29783"
         d="m 24.134361,19.273644 c -0.7754,-0.816263 -4.390425,-1.436189 -5.74639,-3.27918 -0.893144,-1.213933 -1.185808,-1.778109 -1.529065,-2.947628 -0.323995,-1.103888 -0.413396,-1.713913 -0.411974,-2.81111 0.0017,-1.4227257 0.211567,-2.3144693 0.824927,-3.5075793 1.166619,-2.269306 3.650013,-3.9177446 6.829789,-4.5335095 0.765796,-0.1482971 0.802636,-0.1917461 0.205647,-0.2425462 -0.835694,-0.071112 -2.579071,0.00421 -3.420967,0.1477355 -3.669631,0.6257397 -6.31658,2.7508002 -7.134495,5.7278131 -0.161368,0.58735 -0.177922,1.3225899 -0.03672,1.6295421 0.09585,0.208296 0.09253,0.223541 -0.105198,0.4845184 -0.112289,0.1482009 -0.57003,0.6830479 -1.017206,1.1885499 -1.627449,1.839725 -2.038807,2.425809 -2.038919,2.904935 -3.6e-5,0.178324 0.04444,0.270113 0.190262,0.39295 0.288989,0.243379 0.814736,0.477376 1.179978,0.525175 0.381137,0.04988 0.560364,0.169396 0.560364,0.373674 0,0.236945 -0.206361,0.757187 -0.389154,0.98107 -0.26571,0.325432 -0.233002,0.577955 0.109544,0.845857 0.153786,0.120273 0.27961,0.255448 0.27961,0.300386 0,0.04494 -0.104854,0.187096 -0.233009,0.315909 -0.232413,0.233606 -0.288034,0.377198 -0.171456,0.442625 0.18233,0.102327 0.670764,0.787955 0.670764,0.94157 0,0.0941 -0.104854,0.458704 -0.233009,0.810223 -0.159949,0.43873 -0.233009,0.750448 -0.233009,0.994164 0,0.32146 0.02604,0.386958 0.275376,0.692558 0.323879,0.396975 0.63011,0.594809 1.182069,0.763657 0.366633,0.112155 0.567522,0.123106 2.258296,0.123106 2.094609,0 2.637358,-0.331919 2.898471,0.2041 0.177236,0.363836 0.80251,0.979085 0.908176,1.6251 0.124162,1.631473 5.212964,-4.161321 4.327296,-5.093665 z"
         id="path1-6-3"
         sodipodi:nodetypes="ssscssscssssssssssssssssssssss" /><path
         style="fill:#800000;fill-opacity:1;stroke-width:0.29783"
         d="m 25.051612,19.273643 c 0.7754,-0.816263 4.390425,-1.436189 5.74639,-3.27918 0.893144,-1.213933 1.185807,-1.778109 1.529065,-2.947628 0.323994,-1.103888 0.413395,-1.713913 0.411973,-2.81111 C 32.737328,8.812999 32.527474,7.9212554 31.914113,6.728145 30.747495,4.4588396 28.264101,2.8104011 25.084325,2.1946361 24.318529,2.0463387 24.281689,2.0028899 24.878678,1.9520897 c 0.835694,-0.071111 2.57907,0.00422 3.420967,0.1477357 3.669631,0.6257392 6.31658,2.7508 7.134495,5.7278129 0.161367,0.58735 0.177921,1.3225899 0.03672,1.6295421 -0.09585,0.208296 -0.09253,0.223541 0.105198,0.4845184 0.11229,0.1482002 0.570031,0.6830482 1.017207,1.1885492 1.627448,1.839726 2.038806,2.42581 2.038919,2.904935 3.5e-5,0.178325 -0.04444,0.270114 -0.190262,0.392951 -0.288989,0.243379 -0.814736,0.477375 -1.179979,0.525175 -0.381136,0.04988 -0.560363,0.169396 -0.560363,0.373674 0,0.236945 0.206361,0.757187 0.389154,0.98107 0.265709,0.325432 0.233002,0.577954 -0.109544,0.845856 -0.153786,0.120274 -0.27961,0.255448 -0.27961,0.300387 0,0.04494 0.104854,0.187096 0.233009,0.315908 0.232412,0.233607 0.288034,0.377199 0.171456,0.442625 -0.18233,0.102328 -0.670764,0.787955 -0.670764,0.941571 0,0.0941 0.104854,0.458703 0.233009,0.810223 0.159949,0.438729 0.233009,0.750448 0.233009,0.994164 0,0.32146 -0.02604,0.386958 -0.275376,0.692558 -0.323879,0.396975 -0.63011,0.594808 -1.182069,0.763657 -0.366633,0.112155 -0.567522,0.123105 -2.258296,0.123105 -2.094609,0 -2.637358,-0.331918 -2.898471,0.204101 -0.177236,0.363836 -0.80251,0.979084 -0.908176,1.6251 -0.124163,1.631473 -5.212965,-4.161321 -4.327296,-5.093665 z"
         id="path1-6-3-8"
         sodipodi:nodetypes="ssscssscssssssssssssssssssssss" /><g
         id="g3"
         transform="matrix(0.30150378,0,0,0.30591615,-8.5250768,-15.136779)"
         style="stroke-width:0.980665"><path
           style="fill:#0064a3;fill-opacity:1;stroke-width:0.980665"
           d="m 112.72245,104.61073 c -1.86145,-0.71489 -2.03355,-0.95158 -1.89045,-2.60002 -1.21239,-2.945658 0.79517,-8.120519 0.12883,-10.73731 -0.34626,-0.465529 -0.25178,-1.392251 0.19578,-1.920482 l 0.4118,-0.486093 -0.44148,-0.609596 c -0.40476,-0.558847 -0.43229,-0.773731 -0.33077,-2.581171 0.0996,-1.770469 0.17343,-2.070926 0.72546,-2.945583 0.59785,-0.947294 0.6039,-0.980122 0.22064,-1.196981 -0.88835,-0.502666 -1.23306,-2.216927 -0.78539,-3.905713 0.16068,-0.606008 0.14951,-0.89278 -0.0451,-1.155987 -0.21637,-0.292618 -0.19862,-0.42547 0.1079,-0.809788 0.20168,-0.252857 0.28669,-0.499318 0.18897,-0.547689 -0.47632,-0.235793 -1.41024,-0.917734 -0.29145,-2.318171 0.54322,-0.679957 0.56675,-0.773585 0.31929,-1.271792 -0.6312,-1.270891 -0.16815,-2.218304 1.35561,-2.774033 0.57635,-0.21019 1.3083,-0.381352 1.62656,-0.380359 0.87324,0.0027 4.23683,0.857269 4.75605,1.208324 l 0.45615,0.308399 0.84539,-0.310397 c 1.66409,-0.610978 3.45264,-0.309242 4.65819,0.785863 0.5914,0.537208 0.67361,0.722199 0.67361,1.515878 0,0.97408 0.12546,1.122608 0.95128,1.126141 0.90764,0.0039 1.45013,0.587793 1.65913,1.785767 0.22124,1.268019 0.31824,1.414548 1.42339,2.150213 1.5331,1.020555 2.07978,2.273718 1.68146,3.854571 -0.21507,0.853814 -0.2041,0.894241 0.41019,1.504563 0.51586,0.512491 0.6313,0.773543 0.6313,1.427649 0,0.440261 0.0861,0.800475 0.1916,0.800475 0.32688,0 1.47151,1.816103 1.47151,2.334706 0,0.302959 -0.19116,0.651469 -0.4987,0.908698 l -0.4987,0.41726 0.4987,0.708279 c 0.54075,0.767985 0.66109,1.855699 0.26679,2.411319 -0.12765,0.179749 -0.63771,0.629801 -1.13362,1.000118 -0.84951,0.634341 -0.90311,0.725246 -0.92639,1.571037 -0.0131,0.493756 0.0395,1.348926 0.11771,1.900379 0.13614,0.957952 0.10971,1.044655 -0.59074,1.945096 -0.85344,1.097078 -1.41613,1.512939 -2.47982,1.832802 -0.84291,0.253466 -1.07826,0.489178 -1.27727,1.279178 -0.4132,1.64017 -2.76927,2.53574 -5.54429,2.10741 l -1.11047,-0.1714 -1.15584,0.81227 c -1.48071,1.04058 -2.66752,1.46667 -4.26822,1.53232 -1.12041,0.0459 -1.4077,-0.007 -2.70531,-0.50615 z m 4.16873,-0.25676 c 0.64301,-0.13978 1.44786,-0.49332 2.15873,-0.94823 l 1.13347,-0.72535 -1.11558,-0.54066 -1.11555,-0.54067 -0.60558,0.36671 c -0.59823,0.36228 -1.82107,0.50942 -1.82107,0.21912 0,-0.0813 0.31173,-0.24136 0.69274,-0.35593 0.91346,-0.27468 1.50727,-0.84081 1.67536,-1.59726 0.19203,-0.86436 0.64643,-0.695249 0.64643,0.24059 0,0.88032 0.43239,1.03896 1.24255,0.4559 0.63473,-0.4568 0.66166,-0.88484 0.10274,-1.635149 -0.57646,-0.774067 -0.35,-0.925761 0.71282,-0.477491 0.51073,0.215406 1.21275,0.374888 1.6502,0.374888 0.41877,0 0.76138,0.05387 0.76138,0.119704 0,0.261607 -0.53376,0.478789 -1.17667,0.478789 -0.62038,0 -0.69843,0.05378 -0.92222,0.635889 -0.13437,0.34975 -0.51243,0.80912 -0.83992,1.02085 l -0.59546,0.38494 0.95259,0.34238 c 1.27021,0.45654 3.65421,0.48144 4.80882,0.0502 0.78811,-0.29434 1.53769,-1.13105 1.81214,-2.02279 0.12107,-0.393231 0.0913,-0.411469 -0.67141,-0.411469 -0.69991,0 -0.8346,0.05956 -1.09542,0.484509 -0.16356,0.26647 -0.53129,0.56847 -0.81714,0.67109 -0.64691,0.23225 -2.21317,0.2483 -2.40522,0.0246 -0.20629,-0.24031 0.31309,-0.42721 1.19469,-0.42985 0.57933,-0.002 0.87069,-0.0994 1.20276,-0.40324 l 0.43826,-0.400954 -0.9429,-0.688949 c -0.84061,-0.614219 -1.17986,-1.052727 -0.81442,-1.052727 0.0706,0 0.46146,0.210414 0.86844,0.467586 1.39029,0.878513 2.86415,1.097356 4.36033,0.647444 1.87168,-0.56282 3.19158,-2.239125 2.83629,-3.60212 -0.12677,-0.48614 -0.13043,-0.487436 -1.13243,-0.402026 -1.17868,0.100464 -1.9336,-0.03499 -1.442,-0.258718 0.16836,-0.0766 0.57932,-0.140311 0.91335,-0.141572 0.96566,-0.0036 1.36771,-0.377622 1.36771,-1.272206 0,-0.729659 0.0449,-0.795684 0.77403,-1.136388 0.88886,-0.415369 1.71236,-1.364769 1.71737,-1.979842 0.001,-0.231621 -0.19818,-0.75854 -0.44475,-1.17093 -0.38172,-0.638599 -0.51278,-0.73523 -0.88358,-0.651554 -0.23947,0.05404 -0.66928,0.131933 -0.95511,0.173112 -1.02648,0.147852 -1.04501,0.177419 -0.41993,0.669973 0.55227,0.435158 0.66258,0.464611 1.14621,0.306029 0.4396,-0.144145 0.55637,-0.135578 0.6543,0.04806 0.20542,0.385271 -0.0737,0.631031 -0.83253,0.733509 -0.50764,0.06854 -0.77538,0.200662 -0.87211,0.430354 -0.19423,0.461153 -0.91673,1.008721 -1.61665,1.225121 -0.52241,0.161517 -0.59578,0.268033 -0.6459,0.937821 -0.0576,0.770615 -1.0547,2.53767 -1.73872,3.081642 -0.66707,0.530483 -1.57038,0.742228 -3.4698,0.81336 -1.42919,0.05351 -2.06273,0.01278 -2.67725,-0.172385 -0.44275,-0.133369 -0.83211,-0.2425 -0.86529,-0.2425 -0.033,0 -0.12327,0.268148 -0.20016,0.595888 -0.16157,0.687922 -1.17616,1.417193 -1.80672,1.298521 -0.2833,-0.05331 -0.46127,0.05359 -0.66669,0.400439 -0.72142,1.218062 -2.71862,1.747902 -4.89522,1.298652 -0.39187,-0.0808 -0.74429,-0.12419 -0.78316,-0.09619 -0.20213,0.14539 0.26621,0.53706 1.09005,0.91184 0.50946,0.23175 1.0317,0.51278 1.16053,0.62451 0.37445,0.32471 -0.58154,0.25723 -1.37863,-0.0973 l -0.67553,-0.30046 -0.1259,0.33786 c -0.29618,0.79548 -0.13832,1.58084 0.41241,2.0519 0.49722,0.42526 0.56622,0.44319 0.80422,0.20894 0.24134,-0.23751 0.27794,-0.23259 0.50086,0.0672 0.54826,0.73729 1.89818,0.94118 3.67461,0.555 z m -2.18174,-4.715277 c 0.92886,-0.1857 1.65241,-0.727459 1.83454,-1.373628 0.12693,-0.450491 0.21551,-0.500185 0.96405,-0.541087 0.45713,-0.02497 0.93997,-0.154338 1.08411,-0.290437 0.32773,-0.3095 0.33281,-0.9943 0.0101,-1.632644 -0.34833,-0.693234 -0.0693,-0.784955 0.71865,-0.236173 0.9191,0.640188 1.99286,0.932655 3.42055,0.931663 2.4848,-0.0017 3.60275,-0.486513 4.5222,-1.960975 0.48848,-0.783377 0.56097,-1.062192 0.46801,-1.800018 l -0.11015,-0.873057 0.82397,-0.177669 c 1.02174,-0.22031 1.92582,-0.941709 1.73446,-1.383961 -0.0743,-0.171639 -0.20081,-0.509909 -0.28109,-0.75171 l -0.14608,-0.43964 -0.82571,0.762217 c -0.89785,0.828818 -1.8335,1.239232 -2.82512,1.239232 -0.92538,0 -0.65373,-0.329924 0.49278,-0.59849 1.16546,-0.273016 1.88182,-0.737935 2.4589,-1.595876 0.40523,-0.60247 0.49442,-0.648465 1.25753,-0.648465 1.08647,0 2.38001,-0.490972 2.78742,-1.057989 0.37671,-0.524263 0.17868,-1.179625 -0.56072,-1.856181 l -0.42548,-0.389283 -0.70391,0.492151 c -0.38717,0.270684 -0.70491,0.628302 -0.70615,0.79471 -0.003,0.416406 -1.19012,1.418102 -1.68055,1.418102 -0.57661,0 -0.49384,-0.262142 0.21923,-0.693885 1.30932,-0.792899 1.19291,-2.305232 -0.26618,-3.458145 l -0.42606,-0.336651 h 0.43356 c 0.53564,0 1.4908,0.791175 1.65097,1.367495 0.14301,0.514435 0.35041,0.539729 0.78282,0.09543 0.44445,-0.45668 0.40446,-1.29089 -0.0899,-1.874396 -0.45842,-0.541105 -0.66101,-0.592024 -1.04178,-0.261839 -0.25242,0.218892 -0.8316,0.313134 -0.8316,0.135309 0,-0.04902 0.18525,-0.276414 0.4118,-0.505329 0.59851,-0.604897 1.08119,-2.058506 0.92052,-2.77206 -0.18151,-0.805921 -0.73174,-1.543327 -1.59883,-2.142563 -0.63486,-0.438723 -0.80688,-0.484818 -1.47353,-0.394811 -0.86629,0.116959 -0.98384,-0.07829 -0.40512,-0.672936 0.38234,-0.392856 0.40082,-1.651285 0.0316,-2.147891 -0.1653,-0.222379 -1.32507,-0.701518 -1.69796,-0.701518 -0.0454,0 -0.072,0.353483 -0.0585,0.785519 0.0277,0.90749 -0.35923,1.218274 -0.4568,0.366754 -0.0504,-0.439928 -0.17824,-0.599356 -0.56592,-0.705416 -0.27543,-0.07537 -0.55737,-0.299286 -0.62653,-0.497603 -0.12239,-0.350947 -0.84512,-0.697368 -1.4549,-0.697368 -0.16618,0 -0.30208,-0.100995 -0.30208,-0.224434 0,-0.303286 0.54545,-0.277366 1.63227,0.07756 0.49755,0.162484 0.9887,0.258028 1.09149,0.212317 0.38595,-0.171664 0.19204,-1.272849 -0.31962,-1.814709 -1.00758,-1.067141 -2.20034,-1.329428 -3.86533,-0.849978 -1.0355,0.298182 -1.05876,0.705272 -0.0445,0.77584 1.04065,0.0724 0.71622,0.476794 -0.38255,0.476794 -0.34476,0 -0.39878,0.111438 -0.39878,0.822925 0,0.631741 -0.0725,0.822925 -0.31186,0.822925 -0.25047,0 -0.31186,-0.229046 -0.31186,-1.163691 0,-1.285896 -0.23834,-1.677666 -1.24966,-2.054051 -1.00382,-0.373579 -1.26173,-0.305626 -0.99696,0.262694 0.12458,0.26745 0.35359,0.592571 0.50892,0.72249 0.38003,0.317864 0.35727,0.96034 -0.0444,1.249323 -0.46355,0.333604 -2.376,0.32915 -2.376,-0.0055 0,-0.179878 0.12722,-0.217698 0.50325,-0.149763 0.66315,0.119785 1.15994,-0.02864 1.15994,-0.346553 0,-0.557913 -0.68179,-1.862049 -1.14945,-2.198598 -0.5437,-0.391309 -1.04493,-0.435283 -2.2397,-0.196499 -0.95256,0.190369 -1.59853,0.8611 -1.59964,1.661002 -0.001,1.014567 0.14038,1.072589 1.19922,0.490718 0.59215,-0.325407 1.02568,-0.470161 1.14687,-0.382942 0.27359,0.196905 0.0338,0.419186 -0.91945,0.852264 -0.94957,0.431405 -2.05111,1.58761 -2.05111,2.152868 0,0.478566 0.53447,1.051359 0.98103,1.051359 0.1835,0 0.82818,-0.112163 1.43247,-0.249257 1.02876,-0.233385 1.20199,-0.232924 2.72061,0.0072 0.89205,0.141068 1.70939,0.319441 1.81631,0.396387 0.41669,0.299884 -0.14301,0.328545 -1.44871,0.07418 -1.58286,-0.308357 -2.59081,-0.250591 -3.9618,0.227054 l -0.96194,0.335134 0.12956,0.702517 c 0.0856,0.4636 0.0225,0.920716 -0.18504,1.344106 -0.56248,1.14734 -0.38967,2.640875 0.38695,3.344416 0.25503,0.231037 0.36351,0.243076 0.72529,0.08049 0.23399,-0.105166 0.47688,-0.154163 0.53975,-0.108914 0.0629,0.04527 -0.33047,0.713691 -0.87413,1.485405 -0.96281,1.366724 -0.99029,1.443388 -1.05989,2.955921 -0.0392,0.854044 -0.0131,1.774228 0.0567,2.044855 0.1699,0.651887 1.23262,1.37624 2.84568,1.939665 0.72101,0.251844 1.34573,0.542062 1.38826,0.644928 0.12121,0.293322 -0.28402,0.225731 -1.93194,-0.322231 -1.41169,-0.469416 -1.55508,-0.489903 -1.83285,-0.261841 -0.41748,0.342767 -0.61147,0.863961 -0.45426,1.220426 0.11756,0.266675 0.16661,0.274921 0.44465,0.07481 0.36508,-0.262751 0.90649,-0.298266 0.90649,-0.05946 0,0.09099 -0.23309,0.364787 -0.51798,0.608446 -0.28488,0.24366 -0.71791,0.916776 -0.9623,1.495814 -0.53269,1.262135 -0.46319,2.435913 0.2243,3.790029 0.57562,1.133705 0.73712,1.720661 0.47344,1.720661 -0.11334,0 -0.32166,-0.100253 -0.46299,-0.222785 -0.34738,-0.301264 -0.62701,-0.145944 -0.61897,0.343834 0.009,0.525346 0.38939,0.870241 1.26141,1.142622 0.83968,0.262282 1.48312,0.283551 2.48962,0.08233 z m -0.63914,-3.729774 c 0,-0.0767 0.28069,-0.283263 0.62372,-0.459055 0.93329,-0.478291 0.85733,-1.045942 -0.20784,-1.553279 -0.45738,-0.217836 -0.8316,-0.458463 -0.8316,-0.53473 0,-0.323406 0.41579,-0.273255 1.13236,0.136571 1.57366,0.900031 4.32328,0.937575 5.93641,0.08106 0.51261,-0.272176 0.77438,-0.326374 1.0548,-0.218371 0.58568,0.225579 1.9959,0.170935 2.36053,-0.09147 0.41565,-0.299154 0.41293,-0.726363 -0.0101,-1.620338 -0.21616,-0.456456 -0.26514,-0.763489 -0.13687,-0.85592 0.36451,-0.262345 0.72424,0.283888 0.95889,1.45611 l 0.22826,1.140348 -0.56543,0.350035 c -0.68374,0.423257 -1.87543,0.608151 -2.53202,0.392845 -0.38194,-0.125244 -0.66785,-0.09058 -1.38742,0.16823 -0.72168,0.259571 -1.27305,0.325981 -2.70641,0.325981 h -1.80009 l -0.11289,0.499624 c -0.062,0.274793 -0.22245,0.594612 -0.35633,0.710707 -0.26895,0.23323 -1.64781,0.293185 -1.64781,0.07165 z m -0.62367,-3.439622 c 0,-0.07575 0.30404,-0.185521 0.67565,-0.24393 0.37163,-0.0584 0.89387,-0.229295 1.16054,-0.379745 0.32575,-0.183786 0.67706,-0.245885 1.07054,-0.189245 0.70436,0.101388 0.93436,-0.238338 0.71946,-1.06271 -0.1528,-0.586144 0.0778,-0.685957 0.64371,-0.278667 0.26351,0.18964 0.32585,0.429 0.25328,0.972546 -0.0658,0.491833 -0.0175,0.720996 0.14797,0.720996 0.55619,0 2.17326,-0.487224 2.51251,-0.757024 0.46699,-0.371356 0.71645,-0.368992 0.71645,0.0067 0,0.536224 -1.52199,1.108771 -3.12019,1.173764 -0.77731,0.0316 -1.58765,-0.01578 -1.82346,-0.106594 -0.32254,-0.124234 -0.5662,-0.110271 -1.01482,0.05812 -0.6528,0.245032 -1.94172,0.301926 -1.94172,0.08571 z m 5.52333,-2.38955 c -0.0633,-0.07378 0.0246,-0.374778 0.19533,-0.668902 0.78336,-1.349291 -0.0357,-2.786184 -1.72704,-3.029627 -0.56325,-0.08107 -0.75225,-0.02291 -1.30203,0.400657 -0.61291,0.472195 -0.67416,0.486374 -1.30253,0.301536 -0.94137,-0.276913 -1.39242,-0.22961 -1.95199,0.204713 -0.6118,0.474835 -0.89033,0.484375 -0.89033,0.0305 0,-0.668072 1.09905,-1.055795 2.39601,-0.845274 0.63412,0.102926 0.81595,0.06791 1.24294,-0.239382 0.27507,-0.197971 0.69149,-0.359948 0.9254,-0.359948 0.61903,0 0.56493,-0.755307 -0.0944,-1.319317 -0.28585,-0.2445 -0.51974,-0.518986 -0.51974,-0.60997 0,-0.29303 0.62954,-0.176308 1.12524,0.208627 0.52368,0.406656 1.24537,0.476536 2.08343,0.201726 0.68888,-0.225891 0.8488,-0.636346 0.52398,-1.3447 -0.22976,-0.501007 -0.21923,-0.612354 0.0804,-0.850694 0.21332,-0.169604 0.34484,-0.530223 0.34484,-0.945169 0,-0.555515 -0.11072,-0.746531 -0.64308,-1.110389 -0.35367,-0.241706 -0.86305,-0.749682 -1.13193,-1.128839 -0.80884,-1.140649 -1.44506,-1.581569 -2.55971,-1.774021 -0.5532,-0.0955 -1.26784,-0.152616 -1.58814,-0.126914 -0.81259,0.06522 -0.93525,-0.305255 -0.13906,-0.419862 0.57441,-0.08267 0.60774,-0.120036 0.3999,-0.448331 -0.12472,-0.196975 -0.17823,-0.393103 -0.11887,-0.435838 0.22584,-0.162535 0.78329,0.122845 1.03301,0.528816 0.16266,0.264338 0.46687,0.452644 0.81169,0.502275 0.85328,0.122813 1.78505,0.777223 2.68409,1.885068 0.45135,0.556192 1.05471,1.121644 1.34083,1.25656 0.73482,0.34651 2.02068,0.31395 2.69585,-0.06826 0.61461,-0.347929 1.23436,-0.279172 1.12623,0.124944 -0.0891,0.333737 -1.03523,0.66021 -2.18252,0.753278 -0.7877,0.0639 -0.89684,0.117701 -0.89684,0.442141 0,0.203165 -0.15367,0.60232 -0.34128,0.887011 -0.25577,0.387891 -0.28181,0.560427 -0.10398,0.688432 0.3003,0.216114 0.30771,1.083367 0.0131,1.480126 -0.25353,0.340927 -1.7171,0.866915 -2.42605,0.871894 -0.38014,0.0027 -0.46779,0.08738 -0.46779,0.452154 0,0.294508 0.10488,0.448868 0.30461,0.448868 0.49946,0 1.73863,0.880109 2.01576,1.431665 0.2467,0.491004 0.30381,0.513726 1.30768,0.520178 0.57735,0.0038 1.33038,0.09332 1.67341,0.199157 0.58868,0.181606 0.64412,0.168419 0.98761,-0.234911 0.41414,-0.486305 1.10837,-0.719109 2.14441,-0.719109 0.979,0 0.90093,0.250227 -0.11669,0.373958 -0.82285,0.100051 -1.66402,0.635289 -1.66402,1.058807 0,0.382468 -0.43665,0.377373 -1.56012,-0.01821 -0.85834,-0.302224 -1.31211,-0.377611 -1.84219,-0.306044 -0.66164,0.08933 -0.71143,0.138939 -0.8401,0.837131 -0.0935,0.508439 -0.26167,0.790268 -0.53333,0.894896 -0.2283,0.08792 -0.44538,0.09582 -0.51171,0.0186 z m 4.31788,-3.646843 c -0.0789,-0.09195 -0.0313,-0.194117 0.10611,-0.227051 0.79761,-0.191343 2.28849,-1.105418 2.82363,-1.731193 0.53317,-0.623475 0.61857,-0.866561 0.6044,-1.72066 -0.0263,-1.593102 -0.97812,-2.754826 -3.33503,-4.071011 -0.19468,-0.108725 -0.18702,-0.270301 0.0348,-0.722705 0.20827,-0.424834 0.23286,-0.751734 0.0908,-1.206793 -0.19446,-0.622695 -0.12166,-0.9042 0.23328,-0.9042 0.29968,0 0.6704,1.212308 0.54321,1.776389 -0.11976,0.530912 0.3193,1.285969 0.82966,1.426913 0.46455,0.128289 0.80607,-0.388581 0.79494,-1.203025 -0.009,-0.606663 -0.11947,-0.879098 -0.46779,-1.145885 -0.88917,-0.681182 -0.33557,-0.790114 0.59862,-0.11778 0.39824,0.286612 0.6077,0.590182 0.6077,0.880746 0,0.40876 0.0707,0.451038 0.90749,0.541328 1.09871,0.118585 1.79387,0.439355 1.4682,0.677514 -0.16092,0.117623 -0.43307,0.09999 -0.97591,-0.06326 -0.95377,-0.286799 -1.18916,-0.215423 -1.75433,0.531955 l -0.4585,0.606314 0.61444,0.610431 c 0.33792,0.335736 0.61441,0.703341 0.61441,0.816895 0,0.154212 0.14476,0.131934 0.57173,-0.08799 0.55108,-0.283828 0.99498,-0.366783 1.76714,-0.330216 0.59512,0.02818 0.41345,0.271929 -0.27673,0.371271 -0.35233,0.05071 -0.88284,0.229356 -1.17895,0.396991 -0.48461,0.274328 -0.54253,0.416154 -0.5796,1.419055 -0.0267,0.723089 -0.15719,1.241717 -0.3717,1.47732 -0.31698,0.348135 -0.30927,0.366903 0.18699,0.456559 0.50215,0.0907 1.33398,0.86615 1.33556,1.245045 0.001,0.346262 -0.5964,0.190723 -0.95739,-0.249091 -0.19686,-0.239878 -0.57256,-0.506498 -0.83482,-0.5925 -0.39507,-0.129551 -0.54182,-0.09965 -0.8556,0.174278 -0.92029,0.803487 -2.37627,1.326048 -2.68686,0.964351 z m -10.67281,-2.935097 c 0,-0.268034 1.44486,-0.915494 2.04301,-0.915494 0.61135,0 0.61421,-0.0041 0.42726,-0.602899 -0.20498,-0.656945 -0.0865,-1.232026 0.36123,-1.74856 0.2639,-0.304557 0.22803,-0.374206 -0.44052,-0.855344 -0.40028,-0.288084 -0.72778,-0.559698 -0.72778,-0.603588 0,-0.207871 0.82302,-0.04147 1.45529,0.294257 0.4168,0.221312 0.98512,0.374058 1.39173,0.374058 0.37799,0 0.68724,0.06253 0.68724,0.138938 0,0.265494 -0.65637,0.609178 -1.16343,0.609178 -0.57812,0 -0.91737,0.462418 -0.91271,1.244127 0.004,0.737114 0.20673,1.115227 0.64008,1.196807 0.21813,0.04105 0.39658,0.153107 0.39658,0.249033 0,0.122766 -0.32308,0.146101 -1.09147,0.07879 -0.96227,-0.08428 -1.17625,-0.05013 -1.80756,0.288477 -0.72257,0.387576 -1.25895,0.495033 -1.25895,0.252215 z m 5.49872,-6.827574 c -0.64313,-0.914803 -0.59314,-1.115107 0.18657,-0.74745 0.55619,0.262279 1.02988,0.175189 1.85109,-0.340341 0.61822,-0.388099 0.31976,-1.445019 -0.55572,-1.967934 -0.47376,-0.282973 -0.18898,-0.474632 0.41234,-0.277468 0.67598,0.221667 1.33881,1.00655 1.33881,1.585362 0,0.441248 0.0285,0.455885 0.72766,0.374227 0.57691,-0.06737 0.72764,-0.03553 0.72764,0.15377 0,0.299742 -0.74898,0.598971 -1.259,0.502985 -0.21176,-0.03984 -0.55293,0.02035 -0.75838,0.133748 -0.20541,0.113395 -0.7113,0.274681 -1.12421,0.358403 -0.63905,0.129566 -0.73668,0.205248 -0.65611,0.508568 0.18306,0.688965 -0.31928,0.528883 -0.89066,-0.283863 z"
           id="path1"
           sodipodi:nodetypes="cccscscssssssscssscscssscsssssssscssssssssscsscccscccssssssssssssscssssssssscssssssscsccsssssssssssscscssscssscsssscccsssccssccssscssssssscscssscsssssssssssssccsssssssssssssssscssssscssssssccsscscsscsccsssssssssssscscccsssssssssscssssccscccssssssssssccccccssssssssssssssssssssscssssssssscccssscsssssssssccscsssssssscssssssscssssssssscssssssscssssssscssscsssssssssssscss" /><path
           id="path2"
           style="fill:#800000;stroke-width:0.980665"
           d="m 98.698325,64.52371 c 2.169265,4.14e-4 2.597315,0.07416 4.341335,0.746724 2.15908,0.832631 4.36204,2.653546 5.59707,4.626075 0.0843,0.134706 0.1582,0.236878 0.22841,0.324011 v 21.647257 c -0.0397,-0.06813 -0.0715,-0.115585 -0.11265,-0.189135 -0.69111,-1.235919 -0.70832,-1.240332 -2.2779,-0.593763 -0.71317,0.29378 -1.32931,0.496419 -1.36891,0.450619 -0.0396,-0.04582 -0.65336,-1.089716 -1.36426,-2.319755 -1.29703,-2.244238 -1.55163,-2.59209 -1.89704,-2.59209 -0.43996,0 -0.67293,0.412161 -1.0051,1.779219 -0.17661,0.72683 -0.36638,1.493079 -0.42168,1.702739 l -0.10026,0.380855 h -3.697955 -3.697969 l -0.53485,-0.67231 c -1.06048,-1.332729 -2.64049,-3.832041 -3.38584,-5.356262 -0.87314,-1.785575 -1.34739,-3.087295 -1.74976,-4.800224 -0.26473,-1.127061 -0.28603,-1.372041 -0.28577,-3.301091 2.5e-4,-1.943939 0.01856,-2.15157 0.27336,-3.089217 0.35594,-1.309774 1.20371,-3.053942 1.98955,-4.09329 1.59696,-2.112128 3.93035,-3.686204 6.49417,-4.381128 0.916199,-0.248335 1.148779,-0.269583 2.976049,-0.269234 z m 3.443715,24.797969 c 0.0349,0.03482 0.54637,0.893916 1.13636,1.909445 0.83977,1.445448 1.13228,1.86755 1.34824,1.94355 0.22989,0.08085 0.48724,0.0102 1.54461,-0.424263 l 1.26917,-0.521415 0.39068,0.679028 c 0.21484,0.373459 0.62998,1.102477 0.92294,1.620056 0.0424,0.07487 0.0717,0.111313 0.1111,0.178284 v 10.423656 c -0.39653,-0.33145 -1.73946,-1.4202 -3.10162,-2.51303 -4.12904,-3.312634 -6.144095,-5.094144 -8.996345,-7.954551 l -2.693889,-2.701644 3.591509,-0.05116 c 3.308945,-0.04682 3.602015,-0.06529 3.725355,-0.234094 0.0736,-0.10077 0.25891,-0.68575 0.41134,-1.300179 0.15244,-0.614429 0.30555,-1.088483 0.34055,-1.053683 z" /></g></g></g></svg>
