<?xml version="1.0" encoding="UTF-8" standalone="no"?>
<svg
   viewBox="0 0 500 500"
   version="1.1"
   id="svg255"
   sodipodi:docname="login.svg"
   inkscape:version="1.3.2 (091e20ef0f, 2023-11-25, custom)"
   xmlns:inkscape="http://www.inkscape.org/namespaces/inkscape"
   xmlns:sodipodi="http://sodipodi.sourceforge.net/DTD/sodipodi-0.dtd"
   xmlns="http://www.w3.org/2000/svg"
   xmlns:svg="http://www.w3.org/2000/svg">
  <defs
     id="defs255" />
  <sodipodi:namedview
     id="namedview255"
     pagecolor="#ffffff"
     bordercolor="#000000"
     borderopacity="0.25"
     inkscape:showpageshadow="2"
     inkscape:pageopacity="0.0"
     inkscape:pagecheckerboard="0"
     inkscape:deskcolor="#d1d1d1"
     inkscape:zoom="0.46000001"
     inkscape:cx="190.21739"
     inkscape:cy="360.86956"
     inkscape:window-width="1360"
     inkscape:window-height="700"
     inkscape:window-x="0"
     inkscape:window-y="0"
     inkscape:window-maximized="1"
     inkscape:current-layer="svg255" />
  <circle
     style="opacity:0.96;fill:#aaccff;fill-rule:evenodd;stroke:#ffffff;stroke-width:3.93899;stroke-miterlimit:2.9;stroke-dasharray:none"
     id="path255"
     cx="250"
     cy="246"
     r="240.04305" />
  <g
     id="g255"
     transform="matrix(0.83381609,0,0,0.83381609,45.29549,-4.0560386)">
    <g
       id="freepik--background-simple--inject-2">
      <path
         d="m 471.54,277.61 c 0,0 3.11,-120.91 -68.13,-177.61 -62.89,-50.08 -151,-59.2 -212,0.58 -21.71,21.29 -34.09,57.81 -61,72.85 C 100.18,190.3 59.55,201.18 37.84,255.95 16.13,310.72 37.21,373 82.53,400.64 127.85,428.28 192,383.69 254.35,371 316.7,358.31 462.19,427.73 471.54,277.61 Z"
         style="fill:#3eb6f7"
         id="path1" />
      <path
         d="m 471.54,277.61 c 0,0 3.11,-120.91 -68.13,-177.61 -62.89,-50.08 -151,-59.2 -212,0.58 -21.71,21.29 -34.09,57.81 -61,72.85 C 100.18,190.3 59.55,201.18 37.84,255.95 16.13,310.72 37.21,373 82.53,400.64 127.85,428.28 192,383.69 254.35,371 316.7,358.31 462.19,427.73 471.54,277.61 Z"
         style="opacity:0.7;fill:#ffffff"
         id="path2" />
    </g>
    <g
       id="freepik--Clouds--inject-2">
      <path
         d="m 384.43,68.92 c 0,0 0,-26.39 -30.41,-27 -25.88,-0.48 -27,20.09 -29.83,29.84 -2.83,9.75 -7.46,0 -18.36,2.29 -10.9,2.29 -10.9,13.2 -12.63,20.09 -1.73,6.89 -9.2,-1.14 -17.2,1.17 -8,2.31 -12.05,10.9 -13.77,14.35 -1.72,3.45 -13.56,-1.77 -20.53,0.77 -6.97,2.54 -14.48,13.57 -14.48,13.57 H 430.9 c 0,0 8,-18.93 -5.73,-31.56 -13.73,-12.63 -22.95,-4.59 -31.56,-8.6 -8.61,-4.01 -9.18,-14.92 -9.18,-14.92 z"
         style="opacity:0.3;fill:none;stroke:#000000;stroke-miterlimit:10"
         id="path3" />
      <path
         d="m 108.2,169.32 c 0,0 0,-16.12 -18.56,-16.47 -15.8,-0.29 -16.46,12.26 -18.22,18.22 -1.76,5.96 -4.55,0 -11.21,1.4 -6.66,1.4 -6.65,8.06 -7.7,12.26 -1.05,4.2 -5.61,-0.7 -10.51,0.7 -4.9,1.4 -7.36,6.66 -8.41,8.76 -1.05,2.1 -8.28,-1.08 -12.53,0.47 -4.25,1.55 -8.84,8.34 -8.84,8.34 h 124.36 c 0,0 4.9,-11.56 -3.5,-19.27 -8.4,-7.71 -14,-2.8 -19.27,-5.25 -5.27,-2.45 -5.61,-9.16 -5.61,-9.16 z"
         style="opacity:0.3;fill:none;stroke:#000000;stroke-miterlimit:10"
         id="path4" />
    </g>
    <g
       id="freepik--Buildings--inject-2">
      <g
         style="opacity:0.3"
         id="g173">
        <rect
           x="84.360001"
           y="298.09"
           width="10"
           height="8.8299999"
           style="fill:none;stroke:#000000;stroke-miterlimit:10"
           id="rect4" />
        <rect
           x="73.540001"
           y="303.44"
           width="4.0599999"
           height="3.48"
           style="fill:none;stroke:#000000;stroke-miterlimit:10"
           id="rect5" />
        <polyline
           points="484.51 353.84 446.6 353.84 446.6 283.78 449.13 283.78 449.13 276.53 360.29 276.53 360.29 283.78 363.37 283.78 363.37 387.97 340.07 387.97 340.07 164.44 260.17 164.44 260.17 333.49 230.95 333.49 230.95 314.77 238.6 314.77 238.6 306.86 174.72 306.86 174.72 193.46 178.85 193.46 178.85 187.52 101.31 187.52 101.31 193.46 106.87 193.46 106.87 307.05 45.58 307.05 45.58 388.3 13.4 388.3"
           style="fill:none;stroke:#000000;stroke-miterlimit:10"
           id="polyline5" />
        <rect
           x="256.60999"
           y="162"
           width="86.639999"
           height="2.4300001"
           style="fill:none;stroke:#000000;stroke-miterlimit:10"
           id="rect6" />
        <rect
           x="113.81"
           y="200.05"
           width="9.7600002"
           height="9.1499996"
           style="fill:none;stroke:#000000;stroke-miterlimit:10"
           id="rect7" />
        <rect
           x="128.12"
           y="200.05"
           width="9.7600002"
           height="9.1499996"
           style="fill:none;stroke:#000000;stroke-miterlimit:10"
           id="rect8" />
        <rect
           x="142.42999"
           y="200.05"
           width="9.7600002"
           height="9.1499996"
           style="fill:none;stroke:#000000;stroke-miterlimit:10"
           id="rect9" />
        <rect
           x="156.75"
           y="200.05"
           width="9.7600002"
           height="9.1499996"
           style="fill:none;stroke:#000000;stroke-miterlimit:10"
           id="rect10" />
        <rect
           x="113.81"
           y="214.55"
           width="9.7600002"
           height="9.1499996"
           style="fill:none;stroke:#000000;stroke-miterlimit:10"
           id="rect11" />
        <rect
           x="128.12"
           y="214.55"
           width="9.7600002"
           height="9.1499996"
           style="fill:none;stroke:#000000;stroke-miterlimit:10"
           id="rect12" />
        <rect
           x="142.42999"
           y="214.55"
           width="9.7600002"
           height="9.1499996"
           style="fill:none;stroke:#000000;stroke-miterlimit:10"
           id="rect13" />
        <rect
           x="156.75"
           y="214.55"
           width="9.7600002"
           height="9.1499996"
           style="fill:none;stroke:#000000;stroke-miterlimit:10"
           id="rect14" />
        <rect
           x="113.81"
           y="229.06"
           width="9.7600002"
           height="9.1499996"
           style="fill:none;stroke:#000000;stroke-miterlimit:10"
           id="rect15" />
        <rect
           x="128.12"
           y="229.06"
           width="9.7600002"
           height="9.1499996"
           style="fill:none;stroke:#000000;stroke-miterlimit:10"
           id="rect16" />
        <rect
           x="142.42999"
           y="229.06"
           width="9.7600002"
           height="9.1499996"
           style="fill:none;stroke:#000000;stroke-miterlimit:10"
           id="rect17" />
        <rect
           x="156.75"
           y="229.06"
           width="9.7600002"
           height="9.1499996"
           style="fill:none;stroke:#000000;stroke-miterlimit:10"
           id="rect18" />
        <rect
           x="113.81"
           y="243.56"
           width="9.7600002"
           height="9.1499996"
           style="fill:none;stroke:#000000;stroke-miterlimit:10"
           id="rect19" />
        <rect
           x="128.12"
           y="243.56"
           width="9.7600002"
           height="9.1499996"
           style="fill:none;stroke:#000000;stroke-miterlimit:10"
           id="rect20" />
        <rect
           x="142.42999"
           y="243.56"
           width="9.7600002"
           height="9.1499996"
           style="fill:none;stroke:#000000;stroke-miterlimit:10"
           id="rect21" />
        <rect
           x="156.75"
           y="243.56"
           width="9.7600002"
           height="9.1499996"
           style="fill:none;stroke:#000000;stroke-miterlimit:10"
           id="rect22" />
        <rect
           x="113.81"
           y="258.07001"
           width="9.7600002"
           height="9.1499996"
           style="fill:none;stroke:#000000;stroke-miterlimit:10"
           id="rect23" />
        <rect
           x="128.12"
           y="258.07001"
           width="9.7600002"
           height="9.1499996"
           style="fill:none;stroke:#000000;stroke-miterlimit:10"
           id="rect24" />
        <rect
           x="142.42999"
           y="258.07001"
           width="9.7600002"
           height="9.1499996"
           style="fill:none;stroke:#000000;stroke-miterlimit:10"
           id="rect25" />
        <rect
           x="156.75"
           y="258.07001"
           width="9.7600002"
           height="9.1499996"
           style="fill:none;stroke:#000000;stroke-miterlimit:10"
           id="rect26" />
        <rect
           x="113.81"
           y="272.57999"
           width="9.7600002"
           height="9.1499996"
           style="fill:none;stroke:#000000;stroke-miterlimit:10"
           id="rect27" />
        <rect
           x="128.12"
           y="272.57999"
           width="9.7600002"
           height="9.1499996"
           style="fill:none;stroke:#000000;stroke-miterlimit:10"
           id="rect28" />
        <rect
           x="142.42999"
           y="272.57999"
           width="9.7600002"
           height="9.1499996"
           style="fill:none;stroke:#000000;stroke-miterlimit:10"
           id="rect29" />
        <rect
           x="156.75"
           y="272.57999"
           width="9.7600002"
           height="9.1499996"
           style="fill:none;stroke:#000000;stroke-miterlimit:10"
           id="rect30" />
        <rect
           x="113.81"
           y="287.07999"
           width="9.7600002"
           height="9.1499996"
           style="fill:none;stroke:#000000;stroke-miterlimit:10"
           id="rect31" />
        <rect
           x="128.12"
           y="287.07999"
           width="9.7600002"
           height="9.1499996"
           style="fill:none;stroke:#000000;stroke-miterlimit:10"
           id="rect32" />
        <rect
           x="142.42999"
           y="287.07999"
           width="9.7600002"
           height="9.1499996"
           style="fill:none;stroke:#000000;stroke-miterlimit:10"
           id="rect33" />
        <rect
           x="156.75"
           y="287.07999"
           width="9.7600002"
           height="9.1499996"
           style="fill:none;stroke:#000000;stroke-miterlimit:10"
           id="rect34" />
        <rect
           x="113.81"
           y="301.59"
           width="9.7600002"
           height="9.1499996"
           style="fill:none;stroke:#000000;stroke-miterlimit:10"
           id="rect35" />
        <rect
           x="128.12"
           y="301.59"
           width="9.7600002"
           height="9.1499996"
           style="fill:none;stroke:#000000;stroke-miterlimit:10"
           id="rect36" />
        <rect
           x="142.42999"
           y="301.59"
           width="9.7600002"
           height="9.1499996"
           style="fill:none;stroke:#000000;stroke-miterlimit:10"
           id="rect37" />
        <rect
           x="156.75"
           y="301.59"
           width="9.7600002"
           height="9.1499996"
           style="fill:none;stroke:#000000;stroke-miterlimit:10"
           id="rect38" />
        <rect
           x="113.81"
           y="314.85001"
           width="9.7600002"
           height="9.1499996"
           style="fill:none;stroke:#000000;stroke-miterlimit:10"
           id="rect39" />
        <rect
           x="128.12"
           y="314.85001"
           width="9.7600002"
           height="9.1499996"
           style="fill:none;stroke:#000000;stroke-miterlimit:10"
           id="rect40" />
        <rect
           x="142.42999"
           y="314.85001"
           width="9.7600002"
           height="9.1499996"
           style="fill:none;stroke:#000000;stroke-miterlimit:10"
           id="rect41" />
        <rect
           x="156.75"
           y="314.85001"
           width="9.7600002"
           height="9.1499996"
           style="fill:none;stroke:#000000;stroke-miterlimit:10"
           id="rect42" />
        <rect
           x="113.81"
           y="329.35999"
           width="9.7600002"
           height="9.1499996"
           style="fill:none;stroke:#000000;stroke-miterlimit:10"
           id="rect43" />
        <rect
           x="128.12"
           y="329.35999"
           width="9.7600002"
           height="9.1499996"
           style="fill:none;stroke:#000000;stroke-miterlimit:10"
           id="rect44" />
        <rect
           x="142.42999"
           y="329.35999"
           width="9.7600002"
           height="9.1499996"
           style="fill:none;stroke:#000000;stroke-miterlimit:10"
           id="rect45" />
        <rect
           x="156.75"
           y="329.35999"
           width="9.7600002"
           height="9.1499996"
           style="fill:none;stroke:#000000;stroke-miterlimit:10"
           id="rect46" />
        <rect
           x="113.81"
           y="343.85999"
           width="9.7600002"
           height="9.1499996"
           style="fill:none;stroke:#000000;stroke-miterlimit:10"
           id="rect47" />
        <rect
           x="128.12"
           y="343.85999"
           width="9.7600002"
           height="9.1499996"
           style="fill:none;stroke:#000000;stroke-miterlimit:10"
           id="rect48" />
        <rect
           x="142.42999"
           y="343.85999"
           width="9.7600002"
           height="9.1499996"
           style="fill:none;stroke:#000000;stroke-miterlimit:10"
           id="rect49" />
        <rect
           x="156.75"
           y="343.85999"
           width="9.7600002"
           height="9.1499996"
           style="fill:none;stroke:#000000;stroke-miterlimit:10"
           id="rect50" />
        <rect
           x="113.81"
           y="358.37"
           width="9.7600002"
           height="9.1499996"
           style="fill:none;stroke:#000000;stroke-miterlimit:10"
           id="rect51" />
        <rect
           x="128.12"
           y="358.37"
           width="9.7600002"
           height="9.1499996"
           style="fill:none;stroke:#000000;stroke-miterlimit:10"
           id="rect52" />
        <rect
           x="142.42999"
           y="358.37"
           width="9.7600002"
           height="9.1499996"
           style="fill:none;stroke:#000000;stroke-miterlimit:10"
           id="rect53" />
        <rect
           x="156.75"
           y="358.37"
           width="9.7600002"
           height="9.1499996"
           style="fill:none;stroke:#000000;stroke-miterlimit:10"
           id="rect54" />
        <rect
           x="113.81"
           y="372.88"
           width="9.7600002"
           height="9.1499996"
           style="fill:none;stroke:#000000;stroke-miterlimit:10"
           id="rect55" />
        <rect
           x="128.12"
           y="372.88"
           width="9.7600002"
           height="9.1499996"
           style="fill:none;stroke:#000000;stroke-miterlimit:10"
           id="rect56" />
        <rect
           x="142.42999"
           y="372.88"
           width="9.7600002"
           height="9.1499996"
           style="fill:none;stroke:#000000;stroke-miterlimit:10"
           id="rect57" />
        <rect
           x="156.75"
           y="372.88"
           width="9.7600002"
           height="9.1499996"
           style="fill:none;stroke:#000000;stroke-miterlimit:10"
           id="rect58" />
        <rect
           x="113.81"
           y="387.38"
           width="9.7600002"
           height="9.1499996"
           style="fill:none;stroke:#000000;stroke-miterlimit:10"
           id="rect59" />
        <rect
           x="128.12"
           y="387.38"
           width="9.7600002"
           height="9.1499996"
           style="fill:none;stroke:#000000;stroke-miterlimit:10"
           id="rect60" />
        <rect
           x="142.42999"
           y="387.38"
           width="9.7600002"
           height="9.1499996"
           style="fill:none;stroke:#000000;stroke-miterlimit:10"
           id="rect61" />
        <rect
           x="156.75"
           y="387.38"
           width="9.7600002"
           height="9.1499996"
           style="fill:none;stroke:#000000;stroke-miterlimit:10"
           id="rect62" />
        <rect
           x="113.81"
           y="401.89001"
           width="9.7600002"
           height="9.1499996"
           style="fill:none;stroke:#000000;stroke-miterlimit:10"
           id="rect63" />
        <rect
           x="128.12"
           y="401.89001"
           width="9.7600002"
           height="9.1499996"
           style="fill:none;stroke:#000000;stroke-miterlimit:10"
           id="rect64" />
        <rect
           x="142.42999"
           y="401.89001"
           width="9.7600002"
           height="9.1499996"
           style="fill:none;stroke:#000000;stroke-miterlimit:10"
           id="rect65" />
        <rect
           x="156.75"
           y="401.89001"
           width="9.7600002"
           height="9.1499996"
           style="fill:none;stroke:#000000;stroke-miterlimit:10"
           id="rect66" />
        <rect
           x="113.81"
           y="416.39001"
           width="9.7600002"
           height="9.1499996"
           style="fill:none;stroke:#000000;stroke-miterlimit:10"
           id="rect67" />
        <rect
           x="128.12"
           y="416.39001"
           width="9.7600002"
           height="9.1499996"
           style="fill:none;stroke:#000000;stroke-miterlimit:10"
           id="rect68" />
        <rect
           x="142.42999"
           y="416.39001"
           width="9.7600002"
           height="9.1499996"
           style="fill:none;stroke:#000000;stroke-miterlimit:10"
           id="rect69" />
        <rect
           x="156.75"
           y="416.39001"
           width="9.7600002"
           height="9.1499996"
           style="fill:none;stroke:#000000;stroke-miterlimit:10"
           id="rect70" />
        <rect
           x="169.71001"
           y="314.85001"
           width="9.7600002"
           height="9.1499996"
           style="fill:none;stroke:#000000;stroke-miterlimit:10"
           id="rect71" />
        <rect
           x="184.03"
           y="314.85001"
           width="9.7600002"
           height="9.1499996"
           style="fill:none;stroke:#000000;stroke-miterlimit:10"
           id="rect72" />
        <rect
           x="198.34"
           y="314.85001"
           width="9.7600002"
           height="9.1499996"
           style="fill:none;stroke:#000000;stroke-miterlimit:10"
           id="rect73" />
        <rect
           x="212.64999"
           y="314.85001"
           width="9.7600002"
           height="9.1499996"
           style="fill:none;stroke:#000000;stroke-miterlimit:10"
           id="rect74" />
        <rect
           x="169.71001"
           y="329.35999"
           width="9.7600002"
           height="9.1499996"
           style="fill:none;stroke:#000000;stroke-miterlimit:10"
           id="rect75" />
        <rect
           x="184.03"
           y="329.35999"
           width="9.7600002"
           height="9.1499996"
           style="fill:none;stroke:#000000;stroke-miterlimit:10"
           id="rect76" />
        <rect
           x="198.34"
           y="329.35999"
           width="9.7600002"
           height="9.1499996"
           style="fill:none;stroke:#000000;stroke-miterlimit:10"
           id="rect77" />
        <rect
           x="212.64999"
           y="329.35999"
           width="9.7600002"
           height="9.1499996"
           style="fill:none;stroke:#000000;stroke-miterlimit:10"
           id="rect78" />
        <rect
           x="169.71001"
           y="343.85999"
           width="9.7600002"
           height="9.1499996"
           style="fill:none;stroke:#000000;stroke-miterlimit:10"
           id="rect79" />
        <rect
           x="184.03"
           y="343.85999"
           width="9.7600002"
           height="9.1499996"
           style="fill:none;stroke:#000000;stroke-miterlimit:10"
           id="rect80" />
        <rect
           x="198.34"
           y="343.85999"
           width="9.7600002"
           height="9.1499996"
           style="fill:none;stroke:#000000;stroke-miterlimit:10"
           id="rect81" />
        <rect
           x="212.64999"
           y="343.85999"
           width="9.7600002"
           height="9.1499996"
           style="fill:none;stroke:#000000;stroke-miterlimit:10"
           id="rect82" />
        <rect
           x="169.71001"
           y="358.37"
           width="9.7600002"
           height="9.1499996"
           style="fill:none;stroke:#000000;stroke-miterlimit:10"
           id="rect83" />
        <rect
           x="184.03"
           y="358.37"
           width="9.7600002"
           height="9.1499996"
           style="fill:none;stroke:#000000;stroke-miterlimit:10"
           id="rect84" />
        <rect
           x="198.34"
           y="358.37"
           width="9.7600002"
           height="9.1499996"
           style="fill:none;stroke:#000000;stroke-miterlimit:10"
           id="rect85" />
        <rect
           x="212.64999"
           y="358.37"
           width="9.7600002"
           height="9.1499996"
           style="fill:none;stroke:#000000;stroke-miterlimit:10"
           id="rect86" />
        <rect
           x="169.71001"
           y="372.88"
           width="9.7600002"
           height="9.1499996"
           style="fill:none;stroke:#000000;stroke-miterlimit:10"
           id="rect87" />
        <rect
           x="184.03"
           y="372.88"
           width="9.7600002"
           height="9.1499996"
           style="fill:none;stroke:#000000;stroke-miterlimit:10"
           id="rect88" />
        <rect
           x="198.34"
           y="372.88"
           width="9.7600002"
           height="9.1499996"
           style="fill:none;stroke:#000000;stroke-miterlimit:10"
           id="rect89" />
        <rect
           x="212.64999"
           y="372.88"
           width="9.7600002"
           height="9.1499996"
           style="fill:none;stroke:#000000;stroke-miterlimit:10"
           id="rect90" />
        <rect
           x="169.71001"
           y="387.38"
           width="9.7600002"
           height="9.1499996"
           style="fill:none;stroke:#000000;stroke-miterlimit:10"
           id="rect91" />
        <rect
           x="184.03"
           y="387.38"
           width="9.7600002"
           height="9.1499996"
           style="fill:none;stroke:#000000;stroke-miterlimit:10"
           id="rect92" />
        <rect
           x="198.34"
           y="387.38"
           width="9.7600002"
           height="9.1499996"
           style="fill:none;stroke:#000000;stroke-miterlimit:10"
           id="rect93" />
        <rect
           x="212.64999"
           y="387.38"
           width="9.7600002"
           height="9.1499996"
           style="fill:none;stroke:#000000;stroke-miterlimit:10"
           id="rect94" />
        <rect
           x="169.71001"
           y="401.89001"
           width="9.7600002"
           height="9.1499996"
           style="fill:none;stroke:#000000;stroke-miterlimit:10"
           id="rect95" />
        <rect
           x="184.03"
           y="401.89001"
           width="9.7600002"
           height="9.1499996"
           style="fill:none;stroke:#000000;stroke-miterlimit:10"
           id="rect96" />
        <rect
           x="198.34"
           y="401.89001"
           width="9.7600002"
           height="9.1499996"
           style="fill:none;stroke:#000000;stroke-miterlimit:10"
           id="rect97" />
        <rect
           x="212.64999"
           y="401.89001"
           width="9.7600002"
           height="9.1499996"
           style="fill:none;stroke:#000000;stroke-miterlimit:10"
           id="rect98" />
        <rect
           x="169.71001"
           y="416.39001"
           width="9.7600002"
           height="9.1499996"
           style="fill:none;stroke:#000000;stroke-miterlimit:10"
           id="rect99" />
        <rect
           x="184.03"
           y="416.39001"
           width="9.7600002"
           height="9.1499996"
           style="fill:none;stroke:#000000;stroke-miterlimit:10"
           id="rect100" />
        <rect
           x="198.34"
           y="416.39001"
           width="9.7600002"
           height="9.1499996"
           style="fill:none;stroke:#000000;stroke-miterlimit:10"
           id="rect101" />
        <rect
           x="212.64999"
           y="416.39001"
           width="9.7600002"
           height="9.1499996"
           style="fill:none;stroke:#000000;stroke-miterlimit:10"
           id="rect102" />
        <rect
           x="57.110001"
           y="314.85001"
           width="9.7600002"
           height="9.1499996"
           style="fill:none;stroke:#000000;stroke-miterlimit:10"
           id="rect103" />
        <rect
           x="71.43"
           y="314.85001"
           width="9.7600002"
           height="9.1499996"
           style="fill:none;stroke:#000000;stroke-miterlimit:10"
           id="rect104" />
        <rect
           x="85.739998"
           y="314.85001"
           width="9.7600002"
           height="9.1499996"
           style="fill:none;stroke:#000000;stroke-miterlimit:10"
           id="rect105" />
        <rect
           x="100.05"
           y="314.85001"
           width="9.7600002"
           height="9.1499996"
           style="fill:none;stroke:#000000;stroke-miterlimit:10"
           id="rect106" />
        <rect
           x="57.110001"
           y="329.35999"
           width="9.7600002"
           height="9.1499996"
           style="fill:none;stroke:#000000;stroke-miterlimit:10"
           id="rect107" />
        <rect
           x="71.43"
           y="329.35999"
           width="9.7600002"
           height="9.1499996"
           style="fill:none;stroke:#000000;stroke-miterlimit:10"
           id="rect108" />
        <rect
           x="85.739998"
           y="329.35999"
           width="9.7600002"
           height="9.1499996"
           style="fill:none;stroke:#000000;stroke-miterlimit:10"
           id="rect109" />
        <rect
           x="100.05"
           y="329.35999"
           width="9.7600002"
           height="9.1499996"
           style="fill:none;stroke:#000000;stroke-miterlimit:10"
           id="rect110" />
        <rect
           x="57.110001"
           y="343.85999"
           width="9.7600002"
           height="9.1499996"
           style="fill:none;stroke:#000000;stroke-miterlimit:10"
           id="rect111" />
        <rect
           x="71.43"
           y="343.85999"
           width="9.7600002"
           height="9.1499996"
           style="fill:none;stroke:#000000;stroke-miterlimit:10"
           id="rect112" />
        <rect
           x="85.739998"
           y="343.85999"
           width="9.7600002"
           height="9.1499996"
           style="fill:none;stroke:#000000;stroke-miterlimit:10"
           id="rect113" />
        <rect
           x="100.05"
           y="343.85999"
           width="9.7600002"
           height="9.1499996"
           style="fill:none;stroke:#000000;stroke-miterlimit:10"
           id="rect114" />
        <rect
           x="57.110001"
           y="358.37"
           width="9.7600002"
           height="9.1499996"
           style="fill:none;stroke:#000000;stroke-miterlimit:10"
           id="rect115" />
        <rect
           x="71.43"
           y="358.37"
           width="9.7600002"
           height="9.1499996"
           style="fill:none;stroke:#000000;stroke-miterlimit:10"
           id="rect116" />
        <rect
           x="85.739998"
           y="358.37"
           width="9.7600002"
           height="9.1499996"
           style="fill:none;stroke:#000000;stroke-miterlimit:10"
           id="rect117" />
        <rect
           x="100.05"
           y="358.37"
           width="9.7600002"
           height="9.1499996"
           style="fill:none;stroke:#000000;stroke-miterlimit:10"
           id="rect118" />
        <rect
           x="57.110001"
           y="372.88"
           width="9.7600002"
           height="9.1499996"
           style="fill:none;stroke:#000000;stroke-miterlimit:10"
           id="rect119" />
        <rect
           x="71.43"
           y="372.88"
           width="9.7600002"
           height="9.1499996"
           style="fill:none;stroke:#000000;stroke-miterlimit:10"
           id="rect120" />
        <rect
           x="85.739998"
           y="372.88"
           width="9.7600002"
           height="9.1499996"
           style="fill:none;stroke:#000000;stroke-miterlimit:10"
           id="rect121" />
        <rect
           x="100.05"
           y="372.88"
           width="9.7600002"
           height="9.1499996"
           style="fill:none;stroke:#000000;stroke-miterlimit:10"
           id="rect122" />
        <rect
           x="57.110001"
           y="387.38"
           width="9.7600002"
           height="9.1499996"
           style="fill:none;stroke:#000000;stroke-miterlimit:10"
           id="rect123" />
        <rect
           x="71.43"
           y="387.38"
           width="9.7600002"
           height="9.1499996"
           style="fill:none;stroke:#000000;stroke-miterlimit:10"
           id="rect124" />
        <rect
           x="85.739998"
           y="387.38"
           width="9.7600002"
           height="9.1499996"
           style="fill:none;stroke:#000000;stroke-miterlimit:10"
           id="rect125" />
        <rect
           x="100.05"
           y="387.38"
           width="9.7600002"
           height="9.1499996"
           style="fill:none;stroke:#000000;stroke-miterlimit:10"
           id="rect126" />
        <rect
           x="57.110001"
           y="401.89001"
           width="9.7600002"
           height="9.1499996"
           style="fill:none;stroke:#000000;stroke-miterlimit:10"
           id="rect127" />
        <rect
           x="71.43"
           y="401.89001"
           width="9.7600002"
           height="9.1499996"
           style="fill:none;stroke:#000000;stroke-miterlimit:10"
           id="rect128" />
        <rect
           x="85.739998"
           y="401.89001"
           width="9.7600002"
           height="9.1499996"
           style="fill:none;stroke:#000000;stroke-miterlimit:10"
           id="rect129" />
        <rect
           x="100.05"
           y="401.89001"
           width="9.7600002"
           height="9.1499996"
           style="fill:none;stroke:#000000;stroke-miterlimit:10"
           id="rect130" />
        <rect
           x="57.110001"
           y="416.39001"
           width="9.7600002"
           height="9.1499996"
           style="fill:none;stroke:#000000;stroke-miterlimit:10"
           id="rect131" />
        <rect
           x="71.43"
           y="416.39001"
           width="9.7600002"
           height="9.1499996"
           style="fill:none;stroke:#000000;stroke-miterlimit:10"
           id="rect132" />
        <rect
           x="85.739998"
           y="416.39001"
           width="9.7600002"
           height="9.1499996"
           style="fill:none;stroke:#000000;stroke-miterlimit:10"
           id="rect133" />
        <rect
           x="100.05"
           y="416.39001"
           width="9.7600002"
           height="9.1499996"
           style="fill:none;stroke:#000000;stroke-miterlimit:10"
           id="rect134" />
        <rect
           x="376.85999"
           y="286.42001"
           width="9.7600002"
           height="9.1499996"
           style="fill:none;stroke:#000000;stroke-miterlimit:10"
           id="rect135" />
        <rect
           x="391.17001"
           y="286.42001"
           width="9.7600002"
           height="9.1499996"
           style="fill:none;stroke:#000000;stroke-miterlimit:10"
           id="rect136" />
        <rect
           x="405.48001"
           y="286.42001"
           width="9.7600002"
           height="9.1499996"
           style="fill:none;stroke:#000000;stroke-miterlimit:10"
           id="rect137" />
        <rect
           x="419.79999"
           y="286.42001"
           width="9.7600002"
           height="9.1499996"
           style="fill:none;stroke:#000000;stroke-miterlimit:10"
           id="rect138" />
        <rect
           x="376.85999"
           y="300.92999"
           width="9.7600002"
           height="9.1499996"
           style="fill:none;stroke:#000000;stroke-miterlimit:10"
           id="rect139" />
        <rect
           x="391.17001"
           y="300.92999"
           width="9.7600002"
           height="9.1499996"
           style="fill:none;stroke:#000000;stroke-miterlimit:10"
           id="rect140" />
        <rect
           x="405.48001"
           y="300.92999"
           width="9.7600002"
           height="9.1499996"
           style="fill:none;stroke:#000000;stroke-miterlimit:10"
           id="rect141" />
        <rect
           x="419.79999"
           y="300.92999"
           width="9.7600002"
           height="9.1499996"
           style="fill:none;stroke:#000000;stroke-miterlimit:10"
           id="rect142" />
        <rect
           x="376.85999"
           y="315.42999"
           width="9.7600002"
           height="9.1499996"
           style="fill:none;stroke:#000000;stroke-miterlimit:10"
           id="rect143" />
        <rect
           x="391.17001"
           y="315.42999"
           width="9.7600002"
           height="9.1499996"
           style="fill:none;stroke:#000000;stroke-miterlimit:10"
           id="rect144" />
        <rect
           x="405.48001"
           y="315.42999"
           width="9.7600002"
           height="9.1499996"
           style="fill:none;stroke:#000000;stroke-miterlimit:10"
           id="rect145" />
        <rect
           x="419.79999"
           y="315.42999"
           width="9.7600002"
           height="9.1499996"
           style="fill:none;stroke:#000000;stroke-miterlimit:10"
           id="rect146" />
        <rect
           x="376.85999"
           y="329.94"
           width="9.7600002"
           height="9.1499996"
           style="fill:none;stroke:#000000;stroke-miterlimit:10"
           id="rect147" />
        <rect
           x="391.17001"
           y="329.94"
           width="9.7600002"
           height="9.1499996"
           style="fill:none;stroke:#000000;stroke-miterlimit:10"
           id="rect148" />
        <rect
           x="405.48001"
           y="329.94"
           width="9.7600002"
           height="9.1499996"
           style="fill:none;stroke:#000000;stroke-miterlimit:10"
           id="rect149" />
        <rect
           x="419.79999"
           y="329.94"
           width="9.7600002"
           height="9.1499996"
           style="fill:none;stroke:#000000;stroke-miterlimit:10"
           id="rect150" />
        <rect
           x="376.85999"
           y="344.44"
           width="9.7600002"
           height="9.1499996"
           style="fill:none;stroke:#000000;stroke-miterlimit:10"
           id="rect151" />
        <rect
           x="391.17001"
           y="344.44"
           width="9.7600002"
           height="9.1499996"
           style="fill:none;stroke:#000000;stroke-miterlimit:10"
           id="rect152" />
        <rect
           x="405.48001"
           y="344.44"
           width="9.7600002"
           height="9.1499996"
           style="fill:none;stroke:#000000;stroke-miterlimit:10"
           id="rect153" />
        <rect
           x="419.79999"
           y="344.44"
           width="9.7600002"
           height="9.1499996"
           style="fill:none;stroke:#000000;stroke-miterlimit:10"
           id="rect154" />
        <rect
           x="376.85999"
           y="358.95001"
           width="9.7600002"
           height="9.1499996"
           style="fill:none;stroke:#000000;stroke-miterlimit:10"
           id="rect155" />
        <rect
           x="391.17001"
           y="358.95001"
           width="9.7600002"
           height="9.1499996"
           style="fill:none;stroke:#000000;stroke-miterlimit:10"
           id="rect156" />
        <rect
           x="405.48001"
           y="358.95001"
           width="9.7600002"
           height="9.1499996"
           style="fill:none;stroke:#000000;stroke-miterlimit:10"
           id="rect157" />
        <rect
           x="419.79999"
           y="358.95001"
           width="9.7600002"
           height="9.1499996"
           style="fill:none;stroke:#000000;stroke-miterlimit:10"
           id="rect158" />
        <rect
           x="376.85999"
           y="373.45001"
           width="9.7600002"
           height="9.1499996"
           style="fill:none;stroke:#000000;stroke-miterlimit:10"
           id="rect159" />
        <rect
           x="391.17001"
           y="373.45001"
           width="9.7600002"
           height="9.1499996"
           style="fill:none;stroke:#000000;stroke-miterlimit:10"
           id="rect160" />
        <rect
           x="405.48001"
           y="373.45001"
           width="9.7600002"
           height="9.1499996"
           style="fill:none;stroke:#000000;stroke-miterlimit:10"
           id="rect161" />
        <rect
           x="419.79999"
           y="373.45001"
           width="9.7600002"
           height="9.1499996"
           style="fill:none;stroke:#000000;stroke-miterlimit:10"
           id="rect162" />
        <rect
           x="376.85999"
           y="387.95999"
           width="9.7600002"
           height="9.1499996"
           style="fill:none;stroke:#000000;stroke-miterlimit:10"
           id="rect163" />
        <rect
           x="391.17001"
           y="387.95999"
           width="9.7600002"
           height="9.1499996"
           style="fill:none;stroke:#000000;stroke-miterlimit:10"
           id="rect164" />
        <rect
           x="405.48001"
           y="387.95999"
           width="9.7600002"
           height="9.1499996"
           style="fill:none;stroke:#000000;stroke-miterlimit:10"
           id="rect165" />
        <rect
           x="419.79999"
           y="387.95999"
           width="9.7600002"
           height="9.1499996"
           style="fill:none;stroke:#000000;stroke-miterlimit:10"
           id="rect166" />
        <line
           x1="267.69"
           y1="169.72"
           x2="267.69"
           y2="434.76999"
           style="fill:none;stroke:#000000;stroke-miterlimit:10"
           id="line166" />
        <line
           x1="277.37"
           y1="169.72"
           x2="277.37"
           y2="434.76999"
           style="fill:none;stroke:#000000;stroke-miterlimit:10"
           id="line167" />
        <line
           x1="287.04999"
           y1="169.72"
           x2="287.04999"
           y2="434.76999"
           style="fill:none;stroke:#000000;stroke-miterlimit:10"
           id="line168" />
        <line
           x1="296.73001"
           y1="169.72"
           x2="296.73001"
           y2="434.76999"
           style="fill:none;stroke:#000000;stroke-miterlimit:10"
           id="line169" />
        <line
           x1="306.41"
           y1="169.72"
           x2="306.41"
           y2="434.76999"
           style="fill:none;stroke:#000000;stroke-miterlimit:10"
           id="line170" />
        <line
           x1="316.09"
           y1="169.72"
           x2="316.09"
           y2="434.76999"
           style="fill:none;stroke:#000000;stroke-miterlimit:10"
           id="line171" />
        <line
           x1="325.76999"
           y1="169.72"
           x2="325.76999"
           y2="434.76999"
           style="fill:none;stroke:#000000;stroke-miterlimit:10"
           id="line172" />
        <line
           x1="335.45001"
           y1="169.72"
           x2="335.45001"
           y2="434.76999"
           style="fill:none;stroke:#000000;stroke-miterlimit:10"
           id="line173" />
      </g>
    </g>
    <g
       id="freepik--Plants--inject-2">
      <path
         d="m 19.18,385.1 a 24.81,24.81 0 0 0 8.83,0 c 0,1.79 0,3.68 0.21,5.64 a 48.8,48.8 0 0 0 1.43,8.48 v 0.1 c -0.49,-0.78 -1.94,-2.9 -2.07,-3.05 -1.83,-2.11 -6.62,-5.13 -9.5,-3.9 a 3.7,3.7 0 0 0 -1.64,5.27 c 1.06,1.93 3.61,2.89 5.68,3.19 2.33,0.34 7.24,-1.08 7.63,-1.19 a 65.73,65.73 0 0 0 3,8.23 c 0.67,1.57 1.4,3.12 2.15,4.67 -0.45,-0.66 -0.85,-1.24 -0.92,-1.32 -1.83,-2.11 -6.61,-5.12 -9.49,-3.9 a 3.71,3.71 0 0 0 -1.65,5.27 c 1.07,1.94 3.62,2.9 5.69,3.2 2.07,0.3 6.31,-0.83 7.42,-1.14 l 0.87,1.77 c 1.43,2.83 2.86,5.65 4.17,8.46 0.47,1 0.89,2 1.32,3 -0.4,-0.58 -0.74,-1.07 -0.8,-1.14 -1.83,-2.12 -6.61,-5.13 -9.5,-3.9 a 3.7,3.7 0 0 0 -1.64,5.26 c 1.07,1.94 3.62,2.9 5.68,3.2 2.06,0.3 5.9,-0.71 7.22,-1.08 0.41,1 0.81,2.06 1.16,3.07 0.22,0.7 0.48,1.35 0.66,2.07 0.18,0.72 0.39,1.39 0.59,2.08 0.32,1.34 0.66,2.72 0.94,4 0.2,0.91 0.38,1.79 0.56,2.67 -0.46,-1 -1.38,-2.91 -1.48,-3.06 -1.49,-2.37 -5.75,-6.07 -8.79,-5.3 a 3.7,3.7 0 0 0 -2.42,5 c 0.76,2.07 3.13,3.41 5.13,4 2.2,0.67 7.07,0.06 7.68,0 0.29,1.45 0.56,2.87 0.8,4.21 0.18,1 0.34,2 0.49,3 h 1.95 c -0.19,-1.05 -0.39,-2.15 -0.62,-3.29 -0.29,-1.48 -0.63,-3.05 -1,-4.67 a 39.14,39.14 0 0 0 4.28,-2 c 1.6,1.74 5.71,3.77 6.25,4 -0.56,1.37 -1.12,2.7 -1.67,3.95 -0.29,0.69 -0.58,1.34 -0.87,2 H 59 c 0.17,-0.42 0.35,-0.83 0.52,-1.26 0.58,-1.4 1.16,-2.9 1.75,-4.45 0.59,0.13 5.41,1.11 7.66,0.6 2,-0.46 4.51,-1.61 5.42,-3.63 a 3.71,3.71 0 0 0 -2,-5.12 c -3,-1 -7.5,2.37 -9.16,4.62 -0.1,0.13 -1,1.69 -1.56,2.69 0.24,-0.64 0.48,-1.25 0.71,-1.9 0.48,-1.29 0.91,-2.6 1.38,-4 0.21,-0.68 0.42,-1.37 0.62,-2.07 0.2,-0.7 0.37,-1.45 0.56,-2.17 0.41,-1.7 0.73,-3.44 1,-5.2 1.14,0.42 5.18,1.82 7.27,1.68 2.09,-0.14 4.7,-0.92 5.91,-2.77 a 3.71,3.71 0 0 0 -1.25,-5.38 C 75,422.06 70,424.71 68,426.68 c -0.12,0.12 -1.38,1.7 -2.06,2.58 0.16,-1.06 0.34,-2.12 0.47,-3.19 0.38,-3.11 0.68,-6.27 1,-9.41 l 0.3,-2.89 c 0.41,0.15 5.17,1.93 7.52,1.76 2.08,-0.14 4.7,-0.91 5.91,-2.76 a 3.71,3.71 0 0 0 -1.25,-5.38 c -2.78,-1.43 -7.78,1.21 -9.76,3.19 -0.15,0.15 -2,2.42 -2.4,3 0.23,-2.12 0.47,-4.23 0.79,-6.3 A 65.49,65.49 0 0 1 70.34,399 c 0.18,0.07 5.15,2 7.56,1.78 2.08,-0.15 4.7,-0.92 5.9,-2.77 a 3.71,3.71 0 0 0 -1.24,-5.37 c -2.79,-1.44 -7.78,1.21 -9.76,3.18 -0.13,0.13 -1.52,1.86 -2.16,2.7 l -0.16,-0.09 a 47.17,47.17 0 0 1 3.29,-7.85 c 0.71,-1.4 1.47,-2.69 2.24,-3.93 0.89,0.44 5,2.43 7.16,2.51 2.16,0.08 4.77,-0.39 6.17,-2.1 a 3.71,3.71 0 0 0 -0.65,-5.48 c -2.61,-1.73 -7.86,0.35 -10,2.1 -0.08,0.06 -0.63,0.61 -1.22,1.2 0,-0.13 0,-0.28 0,-0.45 0,-0.17 0.17,-0.28 0.26,-0.41 1.31,-2 2.63,-3.7 3.81,-5.22 0.68,-0.86 1.31,-1.62 1.91,-2.33 1.1,0 5.54,-0.15 7.48,-1.06 1.94,-0.91 4,-2.55 4.51,-4.71 a 3.71,3.71 0 0 0 -3.1,-4.57 c -3.12,-0.33 -6.82,3.94 -8,6.49 -0.1,0.22 -1.24,3.86 -1.18,3.86 h 0.07 c -0.59,0.67 -1.22,1.4 -1.88,2.2 -1.22,1.49 -2.57,3.19 -3.92,5.12 0,-3 -0.56,-9.27 -4.54,-9.65 -5.25,-0.5 -6.75,5.5 -3.5,8.75 a 9.63,9.63 0 0 0 6.89,2.58 c -1,1.5 -2,3.11 -3,4.87 a 48.92,48.92 0 0 0 -3.49,7.85 v 0.1 c 0,-0.92 0,-3.48 0,-3.68 -0.36,-2.78 -2.68,-7.93 -5.77,-8.5 a 3.7,3.7 0 0 0 -4.27,3.49 c -0.18,2.21 1.42,4.41 3,5.81 1.76,1.57 6.64,3.09 7,3.21 a 65.27,65.27 0 0 0 -2.06,8.51 c -0.3,1.67 -0.55,3.37 -0.78,5.08 0,-0.8 0,-1.51 0,-1.61 -0.36,-2.77 -2.68,-7.92 -5.77,-8.49 a 3.7,3.7 0 0 0 -4.27,3.49 c -0.18,2.2 1.42,4.41 3,5.8 1.58,1.39 5.72,2.79 6.82,3.14 -0.08,0.66 -0.17,1.31 -0.25,2 -0.37,3.14 -0.74,6.28 -1.18,9.35 -0.16,1.08 -0.36,2.14 -0.55,3.2 0,-0.7 0,-1.3 0,-1.39 -0.36,-2.77 -2.68,-7.92 -5.76,-8.49 a 3.71,3.71 0 0 0 -4.28,3.49 c -0.18,2.2 1.42,4.41 3,5.8 1.58,1.39 5.31,2.65 6.61,3.08 -0.23,1.08 -0.45,2.16 -0.72,3.2 -0.2,0.7 -0.35,1.39 -0.59,2.09 l -0.66,2.06 c -0.47,1.29 -1,2.63 -1.44,3.88 -0.34,0.87 -0.67,1.7 -1,2.53 0.17,-1.08 0.46,-3.19 0.46,-3.37 a 14.22,14.22 0 0 0 -1.93,-7 3.86,3.86 0 0 0 -4.58,-4 c -3,0.81 -5,6.12 -5.09,8.92 0,0.16 0.1,2 0.18,3.1 -0.15,-0.66 -0.29,-1.3 -0.46,-2 -0.31,-1.34 -0.67,-2.67 -1.05,-4.1 -0.2,-0.68 -0.41,-1.37 -0.62,-2.07 -0.21,-0.7 -0.49,-1.4 -0.74,-2.12 -0.59,-1.63 -1.28,-3.26 -2,-4.89 1.17,-0.28 5.32,-1.34 7,-2.62 1.68,-1.28 3.41,-3.35 3.4,-5.56 a 3.71,3.71 0 0 0 -4,-3.8 c -3.11,0.34 -5.82,5.3 -6.38,8 0,0.17 -0.22,2.19 -0.3,3.29 -0.45,-1 -0.89,-1.95 -1.37,-2.92 -1.39,-2.8 -2.89,-5.6 -4.37,-8.39 -0.45,-0.86 -0.89,-1.72 -1.34,-2.57 0.42,-0.1 5.38,-1.25 7.24,-2.68 1.66,-1.27 3.42,-3.35 3.4,-5.57 a 3.7,3.7 0 0 0 -4,-3.79 c -3.12,0.34 -5.82,5.3 -6.39,8 0,0.21 -0.3,3.1 -0.33,3.84 -1,-1.89 -1.94,-3.78 -2.81,-5.68 a 64.2,64.2 0 0 1 -3.06,-7.9 c 0.19,0 5.37,-1.22 7.28,-2.69 1.66,-1.27 3.42,-3.35 3.4,-5.56 a 3.71,3.71 0 0 0 -4,-3.8 c -3.12,0.34 -5.82,5.3 -6.39,8 0,0.18 -0.23,2.39 -0.31,3.44 h -0.17 a 48.09,48.09 0 0 1 -1.6,-8.37 c -0.17,-1.56 -0.25,-3.05 -0.3,-4.51 1,-0.12 5.49,-0.72 7.36,-1.85 1.87,-1.13 3.76,-3 4,-5.16 a 3.7,3.7 0 0 0 -3.56,-4.21 c -3.14,0 -6.37,4.63 -7.23,7.29 0,0.14 -0.36,1.67 -0.57,2.78 0,-0.66 0,-1.34 0,-2 0,-2.37 0.15,-4.54 0.3,-6.46 0.09,-1.09 0.2,-2.07 0.31,-3 0.9,-0.63 4.53,-3.18 5.64,-5 1.11,-1.82 2,-4.36 1.17,-6.42 a 3.72,3.72 0 0 0 -5.11,-2.1 c -2.78,1.44 -3.51,7 -3.05,9.8 0,0.24 1.09,3.9 1.14,3.87 h 0.05 c -0.12,0.89 -0.24,1.83 -0.35,2.87 -0.19,1.92 -0.39,4.1 -0.45,6.48 0,0.43 0,0.88 0,1.33 -1.2,-1.84 -5,-7 -9,-5.9 -5.24,1.49 -4.1,5.86 -0.11,6.8 z"
         style="fill:#263238"
         id="path173" />
      <path
         d="m 89.84,409.24 a 16.09,16.09 0 0 0 5.64,0 34.34,34.34 0 0 0 0.14,3.6 30.54,30.54 0 0 0 0.9,5.41 0.25,0.25 0 0 1 0,0.07 c -0.31,-0.5 -1.24,-1.85 -1.32,-1.95 -1.17,-1.35 -4.22,-3.27 -6.06,-2.49 a 2.37,2.37 0 0 0 -1,3.37 5,5 0 0 0 3.63,2 16.43,16.43 0 0 0 4.87,-0.77 40,40 0 0 0 1.9,5.26 c 0.43,1 0.9,2 1.38,3 l -0.59,-0.84 c -1.17,-1.35 -4.22,-3.27 -6.06,-2.49 a 2.36,2.36 0 0 0 -1,3.36 4.93,4.93 0 0 0 3.63,2 15.54,15.54 0 0 0 4.73,-0.72 c 0.19,0.37 0.37,0.75 0.56,1.13 0.91,1.81 1.82,3.6 2.66,5.4 0.3,0.63 0.57,1.26 0.84,1.89 -0.25,-0.37 -0.47,-0.68 -0.51,-0.72 -1.17,-1.35 -4.22,-3.28 -6.06,-2.5 a 2.38,2.38 0 0 0 -1.12,3.41 5,5 0 0 0 3.63,2 15.11,15.11 0 0 0 4.61,-0.69 c 0.26,0.65 0.52,1.31 0.74,2 0.14,0.44 0.31,0.86 0.42,1.32 0.11,0.46 0.25,0.89 0.37,1.33 0.21,0.85 0.43,1.73 0.6,2.57 0.13,0.58 0.25,1.14 0.36,1.7 -0.29,-0.63 -0.88,-1.85 -0.94,-1.95 -1,-1.51 -3.68,-3.88 -5.61,-3.38 a 2.36,2.36 0 0 0 -1.55,3.16 4.92,4.92 0 0 0 3.28,2.57 16.3,16.3 0 0 0 4.9,0 c 0.19,0.92 0.36,1.83 0.51,2.69 0.11,0.65 0.22,1.27 0.31,1.88 h 1.25 c -0.12,-0.67 -0.25,-1.37 -0.4,-2.1 -0.18,-0.94 -0.4,-1.95 -0.63,-3 a 24.77,24.77 0 0 0 2.73,-1.29 17.22,17.22 0 0 0 4,2.57 c -0.36,0.88 -0.71,1.73 -1.06,2.53 l -0.56,1.27 h 1.32 l 0.33,-0.81 c 0.37,-0.89 0.74,-1.85 1.12,-2.83 a 16.66,16.66 0 0 0 4.89,0.38 5,5 0 0 0 3.46,-2.32 2.36,2.36 0 0 0 -1.31,-3.27 c -1.9,-0.64 -4.79,1.51 -5.85,2.95 -0.06,0.09 -0.64,1.08 -1,1.72 0.15,-0.41 0.3,-0.8 0.45,-1.22 0.3,-0.82 0.58,-1.65 0.88,-2.55 0.13,-0.44 0.26,-0.88 0.4,-1.32 0.14,-0.44 0.23,-0.92 0.35,-1.39 0.26,-1.08 0.47,-2.19 0.65,-3.31 a 15.57,15.57 0 0 0 4.65,1.06 4.94,4.94 0 0 0 3.77,-1.76 2.37,2.37 0 0 0 -0.8,-3.43 c -1.78,-0.92 -5,0.77 -6.23,2 -0.08,0.08 -0.89,1.08 -1.32,1.65 0.11,-0.68 0.22,-1.35 0.3,-2 0.25,-2 0.44,-4 0.63,-6 0.06,-0.62 0.13,-1.23 0.19,-1.84 0.26,0.1 3.3,1.23 4.8,1.12 a 4.94,4.94 0 0 0 3.77,-1.76 2.36,2.36 0 0 0 -0.79,-3.43 c -1.78,-0.92 -5,0.77 -6.23,2 -0.1,0.09 -1.26,1.54 -1.54,1.93 0.15,-1.35 0.3,-2.7 0.51,-4 a 41.84,41.84 0 0 1 1.15,-5.28 c 0.12,0 3.29,1.24 4.83,1.13 a 4.94,4.94 0 0 0 3.77,-1.76 2.38,2.38 0 0 0 -0.8,-3.44 c -1.78,-0.91 -5,0.78 -6.23,2 -0.08,0.08 -1,1.18 -1.37,1.72 l -0.11,-0.05 a 30.36,30.36 0 0 1 2.1,-5 c 0.46,-0.89 0.94,-1.72 1.43,-2.51 a 15.9,15.9 0 0 0 4.57,1.61 5,5 0 0 0 3.94,-1.34 2.37,2.37 0 0 0 -0.41,-3.5 c -1.67,-1.11 -5,0.22 -6.42,1.34 l -0.78,0.76 c 0,-0.08 0,-0.18 0,-0.29 l 0.16,-0.25 c 0.84,-1.26 1.68,-2.37 2.44,-3.34 0.43,-0.55 0.84,-1 1.22,-1.48 a 16.13,16.13 0 0 0 4.77,-0.68 5,5 0 0 0 2.88,-3 2.36,2.36 0 0 0 -2,-2.91 c -2,-0.22 -4.35,2.51 -5.08,4.14 -0.06,0.14 -0.79,2.46 -0.75,2.46 v 0 c -0.38,0.42 -0.78,0.89 -1.2,1.4 -0.77,1 -1.64,2 -2.5,3.27 0,-1.92 -0.36,-5.92 -2.9,-6.16 -3.35,-0.32 -4.31,3.51 -2.23,5.59 a 6.14,6.14 0 0 0 4.4,1.64 c -0.65,1 -1.29,2 -1.9,3.11 a 31,31 0 0 0 -2.22,5 c 0,0 0,0.05 0,0.07 0,-0.59 0,-2.23 0,-2.35 -0.23,-1.78 -1.72,-5.06 -3.68,-5.43 a 2.37,2.37 0 0 0 -2.73,2.23 4.9,4.9 0 0 0 1.9,3.7 16,16 0 0 0 4.48,2.05 44.09,44.09 0 0 0 -1.32,5.44 c -0.19,1.07 -0.35,2.15 -0.49,3.24 0,-0.51 0,-1 0,-1 -0.23,-1.78 -1.71,-5.06 -3.68,-5.43 a 2.37,2.37 0 0 0 -2.73,2.23 5,5 0 0 0 1.9,3.7 15.39,15.39 0 0 0 4.35,2 c 0,0.42 -0.11,0.84 -0.16,1.25 -0.24,2 -0.47,4 -0.75,6 -0.1,0.69 -0.23,1.36 -0.35,2 0,-0.45 0,-0.83 0,-0.89 -0.22,-1.77 -1.71,-5.06 -3.68,-5.42 a 2.38,2.38 0 0 0 -2.73,2.23 5,5 0 0 0 1.9,3.7 15.29,15.29 0 0 0 4.23,2 c -0.15,0.69 -0.29,1.38 -0.47,2 -0.12,0.45 -0.22,0.89 -0.37,1.33 -0.15,0.44 -0.28,0.88 -0.42,1.32 -0.3,0.82 -0.61,1.68 -0.92,2.48 l -0.64,1.61 c 0.1,-0.68 0.29,-2 0.29,-2.15 a 9.17,9.17 0 0 0 -1.23,-4.47 3,3 0 0 0 0,-0.52 2.36,2.36 0 0 0 -2.89,-2 c -1.93,0.51 -3.16,3.91 -3.25,5.69 0,0.11 0.06,1.25 0.12,2 -0.1,-0.42 -0.19,-0.83 -0.29,-1.26 -0.21,-0.86 -0.43,-1.7 -0.68,-2.62 -0.13,-0.43 -0.26,-0.87 -0.4,-1.32 -0.14,-0.45 -0.31,-0.9 -0.46,-1.35 -0.39,-1.05 -0.82,-2.09 -1.29,-3.13 a 15.4,15.4 0 0 0 4.46,-1.67 4.94,4.94 0 0 0 2.17,-3.55 2.36,2.36 0 0 0 -2.55,-2.42 c -2,0.21 -3.72,3.38 -4.08,5.13 0,0.11 -0.14,1.39 -0.19,2.1 -0.29,-0.62 -0.57,-1.24 -0.87,-1.86 -0.89,-1.79 -1.85,-3.58 -2.79,-5.36 l -0.86,-1.64 c 0.27,-0.07 3.43,-0.8 4.62,-1.71 a 5,5 0 0 0 2.17,-3.56 2.36,2.36 0 0 0 -2.55,-2.42 c -2,0.22 -3.72,3.38 -4.08,5.13 0,0.14 -0.19,2 -0.21,2.46 -0.63,-1.21 -1.24,-2.42 -1.8,-3.63 a 41.79,41.79 0 0 1 -2,-5 c 0.12,0 3.43,-0.78 4.65,-1.72 a 4.94,4.94 0 0 0 2.17,-3.55 2.37,2.37 0 0 0 -2.56,-2.43 c -2,0.22 -3.71,3.39 -4.07,5.14 0,0.11 -0.15,1.52 -0.2,2.19 H 97 a 30,30 0 0 1 -1,-5.34 c -0.11,-1 -0.16,-2 -0.19,-2.88 a 16.06,16.06 0 0 0 4.7,-1.18 4.93,4.93 0 0 0 2.54,-3.29 2.36,2.36 0 0 0 -2.27,-2.69 c -2,0 -4.06,2.95 -4.62,4.65 0,0.09 -0.23,1.07 -0.36,1.78 0,-0.42 0,-0.86 0,-1.26 0,-1.51 0.1,-2.9 0.19,-4.12 0.06,-0.7 0.13,-1.33 0.2,-1.91 a 16,16 0 0 0 3.6,-3.2 5,5 0 0 0 0.75,-4.1 2.37,2.37 0 0 0 -3.26,-1.34 c -1.78,0.92 -2.25,4.5 -2,6.26 0,0.15 0.69,2.49 0.72,2.47 v 0 c -0.08,0.57 -0.16,1.17 -0.23,1.84 -0.12,1.22 -0.25,2.61 -0.28,4.13 0,0.28 0,0.56 0,0.85 -0.76,-1.17 -3.16,-4.47 -5.76,-3.77 -3.16,0.8 -2.43,3.58 0.11,4.19 z"
         style="fill:#263238"
         id="path174" />
      <path
         d="m 76.86,385.48 -0.23,0.23 c 0.05,-0.07 0.09,-0.15 0.14,-0.23 z"
         style="fill:#263238"
         id="path175" />
    </g>
    <g
       id="freepik--Device--inject-2">
      <rect
         x="87.669998"
         y="72.610001"
         width="175.72"
         height="341.95999"
         rx="23.986105"
         style="fill:#3eb6f7;stroke:#263238;stroke-miterlimit:10"
         id="rect175"
         ry="23.986105" />
      <path
         d="M 263.39,104.1 V 93.7 A 21.08,21.08 0 0 0 242.31,72.61 H 108.76 A 21.09,21.09 0 0 0 87.67,93.7 v 10.4 z"
         style="fill:#ffffff;stroke:#263238;stroke-miterlimit:10"
         id="path176" />
      <path
         d="m 88.6,399.67 a 21.08,21.08 0 0 0 20.16,14.9 h 133.55 a 21.09,21.09 0 0 0 20.16,-14.9 z"
         style="fill:#ffffff;stroke:#263238;stroke-miterlimit:10"
         id="path177" />
      <rect
         x="226.39999"
         y="84.660004"
         width="16.67"
         height="9.1400003"
         style="fill:none;stroke:#263238;stroke-width:0.821067px;stroke-linecap:round;stroke-linejoin:round"
         id="rect177" />
      <rect
         x="226.39999"
         y="84.660004"
         width="13"
         height="9.1400003"
         style="fill:#263238;stroke:#263238;stroke-width:0.725073px;stroke-linecap:round;stroke-linejoin:round"
         id="rect178" />
      <rect
         x="243.03999"
         y="87.220001"
         width="2.3499999"
         height="4.0300002"
         style="fill:#263238;stroke:#263238;stroke-width:0.725073px;stroke-linecap:round;stroke-linejoin:round"
         id="rect179" />
      <rect
         x="103.22"
         y="87.5"
         width="3.0599999"
         height="5.2399998"
         style="fill:#263238;stroke:#263238;stroke-width:0.883086px;stroke-linecap:round;stroke-linejoin:round"
         id="rect180" />
      <rect
         x="108.02"
         y="85.660004"
         width="3.0599999"
         height="7.0799999"
         style="fill:#263238;stroke:#263238;stroke-width:0.883086px;stroke-linecap:round;stroke-linejoin:round"
         id="rect181" />
      <rect
         x="112.82"
         y="83.480003"
         width="3.0599999"
         height="9.25"
         style="fill:#263238;stroke:#263238;stroke-width:0.883086px;stroke-linecap:round;stroke-linejoin:round"
         id="rect182" />
      <path
         d="M 246.46,69.8 H 102.19 A 17.55,17.55 0 0 0 84.64,87.35 v 315.16 a 17.54,17.54 0 0 0 17.55,17.54 H 246.46 A 17.54,17.54 0 0 0 264,402.51 V 87.35 A 17.54,17.54 0 0 0 246.46,69.8 Z m 9.74,324.34 a 17.54,17.54 0 0 1 -17.54,17.54 H 110 A 17.54,17.54 0 0 1 92.46,394.14 V 95.72 A 17.54,17.54 0 0 1 110,78.17 h 23.94 l 1.49,6.92 a 9,9 0 0 0 8.84,7.13 h 64.03 a 9,9 0 0 0 8.83,-7.13 l 1.49,-6.92 h 20 a 17.54,17.54 0 0 1 17.58,17.55 z"
         style="fill:#263238;stroke:#263238;stroke-width:1.6935px;stroke-miterlimit:10"
         id="path182" />
      <rect
         x="109.81"
         y="125.19"
         width="127.93"
         height="258.67001"
         rx="9.9902134"
         style="fill:#ffffff;stroke:#263238;stroke-miterlimit:10"
         id="rect183"
         ry="9.9902134" />
      <path
         d="m 157.07,140.42 c 2.1,0 3.18,1.25 3.18,3.45 v 0.43 h -2 v -0.57 c 0,-1 -0.39,-1.35 -1.08,-1.35 -0.69,0 -1.07,0.37 -1.07,1.35 0,2.82 4.21,3.35 4.21,7.27 0,2.19 -1.1,3.45 -3.21,3.45 -2.11,0 -3.22,-1.26 -3.22,-3.45 v -0.84 h 2 v 1 c 0,1 0.43,1.33 1.12,1.33 0.69,0 1.11,-0.35 1.11,-1.33 0,-2.82 -4.21,-3.35 -4.21,-7.27 0,-2.22 1.1,-3.47 3.17,-3.47 z"
         style="fill:#263238"
         id="path183" />
      <path
         d="m 161.51,140.57 h 2.15 v 13.72 h -2.15 z"
         style="fill:#263238"
         id="path184" />
      <path
         d="m 168.46,146.65 h 3 V 151 c 0,2.19 -1.1,3.45 -3.21,3.45 -2.11,0 -3.22,-1.26 -3.22,-3.45 v -7.13 c 0,-2.2 1.1,-3.45 3.22,-3.45 2.12,0 3.21,1.25 3.21,3.45 v 1.33 h -2 v -1.47 c 0,-1 -0.43,-1.35 -1.11,-1.35 -0.68,0 -1.12,0.37 -1.12,1.35 v 7.41 c 0,1 0.43,1.33 1.12,1.33 0.69,0 1.11,-0.35 1.11,-1.33 v -2.53 h -1 z"
         style="fill:#263238"
         id="path185" />
      <path
         d="m 174.79,144.36 v 9.93 h -1.94 v -13.72 h 2.71 l 2.21,8.22 v -8.22 h 1.92 v 13.72 h -2.21 z"
         style="fill:#263238"
         id="path186" />
      <path
         d="m 184.28,140.57 h 2.16 v 13.72 h -2.16 z"
         style="fill:#263238"
         id="path187" />
      <path
         d="m 189.93,144.36 v 9.93 H 188 v -13.72 h 2.7 l 2.22,8.22 v -8.22 h 1.92 v 13.72 h -2.22 z"
         style="fill:#263238"
         id="path188" />
      <path
         d="m 121.11,192.81 v 1 h -2.53 v 3.68 h 3.1 v 1 h -4.25 v -10.25 h 4.25 v 1 h -3.1 v 3.53 z"
         style="fill:#263238"
         id="path189" />
      <path
         d="m 126.56,198.56 h -1.11 l -1.72,-8.23 v 8.24 h -1 v -10.33 h 1.61 l 1.7,8.25 1.64,-8.25 h 1.61 v 10.33 h -1.1 v -8.31 z"
         style="fill:#263238"
         id="path190" />
      <path
         d="m 131.63,196.49 -0.4,2.08 h -1.06 l 2,-10.33 h 1.67 l 2,10.33 h -1.16 l -0.39,-2.08 z m 0.15,-1 h 2.3 l -1.16,-6 z"
         style="fill:#263238"
         id="path191" />
      <path
         d="m 137.85,188.24 v 10.33 h -1.16 v -10.33 z"
         style="fill:#263238"
         id="path192" />
      <path
         d="m 139,198.57 v -10.33 h 1.15 v 9.29 h 2.95 v 1 z"
         style="fill:#263238"
         id="path193" />
      <path
         d="m 147.45,196.49 -0.39,2.08 H 146 l 2,-10.33 h 1.67 l 2,10.33 h -1.15 l -0.4,-2.08 z m 0.15,-1 h 2.31 l -1.17,-6 z"
         style="fill:#263238"
         id="path194" />
      <path
         d="m 154.94,188.24 c 1.61,0 2.35,1 2.35,2.57 V 196 c 0,1.58 -0.74,2.55 -2.35,2.55 h -2.42 v -10.31 z m 0,9.29 c 0.83,0 1.23,-0.52 1.23,-1.47 v -5.31 c 0,-0.95 -0.4,-1.47 -1.24,-1.47 h -1.24 v 8.25 z"
         style="fill:#263238"
         id="path195" />
      <path
         d="m 160.78,188.24 c 1.61,0 2.35,1 2.35,2.57 V 196 c 0,1.58 -0.74,2.55 -2.35,2.55 h -2.42 v -10.31 z m 0,9.29 c 0.83,0 1.23,-0.52 1.23,-1.47 v -5.31 c 0,-0.95 -0.4,-1.47 -1.25,-1.47 h -1.24 v 8.25 z"
         style="fill:#263238"
         id="path196" />
      <path
         d="m 166.51,188.24 c 1.63,0 2.31,0.82 2.31,2.36 v 0.84 c 0,1.14 -0.4,1.85 -1.29,2.13 0.95,0.28 1.3,1.05 1.3,2.15 v 1.61 a 2.48,2.48 0 0 0 0.21,1.24 h -1.17 a 2.72,2.72 0 0 1 -0.19,-1.25 v -1.63 c 0,-1.16 -0.55,-1.53 -1.51,-1.53 h -0.81 v 4.41 h -1.15 v -10.33 z m -0.29,4.87 c 0.91,0 1.46,-0.3 1.46,-1.42 v -1 c 0,-0.93 -0.34,-1.42 -1.2,-1.42 h -1.12 v 3.83 z"
         style="fill:#263238"
         id="path197" />
      <path
         d="m 173.7,192.81 v 1 h -2.52 v 3.68 h 3.1 v 1 H 170 v -10.25 h 4.26 v 1 h -3.1 v 3.53 z"
         style="fill:#263238"
         id="path198" />
      <path
         d="M 179.81,190.72 V 191 h -1.09 v -0.34 c 0,-0.93 -0.36,-1.48 -1.18,-1.48 -0.82,0 -1.18,0.55 -1.18,1.46 0,2.32 3.47,2.54 3.47,5.45 0,1.57 -0.76,2.59 -2.34,2.59 -1.58,0 -2.32,-1 -2.32,-2.59 v -0.59 h 1.08 v 0.65 c 0,0.93 0.39,1.48 1.21,1.48 0.82,0 1.21,-0.55 1.21,-1.48 0,-2.3 -3.45,-2.52 -3.45,-5.43 0,-1.6 0.74,-2.59 2.29,-2.59 1.55,0 2.3,1.02 2.3,2.59 z"
         style="fill:#263238"
         id="path199" />
      <path
         d="M 185.3,190.72 V 191 h -1.09 v -0.34 c 0,-0.93 -0.35,-1.48 -1.18,-1.48 -0.83,0 -1.18,0.55 -1.18,1.46 0,2.32 3.47,2.54 3.47,5.45 0,1.57 -0.76,2.59 -2.34,2.59 -1.58,0 -2.31,-1 -2.31,-2.59 v -0.59 h 1.07 v 0.65 c 0,0.93 0.39,1.48 1.21,1.48 0.82,0 1.22,-0.55 1.22,-1.48 0,-2.3 -3.46,-2.52 -3.46,-5.43 0,-1.6 0.74,-2.59 2.29,-2.59 1.55,0 2.3,1.02 2.3,2.59 z"
         style="fill:#263238"
         id="path200" />
      <path
         d="m 119.69,239.9 c 1.62,0 2.32,1 2.32,2.52 v 1.25 a 2.16,2.16 0 0 1 -2.41,2.49 h -1 v 4.08 h -1.15 V 239.9 Z m -0.09,5.23 c 0.86,0 1.27,-0.4 1.27,-1.39 v -1.37 c 0,-1 -0.34,-1.42 -1.18,-1.42 h -1.11 v 4.18 z"
         style="fill:#263238"
         id="path201" />
      <path
         d="m 123.88,248.15 -0.4,2.09 h -1.06 l 2,-10.34 h 1.67 l 2,10.34 h -1.19 l -0.4,-2.09 z m 0.15,-1 h 2.3 l -1.16,-6 z"
         style="fill:#263238"
         id="path202" />
      <path
         d="m 133.42,242.38 v 0.28 h -1.09 v -0.34 c 0,-0.93 -0.36,-1.48 -1.18,-1.48 -0.82,0 -1.19,0.55 -1.19,1.47 0,2.32 3.47,2.54 3.47,5.45 0,1.56 -0.75,2.58 -2.33,2.58 -1.58,0 -2.32,-1 -2.32,-2.58 v -0.59 h 1.08 v 0.65 c 0,0.93 0.38,1.47 1.21,1.47 0.83,0 1.21,-0.54 1.21,-1.47 0,-2.31 -3.45,-2.53 -3.45,-5.44 0,-1.59 0.73,-2.58 2.29,-2.58 1.56,0 2.3,1.01 2.3,2.58 z"
         style="fill:#263238"
         id="path203" />
      <path
         d="m 138.91,242.38 v 0.28 h -1.09 v -0.34 c 0,-0.93 -0.36,-1.48 -1.18,-1.48 -0.82,0 -1.19,0.55 -1.19,1.47 0,2.32 3.47,2.54 3.47,5.45 0,1.56 -0.75,2.58 -2.33,2.58 -1.58,0 -2.32,-1 -2.32,-2.58 v -0.59 h 1.08 v 0.65 c 0,0.93 0.39,1.47 1.21,1.47 0.82,0 1.21,-0.54 1.21,-1.47 0,-2.31 -3.45,-2.53 -3.45,-5.44 0,-1.59 0.74,-2.58 2.29,-2.58 1.55,0 2.3,1.01 2.3,2.58 z"
         style="fill:#263238"
         id="path204" />
      <path
         d="m 142.67,250.24 h -1.58 l -1.41,-10.34 h 1.12 l 1.21,8.8 1.15,-8.79 h 1.14 l 1.14,8.81 1.16,-8.82 h 1 l -1.41,10.34 h -1.52 l -1,-7 z"
         style="fill:#263238"
         id="path205" />
      <path
         d="m 148.44,242.4 c 0,-1.59 0.79,-2.6 2.37,-2.6 1.58,0 2.37,1 2.37,2.6 v 5.34 c 0,1.57 -0.78,2.6 -2.37,2.6 -1.59,0 -2.37,-1 -2.37,-2.6 z m 1.14,5.4 c 0,0.95 0.4,1.49 1.23,1.49 0.83,0 1.22,-0.54 1.22,-1.49 v -5.46 c 0,-0.93 -0.38,-1.5 -1.22,-1.5 -0.84,0 -1.23,0.57 -1.23,1.5 z"
         style="fill:#263238"
         id="path206" />
      <path
         d="m 156.58,239.9 c 1.62,0 2.3,0.83 2.3,2.36 v 0.84 c 0,1.14 -0.4,1.85 -1.28,2.13 0.94,0.28 1.3,1.05 1.3,2.16 V 249 a 2.64,2.64 0 0 0 0.2,1.24 h -1.16 a 2.61,2.61 0 0 1 -0.2,-1.26 v -1.62 c 0,-1.17 -0.54,-1.54 -1.5,-1.54 h -0.81 v 4.42 h -1.16 V 239.9 Z m -0.3,4.87 c 0.92,0 1.46,-0.29 1.46,-1.41 v -1 c 0,-0.93 -0.34,-1.42 -1.19,-1.42 h -1.12 v 3.82 z"
         style="fill:#263238"
         id="path207" />
      <path
         d="m 162.51,239.9 c 1.61,0 2.35,1 2.35,2.57 v 5.21 c 0,1.58 -0.74,2.56 -2.35,2.56 h -2.42 V 239.9 Z m 0,9.29 c 0.82,0 1.22,-0.52 1.22,-1.46 v -5.32 c 0,-0.95 -0.4,-1.46 -1.24,-1.46 h -1.24 v 8.24 z"
         style="fill:#263238"
         id="path208" />
      <path
         d="m 137.31,290.16 c 1.62,0 2.3,0.82 2.3,2.36 v 0.84 c 0,1.14 -0.4,1.85 -1.28,2.13 0.94,0.28 1.3,1.05 1.3,2.15 v 1.61 a 2.66,2.66 0 0 0 0.2,1.25 h -1.16 a 2.64,2.64 0 0 1 -0.2,-1.26 v -1.62 c 0,-1.17 -0.54,-1.54 -1.5,-1.54 h -0.81 v 4.42 H 135 V 290.16 Z M 137,295 c 0.92,0 1.46,-0.29 1.46,-1.42 v -1 c 0,-0.93 -0.34,-1.41 -1.19,-1.41 h -1.12 V 295 Z"
         style="fill:#263238"
         id="path209" />
      <path
         d="m 144.5,294.74 v 1 H 142 v 3.68 h 3.1 v 1.05 h -4.25 v -10.31 h 4.25 v 1 H 142 v 3.53 z"
         style="fill:#263238"
         id="path210" />
      <path
         d="m 149.94,300.48 h -1.1 l -1.72,-8.23 v 8.25 h -1 v -10.34 h 1.61 l 1.7,8.25 1.64,-8.25 h 1.61 v 10.34 h -1.1 v -8.32 z"
         style="fill:#263238"
         id="path211" />
      <path
         d="m 157.53,294.74 v 1 H 155 v 3.68 h 3.11 v 1.05 h -4.26 v -10.31 h 4.26 v 1 H 155 v 3.53 z"
         style="fill:#263238"
         id="path212" />
      <path
         d="m 163,300.48 h -1.11 l -1.71,-8.23 v 8.25 h -1 v -10.34 h 1.61 l 1.7,8.25 1.64,-8.25 h 1.61 v 10.34 h -1.09 v -8.32 z"
         style="fill:#263238"
         id="path213" />
      <path
         d="m 169.2,290.16 c 1.61,0 2.25,0.76 2.25,2.29 v 0.48 c 0,1.1 -0.31,1.78 -1.21,2.06 1,0.28 1.39,1.07 1.39,2.21 v 0.87 a 2.14,2.14 0 0 1 -2.37,2.43 h -2.37 v -10.34 z m -0.28,4.38 c 0.92,0 1.39,-0.29 1.39,-1.37 v -0.61 c 0,-0.91 -0.31,-1.35 -1.13,-1.35 H 168 v 3.33 z m 0.34,4.91 c 0.85,0 1.23,-0.45 1.23,-1.41 v -0.91 c 0,-1.15 -0.46,-1.54 -1.45,-1.54 h -1 v 3.86 z"
         style="fill:#263238"
         id="path214" />
      <path
         d="m 176.35,294.74 v 1 h -2.53 v 3.68 h 3.11 v 1.05 h -4.26 v -10.31 h 4.26 v 1 h -3.11 v 3.53 z"
         style="fill:#263238"
         id="path215" />
      <path
         d="m 180.29,290.16 c 1.62,0 2.3,0.82 2.3,2.36 v 0.84 c 0,1.14 -0.4,1.85 -1.28,2.13 0.94,0.28 1.3,1.05 1.3,2.15 v 1.61 a 2.54,2.54 0 0 0 0.21,1.25 h -1.17 a 2.8,2.8 0 0 1 -0.19,-1.26 v -1.62 c 0,-1.17 -0.55,-1.54 -1.51,-1.54 h -0.81 v 4.42 H 178 V 290.16 Z M 180,295 c 0.92,0 1.47,-0.29 1.47,-1.42 v -1 c 0,-0.93 -0.34,-1.41 -1.2,-1.41 h -1.12 V 295 Z"
         style="fill:#263238"
         id="path216" />
      <path
         d="m 187.61,300.48 h -1.11 l -1.71,-8.23 v 8.25 h -1 v -10.34 h 1.61 l 1.7,8.25 1.63,-8.25 h 1.61 v 10.34 h -1.09 v -8.32 z"
         style="fill:#263238"
         id="path217" />
      <path
         d="m 195.2,294.74 v 1 h -2.53 v 3.68 h 3.1 v 1.05 h -4.25 v -10.31 h 4.25 v 1 h -3.1 v 3.53 z"
         style="fill:#263238"
         id="path218" />
      <rect
         x="121.06"
         y="325.51001"
         width="108.25"
         height="22.49"
         rx="3.9936862"
         style="fill:#263238;stroke:#263238;stroke-miterlimit:10"
         id="rect218"
         ry="3.9936862" />
      <text
         transform="translate(157.6,341.97)"
         style="font-size:14.7609px;font-family:BebasNeueRegular, 'Bebas Neue';fill:#ffffff"
         id="text218">submit</text>
      <rect
         x="117.54"
         y="203.91"
         width="111.06"
         height="16.870001"
         style="fill:#ffffff;stroke:#263238;stroke-miterlimit:10"
         id="rect219" />
      <rect
         x="117.54"
         y="256.28"
         width="111.06"
         height="16.870001"
         style="fill:#ffffff;stroke:#263238;stroke-miterlimit:10"
         id="rect220" />
      <rect
         x="118.95"
         y="289.67001"
         width="9.8400002"
         height="9.8400002"
         style="fill:#ffffff;stroke:#263238;stroke-miterlimit:10"
         id="rect221" />
    </g>
    <g
       id="freepik--Character--inject-2">
      <path
         d="m 333.2,427.92 a 42.14,42.14 0 0 1 -13.89,-0.23 c -7.88,-1.39 -16.21,-8.1 -16.21,-8.1 l -6.71,0.46 v -29.16 c 0,0 11.61,-2.09 15.28,-1.89 3.67,0.2 21.53,17.83 21.53,17.83 z"
         style="fill:#ffffff;stroke:#263238;stroke-miterlimit:10"
         id="path221" />
      <polygon
         points="277.87,388.42 306.57,388.42 302.96,431.01 281.48,431.01 "
         style="fill:#3eb6f7;stroke:#263238;stroke-miterlimit:10"
         id="polygon221" />
      <rect
         x="279.19"
         y="381.26001"
         width="26.73"
         height="2.3499999"
         style="fill:#ffffff;stroke:#263238;stroke-miterlimit:10"
         id="rect222" />
      <rect
         x="276.94"
         y="383.17001"
         width="30.559999"
         height="8.3299999"
         style="fill:#ffffff;stroke:#263238;stroke-miterlimit:10"
         id="rect223" />
      <path
         d="m 320.69,421.21 c -10.64,-1.16 -11.8,-12.73 -11.8,-12.73 0,0 -8.1,5.56 -11.58,5.56 -3.48,0 -4.4,-2.55 -5.09,-4.33 -0.69,-1.78 15.51,-12.34 15.51,-12.34 0,0 3,-3 5.56,-3 2.56,0 13.42,14.81 15.51,17.36"
         style="fill:#ffffff;stroke:#263238;stroke-miterlimit:10"
         id="path223" />
      <polygon
         points="449.79,381.48 451.46,452.01 454.87,452.01 454.03,356.87 "
         style="fill:#263238;stroke:#263238;stroke-miterlimit:10"
         id="polygon223" />
      <path
         d="m 448.17,452 0.55,-51.74 c 0,0 8.08,-16.48 8.7,-24.2 0.62,-7.72 4.94,-26.55 0.93,-35.19 -4.01,-8.64 -0.49,-37.9 -0.49,-37.9 l -3.75,-13.34 c -2.47,-6.48 -26.23,-21.6 -35.18,-24.69 a 65.87,65.87 0 0 0 -27.47,-2.78 c -8,0.93 -12.35,5.56 -13.28,7.1 -0.93,1.54 -5.86,16.36 -11.73,24.39 -5.87,8.03 -10.8,13.89 -15.12,20.06 -4.32,6.17 -7.1,18.83 -9.88,26.24 -2.78,7.41 -7.41,40.43 -9.57,58 -1.9,15.5 -0.69,46.79 -0.37,54 z"
         style="fill:#808080;stroke:#263238;stroke-miterlimit:10"
         id="path224" />
      <path
         d="m 363.44,319.92 a 53.48,53.48 0 0 1 10.42,-8.36 c 9.57,-5.56 16.36,-10.5 16.36,-10.5 l -1.85,-10.8 9.88,4.63 c 0,0 2.16,-6.79 8.33,-18.52 6.17,-11.73 6.48,-14.2 6.48,-14.2"
         style="fill:none;stroke:#263238;stroke-miterlimit:10"
         id="path225" />
      <path
         d="m 355.42,329.07 a 90.37,90.37 0 0 1 6.35,-7.44"
         style="fill:none;stroke:#263238;stroke-miterlimit:10"
         id="path226" />
      <polygon
         points="389.12,451.9 401.85,320.39 398.45,316.15 384.03,451.9 "
         style="fill:#263238;stroke:#263238;stroke-miterlimit:10"
         id="polygon226" />
      <path
         d="m 341.69,452 c -0.28,-12.6 -1.17,-64.8 3.16,-84.27 4.94,-22.23 9.26,-47.23 16.66,-57.72 7.4,-10.49 22.54,-23.77 30.56,-31.49 a 56.92,56.92 0 0 0 12,-17.9 L 393,230.69 c 0,0 -9.88,16.67 -13,17.9 0,0 3.09,13.89 0.93,21.92 -2.16,8.03 -16.36,30.86 -20.68,36.42 -4.32,5.56 -17.56,36.07 -20.34,56.48 -2.45,18 -2.74,75.32 -2.77,88.6 z"
         style="fill:#ffffff;stroke:#263238;stroke-miterlimit:10"
         id="path227" />
      <polygon
         points="391.23,241.7 380.95,253.64 396.54,253.31 "
         style="fill:#263238;stroke:#263238;stroke-miterlimit:10"
         id="polygon227" />
      <path
         d="m 341.69,452 c -0.28,-12.6 -1.17,-64.8 3.16,-84.27 4.94,-22.23 9.26,-47.23 16.66,-57.72 7.4,-10.49 22.54,-23.77 30.56,-31.49 a 49.58,49.58 0 0 0 6.86,-8.33 c -8.81,6 -15.81,6.2 -20,5.42 -4.64,10.06 -15.09,26.68 -18.69,31.31 -4.32,5.56 -17.59,36.11 -20.37,56.48 -2.45,18 -2.74,75.32 -2.77,88.6 z"
         style="fill:#3eb6f7;stroke:#263238;stroke-miterlimit:10"
         id="path228" />
      <path
         d="m 380.23,251.42 c 0,0 3,11.47 2.7,16.52 -0.3,5.05 -4.72,19.56 -10.12,27.32 -5.4,7.76 -14.16,19.56 -21.24,22.6 -7.08,3.04 -9.78,3 -9.78,3 a 30,30 0 0 0 16.52,-22.59 c 2.7,-16.87 -6.07,-57.67 -6.41,-60.37 -0.34,-2.7 28.33,13.52 28.33,13.52 z"
         style="fill:#263238;stroke:#263238;stroke-miterlimit:10"
         id="path229" />
      <path
         d="m 341.44,204.71 c 0,0 -0.67,13.35 0.67,15.68 1.34,2.33 5,4 5,8 0,4 -3.34,11.35 -1.67,13.68 1.67,2.33 7.67,2.34 7.67,2.34 0,0 9,10.34 11.35,12.68 2.35,2.34 5.67,6 7.34,5.34 1.67,-0.66 14.35,-13.68 17.35,-18.69 3,-5.01 4.67,-22.69 3.34,-30.36 -1.33,-7.67 -20,-20.36 -30.37,-21 a 65.47,65.47 0 0 0 -19.69,2 z"
         style="fill:#ffffff;stroke:#263238;stroke-miterlimit:10"
         id="path230" />
      <polyline
         points="353.12 219.73 355.24 225.33 363.04 220.51"
         style="fill:none;stroke:#263238;stroke-miterlimit:10"
         id="polyline230" />
      <path
         d="m 349.35,217.53 c 0,0 -2.12,-7.94 9.54,-5.82"
         style="fill:none;stroke:#263238;stroke-miterlimit:10"
         id="path231" />
      <path
         d="m 357.46,245.76 c 0,0 5.67,-1.67 10,-8.68"
         style="fill:none;stroke:#263238;stroke-miterlimit:10"
         id="path232" />
      <path
         d="m 359.06,224 c 0.32,0.61 -0.13,1.48 -1,2 -0.87,0.52 -1.86,0.36 -2.18,-0.24 -0.32,-0.6 0.13,-1.48 1,-2 0.87,-0.52 1.85,-0.33 2.18,0.24 z"
         style="fill:#263238"
         id="path233" />
      <path
         d="m 348.78,174.34 c 0,0 -21.69,14 -20,18.69 1.69,4.69 12.68,11.68 12.68,11.68 l 1,-7.34 c 0,0 11.35,5.67 22,9.68 l 10.68,4 a 69,69 0 0 0 5,5 c 1.34,1 6,1 6,1 0,0 1.67,35.7 8,44.05 6.33,8.35 24.69,16 37,21.35 12.31,5.35 17.78,5.76 21.12,10.43 3.34,4.67 4.74,19.53 4.74,19.53 0,0 20.18,-20.84 -8.4,-70.33 -20.73,-35.9 -18.35,-40 -25.36,-52.05 -7.01,-12.05 -24,-29.7 -40.71,-31 -16.71,-1.3 -33.75,15.31 -33.75,15.31 z"
         style="fill:#263238;stroke:#263238;stroke-miterlimit:10"
         id="path234" />
      <path
         d="m 428.42,259.16 a 65.57,65.57 0 0 0 7.12,3.29"
         style="fill:none;stroke:#787878;stroke-miterlimit:10"
         id="path235" />
      <path
         d="m 376.33,172.22 a 55.45,55.45 0 0 1 19.17,35 c 2.23,17.83 9.74,35.66 25.6,47.36"
         style="fill:none;stroke:#787878;stroke-miterlimit:10"
         id="path236" />
      <path
         d="m 366.91,189.75 a 70.86,70.86 0 0 1 12.24,5"
         style="fill:none;stroke:#787878;stroke-miterlimit:10"
         id="path237" />
      <path
         d="m 337.42,194.21 c 0,0 -5.64,-2.25 0.57,-6.76 3.67,-2.68 13.49,-1.78 23.23,0.68"
         style="fill:none;stroke:#787878;stroke-miterlimit:10"
         id="path238" />
      <path
         d="m 386.16,214.05 c 0,0 -2.67,-22.35 -9,-31"
         style="fill:none;stroke:#787878;stroke-miterlimit:10"
         id="path239" />
      <path
         d="m 271.39,362.8 -23.91,-18.28 a 1.22,1.22 0 0 1 0.58,-2.18 l 12.56,-1.7 a 6.48,6.48 0 0 1 4.91,1.34 l 24.38,19.27 z"
         style="fill:#263238;stroke:#263238;stroke-miterlimit:10"
         id="path240" />
      <path
         d="m 319.85,364 c 0,0 -5.56,-4.94 -7.41,-7.71 a 9.59,9.59 0 0 0 -9.26,-3.71 c -3.4,0.62 -11.11,-1.23 -12.35,0.31 -1.24,1.54 -1.23,5.56 -1.23,5.56 0,0 -19.14,1.23 -20.68,0.92 -1.54,-0.31 -2.78,2.16 -1.55,4.32 1.23,2.16 10.2,4.56 10.2,4.56 v 0 a 11.29,11.29 0 0 0 1.15,5 c 1.32,2.68 3.51,6.84 5.32,8.64 2.78,2.78 8.64,4 14.82,5.25 6.18,1.25 16.05,-0.31 16.05,-0.31 z"
         style="fill:#ffffff;stroke:#263238;stroke-miterlimit:10"
         id="path241" />
      <line
         x1="289.60001"
         y1="358.48001"
         x2="304.10001"
         y2="357.54999"
         style="fill:none;stroke:#263238;stroke-miterlimit:10"
         id="line241" />
      <path
         d="m 277.57,368.28 a 57.84,57.84 0 0 1 10.17,0.34 c 4.07,0.67 7.46,1.35 9.83,0.67"
         style="fill:none;stroke:#263238;stroke-miterlimit:10"
         id="path242" />
      <path
         d="m 278.72,373.29 a 71.44,71.44 0 0 1 8.68,2.11 c 2.71,1 7.12,3.72 11.52,2.37"
         style="fill:none;stroke:#263238;stroke-miterlimit:10"
         id="path243" />
      <path
         d="m 283,380.14 c 0,0 7.46,3.39 13.22,3.05"
         style="fill:none;stroke:#263238;stroke-miterlimit:10"
         id="path244" />
      <path
         d="m 450.72,303.53 c 0,0 1.28,14.47 1.28,25.01 0,10.54 -1.23,31.79 -8.33,46.29 -7.1,14.5 -5.25,24.7 -12.35,39.21 -7.1,14.51 -12,14.81 -32.41,13 -20.41,-1.81 -43.52,-9.57 -44.75,-9.57 -1.23,0 -19.5,-3.47 -28.16,-7.76 a 153.74,153.74 0 0 1 -17,-10.18 27.75,27.75 0 0 1 1.85,-7.41 c 1.55,-3.7 6.49,-30.56 6.49,-30.56 a 101.93,101.93 0 0 0 17.9,8.34 123.07,123.07 0 0 0 16.67,4 c 0,0 5.86,-3.7 7.71,-4.32 1.85,-0.62 5.56,3.7 10.81,4.94 A 127.85,127.85 0 0 0 385,377 c 1.24,0 13.85,-1.5 13,-1.24 -1.13,0.34 -2.18,-2 -1.85,-4 a 52.63,52.63 0 0 1 4,-9.26 c 0.92,-1.24 0.92,-5.87 0.92,-8.95 0,-3.08 -4.32,-35.5 -2.16,-44.45 2.16,-8.95 15.09,-27.48 15.09,-27.48 0,0 0.57,-2.79 7.41,-2.78 6.84,0.01 17.9,7.41 22.53,11.42"
         style="fill:#808080;stroke:#263238;stroke-miterlimit:10"
         id="path245" />
      <path
         d="M 443.23,321.07 A 27.86,27.86 0 0 0 434.7,315 17.78,17.78 0 0 0 422.75,314.34"
         style="fill:none;stroke:#263238;stroke-miterlimit:10"
         id="path246" />
      <path
         d="m 447.3,325.64 c 0,0 -0.92,-1.23 -2.44,-2.88"
         style="fill:none;stroke:#263238;stroke-miterlimit:10"
         id="path247" />
      <path
         d="m 316.89,396.16 a 1.8,1.8 0 1 1 -1.8,-1.8 1.81,1.81 0 0 1 1.8,1.8 z"
         style="fill:none;stroke:#263238;stroke-miterlimit:10"
         id="path248" />
      <path
         d="m 410.79,387.76 a 26.35,26.35 0 0 0 3.81,3.43"
         style="fill:none;stroke:#263238;stroke-miterlimit:10"
         id="path249" />
      <path
         d="m 398.55,374.22 c 0,0 5.49,6.4 10.18,11.38"
         style="fill:none;stroke:#263238;stroke-miterlimit:10"
         id="path250" />
      <path
         d="m 378,391.23 a 48,48 0 0 0 3.23,4.29"
         style="fill:none;stroke:#263238;stroke-miterlimit:10"
         id="path251" />
      <path
         d="m 368.31,375.14 c 0,0 3.95,7.18 7.92,13.36"
         style="fill:none;stroke:#263238;stroke-miterlimit:10"
         id="path252" />
      <path
         d="m 327.58,393.06 c -1.27,6 -2.69,11.34 -4,13.57"
         style="fill:none;stroke:#263238;stroke-miterlimit:10"
         id="path253" />
      <path
         d="m 331.57,370.21 c 0,0 -1.24,8.72 -3,17.76"
         style="fill:none;stroke:#263238;stroke-miterlimit:10"
         id="path254" />
    </g>
    <g
       id="freepik--Line--inject-2">
      <line
         x1="92"
         y1="452.01001"
         x2="22"
         y2="452.01001"
         style="fill:none;stroke:#263238;stroke-miterlimit:10"
         id="line254" />
      <line
         x1="472.39001"
         y1="452.01001"
         x2="102"
         y2="452.01001"
         style="fill:none;stroke:#263238;stroke-miterlimit:10"
         id="line255" />
    </g>
  </g>
</svg>
